<?xml version="1.0" encoding="UTF-8"?>
<svg version="1.1" xmlns="http://www.w3.org/2000/svg" width="400" height="400">
<path d="M0 0 C132 0 264 0 400 0 C400 132 400 264 400 400 C268 400 136 400 0 400 C0 268 0 136 0 0 Z " fill="#9896FF" transform="translate(0,0)"/>
<path d="M0 0 C1.2060791 0.30550781 1.2060791 0.30550781 2.43652344 0.6171875 C28.45004067 7.47789534 50.25017097 21.06941552 70 39 C70.67289062 39.60070312 71.34578125 40.20140625 72.0390625 40.8203125 C95.85143351 63.27842544 110.63724323 96.19847735 116 128 C116.13277344 128.78375 116.26554687 129.5675 116.40234375 130.375 C117.44330152 137.90411924 117 145.36330915 117 153 C104.13 153 91.26 153 78 153 C77.62875 149.2875 77.2575 145.575 76.875 141.75 C74.14779146 118.10802946 66.4138592 94.83112013 50 77 C49.31679688 76.18917969 48.63359375 75.37835938 47.9296875 74.54296875 C28.18482871 51.50730017 0.09457278 38.45484431 -30 36 C-41.36191707 35.3062455 -51.95150107 36.33210696 -63 39 C-64.01247803 39.23348145 -64.01247803 39.23348145 -65.04541016 39.47167969 C-92.1739331 45.89028181 -116.62616647 63.25475598 -131.94140625 86.55078125 C-144.77433179 107.55288504 -149.95904081 128.66548653 -152 153 C-165.2 153 -178.4 153 -192 153 C-191.11612393 110.57394883 -176.46627265 72.76386998 -147 42 C-146.30777344 41.25621094 -145.61554688 40.51242188 -144.90234375 39.74609375 C-108.48960124 1.74731527 -50.48253228 -12.86381475 0 0 Z " fill="#FEFEFF" transform="translate(236,53)"/>
<path d="M0 0 C7.05818401 5.67492182 11.79613354 12.87114907 12.98828125 21.94140625 C13.24434465 31.83185499 11.88961657 38.8722737 5.58203125 46.5625 C-1.48299651 53.85506488 -8.76655778 57.6445911 -18.98046875 58.125 C-28.3893141 57.70083074 -36.02581503 54.41960759 -42.48046875 47.5 C-48.97764588 39.22798424 -51.66552997 30.88076748 -50.48046875 20.375 C-47.2816879 9.58409198 -42.69321588 3.14175647 -32.88671875 -2.3671875 C-22.01332167 -8.0510087 -10.17273573 -6.66434341 0 0 Z " fill="#FDFDFF" transform="translate(176.48046875,152.625)"/>
<path d="M0 0 C7.37788709 3.78985689 12.81521407 9.96603668 16.5703125 17.3203125 C18.9432926 26.04535517 18.67443826 35.93694987 14.828125 44.140625 C10.46857103 51.69538002 4.21675657 57.1418351 -4.2421875 59.6328125 C-13.59539465 61.54013317 -22.62119276 60.91967481 -30.8125 55.84375 C-37.52008694 50.99569211 -41.84216558 45.19636607 -44.4296875 37.3203125 C-45.41572665 26.00007086 -44.78529218 16.99562926 -37.3671875 8.0703125 C-27.13353638 -2.69930725 -13.73333321 -5.59506168 0 0 Z " fill="#FEFEFF" transform="translate(253.4296875,149.6796875)"/>
</svg>
