<?xml version="1.0" encoding="UTF-8"?>
<svg version="1.1" xmlns="http://www.w3.org/2000/svg" width="400" height="400">
<path d="M0 0 C132 0 264 0 400 0 C400 132 400 264 400 400 C268 400 136 400 0 400 C0 268 0 136 0 0 Z " fill="#000000" transform="translate(0,0)"/>
<path d="M0 0 C3.625 0.4375 3.625 0.4375 5.62890625 2.3359375 C8.31279297 6.50620375 9.69861168 10.79177009 11.1875 15.5 C11.49341064 16.4394043 11.79932129 17.37880859 12.11450195 18.34667969 C13.69252057 23.25833151 15.1296003 28.16342602 16.3125 33.1875 C18.32112303 42.5696381 18.32112303 42.5696381 24.5625 49.25 C25.90661499 49.67872633 27.26322622 50.06868627 28.625 50.4375 C29.635625 50.76234375 30.64625 51.0871875 31.6875 51.421875 C36.26370247 52.88371745 40.83011899 54.24519008 45.5 55.375 C49.51037815 56.34747367 53.44366524 57.56349684 57.375 58.8125 C58.02581543 59.009646 58.67663086 59.20679199 59.34716797 59.40991211 C63.34822707 60.71064452 66.05524752 62.06104041 68.625 65.4375 C68.56315666 68.46782378 68.32080954 70.4819869 66.515625 72.9609375 C63.77862767 75.09850979 60.70783395 75.97862477 57.4375 77 C56.80263672 77.20818359 56.16777344 77.41636719 55.51367188 77.63085938 C50.14765142 79.36165869 44.71075523 80.76962932 39.20092773 81.9621582 C28.14784335 83.99197709 28.14784335 83.99197709 19.3203125 90.18359375 C18.05508929 93.26806649 17.27311406 96.17151348 16.625 99.4375 C16.1027217 100.94436036 15.56265339 102.44524535 15 103.9375 C13.90223464 107.34118589 13.03034077 110.77497201 12.1875 114.25 C7.73365357 132.43848279 7.73365357 132.43848279 3.625 135.4375 C-0.0625 135.625 -0.0625 135.625 -3.375 135.4375 C-7.14759849 129.56443728 -8.93466905 123.70784345 -10.75 117 C-12.8360025 109.56386099 -15.00663651 102.22261679 -17.75 95 C-18.00056152 94.3387915 -18.25112305 93.67758301 -18.50927734 92.99633789 C-19.55641333 89.98579212 -19.55641333 89.98579212 -21.375 87.4375 C-23.56455375 87.16989386 -25.76204249 86.9670879 -27.96069336 86.7890625 C-28.65059357 86.73200134 -29.34049377 86.67494019 -30.05130005 86.6161499 C-32.35546007 86.4269176 -34.66010169 86.24449695 -36.96484375 86.0625 C-38.58266633 85.93204676 -40.20046898 85.80134607 -41.81825256 85.67041016 C-45.23382465 85.39507746 -48.6496483 85.12316221 -52.06567383 84.85351562 C-56.36364062 84.51393994 -60.66083758 84.16556592 -64.95788956 83.81462955 C-81.24774261 82.48814699 -97.50522921 81.25874628 -113.84474182 80.73997498 C-121.9669442 80.48009922 -130.03298644 79.9329564 -138.12454224 79.19403076 C-141.90088469 78.84929251 -145.67908597 78.52583551 -149.45703125 78.19921875 C-150.58464119 78.10093781 -150.58464119 78.10093781 -151.73503113 78.00067139 C-160.24403804 77.2643489 -168.76179291 76.66568101 -177.28271484 76.08422852 C-180.31405442 75.87593814 -183.34460229 75.65904015 -186.375 75.4375 C-187.40455811 75.36587646 -188.43411621 75.29425293 -189.49487305 75.22045898 C-190.48140869 75.14384033 -191.46794434 75.06722168 -192.484375 74.98828125 C-193.3619043 74.92294189 -194.23943359 74.85760254 -195.14355469 74.7902832 C-197.375 74.4375 -197.375 74.4375 -200.0625 72.75 C-201.82036702 69.65280573 -202.03209431 67.94200298 -201.375 64.4375 C-197.66175667 60.70329798 -194.90983054 59.88220265 -189.72387695 59.5402832 C-189.07596695 59.49253754 -188.42805695 59.44479187 -187.76051331 59.39559937 C-185.6288983 59.24272632 -183.49657005 59.11546261 -181.36328125 58.98828125 C-179.86969464 58.88591805 -178.37622045 58.78190234 -176.88285828 58.67631531 C-172.95362591 58.40274069 -169.02330748 58.15063476 -165.09234619 57.90332031 C-161.12128968 57.65014669 -157.15151046 57.37847282 -153.18164062 57.10742188 C-148.70395687 56.80197026 -144.22626883 56.49801054 -139.74739075 56.21052551 C-133.29147029 55.79366134 -126.85529174 55.31962763 -120.42137146 54.6388092 C-117.74759683 54.37578001 -115.08373229 54.26147588 -112.3984375 54.19140625 C-111.33222168 54.15990479 -110.26600586 54.12840332 -109.16748047 54.09594727 C-107.47582764 54.04845337 -107.47582764 54.04845337 -105.75 54 C-77.58294344 53.09520808 -49.4319927 51.04992768 -21.375 48.4375 C-17.15792055 39.28260388 -13.71822573 30.18196086 -11.375 20.375 C-6.71182175 0.87005097 -6.71182175 0.87005097 0 0 Z " fill="#FAFAFA" transform="translate(270.375,155.5625)"/>
<path d="M0 0 C2.625 0.3125 2.625 0.3125 4.12890625 1.74609375 C6.32436854 5.51220008 7.16907446 9.47243907 8.1875 13.6875 C8.80302825 16.1648583 9.42274108 18.63982451 10.07080078 21.10888672 C10.54228197 22.9835956 10.92006454 24.88146594 11.27734375 26.78125 C12.47442752 29.70534249 12.47442752 29.70534249 16.1875 30.6328125 C17.66209037 30.92515502 19.14186088 31.1921854 20.625 31.4375 C22.16657946 31.74129475 23.70697016 32.05118583 25.24609375 32.3671875 C25.99487793 32.51897461 26.74366211 32.67076172 27.51513672 32.82714844 C31.74901737 33.80110756 35.6927525 35.49613015 39.625 37.3125 C39.625 39.2925 39.625 41.2725 39.625 43.3125 C32.37731736 46.09324354 25.11235907 48.34728466 17.59375 50.28515625 C14.58810248 51.32526848 13.60470932 51.94010674 11.625 54.3125 C10.68764946 57.0673961 9.86838885 59.75680658 9.125 62.5625 C7.44403704 68.77664049 5.5131711 74.53615781 2.625 80.3125 C0.25390625 80.0703125 0.25390625 80.0703125 -2.375 79.3125 C-3.59765625 77.5546875 -3.59765625 77.5546875 -4.4375 75.1875 C-4.7571875 74.29675781 -5.076875 73.40601563 -5.40625 72.48828125 C-6.91241108 67.55074512 -8.15721542 62.55748817 -9.34765625 57.53515625 C-10.38497176 54.28121977 -10.79407515 53.35682498 -13.375 51.3125 C-15.93297922 50.29711615 -15.93297922 50.29711615 -18.84765625 49.55859375 C-19.91177734 49.26146484 -20.97589844 48.96433594 -22.07226562 48.65820312 C-23.73805664 48.20864258 -23.73805664 48.20864258 -25.4375 47.75 C-27.63834356 47.15046425 -29.83765569 46.54526916 -32.03515625 45.93359375 C-33.01105713 45.6698999 -33.98695801 45.40620605 -34.99243164 45.13452148 C-37.375 44.3125 -37.375 44.3125 -39.375 42.3125 C-39.5 39.6875 -39.5 39.6875 -39.375 37.3125 C-35.4272527 35.46806069 -31.65769046 34.06048197 -27.421875 33.0234375 C-26.555625 32.80300781 -25.689375 32.58257812 -24.796875 32.35546875 C-23.00624888 31.90781222 -21.20894223 31.48612523 -19.40625 31.08984375 C-14.54708382 29.88730332 -14.54708382 29.88730332 -11.20947266 26.42871094 C-10.41998394 24.0731197 -9.88548801 21.74305388 -9.375 19.3125 C-8.87125224 17.71241748 -8.34774451 16.118422 -7.8046875 14.53125 C-7.54816406 13.75265625 -7.29164063 12.9740625 -7.02734375 12.171875 C-6.77082031 11.39328125 -6.51429688 10.6146875 -6.25 9.8125 C-5.85361328 8.59820312 -5.85361328 8.59820312 -5.44921875 7.359375 C-3.1538395 0.41497888 -3.1538395 0.41497888 0 0 Z " fill="#F8F8F8" transform="translate(197.375,101.6875)"/>
<path d="M0 0 C3.6875 -0.3125 3.6875 -0.3125 7 0 C3.71195019 2.91227269 1.40114397 4.49701212 -3 5 C-1.9375 2.5 -1.9375 2.5 0 0 Z " fill="#DEDEDE" transform="translate(267,156)"/>
<path d="M0 0 C2.7972908 2.06756277 3.02692273 3.14440371 3.6875 6.6875 C3.790625 7.780625 3.89375 8.87375 4 10 C2 7 2 7 2 4 C0.68 4.33 -0.64 4.66 -2 5 C-2.33 4.01 -2.66 3.02 -3 2 C-2.01 2 -1.02 2 0 2 C0 1.34 0 0.68 0 0 Z " fill="#424242" transform="translate(185,153)"/>
</svg>
