<?xml version="1.0" encoding="UTF-8"?>
<svg version="1.1" xmlns="http://www.w3.org/2000/svg" width="400" height="400">
<path d="M0 0 C132 0 264 0 400 0 C400 132 400 264 400 400 C268 400 136 400 0 400 C0 268 0 136 0 0 Z " fill="#F9A718" transform="translate(0,0)"/>
<path d="M0 0 C7.92 0 15.84 0 24 0 C24 13.2 24 26.4 24 40 C30.93 40 37.86 40 45 40 C45 26.8 45 13.6 45 0 C52.92 0 60.84 0 69 0 C69 13.53 69 27.06 69 41 C72.3 41 75.6 41 79 41 C95.93516803 42.99822923 112.65876113 48.67302075 124 62 C131.53864609 74.3541486 133.05014381 87.35096729 130.31640625 101.55078125 C127.10721767 110.96528884 120.05848601 120.470757 111 125 C111.94359375 125.36351562 111.94359375 125.36351562 112.90625 125.734375 C118.43316509 127.8985285 123.73083465 130.26784019 129 133 C129 133.66 129 134.32 129 135 C130.12728516 135.37125 130.12728516 135.37125 131.27734375 135.75 C137.46393694 138.59032973 140.89294995 145.22019532 143.375 151.3125 C148.84048747 166.06931617 147.15292123 182.74624782 141 197 C137.71117042 203.80711239 134.42985883 209.81311518 128 214 C127.34 214 126.68 214 126 214 C125.67 214.99 125.34 215.98 125 217 C109.53926457 228.46970837 88.38717759 229.44783566 70 231 C69.67 244.53 69.34 258.06 69 272 C61.08 272 53.16 272 45 272 C45 258.14 45 244.28 45 230 C38.07 230 31.14 230 24 230 C24 243.86 24 257.72 24 272 C16.08 272 8.16 272 0 272 C0 258.14 0 244.28 0 230 C-16.83 230 -33.66 230 -51 230 C-49.875 214.25 -49.875 214.25 -48.4375 207.625 C-48.16808594 206.35914063 -47.89867188 205.09328125 -47.62109375 203.7890625 C-47.41613281 202.86867188 -47.21117188 201.94828125 -47 201 C-46.35973877 201.00112793 -45.71947754 201.00225586 -45.05981445 201.00341797 C-42.14298586 200.99127002 -39.22875039 200.9335813 -36.3125 200.875 C-35.30509766 200.87757813 -34.29769531 200.88015625 -33.25976562 200.8828125 C-31.79506836 200.84414063 -31.79506836 200.84414063 -30.30078125 200.8046875 C-29.40528564 200.79421387 -28.50979004 200.78374023 -27.5871582 200.77294922 C-24.5488149 199.86520222 -23.02298401 198.48435152 -21.06522274 196.01587296 C-18.84769172 191.81932266 -19.30969737 187.11216033 -19.35302734 182.47436523 C-19.34426575 181.32084564 -19.33550415 180.16732605 -19.32647705 178.97885132 C-19.30449763 175.1717145 -19.31903137 171.36574207 -19.3359375 167.55859375 C-19.33256922 164.91113563 -19.32771651 162.26367902 -19.32144165 159.6162262 C-19.31235755 154.07060152 -19.32430129 148.52531032 -19.34814453 142.97973633 C-19.37536744 136.57425124 -19.36652919 130.16956163 -19.3390125 123.76409572 C-19.31356606 117.59276137 -19.31628717 111.42177891 -19.33092117 105.25041389 C-19.33425827 102.62813264 -19.33015755 100.0058311 -19.31852341 97.38357353 C-19.30583728 93.72058027 -19.3251635 90.05911923 -19.35302734 86.39624023 C-19.33784561 84.76823738 -19.33784561 84.76823738 -19.32235718 83.10734558 C-19.38471605 77.03811434 -19.38471605 77.03811434 -22.37393188 71.86732483 C-28.30650674 67.64883398 -34.34242004 67.616634 -41.375 67.375 C-44.55125 67.25125 -47.7275 67.1275 -51 67 C-51 58.09 -51 49.18 -51 40 C-34.17 40 -17.34 40 0 40 C0 26.8 0 13.6 0 0 Z " fill="#FEFEFC" transform="translate(153,64)"/>
<path d="M0 0 C50.15946563 -1.05970702 50.15946563 -1.05970702 64.125 10.5 C68.26920494 14.57046464 69.76247656 18.45819069 70.30078125 24.21875 C70.34027693 35.27753952 70.34027693 35.27753952 67 40 C66.01 41.5159375 66.01 41.5159375 65 43.0625 C55.32350496 54.19629851 35.25180013 55.00419999 22 56 C14.74 56 7.48 56 0 56 C0 37.52 0 19.04 0 0 Z " fill="#FAAF30" transform="translate(178,209)"/>
<path d="M0 0 C40.71661721 0 40.71661721 0 51.75 8.6875 C54 11 54 11 54 13 C54.66 13 55.32 13 56 13 C59.11815354 20.2756916 60.36417878 26.09384814 57.4375 33.625 C53.76756358 40.96487285 48.88716509 43.87713915 41.3125 46.75 C27.04175876 51.39733039 15.79465043 51 0 51 C0 34.17 0 17.34 0 0 Z " fill="#FAB134" transform="translate(178,133)"/>
<path d="M0 0 C0.66 0.33 1.32 0.66 2 1 C2.14030676 16.39463118 2.24603771 31.78921439 2.31087303 47.18433475 C2.34178072 54.33298712 2.38390095 61.48124168 2.45263672 68.62963867 C2.51253479 74.86191484 2.55117162 81.09390285 2.56453097 87.32645887 C2.5723377 90.62524121 2.59378713 93.92300949 2.63438034 97.22157478 C2.67795006 100.90871127 2.68393337 104.59414156 2.68115234 108.28149414 C2.702724 109.36906509 2.72429565 110.45663605 2.746521 111.5771637 C2.69595839 117.77432362 1.92896703 121.29726832 -2.44770813 125.80312347 C-4.77914022 127.60074697 -6.48676313 127.80348622 -9.3984375 127.68359375 C-10.37167969 127.66103516 -11.34492187 127.63847656 -12.34765625 127.61523438 C-13.34667969 127.55658203 -14.34570312 127.49792969 -15.375 127.4375 C-16.39722656 127.40591797 -17.41945313 127.37433594 -18.47265625 127.34179688 C-20.98475434 127.25962544 -23.49086534 127.14484348 -26 127 C-26.103125 128.258125 -26.20625 129.51625 -26.3125 130.8125 C-27.24954822 139.24593398 -28.6766057 147.61850278 -30 156 C-13.17 156 3.66 156 21 156 C21 169.86 21 183.72 21 198 C28.92 198 36.84 198 45 198 C45 184.14 45 170.28 45 156 C51.93 156 58.86 156 66 156 C66 169.86 66 183.72 66 198 C73.92 198 81.84 198 90 198 C90 184.47 90 170.94 90 157 C90.33 157 90.66 157 91 157 C91 170.86 91 184.72 91 199 C82.09 199 73.18 199 64 199 C63.67 186.13 63.34 173.26 63 160 C57.72 159.67 52.44 159.34 47 159 C47.33 172.86 47.66 186.72 48 201 C45.20299508 202.39850246 43.01884641 202.0101384 39.8984375 201.87890625 C38.68671875 201.83056641 37.475 201.78222656 36.2265625 201.73242188 C34.95554687 201.67634766 33.68453125 201.62027344 32.375 201.5625 C31.09625 201.51029297 29.8175 201.45808594 28.5 201.40429688 C25.333103 201.2743123 22.16649713 201.13933598 19 201 C17.6841191 197.0523573 17.87699727 193.28910644 17.90234375 189.17578125 C17.9037587 188.31438034 17.90517365 187.45297943 17.90663147 186.56547546 C17.9122286 183.81444831 17.92478054 181.06350256 17.9375 178.3125 C17.94251537 176.4472668 17.94707821 174.58203233 17.95117188 172.71679688 C17.96219708 168.14449989 17.97945973 163.57226375 18 159 C16.87368164 159.16371094 15.74736328 159.32742188 14.58691406 159.49609375 C9.91156141 160.07797927 5.31473546 160.11005338 0.609375 160.0625 C-0.25766052 160.05871338 -1.12469604 160.05492676 -2.01800537 160.05102539 C-4.76205657 160.03890573 -7.50599767 160.02026875 -10.25 160 C-13.88020543 159.97339116 -17.51035877 159.95342482 -21.140625 159.9375 C-21.96983459 159.92920166 -22.79904419 159.92090332 -23.65338135 159.91235352 C-24.42808777 159.90905029 -25.20279419 159.90574707 -26.00097656 159.90234375 C-26.67856018 159.89710693 -27.3561438 159.89187012 -28.05426025 159.88647461 C-30.05219281 159.93738539 -30.05219281 159.93738539 -32.12493896 160.56860352 C-34 161 -34 161 -36 160 C-36.85056945 156.44307323 -37.16909807 154.50729422 -36 151 C-35.02740234 150.22849609 -35.02740234 150.22849609 -34.03515625 149.44140625 C-30.9176032 145.70153935 -30.93911532 141.67422988 -30.4375 136.9375 C-30.23953182 135.13279654 -30.03034995 133.32927886 -29.80859375 131.52734375 C-29.72407959 130.73062256 -29.63956543 129.93390137 -29.55249023 129.11303711 C-28.89180556 126.58620287 -28.05061043 125.58640424 -26 124 C-23.6875 123.7421875 -23.6875 123.7421875 -21 123.875 C-15.26105767 124.04356706 -9.70244038 123.61767246 -4 123 C-4 121.35 -4 119.7 -4 118 C-3.01 118 -2.02 118 -1 118 C-0.05140129 111.62577378 0.13667834 105.43280011 0.11352539 98.99414062 C0.11367142 97.92007965 0.11381744 96.84601868 0.1139679 95.7394104 C0.11327475 92.21166927 0.10551047 88.68398184 0.09765625 85.15625 C0.09578994 82.701457 0.09436704 80.24666362 0.09336853 77.79187012 C0.0895601 71.34752362 0.07974416 64.90319985 0.06866455 58.4588623 C0.05841438 51.87622383 0.05386319 45.29358166 0.04882812 38.7109375 C0.03812035 25.807282 0.02125776 12.90364221 0 0 Z " fill="#F4CC80" transform="translate(132,138)"/>
<path d="M0 0 C2.64 0.33 5.28 0.66 8 1 C8 1.66 8 2.32 8 3 C9.98 2.67 11.96 2.34 14 2 C14 2.66 14 3.32 14 4 C14.61875 4.2475 15.2375 4.495 15.875 4.75 C18.42968717 6.25275716 18.69859247 7.39718494 20 10 C21.2375 10.99 21.2375 10.99 22.5 12 C25.00931807 14.00745446 25.74863282 15.13973215 27 18 C27.495 18.639375 27.99 19.27875 28.5 19.9375 C31.6530739 24.27297661 32.10984742 27.72732381 32 33 C32.165 33.763125 32.33 34.52625 32.5 35.3125 C33.41622076 40.2371866 33.58911886 45.23264341 32 50 C32.66 50 33.32 50 34 50 C33.06765861 54.66170693 31.38410543 59.29648562 28.375 63 C25.72439491 66.85542559 26 71.4597858 26 76 C25 78.25 25 78.25 24 80 C23.34 80 22.68 80 22 80 C22 80.99 22 81.98 22 83 C22.7425 82.649375 23.485 82.29875 24.25 81.9375 C27.1322726 80.95490707 28.21176345 80.9673198 31 82 C31 82.66 31 83.32 31 84 C29.02 84.495 29.02 84.495 27 85 C27.495 85.99 27.495 85.99 28 87 C23.10869127 85.70230585 18.63833416 84.06148185 14 82 C12.3357865 81.32723284 10.67013418 80.65793165 9 80 C11.23897686 77.69105511 13.4163492 75.46362584 15.9375 73.4609375 C21.45498395 69.05113025 24.39109478 64.54248712 27 58 C27.36480469 57.11699219 27.72960937 56.23398438 28.10546875 55.32421875 C30.95194301 44.74627293 30.510822 31.22404164 25.54296875 21.44140625 C19.20302516 11.40984994 10.55710448 5.99063121 0 1 C0 0.67 0 0.34 0 0 Z " fill="#E7B34E" transform="translate(254,110)"/>
<path d="M0 0 C0.66 0.33 1.32 0.66 2 1 C2.14030676 16.39463118 2.24603771 31.78921439 2.31087303 47.18433475 C2.34178072 54.33298712 2.38390095 61.48124168 2.45263672 68.62963867 C2.51253479 74.86191484 2.55117162 81.09390285 2.56453097 87.32645887 C2.5723377 90.62524121 2.59378713 93.92300949 2.63438034 97.22157478 C2.67795006 100.90871127 2.68393337 104.59414156 2.68115234 108.28149414 C2.702724 109.36906509 2.72429565 110.45663605 2.746521 111.5771637 C2.69595839 117.77432362 1.92896703 121.29726832 -2.44770813 125.80312347 C-4.77914022 127.60074697 -6.48676313 127.80348622 -9.3984375 127.68359375 C-10.37167969 127.66103516 -11.34492187 127.63847656 -12.34765625 127.61523438 C-13.34667969 127.55658203 -14.34570312 127.49792969 -15.375 127.4375 C-16.39722656 127.40591797 -17.41945313 127.37433594 -18.47265625 127.34179688 C-20.98475434 127.25962544 -23.49086534 127.14484348 -26 127 C-26.06058594 127.69867188 -26.12117188 128.39734375 -26.18359375 129.1171875 C-26.26738281 130.02726563 -26.35117188 130.93734375 -26.4375 131.875 C-26.51871094 132.77992188 -26.59992188 133.68484375 -26.68359375 134.6171875 C-27 137 -27 137 -28 139 C-28.66 139 -29.32 139 -30 139 C-29.91284983 137.06166004 -29.80467036 135.1242571 -29.6875 133.1875 C-29.62949219 132.10855469 -29.57148437 131.02960938 -29.51171875 129.91796875 C-29 127 -29 127 -27.76953125 125.12109375 C-25.37408736 123.60345049 -23.81853102 123.73571213 -21 123.875 C-15.26105767 124.04356706 -9.70244038 123.61767246 -4 123 C-4 121.35 -4 119.7 -4 118 C-3.01 118 -2.02 118 -1 118 C-0.05140129 111.62577378 0.13667834 105.43280011 0.11352539 98.99414062 C0.11367142 97.92007965 0.11381744 96.84601868 0.1139679 95.7394104 C0.11327475 92.21166927 0.10551047 88.68398184 0.09765625 85.15625 C0.09578994 82.701457 0.09436704 80.24666362 0.09336853 77.79187012 C0.0895601 71.34752362 0.07974416 64.90319985 0.06866455 58.4588623 C0.05841438 51.87622383 0.05386319 45.29358166 0.04882812 38.7109375 C0.03812035 25.807282 0.02125776 12.90364221 0 0 Z " fill="#ECB047" transform="translate(132,138)"/>
<path d="M0 0 C0.33 0 0.66 0 1 0 C1.33 16.17 1.66 32.34 2 49 C8.0946875 48.814375 8.0946875 48.814375 14.3125 48.625 C16.19835815 48.57400146 16.19835815 48.57400146 18.12231445 48.52197266 C25.24608602 48.27526679 32.03110201 47.50425674 39 46 C39 45.34 39 44.68 39 44 C40.98 44 42.96 44 45 44 C45 43.34 45 42.68 45 42 C46.32 42 47.64 42 49 42 C49.33 39.36 49.66 36.72 50 34 C50.33 34.66 50.66 35.32 51 36 C51.99 36 52.98 36 54 36 C54.144375 35.195625 54.28875 34.39125 54.4375 33.5625 C55 31 55 31 56 30 C56.07258946 27.81360547 56.08373783 25.62499611 56.0625 23.4375 C56.05347656 22.23996094 56.04445312 21.04242188 56.03515625 19.80859375 C56.02355469 18.88175781 56.01195312 17.95492187 56 17 C55.34 17 54.68 17 54 17 C53.505 14.03 53.505 14.03 53 11 C53.495 11.99 53.495 11.99 54 13 C54.66 13 55.32 13 56 13 C59.11815354 20.2756916 60.36417878 26.09384814 57.4375 33.625 C53.76756358 40.96487285 48.88716509 43.87713915 41.3125 46.75 C27.04175876 51.39733039 15.79465043 51 0 51 C0 34.17 0 17.34 0 0 Z " fill="#E9BA65" transform="translate(178,133)"/>
<path d="M0 0 C51.3243466 -1.08431718 51.3243466 -1.08431718 65 12 C64.01 12.33 63.02 12.66 62 13 C61.505 11.515 61.505 11.515 61 10 C59.15216052 9.37729829 59.15216052 9.37729829 57 9 C55.59904585 8.38656446 54.20368979 7.76026897 52.8125 7.125 C36.72975558 0.74295857 19.02216724 1.32696724 2 1 C2.00523682 1.56992676 2.01047363 2.13985352 2.01586914 2.72705078 C2.15222183 20.17674279 1.66685225 37.5665769 1 55 C7.93 55 14.86 55 22 55 C22 55.33 22 55.66 22 56 C14.74 56 7.48 56 0 56 C0 37.52 0 19.04 0 0 Z " fill="#E4B565" transform="translate(178,209)"/>
<path d="M0 0 C4.14581887 -0.02886751 8.29161216 -0.04675327 12.4375 -0.0625 C14.21350586 -0.07506836 14.21350586 -0.07506836 16.02539062 -0.08789062 C17.15009766 -0.09111328 18.27480469 -0.09433594 19.43359375 -0.09765625 C20.47572021 -0.10289307 21.51784668 -0.10812988 22.59155273 -0.11352539 C25 0 25 0 26 1 C26.08851529 3.59359322 26.11525945 6.16039691 26.09765625 8.75390625 C26.0962413 9.52935287 26.09482635 10.3047995 26.09336853 11.10374451 C26.08775345 13.59003494 26.07519846 16.0762366 26.0625 18.5625 C26.05748694 20.24413933 26.0529237 21.92578006 26.04882812 23.60742188 C26.03777913 27.73831566 26.02050445 31.86914276 26 36 C26.66 36.33 27.32 36.66 28 37 C27.34 38.32 26.68 39.64 26 41 C28.45840605 41.02691685 30.91651882 41.04679802 33.375 41.0625 C34.42300781 41.07506836 34.42300781 41.07506836 35.4921875 41.08789062 C39.37295376 41.1835442 39.37295376 41.1835442 43 40 C43.495 41.98 43.495 41.98 44 44 C44.886875 43.9175 45.77375 43.835 46.6875 43.75 C50.69008159 44.05208163 52.12835434 45.29727467 55 48 C47.97699339 47.36814729 41.29421818 46.05703001 34.4375 44.4375 C29.2709375 43.2309375 29.2709375 43.2309375 24 42 C24 28.47 24 14.94 24 1 C16.08 1 8.16 1 0 1 C0 0.67 0 0.34 0 0 Z " fill="#E4A534" transform="translate(199,62)"/>
<path d="M0 0 C0.33 0 0.66 0 1 0 C1.02505615 0.69561035 1.0501123 1.3912207 1.07592773 2.10791016 C1.19245974 5.28043455 1.31492568 8.45270355 1.4375 11.625 C1.47681641 12.71941406 1.51613281 13.81382812 1.55664062 14.94140625 C1.59853516 16.00488281 1.64042969 17.06835938 1.68359375 18.1640625 C1.72025146 19.13811035 1.75690918 20.1121582 1.79467773 21.11572266 C1.94820507 24.07240898 1.94820507 24.07240898 2.61743164 27.22412109 C3 30 3 30 1.4375 32.25 C0.2309375 33.61125 0.2309375 33.61125 -1 35 C-2.09355855 36.66754077 -3.15382729 38.3571897 -4.1875 40.0625 C-4.69667969 40.89910156 -5.20585937 41.73570312 -5.73046875 42.59765625 C-7.060658 44.88123847 -7.060658 44.88123847 -7.5234375 47.11328125 C-8.53529161 51.11922825 -12.14208299 54.14208299 -15 57 C-15 56.34 -15 55.68 -15 55 C-15.94875 55.66 -16.8975 56.32 -17.875 57 C-21 59 -21 59 -23 59 C-23.33 59.99 -23.66 60.98 -24 62 C-25.98 62 -27.96 62 -30 62 C-27.44325365 59.01712925 -24.47561059 57.7378053 -21 56 C-19.45833358 54.62514468 -19.45833358 54.62514468 -18 53 C-17.06542969 52.29875 -16.13085938 51.5975 -15.16796875 50.875 C-11.58403148 47.90187528 -9.77135911 44.54344822 -7.8125 40.375 C-7.47081787 39.65916748 -7.12913574 38.94333496 -6.77709961 38.20581055 C-0.90963733 25.61406371 -0.34616326 13.73369262 0 0 Z " fill="#E7A534" transform="translate(299,224)"/>
<path d="M0 0 C0 9.5 0 9.5 -2 13 C-2.66 13 -3.32 13 -4 13 C-4 13.99 -4 14.98 -4 16 C-3.2575 15.649375 -2.515 15.29875 -1.75 14.9375 C1.1322726 13.95490707 2.21176345 13.9673198 5 15 C5 15.66 5 16.32 5 17 C3.68 17.33 2.36 17.66 1 18 C1.33 18.66 1.66 19.32 2 20 C-2.89130873 18.70230585 -7.36166584 17.06148185 -12 15 C-13.6642135 14.32723284 -15.32986582 13.65793165 -17 13 C-4.38235294 0 -4.38235294 0 0 0 Z " fill="#EEAD36" transform="translate(280,177)"/>
<path d="M0 0 C7.92 0 15.84 0 24 0 C24 13.2 24 26.4 24 40 C23.34 40 22.68 40 22 40 C22 27.13 22 14.26 22 1 C12.595 1.495 12.595 1.495 3 2 C2.33880134 7.28958929 1.87894737 11.88421113 1.90234375 17.125 C1.90556641 18.40761719 1.90878906 19.69023438 1.91210938 21.01171875 C1.92048828 22.32785156 1.92886719 23.64398438 1.9375 25 C1.94252513 26.36067544 1.94708624 27.72135267 1.95117188 29.08203125 C1.96289541 32.38806725 1.97930573 35.69401001 2 39 C1.01 39.495 1.01 39.495 0 40 C0 26.8 0 13.6 0 0 Z " fill="#FFFCEA" transform="translate(153,64)"/>
<path d="M0 0 C0.33 0 0.66 0 1 0 C1.11682649 15.69001747 1.20498456 31.37991744 1.25906086 47.07026196 C1.28483742 54.35566438 1.31997691 61.64079648 1.37719727 68.92602539 C1.4270497 75.27620875 1.45929502 81.62619634 1.47044247 87.97656995 C1.47695834 91.33884087 1.4922594 94.70055173 1.52865028 98.06264305 C1.56486155 101.81708584 1.56994834 105.57036231 1.56762695 109.32495117 C1.58560333 110.43841415 1.60357971 111.55187714 1.62210083 112.69908142 C1.57160713 120.22896831 1.57160713 120.22896831 -1.36804199 124.19421387 C-4.39745517 126.27269395 -5.88038526 126.58993337 -9.51953125 126.48828125 C-10.54111328 126.47216797 -11.56269531 126.45605469 -12.61523438 126.43945312 C-13.67033203 126.39755859 -14.72542969 126.35566406 -15.8125 126.3125 C-16.88693359 126.28994141 -17.96136719 126.26738281 -19.06835938 126.24414062 C-21.7136685 126.18535598 -24.35611413 126.10323957 -27 126 C-27.495 126.99 -27.495 126.99 -28 128 C-28 127.01 -28 126.02 -28 125 C-27.35973877 125.00112793 -26.71947754 125.00225586 -26.05981445 125.00341797 C-23.14298586 124.99127002 -20.22875039 124.9335813 -17.3125 124.875 C-16.30509766 124.87757813 -15.29769531 124.88015625 -14.25976562 124.8828125 C-13.28330078 124.85703125 -12.30683594 124.83125 -11.30078125 124.8046875 C-10.40528564 124.79421387 -9.50979004 124.78374023 -8.5871582 124.77294922 C-5.54859236 123.86513574 -4.02386588 122.48362578 -2.06593037 120.01516533 C0.15136234 115.8233236 -0.30362696 111.1209329 -0.34057617 106.48681641 C-0.32485062 104.75912018 -0.32485062 104.75912018 -0.30880737 102.996521 C-0.28005769 99.19792745 -0.2863494 95.40024536 -0.29296875 91.6015625 C-0.2798538 88.96453712 -0.26455021 86.3275218 -0.24714661 83.69052124 C-0.20974177 77.46455497 -0.19756076 71.2388071 -0.1945222 65.01273954 C-0.18982746 57.92194113 -0.15689097 50.83136099 -0.12162435 43.740659 C-0.04973828 29.16048245 -0.01318083 14.58034633 0 0 Z " fill="#F9DBA4" transform="translate(134,140)"/>
<path d="M0 0 C6.27 0 12.54 0 19 0 C19 13.86 19 27.72 19 42 C18.67 42 18.34 42 18 42 C17.67 29.13 17.34 16.26 17 3 C11.72 2.67 6.44 2.34 1 2 C1.33 15.86 1.66 29.72 2 44 C-0.59891154 45.29945577 -2.32666656 45.0223077 -5.2265625 44.87890625 C-6.2578125 44.83056641 -7.2890625 44.78222656 -8.3515625 44.73242188 C-9.97191406 44.64831055 -9.97191406 44.64831055 -11.625 44.5625 C-12.71296875 44.51029297 -13.8009375 44.45808594 -14.921875 44.40429688 C-17.6148581 44.27437225 -20.30749336 44.13939838 -23 44 C-23 43.67 -23 43.34 -23 43 C-15.41 42.67 -7.82 42.34 0 42 C0 28.14 0 14.28 0 0 Z " fill="#E2A330" transform="translate(178,295)"/>
<path d="M0 0 C41.28685897 0 41.28685897 0 50.25 8.8125 C51.11625 9.8953125 51.11625 9.8953125 52 11 C50.68 11 49.36 11 48 11 C47.46375 10.401875 46.9275 9.80375 46.375 9.1875 C42.81721707 5.91059467 38.61710661 5.16308792 34 4 C34 3.34 34 2.68 34 2 C23.11 2 12.22 2 1 2 C1 16.85 1 31.7 1 47 C0.67 47 0.34 47 0 47 C0 31.49 0 15.98 0 0 Z " fill="#E2A539" transform="translate(179,133)"/>
<path d="M0 0 C0.99 0 1.98 0 3 0 C4.23317158 2.46634316 4.12311024 4.07551173 4.12025452 6.83413696 C4.12162918 7.85499893 4.12300385 8.8758609 4.12442017 9.92765808 C4.12082489 11.05190689 4.11722961 12.1761557 4.11352539 13.33447266 C4.11367142 14.51494675 4.11381744 15.69542084 4.1139679 16.91166687 C4.11338959 20.15319775 4.10836583 23.39468575 4.10139394 26.63620806 C4.09515306 30.02214911 4.09455602 33.40809095 4.09336853 36.79403687 C4.09025739 43.2078101 4.08204691 49.62156634 4.07201904 56.03533208 C4.06085119 63.33632547 4.05534576 70.63731965 4.05032361 77.93831944 C4.03986412 92.95888911 4.02226886 107.97944286 4 123 C3.67 123 3.34 123 3 123 C2.99668985 122.39039303 2.99337971 121.78078606 2.98996925 121.15270615 C2.90876015 106.32179938 2.81667456 91.49099014 2.71247292 76.66022873 C2.6623443 69.48818852 2.61590144 62.31615975 2.578125 55.14404297 C2.54519094 48.8930583 2.50535196 42.64216237 2.45720994 36.39127564 C2.43195888 33.08126086 2.41120339 29.77131671 2.39665604 26.46123505 C2.37983315 22.7666698 2.35080708 19.0723906 2.31884766 15.37792969 C2.31668747 14.27957291 2.31452728 13.18121613 2.31230164 12.04957581 C2.30113815 11.04279282 2.28997467 10.03600983 2.2784729 8.99871826 C2.27294214 8.12485851 2.26741138 7.25099876 2.26171303 6.35065842 C1.9807431 3.82703804 1.26961429 2.18052692 0 0 Z " fill="#FEFEE6" transform="translate(132,136)"/>
<path d="M0 0 C16.17 0 32.34 0 49 0 C49 13.86 49 27.72 49 42 C56.92 42 64.84 42 73 42 C73 42.33 73 42.66 73 43 C60.625 43.495 60.625 43.495 48 44 C47.08133749 41.24401248 46.898317 39.80372349 46.97827148 36.98754883 C46.99869507 36.175802 47.01911865 35.36405518 47.04016113 34.52770996 C47.0668689 33.67938599 47.09357666 32.83106201 47.12109375 31.95703125 C47.14175903 31.17372437 47.16242432 30.39041748 47.18371582 29.58337402 C47.26243158 26.65958516 47.35052821 23.73605493 47.4375 20.8125 C47.623125 14.274375 47.80875 7.73625 48 1 C32.16 1 16.32 1 0 1 C0 0.67 0 0.34 0 0 Z " fill="#E0A946" transform="translate(103,295)"/>
<path d="M0 0 C1.74023438 0.00966797 1.74023438 0.00966797 3.515625 0.01953125 C4.7221875 0.03628906 5.92875 0.05304687 7.171875 0.0703125 C9.00492188 0.08384766 9.00492188 0.08384766 10.875 0.09765625 C13.89082282 0.12121737 16.90624992 0.15411544 19.921875 0.1953125 C19.921875 0.5253125 19.921875 0.8553125 19.921875 1.1953125 C6.556875 1.6903125 6.556875 1.6903125 -7.078125 2.1953125 C-7.078125 15.3953125 -7.078125 28.5953125 -7.078125 42.1953125 C-8.728125 42.1953125 -10.378125 42.1953125 -12.078125 42.1953125 C-10.593125 41.7003125 -10.593125 41.7003125 -9.078125 41.1953125 C-9.408125 28.3253125 -9.738125 15.4553125 -10.078125 2.1953125 C-6.00557351 0.15903675 -4.40396025 -0.04317608 0 0 Z " fill="#EEA82A" transform="translate(204.078125,60.8046875)"/>
<path d="M0 0 C3.39436826 4.52582435 3.3842059 5.81513896 3.3984375 11.28515625 C3.40130768 11.98265488 3.40417786 12.6801535 3.40713501 13.39878845 C3.4091711 14.86881322 3.40367302 16.33886537 3.39111328 17.80883789 C3.37502702 20.05872033 3.39098787 22.30681322 3.41015625 24.55664062 C3.40817421 25.98698313 3.40433134 27.41732452 3.3984375 28.84765625 C3.39505371 30.14711182 3.39166992 31.44656738 3.38818359 32.78540039 C3 36 3 36 0 39 C0 26.13 0 13.26 0 0 Z " fill="#EAA01B" transform="translate(178,64)"/>
<path d="M0 0 C10.89 0 21.78 0 33 0 C33 0.66 33 1.32 33 2 C33.721875 1.731875 34.44375 1.46375 35.1875 1.1875 C38 1 38 1 40.8125 3.4375 C41.534375 4.283125 42.25625 5.12875 43 6 C42.021521 5.68305176 41.04304199 5.36610352 40.03491211 5.03955078 C35.84198271 3.84592827 31.78076041 3.5602364 27.44140625 3.3671875 C26.65225327 3.32562531 25.86310028 3.28406311 25.05003357 3.24124146 C22.55450796 3.11154632 20.05859878 2.99309292 17.5625 2.875 C15.85998801 2.78850572 14.15751335 2.70127339 12.45507812 2.61328125 C8.30376816 2.40031946 4.1520764 2.19743074 0 2 C0 1.34 0 0.68 0 0 Z " fill="#FCEFC7" transform="translate(178,131)"/>
<path d="M0 0 C3.99969264 3.61262561 4.84645779 5.7145832 5.203125 11.0234375 C5.36013242 22.24946796 5.36013242 22.24946796 2 27 C1.34 28.010625 0.68 29.02125 0 30.0625 C-4.33538352 35.10056036 -11.64438938 37.60924285 -18 39 C-18 38.34 -18 37.68 -18 37 C-15.36 36.34 -12.72 35.68 -10 35 C-10 34.01 -10 33.02 -10 32 C-8.02 31.67 -6.04 31.34 -4 31 C-3.896875 30.360625 -3.79375 29.72125 -3.6875 29.0625 C-3.460625 28.381875 -3.23375 27.70125 -3 27 C-2.01 26.67 -1.02 26.34 0 26 C2.67270104 22.40003533 2.44223529 18.06020116 2.625 13.75 C2.66367188 13.00492188 2.70234375 12.25984375 2.7421875 11.4921875 C2.83605108 9.6618476 2.91909718 7.83095857 3 6 C2.34 6 1.68 6 1 6 C0.67 4.02 0.34 2.04 0 0 Z " fill="#E9B64F" transform="translate(243,222)"/>
<path d="M0 0 C2.64 0.33 5.28 0.66 8 1 C8 1.66 8 2.32 8 3 C9.98 2.67 11.96 2.34 14 2 C14 2.66 14 3.32 14 4 C14.61875 4.2475 15.2375 4.495 15.875 4.75 C18.42968717 6.25275716 18.69859247 7.39718494 20 10 C20.804375 10.598125 21.60875 11.19625 22.4375 11.8125 C25.66669765 14.56913214 26.66647657 16.9994297 28 21 C28.1875 23.9375 28.1875 23.9375 28 26 C26.90976388 24.36464582 25.83470827 22.71688207 24.84375 21.01953125 C18.88260986 11.22870515 10.33840654 5.57529481 0 1 C0 0.67 0 0.34 0 0 Z " fill="#F1B85B" transform="translate(254,110)"/>
<path d="M0 0 C2.67089376 2.20547068 3.89002471 3.3704564 4.49609375 6.83984375 C4.47675781 7.86207031 4.45742187 8.88429687 4.4375 9.9375 C4.43621094 10.95714844 4.43492187 11.97679687 4.43359375 13.02734375 C3.94410075 16.38323719 3.0856832 18.335233 1 21 C0.01 21 -0.98 21 -2 21 C-2 17.7 -2 14.4 -2 11 C-1.34 11 -0.68 11 0 11 C0.08083491 7.44326383 -0.11026172 4.43184765 -1 1 C-0.67 0.67 -0.34 0.34 0 0 Z " fill="#FBA91D" transform="translate(242,228)"/>
<path d="M0 0 C5.42599527 -0.07446471 10.8516894 -0.12875037 16.27807617 -0.16479492 C18.12187892 -0.17982988 19.96564622 -0.20026333 21.80932617 -0.22631836 C24.4680255 -0.26293561 27.12624971 -0.27977943 29.78515625 -0.29296875 C30.60210464 -0.30845261 31.41905304 -0.32393646 32.26075745 -0.33988953 C37.5931209 -0.34143804 41.23476933 0.58535652 46 3 C46 3.33 46 3.66 46 4 C44.86755859 3.84152588 43.73511719 3.68305176 42.56835938 3.51977539 C38.01209579 2.95211817 33.49348983 2.78064771 28.90625 2.68359375 C27.65805481 2.6524221 27.65805481 2.6524221 26.38464355 2.62062073 C23.75650364 2.55583806 21.12827375 2.49657588 18.5 2.4375 C16.70572029 2.39424678 14.9114493 2.35063046 13.1171875 2.30664062 C8.74488115 2.20023106 4.37248537 2.09876837 0 2 C0 1.34 0 0.68 0 0 Z " fill="#FEEECC" transform="translate(178,207)"/>
<path d="M0 0 C0.78439453 0.04576172 1.56878906 0.09152344 2.37695312 0.13867188 C3.59995117 0.23438477 3.59995117 0.23438477 4.84765625 0.33203125 C5.65912109 0.37650391 6.47058594 0.42097656 7.30664062 0.46679688 C11.62250888 0.75357729 13.90184128 1.14037377 17.91015625 3.14453125 C10.65015625 3.14453125 3.39015625 3.14453125 -4.08984375 3.14453125 C-4.41984375 6.44453125 -4.74984375 9.74453125 -5.08984375 13.14453125 C-5.41984375 13.80453125 -5.74984375 14.46453125 -6.08984375 15.14453125 C-6.74984375 15.14453125 -7.40984375 15.14453125 -8.08984375 15.14453125 C-8.00269358 13.20619129 -7.89451411 11.26878835 -7.77734375 9.33203125 C-7.71933594 8.25308594 -7.66132812 7.17414063 -7.6015625 6.0625 C-6.77341181 1.34014454 -4.7452701 -0.29869086 0 0 Z " fill="#EDBE62" transform="translate(110.08984375,261.85546875)"/>
<path d="M0 0 C4.49998618 -0.02922653 8.99994765 -0.04687482 13.5 -0.0625 C14.7684375 -0.07087891 16.036875 -0.07925781 17.34375 -0.08789062 C23.66083499 -0.10434137 29.75810372 -0.00091014 36 1 C36 1.33 36 1.66 36 2 C24.78 2.33 13.56 2.66 2 3 C2 5.31 2 7.62 2 10 C1.01 10.495 1.01 10.495 0 11 C0 7.37 0 3.74 0 0 Z " fill="#EEB142" transform="translate(180,210)"/>
<path d="M0 0 C4.62 0 9.24 0 14 0 C13.34 0.66 12.68 1.32 12 2 C9.6171875 1.9765625 9.6171875 1.9765625 6.875 1.625 C5.96492187 1.51414063 5.05484375 1.40328125 4.1171875 1.2890625 C3.41851562 1.19367188 2.71984375 1.09828125 2 1 C2.350625 1.78375 2.70125 2.5675 3.0625 3.375 C3.371875 4.24125 3.68125 5.1075 4 6 C3.67 6.66 3.34 7.32 3 8 C2.01508629 15.17163091 1.70331331 22.3332496 1.4375 29.5625 C1.39431641 30.66658203 1.35113281 31.77066406 1.30664062 32.90820312 C1.20155613 35.60537185 1.09940587 38.30261703 1 41 C0.67 41 0.34 41 0 41 C0 27.47 0 13.94 0 0 Z " fill="#F4A625" transform="translate(180,135)"/>
<path d="M0 0 C0.33 0 0.66 0 1 0 C1.12383064 5.32014516 1.21444676 10.63944714 1.2746582 15.96069336 C1.2997639 17.76976132 1.33385595 19.57872822 1.37719727 21.38745117 C1.43802579 23.99162751 1.46624809 26.59446031 1.48828125 29.19921875 C1.51408768 30.00461594 1.5398941 30.81001312 1.56648254 31.63981628 C1.56855361 35.80992667 1.33347754 37.53927053 -1.18554688 41.01953125 C-4.33699068 43.23713293 -5.72029244 43.59440524 -9.51953125 43.48828125 C-10.54111328 43.47216797 -11.56269531 43.45605469 -12.61523438 43.43945312 C-14.19788086 43.37661133 -14.19788086 43.37661133 -15.8125 43.3125 C-16.88693359 43.28994141 -17.96136719 43.26738281 -19.06835938 43.24414062 C-21.7136685 43.18535598 -24.35611413 43.10323957 -27 43 C-27.33 43.66 -27.66 44.32 -28 45 C-28 44.01 -28 43.02 -28 42 C-27.35973877 42.00112793 -26.71947754 42.00225586 -26.05981445 42.00341797 C-23.14298586 41.99127002 -20.22875039 41.9335813 -17.3125 41.875 C-16.30509766 41.87757813 -15.29769531 41.88015625 -14.25976562 41.8828125 C-13.28330078 41.85703125 -12.30683594 41.83125 -11.30078125 41.8046875 C-10.40528564 41.79421387 -9.50979004 41.78374023 -8.5871582 41.77294922 C-5.49748083 40.84986546 -3.90366752 39.38305052 -1.97346497 36.81735229 C-0.25590331 33.6108531 -0.2740017 30.30083818 -0.29296875 26.7578125 C-0.27784744 25.98944061 -0.26272614 25.22106873 -0.24714661 24.42941284 C-0.20443006 21.99430631 -0.19544795 19.5604431 -0.1875 17.125 C-0.16434295 15.46611315 -0.13897509 13.8072556 -0.11132812 12.1484375 C-0.04863532 8.09884922 -0.01617475 4.0500304 0 0 Z " fill="#FBEABC" transform="translate(134,223)"/>
<path d="M0 0 C2.97 0 5.94 0 9 0 C7.515 1.485 7.515 1.485 6 3 C4.35 3 2.7 3 1 3 C1 16.2 1 29.4 1 43 C0.67 43 0.34 43 0 43 C0 28.81 0 14.62 0 0 Z " fill="#EBA021" transform="translate(224,295)"/>
<path d="M0 0 C4.01461504 4.92702754 5.13152973 8.68657272 5 15 C5.165 15.763125 5.33 16.52625 5.5 17.3125 C6.22418371 21.20498742 6.07740797 25.05219356 6 29 C5.34 29 4.68 29 4 29 C3.87882812 27.96101563 3.75765625 26.92203125 3.6328125 25.8515625 C2.79287317 18.8100993 1.91746952 11.84653685 0.3671875 4.91796875 C0 3 0 3 0 0 Z " fill="#EAAC3E" transform="translate(281,128)"/>
<path d="M0 0 C-1.39316877 2.78633754 -3.15980516 2.93492694 -6 4 C-6.33 4.33 -6.66 4.66 -7 5 C-8.59910799 5.20971908 -10.20509246 5.3682067 -11.8125 5.5 C-15.49702434 5.79803047 -15.49702434 5.79803047 -19.07421875 6.65625 C-21.62534841 7.11162406 -22.83221917 6.31615265 -25 5 C-23.90300781 4.73445313 -22.80601562 4.46890625 -21.67578125 4.1953125 C-20.22130753 3.83873185 -18.76688302 3.4819504 -17.3125 3.125 C-16.59126953 2.95097656 -15.87003906 2.77695312 -15.12695312 2.59765625 C-12.01918154 1.83135641 -9.10094449 1.04059724 -6.125 -0.15625 C-3.63046264 -1.14672807 -2.47743844 -0.91756979 0 0 Z " fill="#E4A83F" transform="translate(269,287)"/>
<path d="M0 0 C0.99 0 1.98 0 3 0 C1.51491624 3.5610073 -0.48541171 5.60021023 -3.375 8.125 C-4.14585937 8.80820313 -4.91671875 9.49140625 -5.7109375 10.1953125 C-7.75712617 11.80851927 -9.62785421 12.94932355 -12 14 C-13.125 10.25 -13.125 10.25 -12 8 C-10.02 8 -8.04 8 -6 8 C-6.33 6.68 -6.66 5.36 -7 4 C-5.5459375 3.566875 -5.5459375 3.566875 -4.0625 3.125 C-0.89335797 2.35785318 -0.89335797 2.35785318 0 0 Z " fill="#FCF6E2" transform="translate(274,176)"/>
<path d="M0 0 C0.66 0 1.32 0 2 0 C2.33 1.32 2.66 2.64 3 4 C11.2425317 4.26305952 18.91191011 3.60614551 27 2 C22.59603026 6.40396974 15.33636424 6.12907511 9.43359375 6.1953125 C7.10148174 6.18217384 4.76940765 6.15855263 2.4375 6.125 C1.23802734 6.11597656 0.03855469 6.10695312 -1.19726562 6.09765625 C-4.13172309 6.07427412 -7.06575234 6.0415028 -10 6 C-10 5.34 -10 4.68 -10 4 C-6.7 4.33 -3.4 4.66 0 5 C0 3.35 0 1.7 0 0 Z " fill="#F5B540" transform="translate(190,176)"/>
<path d="M0 0 C3.68722927 -0.11701204 7.37397542 -0.18752045 11.0625 -0.25 C12.10083984 -0.28351563 13.13917969 -0.31703125 14.20898438 -0.3515625 C20.74292593 -0.43453319 24.661267 0.15308317 30 4 C29.67 4.66 29.34 5.32 29 6 C28.05769531 5.51660156 27.11539063 5.03320312 26.14453125 4.53515625 C21.40575056 2.50288641 16.78013371 2.51527841 11.6875 2.4375 C9.89955339 2.40314088 8.11173968 2.36057982 6.32421875 2.30859375 C5.1499231 2.29010376 5.1499231 2.29010376 3.9519043 2.27124023 C2 2 2 2 0 0 Z " fill="#E4A329" transform="translate(102,132)"/>
<path d="M0 0 C0.66 0 1.32 0 2 0 C1.67 3.63 1.34 7.26 1 11 C0.34 11 -0.32 11 -1 11 C-1 13.31 -1 15.62 -1 18 C-2.98 17.34 -4.96 16.68 -7 16 C-6.60257417 13.21801919 -6.18783415 12.16965665 -4.0625 10.25 C-1.14171612 7.06369031 -0.84183109 4.20915544 0 0 Z " fill="#F3B84E" transform="translate(102,277)"/>
<path d="M0 0 C5.69399527 6.2116312 5.31682431 14.83131911 5.25 22.75 C5.25773437 23.68199219 5.26546875 24.61398438 5.2734375 25.57421875 C5.27085937 26.47269531 5.26828125 27.37117188 5.265625 28.296875 C5.26336914 29.10479492 5.26111328 29.91271484 5.25878906 30.74511719 C4.97512093 33.21677651 4.23482604 34.85775463 3 37 C3.01571045 36.42668945 3.0314209 35.85337891 3.04760742 35.26269531 C3.4876053 20.59403889 3.4876053 20.59403889 0.65625 6.27734375 C0 4 0 4 0 0 Z " fill="#F8DDA4" transform="translate(294,212)"/>
<path d="M0 0 C2.875 0.625 2.875 0.625 6 2 C7.25 5.0625 7.25 5.0625 8 8 C8.66 8.33 9.32 8.66 10 9 C11.50715738 13.50286525 12.30618964 18.25406051 12 23 C10.50640668 20.14383032 9.34907722 17.27728288 8.25 14.25 C6.48802761 9.74495697 4.21331949 6.23767274 1.171875 2.49609375 C0 1 0 1 0 0 Z " fill="#E7A537" transform="translate(287,201)"/>
<path d="M0 0 C0.33 0.66 0.66 1.32 1 2 C1.66 2 2.32 2 3 2 C6.14684717 9.34264341 7.32260425 14.86552756 4.5 22.5 C4.005 23.655 3.51 24.81 3 26 C1.89033232 22.67099696 2.18449056 22.21704413 3 19 C3.06790675 16.75092848 3.08499984 14.49998395 3.0625 12.25 C3.04896484 10.49429688 3.04896484 10.49429688 3.03515625 8.703125 C3.02355469 7.81109375 3.01195312 6.9190625 3 6 C2.34 6 1.68 6 1 6 C0.67 4.02 0.34 2.04 0 0 Z " fill="#EABF6B" transform="translate(231,144)"/>
<path d="M0 0 C3.39187279 1.41573821 5.09697541 3.04230966 7.25 6 C7.77078125 6.70125 8.2915625 7.4025 8.828125 8.125 C10 10 10 10 10 12 C8.1875 11.8125 8.1875 11.8125 6 11 C5.525625 10.175 5.05125 9.35 4.5625 8.5 C3.22232165 5.74538088 3.22232165 5.74538088 0.3125 5.1875 C-0.8321875 5.0946875 -0.8321875 5.0946875 -2 5 C-1.34 3.35 -0.68 1.7 0 0 Z " fill="#FBF4D6" transform="translate(284,200)"/>
<path d="M0 0 C1.65 0 3.3 0 5 0 C5 0.66 5 1.32 5 2 C7.31 2 9.62 2 12 2 C11.01 3.485 11.01 3.485 10 5 C4 4.33333333 -2 3.66666667 -8 3 C-8 2.67 -8 2.34 -8 2 C-5.36 2 -2.72 2 0 2 C0 1.34 0 0.68 0 0 Z " fill="#E99E17" transform="translate(232,32)"/>
<path d="M0 0 C0.99 0 1.98 0 3 0 C0.47267349 5.63788222 -2.4742229 7.41447578 -8.1875 9.6875 C-9.81751953 10.34298828 -9.81751953 10.34298828 -11.48046875 11.01171875 C-12.31191406 11.33785156 -13.14335937 11.66398437 -14 12 C-14.33 11.34 -14.66 10.68 -15 10 C-12.36 9.34 -9.72 8.68 -7 8 C-7 7.01 -7 6.02 -7 5 C-5.02 4.67 -3.04 4.34 -1 4 C-0.67 2.68 -0.34 1.36 0 0 Z " fill="#EBAE3E" transform="translate(240,249)"/>
<path d="M0 0 C3.73993363 0.83109636 5.53865988 1.29944648 7.6875 4.5625 C9.27089795 8.70949464 9.3419646 11.9945424 9.1875 16.375 C9.17396484 17.11105469 9.16042969 17.84710938 9.14648438 18.60546875 C9.11144869 20.40396743 9.05765288 22.20208422 9 24 C8.67 24 8.34 24 8 24 C7.92523438 22.9378125 7.85046875 21.875625 7.7734375 20.78125 C7.04544325 12.43200427 6.36022588 6.08021593 0 0 Z " fill="#FEF0D0" transform="translate(240,218)"/>
<path d="M0 0 C-0.6875 2.4375 -0.6875 2.4375 -2 5 C-4.625 5.8125 -4.625 5.8125 -7 6 C-7 6.66 -7 7.32 -7 8 C-9.97 8.66 -12.94 9.32 -16 10 C-15.67 9.01 -15.34 8.02 -15 7 C-14.0925 6.9175 -13.185 6.835 -12.25 6.75 C-8.53386595 5.8924306 -7.46704667 4.80732897 -5 2 C-2 0 -2 0 0 0 Z " fill="#EEA011" transform="translate(284,279)"/>
<path d="M0 0 C-0.33 0.99 -0.66 1.98 -1 3 C-3.72265625 3.94921875 -3.72265625 3.94921875 -7.0625 4.6875 C-8.16722656 4.93886719 -9.27195313 5.19023438 -10.41015625 5.44921875 C-11.69212891 5.72185547 -11.69212891 5.72185547 -13 6 C-13 5.01 -13 4.02 -13 3 C-4.57142857 -0.42857143 -4.57142857 -0.42857143 0 0 Z " fill="#E89E15" transform="translate(174,31)"/>
<path d="M0 0 C8.20238542 0.86340899 15.67238987 3.60686784 21 10 C19.68 10 18.36 10 17 10 C16.195625 9.1028125 16.195625 9.1028125 15.375 8.1875 C11.81721707 4.91059467 7.61710661 4.16308792 3 3 C3 2.34 3 1.68 3 1 C2.01 0.67 1.02 0.34 0 0 Z " fill="#E5B55B" transform="translate(210,134)"/>
<path d="M0 0 C2.73144666 0.06023036 5.45759197 0.14732153 8.1875 0.25 C8.95642578 0.26417969 9.72535156 0.27835937 10.51757812 0.29296875 C15.57742529 0.51012957 18.27346656 1.26599856 22 5 C14.47407567 4.3622098 7.32901118 2.80110167 0 1 C0 0.67 0 0.34 0 0 Z " fill="#EBBF61" transform="translate(232,105)"/>
<path d="M0 0 C6.82207807 1.65535718 12.83373752 3.62600732 19 7 C14.74938644 8.41687119 12.28148375 7.19320039 8 6 C8 5.01 8 4.02 8 3 C7.05125 3.020625 6.1025 3.04125 5.125 3.0625 C2 3 2 3 0 2 C0 1.34 0 0.68 0 0 Z " fill="#FDF2D1" transform="translate(263,190)"/>
<path d="M0 0 C1 3 1 3 0.25 5.5 C-0.94658104 7.89316208 -1.91459015 9.34905053 -4 11 C-4.66 11 -5.32 11 -6 11 C-5.67 8.36 -5.34 5.72 -5 3 C-4.67 3.66 -4.34 4.32 -4 5 C-3.01 5 -2.02 5 -1 5 C-0.67 3.35 -0.34 1.7 0 0 Z " fill="#F1B74D" transform="translate(233,164)"/>
<path d="M0 0 C4.15426219 0.61092091 7.4375513 1.75410843 11 4 C12.9375 7 12.9375 7 14 10 C13.67 10.99 13.34 11.98 13 13 C12.67 11.68 12.34 10.36 12 9 C11.34 9 10.68 9 10 9 C8.31066078 7.3563186 6.64740076 5.6857124 5 4 C3.35135455 2.64444707 1.68996005 1.30368347 0 0 Z " fill="#FCEEC7" transform="translate(222,137)"/>
<path d="M0 0 C7.45116286 0.94381396 13.46864948 2.23191316 20 6 C20 6.33 20 6.66 20 7 C15.41920674 7.5910701 12.25983739 5.92541663 8.2265625 4.0234375 C5.54809697 2.79228317 2.81553408 1.86631818 0 1 C0 0.67 0 0.34 0 0 Z " fill="#FEF7D7" transform="translate(242,108)"/>
<path d="M0 0 C0.96661363 3.12180401 0.98988909 5.52083795 0.5625 8.75 C0.46066406 9.54921875 0.35882813 10.3484375 0.25390625 11.171875 C0.12822266 12.07679688 0.12822266 12.07679688 0 13 C-1.32 13.33 -2.64 13.66 -4 14 C-3.52525225 11.85318469 -3.04508251 9.70756772 -2.5625 7.5625 C-2.29566406 6.36753906 -2.02882813 5.17257812 -1.75390625 3.94140625 C-1 1 -1 1 0 0 Z " fill="#E99505" transform="translate(359,252)"/>
<path d="M0 0 C4.83290538 4.049191 6.3833652 7.96719209 8 14 C7.360625 13.505 6.72125 13.01 6.0625 12.5 C4.29025661 10.90197138 4.29025661 10.90197138 3 11 C3 9.02 3 7.04 3 5 C2.34 5 1.68 5 1 5 C0.67 3.35 0.34 1.7 0 0 Z " fill="#FDEDCC" transform="translate(274,124)"/>
<path d="M0 0 C3.63 0.33 7.26 0.66 11 1 C11 1.66 11 2.32 11 3 C11.99 3 12.98 3 14 3 C14.66 4.32 15.32 5.64 16 7 C15.46890625 6.71382812 14.9378125 6.42765625 14.390625 6.1328125 C11.57104523 4.79673712 8.71589101 3.84213837 5.75 2.875 C4.67234375 2.52179688 3.5946875 2.16859375 2.484375 1.8046875 C1.66453125 1.53914062 0.8446875 1.27359375 0 1 C0 0.67 0 0.34 0 0 Z " fill="#FCEBC4" transform="translate(224,211)"/>
<path d="M0 0 C0.99 0 1.98 0 3 0 C2.45773019 3.79588866 0.79872437 5.47211993 -2 8 C-2.99 7.67 -3.98 7.34 -5 7 C-3.47793991 4.37098712 -2.15634036 2.15634036 0 0 Z " fill="#E89F16" transform="translate(97,62)"/>
<path d="M0 0 C0.66 0.33 1.32 0.66 2 1 C0.625 3 0.625 3 -1 5 C-1.66 5 -2.32 5 -3 5 C-3.33 5.99 -3.66 6.98 -4 8 C-5.98 8 -7.96 8 -10 8 C-7.44735608 5.02191543 -4.46818428 3.73409214 -1 2 C-0.67 1.34 -0.34 0.68 0 0 Z " fill="#E6AD4B" transform="translate(279,278)"/>
<path d="M0 0 C1.98 0 3.96 0 6 0 C6 1.32 6 2.64 6 4 C4.68 3.67 3.36 3.34 2 3 C1.67 3.99 1.34 4.98 1 6 C0.01 5.67 -0.98 5.34 -2 5 C-1.34 3.35 -0.68 1.7 0 0 Z " fill="#FAA30A" transform="translate(100,98)"/>
<path d="M0 0 C0 3.36332514 -0.60544155 4.35303272 -2.375 7.125 C-2.81585938 7.82882812 -3.25671875 8.53265625 -3.7109375 9.2578125 C-5 11 -5 11 -7 12 C-7.33 10.68 -7.66 9.36 -8 8 C-6.68 8 -5.36 8 -4 8 C-3.8453125 6.576875 -3.8453125 6.576875 -3.6875 5.125 C-3 2 -3 2 0 0 Z " fill="#FCF2D0" transform="translate(291,263)"/>
<path d="M0 0 C0 3.67219242 -0.8030009 6.53500259 -2 10 C-2.99 10.66 -3.98 11.32 -5 12 C-5 7.19933903 -3.51939222 3.51939222 0 0 Z " fill="#F0A013" transform="translate(297,260)"/>
<path d="M0 0 C-0.99 0 -1.98 0 -3 0 C-3 0.66 -3 1.32 -3 2 C-5.97 2 -8.94 2 -12 2 C-11.01 1.67 -10.02 1.34 -9 1 C-9 0.34 -9 -0.32 -9 -1 C-5.22102349 -2.0497157 -3.35080929 -2.10976881 0 0 Z " fill="#F7AA25" transform="translate(228,259)"/>
<path d="M0 0 C3.95602172 4.85511756 5.29212746 8.71925967 5 15 C4.67 15 4.34 15 4 15 C4 13.35 4 11.7 4 10 C3.01 10 2.02 10 1 10 C0 3.375 0 3.375 0 0 Z " fill="#F1B53D" transform="translate(281,128)"/>
<path d="M0 0 C0.66 0.33 1.32 0.66 2 1 C1.01 2.32 0.02 3.64 -1 5 C1.31 5.33 3.62 5.66 6 6 C6 6.66 6 7.32 6 8 C4.53984709 7.71758359 3.08190207 7.42373386 1.625 7.125 C0.81289063 6.96257812 0.00078125 6.80015625 -0.8359375 6.6328125 C-3 6 -3 6 -5 4 C-3.35 2.68 -1.7 1.36 0 0 Z " fill="#E5BA67" transform="translate(268,185)"/>
<path d="M0 0 C1 2 1 2 0.1875 4.5625 C-1 7 -1 7 -3 8 C-4.32 7.34 -5.64 6.68 -7 6 C-4.69 4.02 -2.38 2.04 0 0 Z " fill="#FDF1D5" transform="translate(233,170)"/>
<path d="M0 0 C1.98 0.66 3.96 1.32 6 2 C6.33 4.31 6.66 6.62 7 9 C4.03595495 6.19195732 1.55500981 3.81684226 0 0 Z " fill="#E9B14C" transform="translate(287,201)"/>
<path d="M0 0 C1.32 0.66 2.64 1.32 4 2 C3.34 3.32 2.68 4.64 2 6 C1.01 6 0.02 6 -1 6 C-1.042721 4.33388095 -1.04063832 2.66617115 -1 1 C-0.67 0.67 -0.34 0.34 0 0 Z " fill="#FCA82C" transform="translate(276,184)"/>
<path d="M0 0 C0.33 0.99 0.66 1.98 1 3 C0.34 3 -0.32 3 -1 3 C-1 3.66 -1 4.32 -1 5 C-1.639375 5.103125 -2.27875 5.20625 -2.9375 5.3125 C-3.618125 5.539375 -4.29875 5.76625 -5 6 C-5.33 6.99 -5.66 7.98 -6 9 C-6.375 6.75 -6.375 6.75 -6 4 C-3 1.6875 -3 1.6875 0 0 Z " fill="#F7AA28" transform="translate(286,171)"/>
<path d="M0 0 C2.475 0.495 2.475 0.495 5 1 C5.33 1.99 5.66 2.98 6 4 C2.25 5.125 2.25 5.125 0 4 C0 2.68 0 1.36 0 0 Z " fill="#FCB437" transform="translate(96,294)"/>
<path d="M0 0 C-1.98 0.66 -3.96 1.32 -6 2 C-6 2.66 -6 3.32 -6 4 C-8.64 4 -11.28 4 -14 4 C-11.36711169 2.57385216 -8.65544851 1.41456868 -5.875 0.3125 C-5.19179687 0.04050781 -4.50859375 -0.23148438 -3.8046875 -0.51171875 C-2 -1 -2 -1 0 0 Z " fill="#F9E3B2" transform="translate(226,178)"/>
<path d="M0 0 C2 2 2 2 2.1953125 4.6015625 C2.17210937 5.59929687 2.14890625 6.59703125 2.125 7.625 C2.10695312 8.62789062 2.08890625 9.63078125 2.0703125 10.6640625 C2.03550781 11.82035156 2.03550781 11.82035156 2 13 C0.04542563 10.80926883 -0.98023653 9.62827019 -1.07421875 6.640625 C-0.94660156 5.85171875 -0.81898438 5.0628125 -0.6875 4.25 C-0.56761719 3.45078125 -0.44773438 2.6515625 -0.32421875 1.828125 C-0.21722656 1.22484375 -0.11023438 0.6215625 0 0 Z " fill="#F6B444" transform="translate(233,150)"/>
<path d="M0 0 C0.99 1.485 0.99 1.485 2 3 C-2.29 2.01 -6.58 1.02 -11 0 C-11 -0.33 -11 -0.66 -11 -1 C-6.6292047 -2.01646402 -3.97712063 -2.20951146 0 0 Z " fill="#FCEFCF" transform="translate(219,134)"/>
<path d="M0 0 C2 0 2 0 4.5 2.3125 C7 5 7 5 9 8 C8.01 8.495 8.01 8.495 7 9 C4.03595495 6.19195732 1.55500981 3.81684226 0 0 Z " fill="#E89F1C" transform="translate(328,91)"/>
<path d="M0 0 C-2.06756277 2.7972908 -3.14440371 3.02692273 -6.6875 3.6875 C-7.780625 3.790625 -8.87375 3.89375 -10 4 C-7.16124653 -0.25813021 -4.8137938 -0.13010254 0 0 Z " fill="#FEF3D6" transform="translate(272,283)"/>
<path d="M0 0 C0.66 1.32 1.32 2.64 2 4 C0.35 5.65 -1.3 7.3 -3 9 C-3.66 8.67 -4.32 8.34 -5 8 C-4.54625 7.608125 -4.0925 7.21625 -3.625 6.8125 C-1.72357081 4.69167513 -0.93795972 2.66957765 0 0 Z " fill="#FCE8CB" transform="translate(247,243)"/>
<path d="M0 0 C3.81684226 1.55500981 6.19195732 4.03595495 9 7 C7.68 6.67 6.36 6.34 5 6 C5 5.34 5 4.68 5 4 C4.360625 3.896875 3.72125 3.79375 3.0625 3.6875 C2.381875 3.460625 1.70125 3.23375 1 3 C0.67 2.01 0.34 1.02 0 0 Z " fill="#EAB660" transform="translate(234,215)"/>
<path d="M0 0 C0.66 1.32 1.32 2.64 2 4 C-4.93 3.505 -4.93 3.505 -12 3 C-12 2.67 -12 2.34 -12 2 C-11.21753906 1.93941406 -10.43507812 1.87882812 -9.62890625 1.81640625 C-8.61699219 1.73261719 -7.60507813 1.64882812 -6.5625 1.5625 C-5.55316406 1.48128906 -4.54382813 1.40007812 -3.50390625 1.31640625 C-1.06359221 1.26788532 -1.06359221 1.26788532 0 0 Z " fill="#F3AD37" transform="translate(241,102)"/>
<path d="M0 0 C2.64 0.33 5.28 0.66 8 1 C8 1.66 8 2.32 8 3 C8.66 3.33 9.32 3.66 10 4 C9.01 4.495 9.01 4.495 8 5 C6.0546875 4.22265625 6.0546875 4.22265625 3.875 3.0625 C3.15054687 2.68222656 2.42609375 2.30195312 1.6796875 1.91015625 C1.12539062 1.60980469 0.57109375 1.30945313 0 1 C0 0.67 0 0.34 0 0 Z " fill="#EDC065" transform="translate(254,110)"/>
<path d="M0 0 C-0.33 0.66 -0.66 1.32 -1 2 C-3.64 2 -6.28 2 -9 2 C-5.945634 -1.054366 -3.9532319 -1.22686507 0 0 Z " fill="#E4B251" transform="translate(269,287)"/>
<path d="M0 0 C-3.00617269 3.00617269 -5.82381598 2.59585316 -10 3 C-6.74534559 -0.25465441 -4.4822096 -1.60078914 0 0 Z " fill="#FEFDE6" transform="translate(230,178)"/>
<path d="M0 0 C2.97 0.33 5.94 0.66 9 1 C9.33 2.32 9.66 3.64 10 5 C5.05 3.02 5.05 3.02 0 1 C0 0.67 0 0.34 0 0 Z " fill="#FBEABF" transform="translate(122,131)"/>
<path d="M0 0 C1.65 0 3.3 0 5 0 C5.33 1.32 5.66 2.64 6 4 C4.02 3.34 2.04 2.68 0 2 C0 1.34 0 0.68 0 0 Z " fill="#F9B033" transform="translate(250,106)"/>
<path d="M0 0 C1.9375 0.3125 1.9375 0.3125 4 1 C4.33 1.99 4.66 2.98 5 4 C5.66 4.66 6.32 5.32 7 6 C5.68 6 4.36 6 3 6 C0 2.78571429 0 2.78571429 0 0 Z " fill="#E89F1F" transform="translate(322,84)"/>
</svg>
