<?xml version="1.0" encoding="UTF-8"?>
<svg version="1.1" xmlns="http://www.w3.org/2000/svg" width="353" height="353">
<path d="M0 0 C116.49 0 232.98 0 353 0 C353 116.49 353 232.98 353 353 C236.51 353 120.02 353 0 353 C0 236.51 0 120.02 0 0 Z " fill="#F4F2F0" transform="translate(0,0)"/>
<path d="M0 0 C116.49 0 232.98 0 353 0 C353 116.49 353 232.98 353 353 C236.51 353 120.02 353 0 353 C0 236.51 0 120.02 0 0 Z M7.125 9.9375 C3.96602391 14.49014201 2.75055495 17.99297089 2.74552441 23.52798176 C2.73969221 24.63375641 2.73386002 25.73953107 2.72785109 26.87881404 C2.73163042 28.08833254 2.73540974 29.29785103 2.73930359 30.54402161 C2.73547804 31.83305175 2.73165249 33.12208189 2.72771102 34.45017356 C2.71741641 38.02635981 2.71961656 41.60244597 2.72389162 45.17864048 C2.72635623 49.03628508 2.71734791 52.8939054 2.70985413 56.75154114 C2.69709717 64.30880972 2.69531472 71.86604279 2.69765439 79.42332033 C2.69943679 85.56634831 2.69768957 91.70936551 2.69342995 97.8523922 C2.69283476 98.72641912 2.69223957 99.60044603 2.69162634 100.50095862 C2.6904146 102.2765171 2.68920047 104.05207558 2.68798397 105.82763406 C2.67710434 122.48386998 2.67927277 139.14008566 2.68536881 155.79632273 C2.6905369 171.03222872 2.67928615 186.26807076 2.66027059 201.5039641 C2.64089529 217.14805876 2.63263575 232.79212315 2.63639385 248.43622988 C2.63830654 257.2191994 2.63581176 266.0021145 2.62167931 274.78507423 C2.60976837 282.26314806 2.60835729 289.74113397 2.62046947 297.21920899 C2.62636053 301.03386892 2.62745145 304.84836803 2.61546707 308.66301727 C2.60261974 312.8004816 2.6130675 316.93756279 2.6257782 321.07502747 C2.61840391 322.2778538 2.61102963 323.48068013 2.60343188 324.71995574 C2.64975625 331.87827298 3.00739198 338.16294318 7.578125 344.0234375 C8.12984375 344.46945312 8.6815625 344.91546875 9.25 345.375 C10.06210938 346.06722656 10.06210938 346.06722656 10.890625 346.7734375 C17.7062475 350.73659577 25.02174597 350.28494738 32.67063904 350.26069641 C33.94912737 350.26452196 35.22761571 350.26834751 36.54484612 350.27228898 C40.0823094 350.28255688 43.6196712 350.28039026 47.15714276 350.27610838 C50.97657874 350.27363898 54.79599043 350.28265795 58.61541748 350.29014587 C66.09353733 350.30288864 73.57162126 350.30468712 81.04975014 350.30234561 C87.12837105 350.30056193 93.20698106 350.30231316 99.28560066 350.30657005 C100.15103052 350.30716524 101.01646037 350.30776043 101.90811538 350.30837366 C103.66627979 350.30958542 105.4244442 350.31079955 107.18260861 350.31201603 C123.66669507 350.32288981 140.15076106 350.32072976 156.63484866 350.31463119 C171.71219786 350.30946136 186.78948247 350.3207195 201.8668189 350.33972941 C217.35277519 350.35910468 232.83870092 350.3673644 248.32466942 350.36360615 C257.01706542 350.36169374 265.70940642 350.36418564 274.40179253 350.37832069 C281.8011329 350.39023145 289.20038443 350.39164277 296.59972601 350.37953053 C300.37389513 350.37363988 304.1479017 350.3725475 307.92206001 350.38453293 C312.01562806 350.39738152 316.10880892 350.38693187 320.20237732 350.3742218 C321.39216657 350.38159609 322.58195581 350.38897037 323.80779928 350.39656812 C331.55856815 350.34587793 337.6803359 349.80327191 343.8125 344.625 C348.45501951 339.05397658 350.12065813 334.81379693 350.13422108 327.62909412 C350.14090784 325.98479395 350.14090784 325.98479395 350.14772969 324.30727559 C350.14754533 323.10330827 350.14736097 321.89934095 350.14717102 320.65888977 C350.15268605 318.7399352 350.15268605 318.7399352 350.1583125 316.78221387 C350.16832381 313.22853104 350.17204789 309.6748651 350.17470181 306.12117016 C350.1786074 302.28939607 350.18818552 298.45763532 350.19691467 294.62586975 C350.21667114 285.37120652 350.22674394 276.11654221 350.23564246 266.86186317 C350.24002642 262.50317058 350.24539292 258.14447921 350.25063133 253.78578758 C350.26764226 239.29593947 350.28213659 224.80609211 350.28938007 210.31623554 C350.29128995 206.55660819 350.29321029 202.79698084 350.29516602 199.03735352 C350.29564976 198.10292328 350.2961335 197.16849304 350.2966319 196.20574673 C350.30493282 181.06743833 350.3302714 165.92920892 350.36274669 150.79093502 C350.39581936 135.24744276 350.41382899 119.70399066 350.41702431 104.16046304 C350.41918914 95.43386859 350.42793388 86.70738938 350.45348549 77.98082924 C350.47519526 70.54922951 350.48324153 63.11777301 350.47351871 55.68614516 C350.46897488 51.89561663 350.47086478 48.10538361 350.49028015 44.31489563 C350.51116604 40.20173218 350.50092391 36.08922367 350.48774719 31.97602844 C350.49871644 30.78321473 350.50968568 29.59040102 350.52098733 28.36144143 C350.46054385 20.54800477 349.50390522 13.71239095 343.96484375 7.84375 C343.29582031 7.4003125 342.62679688 6.956875 341.9375 6.5 C341.26589844 6.0359375 340.59429687 5.571875 339.90234375 5.09375 C336.43501216 3.10021233 333.61804979 2.87309305 329.70249653 2.86577892 C328.0445826 2.85909216 328.0445826 2.85909216 326.35317546 2.85227031 C324.52432277 2.85254685 324.52432277 2.85254685 322.65852356 2.85282898 C321.36711871 2.84915229 320.07571387 2.8454756 318.74517554 2.8416875 C315.15309805 2.8316632 311.56103727 2.82795002 307.96894777 2.82529819 C304.09763845 2.82139641 300.22634237 2.81181798 296.3550415 2.80308533 C287.00207849 2.78331729 277.64911438 2.77325425 268.29613569 2.76435754 C263.89248317 2.75997517 259.48883185 2.75460823 255.08518028 2.74936867 C240.44782288 2.73235601 225.81046624 2.71786162 211.17310047 2.71061993 C207.37410799 2.70871001 203.57511551 2.70678968 199.77612305 2.70483398 C198.83189315 2.70435024 197.88766326 2.7038665 196.91482034 2.7033681 C181.61734329 2.69506699 166.31994441 2.66972887 151.02250151 2.63725331 C135.319714 2.60418879 119.61696624 2.58617171 103.91414374 2.58297569 C95.09646393 2.58081002 86.27889811 2.57205311 77.46125221 2.54651451 C69.95201271 2.52481581 62.4429149 2.51675298 54.93364761 2.52648129 C51.10274581 2.53102844 47.27213641 2.52911598 43.44127464 2.50971985 C39.28610858 2.48886357 35.13159196 2.49906553 30.97639465 2.51225281 C29.76831313 2.50128356 28.56023162 2.49031432 27.31554157 2.47901267 C19.16765289 2.54153188 12.80381789 3.56618473 7.125 9.9375 Z " fill="#FEFEFE" transform="translate(0,0)"/>
<path d="M0 0 C8.25 0 16.5 0 25 0 C25 37.95 25 75.9 25 115 C16.75 115 8.5 115 0 115 C0 77.05 0 39.1 0 0 Z " fill="#241F1C" transform="translate(188,119)"/>
<path d="M0 0 C8.25 0 16.5 0 25 0 C25 37.95 25 75.9 25 115 C16.75 115 8.5 115 0 115 C0 77.05 0 39.1 0 0 Z " fill="#241F1C" transform="translate(140,119)"/>
</svg>
