<?xml version="1.0" encoding="UTF-8"?>
<svg version="1.1" xmlns="http://www.w3.org/2000/svg" width="400" height="400">
<path d="M0 0 C132 0 264 0 400 0 C400 132 400 264 400 400 C268 400 136 400 0 400 C0 268 0 136 0 0 Z " fill="#475693" transform="translate(0,0)"/>
<path d="M0 0 C0.99 0 1.98 0 3 0 C5.25080239 3.89537014 7.50071502 7.7912535 9.75 11.6875 C10.09046356 12.27722595 10.43092712 12.8669519 10.78170776 13.47454834 C15.22921428 21.1796978 19.65884168 28.89468548 24.0625 36.625 C28.84746002 45.01938457 33.70413268 53.37039776 38.58056641 61.71191406 C44.79393662 72.34545444 50.94395809 83.01521124 57.09130859 93.68701172 C60.30878669 99.27171084 63.52931422 104.85465031 66.75 110.4375 C67.37898193 111.52788574 68.00796387 112.61827148 68.65600586 113.74169922 C72.69121536 120.73563854 76.73169968 127.72648691 80.7824707 134.71142578 C83.1483255 138.79315114 85.50674199 142.87901963 87.85592651 146.97036743 C89.21306127 149.33381771 90.57163892 151.6964375 91.93017578 154.05908203 C92.91326237 155.77031031 93.89415915 157.48279602 94.875 159.1953125 C95.48214844 160.25105469 96.08929688 161.30679688 96.71484375 162.39453125 C97.28315918 163.38275879 97.85147461 164.37098633 98.43701172 165.38916016 C99.71158847 167.51823291 101.04261288 169.51096719 102.50390625 171.51171875 C104 174 104 174 103.82421875 175.98901367 C102.76927988 178.56292701 101.6729632 179.2290166 99.30859375 180.6640625 C98.53733154 181.14085449 97.76606934 181.61764648 96.97143555 182.10888672 C96.13523682 182.6092041 95.29903809 183.10952148 94.4375 183.625 C93.57487549 184.15496582 92.71225098 184.68493164 91.82348633 185.23095703 C90.05515774 186.31692993 88.28390277 187.39815198 86.50976562 188.47460938 C83.04972144 190.5775623 79.61803416 192.72438255 76.1875 194.875 C75.55142822 195.27187012 74.91535645 195.66874023 74.26000977 196.07763672 C65.76402994 201.38176248 57.32697098 206.77904377 48.88183594 212.16357422 C45.98746933 214.00798507 43.09165375 215.85009803 40.1953125 217.69140625 C39.24889893 218.29315674 38.30248535 218.89490723 37.32739258 219.51489258 C35.45754927 220.70370669 33.58759663 221.89234887 31.7175293 223.08081055 C27.74419656 225.60805295 23.77434816 228.13973289 19.82421875 230.703125 C18.88835937 231.30966919 18.88835937 231.30966919 17.93359375 231.9284668 C16.3432888 232.96132005 14.75549045 233.99803017 13.16796875 235.03515625 C9.18947687 237.50270423 5.10898368 239.75847579 1 242 C-6.94140625 236.984375 -14.8828125 231.96875 -22.82421875 226.953125 C-23.59677002 226.46521484 -24.36932129 225.97730469 -25.1652832 225.47460938 C-26.73809883 224.48121751 -28.31085148 223.48772591 -29.88354492 222.49414062 C-33.767276 220.04067316 -37.65195817 217.58874514 -41.5390625 215.140625 C-51.61823106 208.7893681 -61.66862854 202.39451067 -71.68798828 195.94921875 C-76.69074482 192.73531729 -81.70566302 189.55098326 -86.78125 186.453125 C-87.66619141 185.90914062 -88.55113281 185.36515625 -89.46289062 184.8046875 C-91.11158123 183.79440442 -92.7662659 182.79381596 -94.42773438 181.8046875 C-95.51538086 181.13566406 -95.51538086 181.13566406 -96.625 180.453125 C-97.57246094 179.88319824 -97.57246094 179.88319824 -98.5390625 179.30175781 C-100.45913722 177.59088909 -100.81514095 176.55667465 -101 174 C-100.17407227 171.97070313 -100.17407227 171.97070313 -98.81640625 169.78125 C-98.05577881 168.52876465 -98.05577881 168.52876465 -97.27978516 167.25097656 C-96.71308105 166.3431543 -96.14637695 165.43533203 -95.5625 164.5 C-94.35071422 162.50651389 -93.14118299 160.51165602 -91.93359375 158.515625 C-91.29019043 157.45666016 -90.64678711 156.39769531 -89.98388672 155.30664062 C-86.95227514 150.25370595 -84.03627921 145.13652125 -81.12625122 140.0128479 C-79.44172619 137.04699741 -77.75180376 134.08422407 -76.0625 131.12109375 C-75.72650284 130.53144333 -75.39050568 129.94179291 -75.04432678 129.33427429 C-67.06925299 115.34448071 -59.02594942 101.39301352 -50.83520508 87.52832031 C-45.13386897 77.86078685 -39.55631067 68.12102079 -33.95556641 58.39501953 C-30.1924982 51.86203246 -26.42330615 45.33257705 -22.65478516 38.80273438 C-19.71883248 33.7148838 -16.78416114 28.62630761 -13.85409546 23.5350647 C-12.46671905 21.12456252 -11.07860376 18.71448624 -9.69042969 16.30444336 C-8.70826185 14.59856032 -7.72716615 12.89206014 -6.74609375 11.18554688 C-6.153125 10.15623047 -5.56015625 9.12691406 -4.94921875 8.06640625 C-4.42674561 7.15834229 -3.90427246 6.25027832 -3.3659668 5.31469727 C-2.30022034 3.50873799 -1.16319248 1.74478871 0 0 Z " fill="#EAF3FD" transform="translate(199,27)"/>
<path d="M0 0 C3.5214406 0.65417865 6.02691117 2.08833062 9.04296875 3.9921875 C10.02539551 4.60908447 11.00782227 5.22598145 12.02001953 5.86157227 C13.06528809 6.52600342 14.11055664 7.19043457 15.1875 7.875 C16.2688623 8.5568335 17.35022461 9.23866699 18.46435547 9.94116211 C25.20872537 14.20231848 31.9260855 18.50454041 38.61254883 22.85595703 C47.14116535 28.40617985 55.73851449 33.84875184 64.32885742 39.30273438 C67.14145242 41.08988002 69.95154876 42.88091912 72.76171875 44.671875 C76.63904444 47.13926408 80.52486316 49.5890259 84.4375 52 C85.40558594 52.598125 86.37367188 53.19625 87.37109375 53.8125 C92.53249308 56.95573066 97.77455438 59.96501088 103 63 C120.23940201 52.26818277 120.23940201 52.26818277 137.359375 41.34765625 C150.98169015 32.54894245 164.70699897 23.91473114 178.48266602 15.35864258 C184.96605277 11.31687737 191.36817329 7.17825861 197.62475586 2.79199219 C201.68205771 0 201.68205771 0 205 0 C204.38004752 4.04445191 202.20055849 7.01299121 199.9375 10.3125 C199.50775879 10.94841064 199.07801758 11.58432129 198.63525391 12.23950195 C193.74579724 19.44185922 188.7486634 26.57124326 183.765625 33.70898438 C179.64859979 39.61005384 175.59629312 45.54160134 171.6328125 51.546875 C169.51237508 54.73260394 167.31007361 57.85656032 165.10546875 60.984375 C162.2499827 65.07423628 159.4383846 69.19360517 156.625 73.3125 C152.18024673 79.81852415 147.71708986 86.31063226 143.2265625 92.78515625 C136.01398761 103.1991021 128.86447588 113.65646546 121.71606445 124.11450195 C117.80111479 129.83852159 113.86232327 135.54533564 109.90234375 141.23828125 C107.90393995 144.13945473 105.94707534 147.06420935 104 150 C102.23828125 149.83984375 102.23828125 149.83984375 100 149 C98.10546875 146.62890625 98.10546875 146.62890625 96.1875 143.5625 C95.135625 141.91701172 95.135625 141.91701172 94.0625 140.23828125 C93.381875 139.16964844 92.70125 138.10101563 92 137 C90.90717074 135.40882035 89.80362959 133.82492324 88.6875 132.25 C84.70162214 126.59204187 80.78690579 120.88622695 76.87109375 115.1796875 C75.05629041 112.53520752 73.23647333 109.89435279 71.41015625 107.2578125 C65.10446447 98.14216993 58.93728905 88.93955474 52.83325195 79.6875 C48.98759709 73.88390752 45.01030973 68.20924208 40.89086914 62.59692383 C38.11624875 58.78625409 35.45982705 54.89969353 32.8125 51 C31.68623696 49.34762964 30.5599337 47.69528669 29.43359375 46.04296875 C28.86624512 45.20942871 28.29889648 44.37588867 27.71435547 43.51708984 C24.94070411 39.44469658 22.15779929 35.3786452 19.375 31.3125 C18.84197266 30.53326172 18.30894531 29.75402344 17.75976562 28.95117188 C13.65784462 22.95605657 9.54526069 16.9683225 5.42529297 10.9855957 C0 3.10413217 0 3.10413217 0 0 Z " fill="#EBF3FC" transform="translate(98,222)"/>
<path d="M0 0 C8.06686435 4.03343217 15.93550957 7.97033338 23.6875 12.5 C31.84654931 17.21686783 40.06190892 21.82029255 48.3125 26.375 C64.39304113 35.26957079 80.25967751 44.51744147 96 54 C91.20590738 58.10487846 85.89168366 61.3365944 80.5625 64.6875 C78.57144382 65.94634454 76.58055812 67.20545875 74.58984375 68.46484375 C73.14520752 69.3772583 73.14520752 69.3772583 71.67138672 70.30810547 C68.31040526 72.43674753 64.9658102 74.58990364 61.625 76.75 C53.47360072 81.9998893 45.24232001 87.12092047 37.00732422 92.23828125 C35.02499927 93.47020699 33.04348095 94.70341428 31.0625 95.9375 C30.41249023 96.34226562 29.76248047 96.74703125 29.09277344 97.1640625 C23.26300106 100.80802833 17.49707107 104.5485455 11.75805664 108.33374023 C11.09281982 108.76887939 10.42758301 109.20401855 9.7421875 109.65234375 C8.87376221 110.22456665 8.87376221 110.22456665 7.98779297 110.80834961 C5.40878317 112.35442512 2.68948189 113.65525905 0 115 C0 77.05 0 39.1 0 0 Z " fill="#6E84CD" transform="translate(202,149)"/>
<path d="M0 0 C0 37.95 0 75.9 0 115 C-10.11767178 109.37907123 -10.11767178 109.37907123 -13.74609375 107.140625 C-14.52017578 106.66496094 -15.29425781 106.18929687 -16.09179688 105.69921875 C-16.86587891 105.22097656 -17.63996094 104.74273437 -18.4375 104.25 C-20.01909816 103.27533854 -21.60110906 102.30134642 -23.18359375 101.328125 C-23.86993896 100.9043457 -24.55628418 100.48056641 -25.26342773 100.04394531 C-27.01735743 98.95901245 -27.01735743 98.95901245 -29 98 C-29 97.34 -29 96.68 -29 96 C-30.2065625 95.690625 -30.2065625 95.690625 -31.4375 95.375 C-34.45710365 94.20953894 -36.50499233 93.09915648 -39.1328125 91.30078125 C-40.32233521 90.49447266 -40.32233521 90.49447266 -41.53588867 89.671875 C-42.34904541 89.12015625 -43.16220215 88.5684375 -44 88 C-53.72942544 81.56094161 -63.52052663 75.23265519 -73.5 69.1875 C-78.72549844 66.01507991 -83.93242329 62.82516188 -89.0625 59.5 C-90.00222656 58.8915625 -90.94195312 58.283125 -91.91015625 57.65625 C-94 56 -94 56 -95 53 C-93.59244792 52.20442708 -92.18489583 51.40885417 -90.77734375 50.61328125 C-89.85840332 50.09386963 -88.93946289 49.57445801 -87.99267578 49.03930664 C-85.92467816 47.87045998 -83.85664323 46.70167933 -81.78857422 45.53295898 C-76.60168845 42.60159804 -71.41524819 39.66946009 -66.23046875 36.734375 C-64.36201215 35.67702504 -62.49352262 34.61973329 -60.625 33.5625 C-59.68398437 33.02987549 -58.74296875 32.49725098 -57.7734375 31.94848633 C-52.78076601 29.12575215 -47.78088407 26.31679181 -42.76953125 23.52734375 C-40.65874644 22.35175591 -38.54806933 21.17597466 -36.4375 20 C-35.40761963 19.42628662 -34.37773926 18.85257324 -33.31665039 18.26147461 C-25.03127868 13.62476671 -16.85110901 8.82265772 -8.72631836 3.91015625 C-7.86917236 3.39582031 -7.01202637 2.88148438 -6.12890625 2.3515625 C-5.00077515 1.66827881 -5.00077515 1.66827881 -3.84985352 0.97119141 C-2 0 -2 0 0 0 Z " fill="#AABCF0" transform="translate(199,149)"/>
<path d="M0 0 C2.28254666 2.8229265 4.44061339 5.51856805 6.18359375 8.70703125 C6.55121826 9.3719458 6.91884277 10.03686035 7.29760742 10.72192383 C7.67377197 11.41181396 8.04993652 12.1017041 8.4375 12.8125 C11.92658671 19.14226892 11.92658671 19.14226892 15.6875 25.3125 C17.46276525 28.08597838 19.06443749 30.91241783 20.625 33.8125 C26.16717944 44.09281212 32.06665504 54.20307675 38.125 64.1875 C40.99957739 68.93465924 43.6935845 73.77759614 46.40063477 78.62133789 C49.63715162 84.39482073 52.97940311 90.10146378 56.34765625 95.79882812 C58.84962347 100.03441151 61.3187238 104.28573483 63.75 108.5625 C66.77823248 113.88632806 69.8508601 119.18249506 72.94213867 124.4699707 C75.35976821 128.60557007 77.77099238 132.74488993 80.18212891 136.88427734 C81.39267435 138.95908006 82.60588648 141.03232922 83.82177734 143.10400391 C85.53442196 146.02342301 87.23698029 148.94850645 88.9375 151.875 C89.46375977 152.76646729 89.99001953 153.65793457 90.53222656 154.57641602 C91.00499023 155.39424561 91.47775391 156.2120752 91.96484375 157.0546875 C92.3837085 157.77124512 92.80257324 158.48780273 93.23413086 159.22607422 C93.48686768 159.81146973 93.73960449 160.39686523 94 161 C93.67 161.66 93.34 162.32 93 163 C84.28930574 158.21166514 75.60238371 153.40054212 67.0625 148.3125 C59.70486883 143.93754948 52.23996307 139.76867288 44.75 135.625 C36.28554018 130.9422062 27.83639181 126.23708546 19.4375 121.4375 C18.21788574 120.74164795 18.21788574 120.74164795 16.97363281 120.03173828 C15.4719092 119.17116151 13.97647356 118.29945295 12.48962975 117.41341591 C10.01884648 115.96403012 10.01884648 115.96403012 7.40113258 114.80437279 C0.55430315 111.40991641 0.55430315 111.40991641 -0.90436172 107.69968033 C-1.233977 104.82867045 -1.23837316 102.10948378 -1.13525391 99.22119141 C-1.13671417 98.14742249 -1.13817444 97.07365356 -1.13967896 95.96734619 C-1.13272488 92.42667768 -1.05502284 88.8913081 -0.9765625 85.3515625 C-0.9579063 82.89393998 -0.94367403 80.43628021 -0.9336853 77.97860718 C-0.89554266 71.51675335 -0.79734676 65.05715524 -0.68664551 58.59619141 C-0.58426153 52.00063596 -0.53865795 45.40471517 -0.48828125 38.80859375 C-0.38110331 25.87143462 -0.21240815 12.93583739 0 0 Z " fill="#ACBDF0" transform="translate(202,35)"/>
<path d="M0 0 C0 3.73946897 -0.93366148 4.56303929 -3.1875 7.5 C-6.94017809 12.52332172 -10.53285958 17.63006174 -14.0625 22.8125 C-14.61043213 23.61526367 -15.15836426 24.41802734 -15.72290039 25.24511719 C-18.7521542 29.68761928 -21.77076876 34.13724428 -24.78515625 38.58984375 C-30.87128364 47.56661085 -36.95030729 56.52339285 -43.50048828 65.17089844 C-45.94248202 68.42236608 -48.02012379 71.71776208 -49.98803711 75.26098633 C-51.68997618 78.18569369 -53.69266055 80.89675212 -55.6875 83.625 C-56.57496861 84.85362537 -57.46167065 86.08280477 -58.34765625 87.3125 C-58.79125488 87.92738281 -59.23485352 88.54226563 -59.69189453 89.17578125 C-66.91681954 99.2513019 -73.79522704 109.57137604 -80.58203125 119.9453125 C-81.24634155 120.95489014 -81.24634155 120.95489014 -81.92407227 121.98486328 C-82.78660504 123.29573522 -83.64537694 124.60909212 -84.49975586 125.92529297 C-86.74111646 129.32393958 -89.08190467 132.1755416 -92 135 C-92.09260424 125.01233877 -92.1637162 115.02477935 -92.20724869 105.03677654 C-92.22814022 100.39911951 -92.25648617 95.76175578 -92.30175781 91.12426758 C-92.34516012 86.65036441 -92.3691253 82.17674367 -92.37950897 77.70264626 C-92.38691049 75.99414433 -92.40136374 74.28565819 -92.42292023 72.57727623 C-92.45188053 70.18748726 -92.45595924 67.79887123 -92.45410156 65.40893555 C-92.46848267 64.69971451 -92.48286377 63.99049347 -92.49768066 63.25978088 C-92.47066125 60.05590221 -92.39459182 58.42078041 -90.15911865 56.03694153 C-88 55 -88 55 -85 55 C-85 54.34 -85 53.68 -85 53 C-84.34515625 52.6596875 -83.6903125 52.319375 -83.015625 51.96875 C-76.74289141 48.63746776 -70.82950055 44.98148178 -64.953125 40.99609375 C-57.26389599 35.79874451 -49.3391818 30.95533089 -41.46582031 26.04345703 C-36.13221057 22.7139991 -30.81384435 19.3608976 -25.5 16 C-17.01893017 10.63619335 -8.51548744 5.30896597 0 0 Z " fill="#ADBEF0" transform="translate(294,230)"/>
<path d="M0 0 C0.33 0.99 0.66 1.98 1 3 C0.4225 3.04125 -0.155 3.0825 -0.75 3.125 C-3.33687677 3.88302059 -3.33687677 3.88302059 -5 7 C-7 10 -7 10 -9.25 10.875 C-9.8275 10.91625 -10.405 10.9575 -11 11 C-11 10.34 -11 9.68 -11 9 C-12.32 9.99 -13.64 10.98 -15 12 C-14.67 12.99 -14.34 13.98 -14 15 C-14.66 15 -15.32 15 -16 15 C-16.33 16.32 -16.66 17.64 -17 19 C-17.99 18.67 -18.98 18.34 -20 18 C-21.93125966 18.3574765 -21.93125966 18.3574765 -24 19 C-25.66519519 19.34060811 -27.33157466 19.67558396 -29 20 C-29.33 22.31 -29.66 24.62 -30 27 C-29.01 27 -28.02 27 -27 27 C-27 26.34 -27 25.68 -27 25 C-25.68 25 -24.36 25 -23 25 C-23 25.66 -23 26.32 -23 27 C-22.01 26.505 -22.01 26.505 -21 26 C-20.34786708 23.97536745 -20.34786708 23.97536745 -20 22 C-19.67 22.66 -19.34 23.32 -19 24 C-17.68 23.34 -16.36 22.68 -15 22 C-15 21.01 -15 20.02 -15 19 C-13.329375 19.061875 -13.329375 19.061875 -11.625 19.125 C-7.95633975 19.41121859 -7.95633975 19.41121859 -6 17 C-5.83318891 13.91652174 -5.83318891 13.91652174 -6 11 C-3.125 11.25 -3.125 11.25 0 12 C1.4375 13.8125 1.4375 13.8125 2 16 C1.625 18.25 1.625 18.25 1 20 C1 19.01 1 18.02 1 17 C-4.71866404 20.01529558 -10.15487724 23.34310051 -15.5625 26.875 C-22.61471902 31.48101783 -29.72628123 35.98273139 -36.875 40.4375 C-38.93621154 41.72263441 -40.99740954 43.00779051 -43.05859375 44.29296875 C-44.56075439 45.22955322 -44.56075439 45.22955322 -46.09326172 46.18505859 C-57.04274982 53.02182111 -67.93805529 59.93796395 -78.76123047 66.97290039 C-86.11506844 71.74321667 -93.55187465 76.37875399 -101 81 C-103.10629899 79.81616772 -105.20996475 78.62798659 -107.3125 77.4375 C-108.17584961 76.95313477 -108.17584961 76.95313477 -109.05664062 76.45898438 C-114.83611641 73.17874136 -120.40915855 69.58951104 -126 66 C-127.70389692 64.91453191 -129.40831189 63.82987655 -131.11328125 62.74609375 C-133.79166679 61.0417595 -136.46994761 59.3372617 -139.14794922 57.63232422 C-144.06096679 54.50481512 -148.9757911 51.38022128 -153.89453125 48.26171875 C-163.33208549 42.2745388 -172.75404118 36.28101 -182 30 C-181.34 29.34 -180.68 28.68 -180 28 C-180 28.66 -180 29.32 -180 30 C-176.50865288 28.83621763 -175.84622368 28.10501256 -174 25 C-173.27954633 21.84881675 -173.27954633 21.84881675 -173 19 C-167.8612899 20.69917268 -163.65470412 23.71419713 -159.1875 26.6875 C-150.50161254 32.40264156 -141.72768543 37.95928357 -132.90014648 43.45263672 C-125.53672242 48.03546291 -118.19803736 52.65538537 -110.88647461 57.32055664 C-109.80571655 58.00686157 -109.80571655 58.00686157 -108.703125 58.70703125 C-108.08083008 59.1038208 -107.45853516 59.50061035 -106.81738281 59.90942383 C-106.21764648 60.26931396 -105.61791016 60.6292041 -105 61 C-104.33154053 61.41040527 -103.66308105 61.82081055 -102.97436523 62.24365234 C-102.32282471 62.49324707 -101.67128418 62.7428418 -101 63 C-98.38540252 61.72526742 -96.19955438 60.43474749 -93.8125 58.8125 C-92.75409912 58.12172363 -92.75409912 58.12172363 -91.67431641 57.41699219 C-90.18331793 56.44232401 -88.69673981 55.46086471 -87.21435547 54.47314453 C-84.46632653 52.64496299 -81.69410669 50.85610879 -78.91967773 49.06835938 C-76.82119516 47.71530792 -74.72688953 46.35595176 -72.6328125 44.99609375 C-60.69130376 37.25835053 -48.68850991 29.6152005 -36.546875 22.1953125 C-31.58253623 19.13964549 -26.66912724 16.00269359 -21.75 12.875 C-20.82638672 12.28847656 -19.90277344 11.70195312 -18.95117188 11.09765625 C-13.83505014 7.83893313 -8.77447698 4.52262704 -3.78613281 1.07080078 C-2 0 -2 0 0 0 Z " fill="#7F86B0" transform="translate(302,205)"/>
<path d="M0 0 C0.495 1.485 0.495 1.485 1 3 C0.4225 3.04125 -0.155 3.0825 -0.75 3.125 C-3.33687677 3.88302059 -3.33687677 3.88302059 -5 7 C-7 10 -7 10 -9.25 10.875 C-9.8275 10.91625 -10.405 10.9575 -11 11 C-11 10.34 -11 9.68 -11 9 C-12.32 9.99 -13.64 10.98 -15 12 C-14.505 13.485 -14.505 13.485 -14 15 C-14.66 15 -15.32 15 -16 15 C-16.33 16.32 -16.66 17.64 -17 19 C-17.99 18.67 -18.98 18.34 -20 18 C-21.93125966 18.3574765 -21.93125966 18.3574765 -24 19 C-25.66519519 19.34060811 -27.33157466 19.67558396 -29 20 C-29.33 22.31 -29.66 24.62 -30 27 C-29.01 27 -28.02 27 -27 27 C-27 26.34 -27 25.68 -27 25 C-25.68 25 -24.36 25 -23 25 C-23 25.66 -23 26.32 -23 27 C-22.34 26.67 -21.68 26.34 -21 26 C-20.34786708 23.97536745 -20.34786708 23.97536745 -20 22 C-19.505 22.99 -19.505 22.99 -19 24 C-17.68 23.34 -16.36 22.68 -15 22 C-15 21.01 -15 20.02 -15 19 C-13.329375 19.061875 -13.329375 19.061875 -11.625 19.125 C-7.95633975 19.41121859 -7.95633975 19.41121859 -6 17 C-5.83318891 13.91652174 -5.83318891 13.91652174 -6 11 C-3.125 11.25 -3.125 11.25 0 12 C1.4375 13.8125 1.4375 13.8125 2 16 C1.625 18.25 1.625 18.25 1 20 C1 19.01 1 18.02 1 17 C-5.47985299 20.41664976 -11.5836981 24.27540749 -17.70922852 28.27758789 C-25.19633945 33.15712714 -32.77457085 37.88662491 -40.36157227 42.60888672 C-41.32248779 43.20717285 -42.28340332 43.80545898 -43.2734375 44.421875 C-44.21678955 45.00718994 -45.1601416 45.59250488 -46.13208008 46.19555664 C-48.11071709 47.44047928 -50.07605464 48.70670545 -52.0300293 49.98999023 C-53.00109619 50.62622314 -53.97216309 51.26245605 -54.97265625 51.91796875 C-56.27601929 52.7845813 -56.27601929 52.7845813 -57.60571289 53.66870117 C-61.08042521 55.60075035 -63.12635924 55.741761 -67 55 C-68.95216435 53.04783565 -69.84826645 51.46800047 -71 49 C-69.02 48.505 -69.02 48.505 -67 48 C-67 47.01 -67 46.02 -67 45 C-67.66 44.67 -68.32 44.34 -69 44 C-65.30908219 39.79895534 -60.77200822 37.15844764 -56.0625 34.25 C-55.20567627 33.71487793 -54.34885254 33.17975586 -53.46606445 32.62841797 C-47.87954061 29.1447782 -42.26630569 25.70480889 -36.65234375 22.265625 C-31.65592258 19.18152196 -26.7049419 16.0251237 -21.75 12.875 C-20.82662842 12.2886377 -19.90325684 11.70227539 -18.9519043 11.09814453 C-13.83555373 7.83923468 -8.77471856 4.52279421 -3.78613281 1.07080078 C-2 0 -2 0 0 0 Z " fill="#7582AA" transform="translate(302,205)"/>
<path d="M0 0 C0.99 0.495 0.99 0.495 2 1 C1.7215625 2.85625 1.7215625 2.85625 1.4375 4.75 C1.05288777 7.76279577 0.9125406 10.10010827 2 13 C0.865625 13.5775 -0.26875 14.155 -1.4375 14.75 C-4.37310297 16.35492635 -4.37310297 16.35492635 -5.9375 19.25 C-5.958125 19.8275 -5.97875 20.405 -6 21 C-6.99 21 -7.98 21 -9 21 C-9.33 21.66 -9.66 22.32 -10 23 C-11.485 23.495 -11.485 23.495 -13 24 C-13.80506695 25.76958371 -13.80506695 25.76958371 -14.1875 27.875 C-14.34605469 28.57367188 -14.50460937 29.27234375 -14.66796875 29.9921875 C-15.0815769 32.15412011 -15.0815769 32.15412011 -15 35 C-16.32 35 -17.64 35 -19 35 C-21.79197732 37.29182272 -21.79197732 37.29182272 -24 40 C-24 40.66 -24 41.32 -24 42 C-23.34 42 -22.68 42 -22 42 C-22.6875 43.875 -22.6875 43.875 -24 46 C-24.845625 46.28875 -25.69125 46.5775 -26.5625 46.875 C-27.366875 47.24625 -28.17125 47.6175 -29 48 C-29.89830839 51.05272465 -29.89830839 51.05272465 -30 54 C-30.928125 54.0928125 -30.928125 54.0928125 -31.875 54.1875 C-34.27117929 54.81740446 -34.27117929 54.81740446 -35.125 57.5 C-35.41375 58.325 -35.7025 59.15 -36 60 C-36.99 60.495 -36.99 60.495 -38 61 C-37.938125 61.9075 -37.87625 62.815 -37.8125 63.75 C-38.01732447 67.30029087 -38.46705458 68.56086737 -41 71 C-41.99 71 -42.98 71 -44 71 C-45.82861019 73.02421517 -47.44523267 75.00524846 -49.0625 77.1875 C-49.50916016 77.76564453 -49.95582031 78.34378906 -50.41601562 78.93945312 C-52.86352012 82.17718328 -54.64937014 85.13625787 -56 89 C-58.625 93.8125 -58.625 93.8125 -61 95 C-61.6837045 96.32467746 -62.34964186 97.65863633 -63 99 C-63.66 99.66 -64.32 100.32 -65 101 C-64.67 101.66 -64.34 102.32 -64 103 C-64.61875 103.0825 -65.2375 103.165 -65.875 103.25 C-68.11854587 103.79614543 -68.11854587 103.79614543 -69.09375 105.71875 C-70.11544345 108.29059903 -70.40755072 110.49564249 -70.625 113.25 C-70.69976562 114.14203125 -70.77453125 115.0340625 -70.8515625 115.953125 C-70.90054688 116.62859375 -70.94953125 117.3040625 -71 118 C-71.33 117.01 -71.66 116.02 -72 115 C-75.11785113 115.64644661 -75.11785113 115.64644661 -76 118 C-76.66 118 -77.32 118 -78 118 C-78.495 119.485 -78.495 119.485 -79 121 C-79.495 122.485 -79.495 122.485 -80 124 C-79.34 124 -78.68 124 -78 124 C-78 124.99 -78 125.98 -78 127 C-79.98 127 -81.96 127 -84 127 C-86.48599237 132.51241787 -88 136.87107784 -88 143 C-88.78375 143.103125 -89.5675 143.20625 -90.375 143.3125 C-93.33045181 143.77595022 -93.33045181 143.77595022 -95 147 C-97 150 -97 150 -99.3828125 150.51171875 C-100.74019531 150.59873047 -100.74019531 150.59873047 -102.125 150.6875 C-103.03507813 150.75324219 -103.94515625 150.81898438 -104.8828125 150.88671875 C-105.93082031 150.94279297 -105.93082031 150.94279297 -107 151 C-113 139 -113 139 -114.0703125 136.671875 C-114.89594772 134.8168776 -114.89594772 134.8168776 -117 134 C-116.67 133.01 -116.34 132.02 -116 131 C-116.66 131 -117.32 131 -118 131 C-117.505 129.02 -117.505 129.02 -117 127 C-112.60033103 130.97093093 -109.75263054 135.80432832 -106.62304688 140.77539062 C-104.13116292 144.86116473 -104.13116292 144.86116473 -100 147 C-99.5978125 146.16082031 -99.5978125 146.16082031 -99.1875 145.3046875 C-95.20362151 137.57281806 -89.99542263 130.51802683 -84.91088867 123.48388672 C-81.3714525 118.5691535 -77.98940927 113.56182374 -74.6628418 108.50097656 C-71.21084483 103.26143046 -67.60869149 98.13246558 -64 93 C-52.53801009 76.62877915 -52.53801009 76.62877915 -41.36254883 60.06176758 C-36.74730128 53.09095192 -31.9597769 46.24195067 -27.17626953 39.38623047 C-16.73207684 24.44677531 -16.73207684 24.44677531 -6.55078125 9.328125 C-4.44192295 6.16218156 -2.23724474 3.07621152 0 0 Z " fill="#8186AD" transform="translate(302,225)"/>
<path d="M0 0 C0.66 0.33 1.32 0.66 2 1 C1.67 1.99 1.34 2.98 1 4 C0.91297198 6.98042883 0.88462484 9.93682244 0.90234375 12.91699219 C0.90378136 13.84056204 0.90521896 14.76413189 0.90670013 15.71568871 C0.91048683 17.74601262 0.916599 19.77633315 0.92469788 21.80664444 C0.93776879 25.11490607 0.94468881 28.4231322 0.95007324 31.73141479 C0.95840534 36.54273239 0.96912468 41.35403584 0.98168945 46.16534424 C1.01424138 59.05031631 1.02644367 71.93530273 1.03125 84.8203125 C1.03153765 85.48743429 1.03182529 86.15455607 1.03212166 86.84189367 C1.04482197 119.43778808 0.79776429 152.0306587 0.5 184.625 C0.48784591 185.9639841 0.47569991 187.30296827 0.46356201 188.64195251 C0.31708944 204.76138263 0.16316139 220.88073026 0 237 C-1.32 236.34 -2.64 235.68 -4 235 C-3.67 196.72 -3.34 158.44 -3 119 C-4.485 119.99 -4.485 119.99 -6 121 C-8.1875 120.625 -8.1875 120.625 -10 120 C-9.01 119.505 -9.01 119.505 -8 119 C-7.505 118.01 -7.505 118.01 -7 117 C-5.515 116.01 -5.515 116.01 -4 115 C-3.56531096 112.94190716 -3.56531096 112.94190716 -3.66615295 110.52772522 C-3.6678096 109.58692612 -3.66946625 108.64612701 -3.6711731 107.67681885 C-3.6882431 106.64143982 -3.70531311 105.60606079 -3.72290039 104.53930664 C-3.72888748 103.45143356 -3.73487457 102.36356049 -3.74104309 101.24272156 C-3.75583687 98.87452851 -3.77748136 96.50637085 -3.80507088 94.13829231 C-3.84783497 90.39451059 -3.87127427 86.65106662 -3.88926697 82.90708923 C-3.93748076 73.60732437 -4.01368326 64.30784279 -4.09979248 55.00836182 C-4.17223126 47.15599974 -4.22891554 39.3037845 -4.26269341 31.45113945 C-4.2849592 27.7553629 -4.33045253 24.0603104 -4.37623596 20.36476135 C-4.38756714 18.10654277 -4.39771765 15.84831785 -4.40649414 13.59008789 C-4.42558838 12.55673309 -4.44468262 11.5233783 -4.46435547 10.45870972 C-4.46319229 9.51509079 -4.46202911 8.57147186 -4.46083069 7.59925842 C-4.47220613 6.36841318 -4.47220613 6.36841318 -4.48381138 5.11270237 C-4 3 -4 3 -1.97119808 1.21254635 C-1.32070271 0.81240605 -0.67020735 0.41226576 0 0 Z " fill="#F9FEFE" transform="translate(202,30)"/>
<path d="M0 0 C1.32 0 2.64 0 4 0 C2.37160188 6.18168969 -0.94252505 11.31085427 -4.1875 16.75 C-5.46547465 18.9162946 -6.74279673 21.08297428 -8.01953125 23.25 C-8.67904785 24.36632812 -9.33856445 25.48265625 -10.01806641 26.6328125 C-13.16932511 31.98661394 -16.27379542 37.36709505 -19.375 42.75 C-19.99036621 43.81694092 -20.60573242 44.88388184 -21.23974609 45.9831543 C-26.30035578 54.76564686 -31.32378897 63.56914774 -36.34561157 72.37384033 C-40.58481999 79.80393375 -44.8581695 87.21116079 -49.21533203 94.57275391 C-52.91727786 100.83535232 -56.55456446 107.13466503 -60.1875 113.4375 C-60.81841553 114.53191406 -61.44933105 115.62632812 -62.09936523 116.75390625 C-65.09930451 121.96000594 -68.0967294 127.16753999 -71.09120178 132.37678528 C-72.11150425 134.15129074 -73.13242776 135.92543737 -74.15356445 137.69946289 C-75.43333321 139.92317007 -76.71188804 142.14757649 -77.98901367 144.37280273 C-78.57271729 145.38673096 -79.1564209 146.40065918 -79.7578125 147.4453125 C-80.30598633 148.39954102 -80.85416016 149.35376953 -81.41894531 150.33691406 C-83.2394983 153.40340449 -85.19621127 156.35884386 -87.24560547 159.27685547 C-88.17806214 161.01069509 -88.17806214 161.01069509 -87.75048828 163.09423828 C-87.0686555 165.19723587 -87.0686555 165.19723587 -85 167 C-86 168 -86 168 -88.5625 168.0625 C-89.366875 168.041875 -90.17125 168.02125 -91 168 C-92.17937662 162.88936798 -92.26519887 158.08976949 -91 153 C-89.125 150.4375 -89.125 150.4375 -87 149 C-86.01 149 -85.02 149 -84 149 C-83.938125 148.0925 -83.87625 147.185 -83.8125 146.25 C-82.80729479 142.22917915 -81.24175354 141.41053468 -78 139 C-78 138.01 -78 137.02 -78 136 C-77.01 136 -76.02 136 -75 136 C-75 133.03 -75 130.06 -75 127 C-73.02 126.01 -73.02 126.01 -71 125 C-69.73195434 122.9664052 -69.73195434 122.9664052 -69 121 C-69.66 120.67 -70.32 120.34 -71 120 C-69.02 119.01 -69.02 119.01 -67 118 C-67 116.02 -67 114.04 -67 112 C-66.38125 111.773125 -65.7625 111.54625 -65.125 111.3125 C-62.36681217 109.6089134 -62.05034149 108.00097569 -61 105 C-60.01 104.01 -60.01 104.01 -59 103 C-58.8453125 101.515 -58.8453125 101.515 -58.6875 100 C-58.460625 99.01 -58.23375 98.02 -58 97 C-56.7934375 96.5978125 -56.7934375 96.5978125 -55.5625 96.1875 C-52.85904703 95.29097566 -52.85904703 95.29097566 -52.2265625 93.0625 C-51.31323497 89.03856421 -50.73300511 85.13842087 -51 81 C-48.69 81 -46.38 81 -44 81 C-43.86722656 80.31292969 -43.73445313 79.62585938 -43.59765625 78.91796875 C-43.42105469 78.01691406 -43.24445313 77.11585937 -43.0625 76.1875 C-42.88847656 75.29417969 -42.71445313 74.40085937 -42.53515625 73.48046875 C-42 71 -42 71 -41 68 C-41.33 67.01 -41.66 66.02 -42 65 C-40.02 64.505 -40.02 64.505 -38 64 C-37.67 62.68 -37.34 61.36 -37 60 C-34.525 59.505 -34.525 59.505 -32 59 C-32 58.34 -32 57.68 -32 57 C-31.01 56.34 -30.02 55.68 -29 55 C-28.21011855 53.04614933 -28.21011855 53.04614933 -27.8125 50.875 C-27.544375 49.59625 -27.27625 48.3175 -27 47 C-26.01 47 -25.02 47 -24 47 C-24.66 46.34 -25.32 45.68 -26 45 C-27 42 -27 42 -27 40 C-26.071875 39.95875 -25.14375 39.9175 -24.1875 39.875 C-20.762316 39.30924594 -20.762316 39.30924594 -19.125 36.1875 C-17.77811992 32.93470716 -17.77811992 32.93470716 -18 29 C-17.01 29 -16.02 29 -15 29 C-11.05613763 22.76562433 -11.05613763 22.76562433 -9.375 15.6875 C-8.99730961 11.97354451 -8.64860039 10.54673115 -6 8 C-5.01 7.67 -4.02 7.34 -3 7 C-2.814375 5.824375 -2.814375 5.824375 -2.625 4.625 C-2 2 -2 2 0 0 Z " fill="#6776A4" transform="translate(187,40)"/>
<path d="M0 0 C0.33 0 0.66 0 1 0 C1.125 2.875 1.125 2.875 1 6 C0.34 6.66 -0.32 7.32 -1 8 C-0.01 9.485 -0.01 9.485 1 11 C4.56769552 11.73606499 4.56769552 11.73606499 8 12 C8.86431461 15.34921912 8.95078702 18.20604322 8.75 21.625 C8.65540507 23.9236976 8.65540507 23.9236976 9 26 C11.16163819 28.28168358 11.16163819 28.28168358 14 29 C14.99 28.67 15.98 28.34 17 28 C18.04005702 31.38018531 18.08004482 34.4780279 18 38 C18.639375 38.2475 19.27875 38.495 19.9375 38.75 C22 40 22 40 22.625 42.0625 C22.74875 42.701875 22.8725 43.34125 23 44 C23.66 44.33 24.32 44.66 25 45 C25 47.31 25 49.62 25 52 C26.98 52 28.96 52 31 52 C31 53.32 31 54.64 31 56 C31.495 57.7015625 31.495 57.7015625 32 59.4375 C32.87227905 62.5449941 33.19296298 64.8161108 33 68 C33.94875 67.938125 34.8975 67.87625 35.875 67.8125 C36.90625 67.874375 37.9375 67.93625 39 68 C41.20914 71.31371 41.22481553 72.3446021 41.125 76.1875 C41.10695313 77.08855469 41.08890625 77.98960937 41.0703125 78.91796875 C41.04710937 79.60503906 41.02390625 80.29210937 41 81 C40.01 81.495 40.01 81.495 39 82 C38.7097998 81.48953125 38.41959961 80.9790625 38.12060547 80.453125 C32.19693032 70.04111789 26.23327742 59.65414196 20.1875 49.3125 C15.06814463 40.55041589 9.95946452 31.7823699 4.875 23 C4.24746826 21.92016846 3.61993652 20.84033691 2.97338867 19.7277832 C-0.20517464 14.22943543 -3.23677014 8.71892349 -6 3 C-4.35 3 -2.7 3 -1 3 C-0.67 2.01 -0.34 1.02 0 0 Z " fill="#6676A8" transform="translate(247,92)"/>
<path d="M0 0 C14 7 14 7 19 11 C18.01 11.495 18.01 11.495 17 12 C15.66666667 11.33333333 14.33333333 10.66666667 13 10 C11.68 10 10.36 10 9 10 C7.31301918 9.38655243 5.64034193 8.72904086 4 8 C4 6.68 4 5.36 4 4 C3.01 4.495 3.01 4.495 2 5 C2 38.66 2 72.32 2 107 C4.31 107.33 6.62 107.66 9 108 C9.268125 107.401875 9.53625 106.80375 9.8125 106.1875 C11.7925711 102.5400006 14.13494696 100.52259665 18 99 C19.32 99 20.64 99 22 99 C22 98.34 22 97.68 22 97 C22.9793879 95.97980427 23.97895449 94.97850195 25 94 C25 93.67 25 93.34 25 93 C25.90492188 92.83564453 25.90492188 92.83564453 26.828125 92.66796875 C32.58296072 91.5262836 35.82464177 90.17535823 40 86 C39.67 85.34 39.34 84.68 39 84 C43.95 83.01 43.95 83.01 49 82 C49.33 82.66 49.66 83.32 50 84 C24.95668189 100.13057464 24.95668189 100.13057464 12.66064453 107.5480957 C9.58622881 109.40473305 6.5479783 111.28202278 3.57421875 113.296875 C1 115 1 115 0 115 C0 77.05 0 39.1 0 0 Z " fill="#8090C7" transform="translate(202,149)"/>
<path d="M0 0 C0.556875 0.185625 1.11375 0.37125 1.6875 0.5625 C4.399133 1.07551165 6.34371039 0.6640724 9 0 C9 0.66 9 1.32 9 2 C9.99 1.67 10.98 1.34 12 1 C12 1.66 12 2.32 12 3 C12.66 3.33 13.32 3.66 14 4 C14 5.65 14 7.3 14 9 C14.99 9.33 15.98 9.66 17 10 C16.67 11.98 16.34 13.96 16 16 C17.98 16 19.96 16 22 16 C21.01 16.33 20.02 16.66 19 17 C19.515625 17.598125 20.03125 18.19625 20.5625 18.8125 C21.036875 19.534375 21.51125 20.25625 22 21 C21.67 21.99 21.34 22.98 21 24 C24.37817425 24.84454356 26.67465243 25.10844919 30 24 C30.12680115 31.48126801 30.12680115 31.48126801 29.3125 34.8125 C28.75549896 37.03905974 28.75549896 37.03905974 30.125 38.8125 C32.53813483 40.34081872 34.19637237 40.22732116 37 40 C37 41.66666667 37 43.33333333 37 45 C36.01 45 35.02 45 34 45 C34.66 45.66 35.32 46.32 36 47 C38.1723491 50.25852365 40.07119658 53.59244728 42 57 C42.99 57 43.98 57 45 57 C45 60.33333333 45 63.66666667 45 67 C41.17406072 62.59029064 38.4594312 57.75703417 35.625 52.6875 C34.56222138 50.80671297 33.49837522 48.92652887 32.43359375 47.046875 C31.59803955 45.57057617 31.59803955 45.57057617 30.74560547 44.06445312 C27.76540952 38.83264619 24.7267382 33.63516243 21.6875 28.4375 C20.84469482 26.99540161 20.84469482 26.99540161 19.98486328 25.52416992 C19.43685059 24.58677979 18.88883789 23.64938965 18.32421875 22.68359375 C17.78716309 21.76304199 17.25010742 20.84249023 16.69677734 19.89404297 C15.48114507 17.82064657 14.25645796 15.75254868 13.02587891 13.68798828 C12.06367432 12.06546143 12.06367432 12.06546143 11.08203125 10.41015625 C10.19801636 8.92914429 10.19801636 8.92914429 9.29614258 7.41821289 C8 5 8 5 8 3 C3.90810238 4.36396587 3.38452673 6.34848983 1.3125 10.0625 C0.68988281 11.16722656 0.06726563 12.27195312 -0.57421875 13.41015625 C-1.04472656 14.26480469 -1.51523438 15.11945312 -2 16 C-3.31826804 12.04519588 -2.29536133 9.88608399 -1 6 C-0.67 5.67 -0.34 5.34 0 5 C0.04063832 3.33382885 0.042721 1.66611905 0 0 Z M40 51 C40.99 51.495 40.99 51.495 42 52 C41.01 52.495 41.01 52.495 40 53 C40 52.34 40 51.68 40 51 Z " fill="#717DA7" transform="translate(194,24)"/>
<path d="M0 0 C11.69233187 5.62290359 22.93698922 11.87609503 34.16455078 18.37060547 C38.09905683 20.63157442 42.05628468 22.8512808 46.01318359 25.07275391 C55.13303911 30.19400676 64.17041354 35.39041628 73 41 C71.35 42.32 69.7 43.64 68 45 C68 44.01 68 43.02 68 42 C64.15917833 38.15917833 60.03841802 36.70793831 55 35 C54.67 35.99 54.34 36.98 54 38 C53 35 53 35 53 33 C52.34 33 51.68 33 51 33 C50.505 31.02 50.505 31.02 50 29 C46.7 29.33 43.4 29.66 40 30 C39.938125 29.05125 39.87625 28.1025 39.8125 27.125 C39.544375 26.09375 39.27625 25.0625 39 24 C36.53744315 22.54708727 36.53744315 22.54708727 34 22 C34 21.34 34 20.68 34 20 C31.36 20.66 28.72 21.32 26 22 C25.33333333 20 24.66666667 18 24 16 C21.30909344 13.95491101 19.12519762 13.94452549 15.875 14.0625 C13.956875 14.0315625 13.956875 14.0315625 12 14 C11.34 13.01 10.68 12.02 10 11 C9.01 11.33 8.02 11.66 7 12 C7 10 7 10 8 9 C5.76965659 5.59579164 3.46136362 4.0581081 0 2 C0 1.34 0 0.68 0 0 Z " fill="#8492C8" transform="translate(225,162)"/>
<path d="M0 0 C0.66 0.33 1.32 0.66 2 1 C1.34 2.32 0.68 3.64 0 5 C-0.66 5 -1.32 5 -2 5 C-2 30.41 -2 55.82 -2 82 C-2.99 81.67 -3.98 81.34 -5 81 C-5 55.92 -5 30.84 -5 5 C-5.66 4.67 -6.32 4.34 -7 4 C-1.7265625 0.77734375 -1.7265625 0.77734375 0 0 Z " fill="#FAFEFD" transform="translate(204,283)"/>
<path d="M0 0 C0.66 0 1.32 0 2 0 C2 37.95 2 75.9 2 115 C-8.125 109.375 -8.125 109.375 -13 106 C-10.4791665 104.73958325 -9.64903564 105.33774109 -7 106 C-6.01 105.505 -6.01 105.505 -5 105 C-5 105.66 -5 106.32 -5 107 C-4.34 107 -3.68 107 -3 107 C-3 107.66 -3 108.32 -3 109 C-2.01 108.505 -2.01 108.505 -1 108 C0.59570047 98.10817863 0.16408162 87.94288648 0.16796875 77.94921875 C0.17118638 76.00250728 0.17455083 74.05579605 0.17805481 72.10908508 C0.18401633 68.04692015 0.18589752 63.98477641 0.18530273 59.92260742 C0.18520067 54.71963617 0.19891216 49.51680002 0.21607494 44.31386089 C0.22718748 40.30157343 0.22922226 36.28931888 0.22869301 32.27701759 C0.22987196 30.35808657 0.23428899 28.43915467 0.24202538 26.52023888 C0.25182076 23.84241535 0.24895024 21.16488884 0.24291992 18.48706055 C0.24853943 17.69788239 0.25415894 16.90870422 0.25994873 16.09561157 C0.23625452 11.95572407 -0.13830257 8.72325064 -2 5 C-5.11785113 5.64644661 -5.11785113 5.64644661 -6 8 C-7.99117408 8.69258229 -9.9921136 9.35747635 -12 10 C-12.99 10.66 -13.98 11.32 -15 12 C-17.1875 11.625 -17.1875 11.625 -19 11 C-18.18994507 10.55346069 -18.18994507 10.55346069 -17.36352539 10.09790039 C-14.92887423 8.75452698 -12.4956726 7.40854945 -10.0625 6.0625 C-9.21236328 5.59392578 -8.36222656 5.12535156 -7.48632812 4.64257812 C-6.67744141 4.19462891 -5.86855469 3.74667969 -5.03515625 3.28515625 C-3.91185913 2.66459351 -3.91185913 2.66459351 -2.76586914 2.03149414 C-1.03748855 1.1221285 -1.03748855 1.1221285 0 0 Z " fill="#BAC0E4" transform="translate(197,149)"/>
<path d="M0 0 C0.66 0.33 1.32 0.66 2 1 C1.814375 2.2375 1.62875 3.475 1.4375 4.75 C1.05288777 7.76279577 0.9125406 10.10010827 2 13 C0.865625 13.5775 -0.26875 14.155 -1.4375 14.75 C-4.37310297 16.35492635 -4.37310297 16.35492635 -5.9375 19.25 C-5.958125 19.8275 -5.97875 20.405 -6 21 C-6.99 21 -7.98 21 -9 21 C-9.33 21.66 -9.66 22.32 -10 23 C-10.99 23.33 -11.98 23.66 -13 24 C-13.80506695 25.76958371 -13.80506695 25.76958371 -14.1875 27.875 C-14.34605469 28.57367188 -14.50460937 29.27234375 -14.66796875 29.9921875 C-15.0815769 32.15412011 -15.0815769 32.15412011 -15 35 C-16.32 35 -17.64 35 -19 35 C-20.485 35.495 -20.485 35.495 -22 36 C-20.64145895 29.53611358 -17.61392449 25.02355195 -13.8125 19.6875 C-13.22895752 18.8524292 -12.64541504 18.0173584 -12.04418945 17.15698242 C-10.37094059 14.76546315 -8.6861866 12.382405 -7 10 C-6.19400134 8.84726983 -5.38911437 7.69376055 -4.5859375 6.5390625 C-3.06458718 4.35407788 -1.53691958 2.17404261 0 0 Z " fill="#797DA3" transform="translate(302,225)"/>
<path d="M0 0 C0 3.82553592 -1.13915715 4.85534487 -3.4375 7.875 C-6.71601756 12.2561317 -9.89892327 16.680345 -13 21.1875 C-13.39759521 21.76419434 -13.79519043 22.34088867 -14.20483398 22.93505859 C-15.13771221 24.28924329 -16.06903574 25.6444988 -17 27 C-17.99 26.67 -18.98 26.34 -20 26 C-20.6875 23.9375 -20.6875 23.9375 -21 22 C-20.01 22.33 -19.02 22.66 -18 23 C-18 20.69 -18 18.38 -18 16 C-16.35 15.67 -14.7 15.34 -13 15 C-13 14.67 -13 14.34 -13 14 C-16.12290635 14.48578543 -18.99580359 14.9986012 -22 16 C-22.33 16.99 -22.66 17.98 -23 19 C-24.98 19 -26.96 19 -29 19 C-25.56106514 16.15663487 -22.0524492 13.67959415 -18.26171875 11.328125 C-17.19501953 10.66425781 -16.12832031 10.00039062 -15.02929688 9.31640625 C-13.92650391 8.63449219 -12.82371094 7.95257813 -11.6875 7.25 C-10.55385426 6.54586617 -9.42038896 5.84144174 -8.28710938 5.13671875 C-5.52649878 3.42161599 -2.76409143 1.70948522 0 0 Z " fill="#B9C3ED" transform="translate(294,230)"/>
<path d="M0 0 C0.9075 0.33 1.815 0.66 2.75 1 C6.07045807 2.19605723 6.07045807 2.19605723 10 2 C9.979375 2.94875 9.95875 3.8975 9.9375 4.875 C9.77448174 7.90666283 9.77448174 7.90666283 11 10 C11.99 10 12.98 10 14 10 C13.67 8.02 13.34 6.04 13 4 C13.66 4 14.32 4 15 4 C15.12375 4.94875 15.2475 5.8975 15.375 6.875 C15.71687177 10.08667191 15.71687177 10.08667191 18 12 C17.01 12.495 17.01 12.495 16 13 C16.2475 14.36125 16.2475 14.36125 16.5 15.75 C17.28873311 21.13782475 17.08025923 26.56912556 17 32 C15 30 15 30 14.57250977 28.22314453 C13.81381655 25.2770207 12.40064626 23.03902913 10.83984375 20.4296875 C10.21142578 19.36878906 9.58300781 18.30789062 8.93554688 17.21484375 C8.27619141 16.11269531 7.61683594 15.01054687 6.9375 13.875 C5.63018097 11.68724162 4.3265903 9.49724952 3.02734375 7.3046875 C2.44718506 6.33515137 1.86702637 5.36561523 1.26928711 4.36669922 C0 2 0 2 0 0 Z " fill="#6277A7" transform="translate(287,174)"/>
<path d="M0 0 C2.875 0 2.875 0 6 1 C7.48599192 3.27815673 8.14248193 5.37980589 9 8 C9.66 8 10.32 8 11 8 C11 8.66 11 9.32 11 10 C11.78375 9.95875 12.5675 9.9175 13.375 9.875 C16 10 16 10 18 12 C20.06874034 12.6425235 20.06874034 12.6425235 22 13 C22.33 14.65 22.66 16.3 23 18 C18.49380023 16.43225369 14.81418636 14.06224207 10.875 11.4375 C6.17686034 8.26507011 6.17686034 8.26507011 1 6 C3.47696185 11.36675067 6.65830522 16.1334542 10 21 C9.34 21.99 8.68 22.98 8 24 C6.35 23.67 4.7 23.34 3 23 C2.814375 21.824375 2.814375 21.824375 2.625 20.625 C2.20882007 17.85942178 2.20882007 17.85942178 0 16 C-1.12237643 12.78204733 -1.13404289 9.69906253 -1.125 6.3125 C-1.12757812 5.33925781 -1.13015625 4.36601562 -1.1328125 3.36328125 C-1 1 -1 1 0 0 Z " fill="#767CAA" transform="translate(97,216)"/>
<path d="M0 0 C7.32652409 9.06196665 13.8464699 18.64796473 20.25 28.375 C21.62799464 30.46760524 23.00812929 32.55880319 24.390625 34.6484375 C24.98907227 35.55770996 25.58751953 36.46698242 26.20410156 37.40380859 C28.02609949 40.03773002 29.9707026 42.52340838 32 45 C31.505 45.99 31.505 45.99 31 47 C29.5 45.625 29.5 45.625 28 44 C28 43.34 28 42.68 28 42 C27.01 42 26.02 42 25 42 C24.54625 41.05125 24.0925 40.1025 23.625 39.125 C22.19761746 35.99686321 22.19761746 35.99686321 20 34 C18.68 34 17.36 34 16 34 C15 31 15 31 16 28 C15.01 27.67 14.02 27.34 13 27 C13.185625 26.401875 13.37125 25.80375 13.5625 25.1875 C14.22093687 22.83591238 14.22093687 22.83591238 13 20 C12.34 20 11.68 20 11 20 C11 19.34 11 18.68 11 18 C10.071875 17.9071875 10.071875 17.9071875 9.125 17.8125 C7 17 7 17 5.75 14.6875 C5 12 5 12 5 8 C4.34 8 3.68 8 3 8 C2.67 8.66 2.34 9.32 2 10 C0.0625 9.1875 0.0625 9.1875 -2 8 C-2.33 7.01 -2.66 6.02 -3 5 C-1.5625 2.3125 -1.5625 2.3125 0 0 Z " fill="#8388AB" transform="translate(107,238)"/>
<path d="M0 0 C0.33 0.66 0.66 1.32 1 2 C0.0337499 4.01652194 -0.96708324 6.01679982 -2 8 C-2 8.66 -2 9.32 -2 10 C-1.34 10 -0.68 10 0 10 C-0.6875 11.875 -0.6875 11.875 -2 14 C-2.845625 14.28875 -3.69125 14.5775 -4.5625 14.875 C-5.7690625 15.431875 -5.7690625 15.431875 -7 16 C-7.89830839 19.05272465 -7.89830839 19.05272465 -8 22 C-8.61875 22.061875 -9.2375 22.12375 -9.875 22.1875 C-12.27117929 22.81740446 -12.27117929 22.81740446 -13.125 25.5 C-13.558125 26.7375 -13.558125 26.7375 -14 28 C-14.66 28.33 -15.32 28.66 -16 29 C-15.938125 29.9075 -15.87625 30.815 -15.8125 31.75 C-16.01732447 35.30029087 -16.46705458 36.56086737 -19 39 C-22 39 -22 39 -24 38 C-23.45513109 33.80525581 -22.13680772 31.45036329 -19.5625 28.125 C-15.70263842 23.00165854 -12.11418255 17.75010205 -8.59008789 12.39111328 C-5.81943142 8.18958277 -2.94567979 4.08104838 0 0 Z " fill="#787EA7" transform="translate(280,257)"/>
<path d="M0 0 C1.32 0 2.64 0 4 0 C2.73004945 4.16831778 1.16776406 7.73580978 -1.046875 11.484375 C-1.9440625 13.01191406 -1.9440625 13.01191406 -2.859375 14.5703125 C-3.48328125 15.61960937 -4.1071875 16.66890625 -4.75 17.75 C-5.3584375 18.78382812 -5.966875 19.81765625 -6.59375 20.8828125 C-10.3617801 27.27558152 -14.17278841 33.6425174 -18 40 C-18.66 39.67 -19.32 39.34 -20 39 C-19.67 37.906875 -19.34 36.81375 -19 35.6875 C-17.86913351 32.15421116 -17.86913351 32.15421116 -18 29 C-17.01 29 -16.02 29 -15 29 C-11.05613763 22.76562433 -11.05613763 22.76562433 -9.375 15.6875 C-8.99730961 11.97354451 -8.64860039 10.54673115 -6 8 C-5.01 7.67 -4.02 7.34 -3 7 C-2.87625 6.21625 -2.7525 5.4325 -2.625 4.625 C-2 2 -2 2 0 0 Z " fill="#747FA7" transform="translate(187,40)"/>
<path d="M0 0 C4 5 4 5 4 8 C3.01 8.33 2.02 8.66 1 9 C1.06113589 21.85632688 1.13818756 34.7124495 1.23571491 47.56855488 C1.28049453 53.53779572 1.31973388 59.5069671 1.34643555 65.47631836 C1.37239279 71.23413893 1.41274125 76.99169329 1.46318626 82.74934959 C1.47990637 84.94900394 1.49138849 87.14870438 1.49761391 89.34841347 C1.5071991 92.42307247 1.53519136 95.49704244 1.56762695 98.5715332 C1.56619186 99.48647049 1.56475677 100.40140778 1.5632782 101.34407043 C1.57581635 102.18119568 1.58835449 103.01832092 1.60127258 103.8808136 C1.60588155 104.60810826 1.61049051 105.33540293 1.61523914 106.08473682 C2.10384386 108.51691411 3.13387716 109.42804916 5 111 C2 111 2 111 0 110 C0 73.7 0 37.4 0 0 Z " fill="#B4BFE7" transform="translate(202,35)"/>
<path d="M0 0 C0.66 0.66 1.32 1.32 2 2 C-8.42967369 9.99694583 -8.42967369 9.99694583 -13.5625 12 C-16.11231239 13.04607688 -17.81669749 14.33041573 -20 16 C-26.41155235 20 -26.41155235 20 -29 20 C-28.505 20.78375 -28.01 21.5675 -27.5 22.375 C-26 25 -26 25 -26 27 C-29.43927579 25.7580393 -32.25207819 24.44259716 -35 22 C-35 21.34 -35 20.68 -35 20 C-34.04915527 19.46427368 -34.04915527 19.46427368 -33.07910156 18.91772461 C-16.47373854 9.5734296 -16.47373854 9.5734296 0 0 Z " fill="#B8C4EB" transform="translate(139,182)"/>
<path d="M0 0 C0.33 0.66 0.66 1.32 1 2 C0.34 2 -0.32 2 -1 2 C-0.67 24.11 -0.34 46.22 0 69 C5.31634334 65.00447066 5.31634334 65.00447066 8 60 C7.34 59.67 6.68 59.34 6 59 C6.33 58.34 6.66 57.68 7 57 C8.32 57.66 9.64 58.32 11 59 C7.84976908 66.04169265 3.45139636 72.54860364 -2 78 C-2 52.59 -2 27.18 -2 1 C-1.34 0.67 -0.68 0.34 0 0 Z " fill="#B8C2E9" transform="translate(204,287)"/>
<path d="M0 0 C3.33052257 4.31059185 6.00824615 8.92685401 8.75 13.625 C9.26949219 14.49640625 9.78898437 15.3678125 10.32421875 16.265625 C10.81019531 17.09835938 11.29617188 17.93109375 11.796875 18.7890625 C12.46734863 19.92915771 12.46734863 19.92915771 13.15136719 21.09228516 C13.43141602 21.72183105 13.71146484 22.35137695 14 23 C13.67 23.66 13.34 24.32 13 25 C10.01246048 23.41107289 7.03662224 21.80138218 4.0625 20.1875 C3.21236328 19.73568359 2.36222656 19.28386719 1.48632812 18.81835938 C0.67744141 18.37685547 -0.13144531 17.93535156 -0.96484375 17.48046875 C-1.7137085 17.07723389 -2.46257324 16.67399902 -3.23413086 16.25854492 C-5 15 -5 15 -6 12 C-4.68 12 -3.36 12 -2 12 C-1.67 12.66 -1.34 13.32 -1 14 C0.97888961 14.72693904 2.97954558 15.39816251 5 16 C5.33 15.01 5.66 14.02 6 13 C5.38125 12.9175 4.7625 12.835 4.125 12.75 C2 12 2 12 0.75 10.4375 C-0.34127575 6.89085382 -0.12349053 3.70471601 0 0 Z " fill="#BAC5E8" transform="translate(282,173)"/>
<path d="M0 0 C0.66 0.66 1.32 1.32 2 2 C1.60095459 2.64549805 1.20190918 3.29099609 0.79077148 3.95605469 C-1.00662769 6.87962077 -2.7846815 9.81448958 -4.5625 12.75 C-5.19091797 13.76578125 -5.81933594 14.7815625 -6.46679688 15.828125 C-7.05654297 16.8078125 -7.64628906 17.7875 -8.25390625 18.796875 C-8.80377197 19.69760742 -9.3536377 20.59833984 -9.92016602 21.52636719 C-11.18873734 23.88957228 -11.18873734 23.88957228 -10.79663086 26.20019531 C-10.04115896 28.19910838 -10.04115896 28.19910838 -8 30 C-9 31 -9 31 -11.5625 31.0625 C-12.366875 31.041875 -13.17125 31.02125 -14 31 C-15.17937662 25.88936798 -15.26519887 21.08976949 -14 16 C-12.125 13.4375 -12.125 13.4375 -10 12 C-9.01 12 -8.02 12 -7 12 C-6.938125 11.0925 -6.87625 10.185 -6.8125 9.25 C-5.80779529 5.23118116 -4.31954371 4.3236806 -1 2 C-0.67 1.34 -0.34 0.68 0 0 Z " fill="#707AAA" transform="translate(110,177)"/>
<path d="M0 0 C3.43598321 3.19956235 6.10760836 6.76900178 8.75 10.625 C9.16121094 11.21023438 9.57242188 11.79546875 9.99609375 12.3984375 C13 16.74961067 13 16.74961067 13 19 C10.69 19 8.38 19 6 19 C6 18.34 6 17.68 6 17 C7.32 17 8.64 17 10 17 C10 16.34 10 15.68 10 15 C8.68 15 7.36 15 6 15 C5.87625 14.360625 5.7525 13.72125 5.625 13.0625 C5.41875 12.381875 5.2125 11.70125 5 11 C4.34 10.67 3.68 10.34 3 10 C2.34 9.67 1.68 9.34 1 9 C0.34 9.66 -0.32 10.32 -1 11 C-2.83832664 7.89782379 -3.47446226 5.60591321 -3 2 C-2.01 1.34 -1.02 0.68 0 0 Z " fill="#7D83AC" transform="translate(139,285)"/>
<path d="M0 0 C-3.01834862 10.01834862 -3.01834862 10.01834862 -6 13 C-6.66 13 -7.32 13 -8 13 C-8.12375 13.7425 -8.2475 14.485 -8.375 15.25 C-8.9780107 17.90324709 -9.41984459 19.78778243 -11 22 C-13.625 22.75 -13.625 22.75 -16 23 C-14.2653843 18.0721145 -11.64380099 13.72935425 -9 9.25 C-8.54882812 8.47011719 -8.09765625 7.69023438 -7.6328125 6.88671875 C-7.19710937 6.14550781 -6.76140625 5.40429688 -6.3125 4.640625 C-5.91675781 3.96547852 -5.52101562 3.29033203 -5.11328125 2.59472656 C-3.61271091 0.44522536 -2.61221915 0 0 0 Z " fill="#F2F8FC" transform="translate(157,106)"/>
<path d="M0 0 C-3.70484727 2.44283039 -7.41447406 4.87830557 -11.125 7.3125 C-12.17171875 8.00279297 -13.2184375 8.69308594 -14.296875 9.40429688 C-15.31523437 10.07138672 -16.33359375 10.73847656 -17.3828125 11.42578125 C-18.31496582 12.03848877 -19.24711914 12.65119629 -20.20751953 13.2824707 C-23.06531317 15.0401712 -25.97892717 16.5440378 -29 18 C-27.22336428 13.02541998 -23.09769281 11.10404885 -18.625 8.75 C-18.08875 8.5025 -17.5525 8.255 -17 8 C-17 7.34 -17 6.68 -17 6 C-16.01 5.34 -15.02 4.68 -14 4 C-14.33 3.34 -14.66 2.68 -15 2 C-13.02 2 -11.04 2 -9 2 C-9 1.67 -9 1.34 -9 1 C-3.375 -1.125 -3.375 -1.125 0 0 Z " fill="#828ECB" transform="translate(291,208)"/>
<path d="M0 0 C3.48174753 1.29791362 6.51615907 2.81985682 9.64453125 4.8203125 C10.48564453 5.35527344 11.32675781 5.89023438 12.19335938 6.44140625 C13.48983398 7.27478516 13.48983398 7.27478516 14.8125 8.125 C15.69615234 8.68832031 16.57980469 9.25164062 17.49023438 9.83203125 C19.66257413 11.21763174 21.83237083 12.60704634 24 14 C21.10765685 14.82638376 19.11257569 15 16 15 C16 13.68 16 12.36 16 11 C14.35 11.33 12.7 11.66 11 12 C10.34 10.35 9.68 8.7 9 7 C7.3603125 7.12375 7.3603125 7.12375 5.6875 7.25 C2 7 2 7 0 5.1875 C-1 3 -1 3 0 0 Z " fill="#7F86AD" transform="translate(105,209)"/>
<path d="M0 0 C2.63278495 1.23542984 5.25537833 2.48720801 7.875 3.75 C8.62136719 4.09804687 9.36773437 4.44609375 10.13671875 4.8046875 C10.85214844 5.15273437 11.56757813 5.50078125 12.3046875 5.859375 C13.2944458 6.33068848 13.2944458 6.33068848 14.30419922 6.81152344 C16.37944285 8.26592683 17.04599558 9.68494927 18 12 C18.66 12 19.32 12 20 12 C20 12.66 20 13.32 20 14 C18.72125 14.061875 17.4425 14.12375 16.125 14.1875 C15.40570313 14.22230469 14.68640625 14.25710937 13.9453125 14.29296875 C13.30335938 14.19628906 12.66140625 14.09960938 12 14 C11.34 13.01 10.68 12.02 10 11 C9.01 11.33 8.02 11.66 7 12 C7 10 7 10 8 9 C5.76965659 5.59579164 3.46136362 4.0581081 0 2 C0 1.34 0 0.68 0 0 Z " fill="#7789D2" transform="translate(225,162)"/>
<path d="M0 0 C2.23310552 1.07575855 4.46124501 2.16022483 6.6875 3.25 C7.31333984 3.55035156 7.93917969 3.85070312 8.58398438 4.16015625 C12.45438826 6.06496235 15.7119061 8.15828214 19 11 C18.01 11.495 18.01 11.495 17 12 C15.66666667 11.33333333 14.33333333 10.66666667 13 10 C11.68 10 10.36 10 9 10 C7.31301918 9.38655243 5.64034193 8.72904086 4 8 C4 6.68 4 5.36 4 4 C3.01 4.495 3.01 4.495 2 5 C2.04125 5.94875 2.0825 6.8975 2.125 7.875 C2 11 2 11 0 13 C0 8.71 0 4.42 0 0 Z " fill="#8190C9" transform="translate(202,149)"/>
<path d="M0 0 C0.66 0.33 1.32 0.66 2 1 C1.70703125 2.953125 1.4140625 4.90625 1.12109375 6.859375 C0.87452051 9.33941547 0.87452051 9.33941547 2 13 C-1.96 14.98 -1.96 14.98 -6 17 C-6.33 16.34 -6.66 15.68 -7 15 C-6.34 14.01 -5.68 13.02 -5 12 C-4.34 12 -3.68 12 -3 12 C-3.061875 10.7625 -3.12375 9.525 -3.1875 8.25 C-3.20362826 5.21788698 -3.10651023 4.17751704 -1.5 1.5 C-1.005 1.005 -0.51 0.51 0 0 Z M-7 17 C-6.67 18.32 -6.34 19.64 -6 21 C-6.99 20.67 -7.98 20.34 -9 20 C-8.34 19.01 -7.68 18.02 -7 17 Z " fill="#66709E" transform="translate(302,225)"/>
<path d="M0 0 C3.19249477 2.96647745 5.4592987 6.04963636 7.75 9.75 C8.36359375 10.73484375 8.9771875 11.7196875 9.609375 12.734375 C10.29773438 13.85585938 10.29773438 13.85585938 11 15 C9.02 15.99 9.02 15.99 7 17 C3.125 11.375 3.125 11.375 2 8 C1.34 7.67 0.68 7.34 0 7 C0.33 6.01 0.66 5.02 1 4 C0.34 4 -0.32 4 -1 4 C-0.67 2.68 -0.34 1.36 0 0 Z " fill="#868BB1" transform="translate(185,352)"/>
<path d="M0 0 C0.66 0.33 1.32 0.66 2 1 C-3.99012577 5.69188559 -9.56050018 9.6654078 -16.80859375 12.11328125 C-19.2132335 13.08628165 -20.94255967 14.44053886 -23 16 C-23.66 16 -24.32 16 -25 16 C-25.33 16.66 -25.66 17.32 -26 18 C-26.99 17.34 -27.98 16.68 -29 16 C-24.91223777 13.69280842 -20.81881979 11.39613084 -16.71972656 9.10913086 C-15.32520389 8.32914085 -13.93228968 7.54626799 -12.54101562 6.76049805 C-10.54449534 5.63354482 -8.54247844 4.51698097 -6.5390625 3.40234375 C-5.91504547 3.047202 -5.29102844 2.69206024 -4.64810181 2.32615662 C-3.1312872 1.48887822 -1.56856702 0.73577113 0 0 Z " fill="#B7C2E8" transform="translate(175,162)"/>
<path d="M0 0 C2.32510245 2.84179188 4.57700599 5.72826599 6.75 8.6875 C7.17796875 9.26886719 7.6059375 9.85023438 8.046875 10.44921875 C9 12 9 12 9 14 C4.545 13.01 4.545 13.01 0 12 C0.020625 10.9275 0.04125 9.855 0.0625 8.75 C0.0136549 5.8192941 -0.256813 3.76040886 -1 1 C-0.67 0.67 -0.34 0.34 0 0 Z " fill="#8085AA" transform="translate(160,315)"/>
<path d="M0 0 C0.66 0 1.32 0 2 0 C2.433125 0.9590625 2.433125 0.9590625 2.875 1.9375 C3.82823451 4.15206079 3.82823451 4.15206079 6 5 C6.625 7.5625 6.625 7.5625 7 10 C7.66 10 8.32 10 9 10 C9.33 11.32 9.66 12.64 10 14 C9.01 14.33 8.02 14.66 7 15 C5.63292504 13.07053972 4.28155046 11.13289523 2.9375 9.1875 C2.18339844 8.10855469 1.42929688 7.02960938 0.65234375 5.91796875 C0.10707031 4.95503906 -0.43820313 3.99210937 -1 3 C-0.67 2.01 -0.34 1.02 0 0 Z " fill="#F4F8FC" transform="translate(139,280)"/>
<path d="M0 0 C0.53625 0.61875 1.0725 1.2375 1.625 1.875 C4.31103023 4.2782902 6.55414562 5.06022153 10 6 C10 6.66 10 7.32 10 8 C6.7 8.33 3.4 8.66 0 9 C-0.66 6.69 -1.32 4.38 -2 2 C-1.34 1.34 -0.68 0.68 0 0 Z " fill="#757BA5" transform="translate(195,367)"/>
<path d="M0 0 C0.70125 0.24105469 1.4025 0.48210937 2.125 0.73046875 C1.795 1.39046875 1.465 2.05046875 1.125 2.73046875 C-0.525 2.73046875 -2.175 2.73046875 -3.875 2.73046875 C-4.205 3.72046875 -4.535 4.71046875 -4.875 5.73046875 C-9.53840727 8.96894602 -14.30249348 10.77518192 -19.875 11.73046875 C-16.29911242 8.81848677 -12.65732741 6.05691402 -8.875 3.41796875 C-7.864375 2.69996094 -6.85375 1.98195312 -5.8125 1.2421875 C-2.875 -0.26953125 -2.875 -0.26953125 0 0 Z " fill="#858BAB" transform="translate(234.875,248.26953125)"/>
<path d="M0 0 C1.98 0 3.96 0 6 0 C5.67 2.31 5.34 4.62 5 7 C6.98 7 8.96 7 11 7 C10.01 7.33 9.02 7.66 8 8 C8.99 9.32 9.98 10.64 11 12 C10.01 12.99 9.02 13.98 8 15 C6.66407203 12.6889639 5.33115569 10.37628245 4 8.0625 C3.6184375 7.40314453 3.236875 6.74378906 2.84375 6.06445312 C0 1.11328125 0 1.11328125 0 0 Z " fill="#7C86AA" transform="translate(205,33)"/>
<path d="M0 0 C3.39417765 3.12621626 5.6062718 5.56541027 7 10 C6.21625 9.814375 5.4325 9.62875 4.625 9.4375 C2.02910225 8.74037734 2.02910225 8.74037734 0 10 C0 9.01 0 8.02 0 7 C-0.66 7 -1.32 7 -2 7 C-2 5.35 -2 3.7 -2 2 C-1.34 2 -0.68 2 0 2 C0 1.34 0 0.68 0 0 Z " fill="#8186AF" transform="translate(178,342)"/>
<path d="M0 0 C0.66 0.66 1.32 1.32 2 2 C-0.97 7.28 -3.94 12.56 -7 18 C-8.32 17.34 -9.64 16.68 -11 16 C-10.67 15.34 -10.34 14.68 -10 14 C-9.34 14.33 -8.68 14.66 -8 15 C-6.50178941 11.62902617 -6 9.79557881 -6 6 C-3.5625 3.875 -3.5625 3.875 -1 2 C-0.67 1.34 -0.34 0.68 0 0 Z " fill="#7981AD" transform="translate(110,177)"/>
<path d="M0 0 C3.63559661 3.43361902 6.36113346 6.7973607 9 11 C8.67 11.66 8.34 12.32 8 13 C6.68 12.34 5.36 11.68 4 11 C4 10.01 4 9.02 4 8 C3.01 8.495 3.01 8.495 2 9 C1.67 9.99 1.34 10.98 1 12 C-1.83022097 8.00439392 -0.76210446 4.57262677 0 0 Z " fill="#7F85AB" transform="translate(169,329)"/>
<path d="M0 0 C0.33 0.66 0.66 1.32 1 2 C1.78375 1.95875 2.5675 1.9175 3.375 1.875 C6 2 6 2 8 4 C10.06874034 4.6425235 10.06874034 4.6425235 12 5 C12.33 6.65 12.66 8.3 13 10 C9.30123909 8.62712658 6.0485524 6.93644547 2.6875 4.875 C1.36298828 4.06675781 1.36298828 4.06675781 0.01171875 3.2421875 C-0.65214844 2.83226562 -1.31601563 2.42234375 -2 2 C-1.34 1.34 -0.68 0.68 0 0 Z " fill="#898DB0" transform="translate(107,224)"/>
<path d="M0 0 C0.33 0 0.66 0 1 0 C1.05391993 1.79133978 1.09275571 3.58313899 1.125 5.375 C1.14820313 6.37273437 1.17140625 7.37046875 1.1953125 8.3984375 C1 11 1 11 -1 13 C-3.79192847 13.55838569 -5.43063018 13.33902311 -7.8828125 11.87890625 C-9.62973224 10.63060125 -11.32924389 9.34816055 -13 8 C-10.4791665 6.73958325 -9.64903564 7.33774109 -7 8 C-6.34 7.67 -5.68 7.34 -5 7 C-5 7.66 -5 8.32 -5 9 C-4.34 9 -3.68 9 -3 9 C-3 9.66 -3 10.32 -3 11 C-2.34 10.67 -1.68 10.34 -1 10 C-0.53248212 7.64400765 -0.53248212 7.64400765 -0.375 4.9375 C-0.30023438 4.01839844 -0.22546875 3.09929687 -0.1484375 2.15234375 C-0.09945312 1.44207031 -0.05046875 0.73179687 0 0 Z " fill="#B7C3EC" transform="translate(197,247)"/>
<path d="M0 0 C3.25548753 3.02295271 5.68977058 6.20462309 8 10 C8 10.66 8 11.32 8 12 C5.69 12 3.38 12 1 12 C1 11.34 1 10.68 1 10 C2.32 10 3.64 10 5 10 C5 9.34 5 8.68 5 8 C3.68 8 2.36 8 1 8 C0.87625 7.360625 0.7525 6.72125 0.625 6.0625 C0.315625 5.0415625 0.315625 5.0415625 0 4 C-0.66 3.67 -1.32 3.34 -2 3 C-1.34 2.01 -0.68 1.02 0 0 Z " fill="#8689AE" transform="translate(144,292)"/>
<path d="M0 0 C0.33 0.66 0.66 1.32 1 2 C0.03523618 4.01723344 -0.96838392 6.01612292 -2 8 C-2.12375 8.721875 -2.2475 9.44375 -2.375 10.1875 C-3.33882068 12.98257996 -5.49456002 13.62200801 -8 15 C-8.33 15.66 -8.66 16.32 -9 17 C-9.66 16.67 -10.32 16.34 -11 16 C-7.37 10.72 -3.74 5.44 0 0 Z " fill="#8286A6" transform="translate(280,257)"/>
<path d="M0 0 C2.875 0.25 2.875 0.25 6 1 C7.4375 2.8125 7.4375 2.8125 8 5 C7.625 7.25 7.625 7.25 7 9 C7 8.01 7 7.02 7 6 C4.03 5.505 4.03 5.505 1 5 C0.67 3.35 0.34 1.7 0 0 Z " fill="#6679A9" transform="translate(296,216)"/>
<path d="M0 0 C1.98 0 3.96 0 6 0 C6 1.32 6 2.64 6 4 C6.30830925 6.00401011 6.63729412 8.00511766 7 10 C6.01 10.495 6.01 10.495 5 11 C4.34 8.03 3.68 5.06 3 2 C3 3.32 3 4.64 3 6 C2.34 6 1.68 6 1 6 C0.67 4.02 0.34 2.04 0 0 Z " fill="#606DA8" transform="translate(272,144)"/>
<path d="M0 0 C0.928125 0.33 1.85625 0.66 2.8125 1 C5.92029291 2.14967004 5.92029291 2.14967004 9 2 C8.67 2.66 8.34 3.32 8 4 C8.66 4 9.32 4 10 4 C10 5.32 10 6.64 10 8 C5.89041233 6.54955729 2.56741255 4.48889248 -1 2 C-0.67 1.34 -0.34 0.68 0 0 Z " fill="#B7C2ED" transform="translate(139,224)"/>
<path d="M0 0 C2.31 0 4.62 0 7 0 C7.66 1.32 8.32 2.64 9 4 C6.29120665 5.35439668 3.99066732 5.06501451 1 5 C0.67 3.35 0.34 1.7 0 0 Z " fill="#798DCA" transform="translate(264,187)"/>
<path d="M0 0 C2.64465038 3.1254959 3.84414715 6.08788267 5 10 C4.34 10 3.68 10 3 10 C2.67 10.66 2.34 11.32 2 12 C2 11.01 2 10.02 2 9 C1.34 9 0.68 9 0 9 C-1.125 3.375 -1.125 3.375 0 0 Z " fill="#B1C1E7" transform="translate(234,90)"/>
<path d="M0 0 C2.31 0.33 4.62 0.66 7 1 C3.80009492 3.74277578 0.99500618 5.6302836 -3 7 C-2.67 5.35 -2.34 3.7 -2 2 C-1.34 2 -0.68 2 0 2 C0 1.34 0 0.68 0 0 Z " fill="#8393CF" transform="translate(255,225)"/>
<path d="M0 0 C0.33 0.66 0.66 1.32 1 2 C0.00390625 4.1640625 0.00390625 4.1640625 -1.4375 6.625 C-1.91058594 7.44226563 -2.38367188 8.25953125 -2.87109375 9.1015625 C-3.24363281 9.72804688 -3.61617187 10.35453125 -4 11 C-4.99 10.67 -5.98 10.34 -7 10 C-5.6062718 5.56541027 -3.39417765 3.12621626 0 0 Z " fill="#F3F9FC" transform="translate(170,81)"/>
<path d="M0 0 C7.92 3.96 7.92 3.96 16 8 C11.24475756 9.18881061 10.44527996 8.56744671 6.3125 6.25 C5.33925781 5.71890625 4.36601562 5.1878125 3.36328125 4.640625 C1 3 1 3 0 0 Z " fill="#8391C5" transform="translate(225,162)"/>
<path d="M0 0 C0.66 0.33 1.32 0.66 2 1 C1.67 1.99 1.34 2.98 1 4 C-0.32796291 4.35412344 -1.66216607 4.68521554 -3 5 C-3.495 5.53625 -3.99 6.0725 -4.5 6.625 C-4.995 7.07875 -5.49 7.5325 -6 8 C-8.1875 7.6875 -8.1875 7.6875 -10 7 C-6.81404865 4.36021174 -3.69029454 1.89501612 0 0 Z " fill="#B6C2E7" transform="translate(228,272)"/>
<path d="M0 0 C0.33 0.66 0.66 1.32 1 2 C-5.07439825 7.88183807 -5.07439825 7.88183807 -8.9375 8.375 C-9.618125 8.25125 -10.29875 8.1275 -11 8 C-7.72291137 4.32966073 -4.28477792 2.30718811 0 0 Z " fill="#B8C2EA" transform="translate(242,263)"/>
<path d="M0 0 C0.66666667 1.33333333 1.33333333 2.66666667 2 4 C2.804375 5.423125 2.804375 5.423125 3.625 6.875 C5.09144223 10.20782325 5.25684186 12.40421401 5 16 C3 14 3 14 2.625 12.3125 C2.00050528 10.00186952 1.1510957 8.42320888 -0.0625 6.375 C-2 3 -2 3 -2 1 C-1.34 0.67 -0.68 0.34 0 0 Z " fill="#6F7FA5" transform="translate(299,190)"/>
<path d="M0 0 C0.66 0.33 1.32 0.66 2 1 C0.78521149 2.18163051 -0.44752408 3.34482835 -1.6875 4.5 C-2.37199219 5.1496875 -3.05648437 5.799375 -3.76171875 6.46875 C-6.40656372 8.27813784 -7.86162389 8.3077917 -11 8 C-8.83385197 5.69125289 -6.60793392 3.94709819 -3.9375 2.25 C-2.89916016 1.57710938 -2.89916016 1.57710938 -1.83984375 0.890625 C-1.23269531 0.59671875 -0.62554687 0.3028125 0 0 Z " fill="#B9C5ED" transform="translate(254,255)"/>
<path d="M0 0 C3.68006822 3.38168431 5.9785845 6.42521756 8 11 C5.53199953 9.84826645 3.95216435 8.95216435 2 7 C2 5.68 2 4.36 2 3 C1.34 3 0.68 3 0 3 C0 2.01 0 1.02 0 0 Z " fill="#898DAC" transform="translate(110,243)"/>
<path d="M0 0 C9.59453303 2.70615034 9.59453303 2.70615034 13 7 C12.01 7.495 12.01 7.495 11 8 C8.875 7.0625 8.875 7.0625 7 6 C7 5.34 7 4.68 7 4 C6.030625 3.71125 5.06125 3.4225 4.0625 3.125 C1 2 1 2 0 0 Z " fill="#BCC8E7" transform="translate(163,241)"/>
<path d="M0 0 C0.33 0.99 0.66 1.98 1 3 C1.66 3.165 2.32 3.33 3 3.5 C3.66 3.665 4.32 3.83 5 4 C5.33 4.99 5.66 5.98 6 7 C1.49197399 5.74194623 -1.4912812 4.09592835 -5 1 C-3.35 0.67 -1.7 0.34 0 0 Z " fill="#B6C4E7" transform="translate(224,153)"/>
<path d="M0 0 C2 2 2 2 2.9375 4 C3.96786859 6.32131409 3.96786859 6.32131409 7 8 C6.67 9.65 6.34 11.3 6 13 C2.95950199 9.35140239 1.03481238 5.2555467 -1 1 C-0.67 0.67 -0.34 0.34 0 0 Z " fill="#707EA5" transform="translate(253,113)"/>
<path d="M0 0 C1.32 0 2.64 0 4 0 C2.66511872 3.59391114 1.03977277 6.75490696 -1 10 C-2.31223496 6.06329512 -1.24296256 3.87511856 0 0 Z " fill="#7C87A9" transform="translate(193,30)"/>
<path d="M0 0 C0.66 0.33 1.32 0.66 2 1 C2.28571429 9.57142857 2.28571429 9.57142857 0 13 C-2.21538462 5.73846154 -2.21538462 5.73846154 -1.125 2 C-0.75375 1.34 -0.3825 0.68 0 0 Z " fill="#7B80AB" transform="translate(230,330)"/>
<path d="M0 0 C2.2477975 2.05233685 3.0022242 3.00667261 4 6 C2.35 6.33 0.7 6.66 -1 7 C-2 4 -2 4 -1.0625 1.8125 C-0.5365625 0.9153125 -0.5365625 0.9153125 0 0 Z " fill="#7A81AC" transform="translate(124,265)"/>
<path d="M0 0 C1.48280196 0.78483659 2.9611498 1.57809334 4.4375 2.375 C5.67306641 3.03628906 5.67306641 3.03628906 6.93359375 3.7109375 C9 5 9 5 10 7 C8.35 7.33 6.7 7.66 5 8 C5 7.01 5 6.02 5 5 C4.34 5 3.68 5 3 5 C3 4.34 3 3.68 3 3 C2.01 2.67 1.02 2.34 0 2 C0 1.34 0 0.68 0 0 Z " fill="#858AA7" transform="translate(175,253)"/>
<path d="M0 0 C-1.65 2.64 -3.3 5.28 -5 8 C-5.33 6.68 -5.66 5.36 -6 4 C-5.34 4 -4.68 4 -4 4 C-4.33 3.34 -4.66 2.68 -5 2 C-5.99 2.495 -5.99 2.495 -7 3 C-6.67 2.01 -6.34 1.02 -6 0 C-3 -1 -3 -1 0 0 Z " fill="#B3C0E8" transform="translate(232,322)"/>
<path d="M0 0 C3.96 1.98 7.92 3.96 12 6 C8.52176885 7.15941038 6.54104422 6.70820884 3 6 C2.67 4.68 2.34 3.36 2 2 C1.34 2 0.68 2 0 2 C0 1.34 0 0.68 0 0 Z " fill="#8A97C7" transform="translate(273,189)"/>
<path d="M0 0 C1 3 1 3 0.3125 4.9375 C-1.19441595 7.30551078 -2.95299743 9.08946427 -5 11 C-5.66 10.67 -6.32 10.34 -7 10 C-3.535 5.05 -3.535 5.05 0 0 Z " fill="#8E95B1" transform="translate(212,356)"/>
<path d="M0 0 C-4.455 2.97 -4.455 2.97 -9 6 C-9 4.33333333 -9 2.66666667 -9 1 C-3.375 -1.125 -3.375 -1.125 0 0 Z " fill="#8A96C6" transform="translate(291,208)"/>
<path d="M0 0 C0.66 0 1.32 0 2 0 C3.36952673 2.73905345 3.12621361 4.97087332 3 8 C2.67 8.66 2.34 9.32 2 10 C1.01 10 0.02 10 -1 10 C-0.649375 8.906875 -0.29875 7.81375 0.0625 6.6875 C1.33039454 3.09079627 1.33039454 3.09079627 0 0 Z " fill="#5970A8" transform="translate(145,105)"/>
<path d="M0 0 C1 3 1 3 -0.1875 5.625 C-2 8 -2 8 -6 9 C-4.02 6.03 -2.04 3.06 0 0 Z " fill="#8889AD" transform="translate(267,276)"/>
<path d="M0 0 C0.66 0.33 1.32 0.66 2 1 C0.68 1.99 -0.64 2.98 -2 4 C-1.67 4.66 -1.34 5.32 -1 6 C-2.65 6.66 -4.3 7.32 -6 8 C-6 6.68 -6 5.36 -6 4 C-3 1.75 -3 1.75 0 0 Z " fill="#E7EEF6" transform="translate(232,265)"/>
<path d="M0 0 C3.55780196 0.60990891 6.6828589 1.5783681 10 3 C9.67 4.32 9.34 5.64 9 7 C7.4972763 6.02501855 5.99788037 5.04490611 4.5 4.0625 C3.6646875 3.51722656 2.829375 2.97195313 1.96875 2.41015625 C1.3190625 1.94480469 0.669375 1.47945313 0 1 C0 0.67 0 0.34 0 0 Z " fill="#8D91AE" transform="translate(154,256)"/>
<path d="M0 0 C2.97 0.495 2.97 0.495 6 1 C6.33 2.65 6.66 4.3 7 6 C3.535 4.02 3.535 4.02 0 2 C0 1.34 0 0.68 0 0 Z " fill="#F3FAFD" transform="translate(153,258)"/>
<path d="M0 0 C-3.63 1.98 -7.26 3.96 -11 6 C-8.25017144 0.50034289 -6.14670303 -1.53667576 0 0 Z " fill="#8C97C8" transform="translate(273,220)"/>
<path d="M0 0 C0.99 0.33 1.98 0.66 3 1 C1.68775452 4.93673644 0.08089673 7.22719294 -3 10 C-2.21302675 6.58978257 -1.12880057 3.31114834 0 0 Z " fill="#BAC6EA" transform="translate(218,336)"/>
<path d="M0 0 C1.65 0 3.3 0 5 0 C5.33 1.65 5.66 3.3 6 5 C3.5625 4.1875 3.5625 4.1875 1 3 C0.67 2.01 0.34 1.02 0 0 Z " fill="#8186AC" transform="translate(114,229)"/>
<path d="M0 0 C6.64615385 1.47692308 6.64615385 1.47692308 8.4375 4.125 C8.7159375 5.053125 8.7159375 5.053125 9 6 C5.06326356 4.68775452 2.77280706 3.08089673 0 0 Z " fill="#B5C1E4" transform="translate(128,218)"/>
<path d="M0 0 C0.99 0.33 1.98 0.66 3 1 C4.1875 3.5625 4.1875 3.5625 5 6 C2.36 4.68 -0.28 3.36 -3 2 C-2.01 1.34 -1.02 0.68 0 0 Z " fill="#B6C1F3" transform="translate(249,168)"/>
<path d="M0 0 C3.00617269 3.00617269 2.59585316 5.82381598 3 10 C0.74754119 7.31158141 -0.88213958 5.35358125 -2 2 C-1.34 1.34 -0.68 0.68 0 0 Z " fill="#747CAB" transform="translate(270,140)"/>
<path d="M0 0 C1.98 0 3.96 0 6 0 C4.6875 2.5 4.6875 2.5 3 5 C2.01 5 1.02 5 0 5 C0 3.35 0 1.7 0 0 Z " fill="#6076A8" transform="translate(160,80)"/>
<path d="M0 0 C0.99 1.98 1.98 3.96 3 6 C-0.37503669 4.8141763 -2.64722731 3.72426311 -5 1 C-3 0 -3 0 0 0 Z " fill="#8A90B1" transform="translate(151,250)"/>
<path d="M0 0 C0.99 0.33 1.98 0.66 3 1 C4.1875 4.0625 4.1875 4.0625 5 7 C2.08482708 5.92598892 0.22189824 5.22189824 -2 3 C-1.34 3 -0.68 3 0 3 C0 2.01 0 1.02 0 0 Z " fill="#7A82AA" transform="translate(101,218)"/>
<path d="M0 0 C0 0.99 0 1.98 0 3 C-3.15830185 6.06806466 -5.61999924 7.49942848 -10 8 C-6.97727468 4.74475735 -3.74281699 2.38179263 0 0 Z " fill="#7E8AAD" transform="translate(292,210)"/>
<path d="M0 0 C4 4.625 4 4.625 4 8 C3.01 8.33 2.02 8.66 1 9 C0.67 6.03 0.34 3.06 0 0 Z " fill="#C2C7EC" transform="translate(202,35)"/>
<path d="M0 0 C1.5 1.3125 1.5 1.3125 3 3 C3 3.99 3 4.98 3 6 C0.525 5.01 0.525 5.01 -2 4 C-2 3.01 -2 2.02 -2 1 C-1.34 0.67 -0.68 0.34 0 0 Z " fill="#B7C4E6" transform="translate(181,248)"/>
<path d="M0 0 C1.485 0.99 1.485 0.99 3 2 C3.1875 5.125 3.1875 5.125 3 8 C2.01 8.495 2.01 8.495 1 9 C-1.125 3.375 -1.125 3.375 0 0 Z " fill="#707CB5" transform="translate(283,162)"/>
<path d="M0 0 C1.65 0 3.3 0 5 0 C5 1.66666667 5 3.33333333 5 5 C4.01 5 3.02 5 2 5 C2 4.34 2 3.68 2 3 C1.34 3 0.68 3 0 3 C0 2.01 0 1.02 0 0 Z " fill="#6276A6" transform="translate(226,64)"/>
<path d="M0 0 C1.98 0.99 1.98 0.99 4 2 C4 3.32 4 4.64 4 6 C2.68 5.34 1.36 4.68 0 4 C0 2.68 0 1.36 0 0 Z " fill="#F5FAFE" transform="translate(155,304)"/>
<path d="M0 0 C0.33 0.99 0.66 1.98 1 3 C-0.4375 5.1875 -0.4375 5.1875 -2 7 C-2.66 6.01 -3.32 5.02 -4 4 C-2.68 2.68 -1.36 1.36 0 0 Z M-7 4 C-5.515 4.99 -5.515 4.99 -4 6 C-4.99 6 -5.98 6 -7 6 C-7 5.34 -7 4.68 -7 4 Z " fill="#7479A7" transform="translate(263,289)"/>
<path d="M0 0 C2.475 0.99 2.475 0.99 5 2 C5 2.99 5 3.98 5 5 C3.68 4.67 2.36 4.34 1 4 C1 3.34 1 2.68 1 2 C0.34 1.67 -0.32 1.34 -1 1 C-0.67 0.67 -0.34 0.34 0 0 Z " fill="#F7FBFD" transform="translate(174,270)"/>
<path d="M0 0 C0.66 0.33 1.32 0.66 2 1 C0.35 2.65 -1.3 4.3 -3 6 C-3.99 5.67 -4.98 5.34 -6 5 C-5.195625 4.360625 -4.39125 3.72125 -3.5625 3.0625 C-1.7249496 1.59396498 -1.7249496 1.59396498 0 0 Z " fill="#878DAE" transform="translate(243,241)"/>
<path d="M0 0 C2.31 0.33 4.62 0.66 7 1 C6.67 2.32 6.34 3.64 6 5 C3.98079663 3.69593116 1.98075027 2.36176581 0 1 C0 0.67 0 0.34 0 0 Z " fill="#BAC3F1" transform="translate(149,232)"/>
<path d="M0 0 C0.66 0.33 1.32 0.66 2 1 C2 2.32 2 3.64 2 5 C0.35 5.33 -1.3 5.66 -3 6 C-1.125 1.125 -1.125 1.125 0 0 Z " fill="#6F79A6" transform="translate(302,225)"/>
<path d="M0 0 C1.65 0 3.3 0 5 0 C5.33 0.66 5.66 1.32 6 2 C5.01 2.99 4.02 3.98 3 5 C2.01 4.34 1.02 3.68 0 3 C0 2.01 0 1.02 0 0 Z " fill="#7D8DD7" transform="translate(276,210)"/>
<path d="M0 0 C2.31 0.33 4.62 0.66 7 1 C5.625 3 5.625 3 4 5 C3.34 5 2.68 5 2 5 C1.34 3.35 0.68 1.7 0 0 Z " fill="#7B90D4" transform="translate(288,202)"/>
<path d="M0 0 C0.99 0 1.98 0 3 0 C3.33 0.99 3.66 1.98 4 3 C3.34 3.66 2.68 4.32 2 5 C0.68 5 -0.64 5 -2 5 C-1.34 3.35 -0.68 1.7 0 0 Z " fill="#E9F1F8" transform="translate(199,27)"/>
<path d="M0 0 C-0.66 1.65 -1.32 3.3 -2 5 C-2.99 5 -3.98 5 -5 5 C-5 4.01 -5 3.02 -5 2 C-2 0 -2 0 0 0 Z " fill="#F1F7FC" transform="translate(303,223)"/>
<path d="M0 0 C1.32 0.33 2.64 0.66 4 1 C3.67 2.65 3.34 4.3 3 6 C1.5 4.6875 1.5 4.6875 0 3 C0 2.01 0 1.02 0 0 Z " fill="#E4EBF6" transform="translate(98,222)"/>
<path d="M0 0 C0.99 0 1.98 0 3 0 C3.33 2.31 3.66 4.62 4 7 C3.67 6.01 3.34 5.02 3 4 C0.98491642 3.26676204 0.98491642 3.26676204 -1 3 C-0.67 2.01 -0.34 1.02 0 0 Z " fill="#63739A" transform="translate(300,218)"/>
<path d="M0 0 C0.99 0 1.98 0 3 0 C3 1.65 3 3.3 3 5 C2.01 5 1.02 5 0 5 C-0.33 4.01 -0.66 3.02 -1 2 C-0.67 1.34 -0.34 0.68 0 0 Z " fill="#7182AC" transform="translate(295,185)"/>
<path d="M0 0 C0.66 0 1.32 0 2 0 C2.12375 0.94875 2.2475 1.8975 2.375 2.875 C2.71687177 6.08667191 2.71687177 6.08667191 5 8 C3.68 8.33 2.36 8.66 1 9 C-0.06546953 5.8035914 -0.07427838 3.34252724 0 0 Z " fill="#5569A4" transform="translate(300,178)"/>
<path d="M0 0 C2.72426311 2.35277269 3.8141763 4.62496331 5 8 C3.0625 7.375 3.0625 7.375 1 6 C0.25 2.875 0.25 2.875 0 0 Z " fill="#B6C2E8" transform="translate(251,120)"/>
</svg>
