<?xml version="1.0" encoding="UTF-8"?>
<svg version="1.1" xmlns="http://www.w3.org/2000/svg" width="400" height="400">
<path d="M0 0 C132 0 264 0 400 0 C400 132 400 264 400 400 C268 400 136 400 0 400 C0 268 0 136 0 0 Z " fill="#000000" transform="translate(0,0)"/>
<path d="M0 0 C1.21558594 0.36222656 2.43117187 0.72445312 3.68359375 1.09765625 C18.52887906 5.97988497 30.64918797 13.36906651 42 24 C42.50047852 24.46341797 43.00095703 24.92683594 43.51660156 25.40429688 C62.74932091 43.36491101 75.28327004 68.74625508 76.1955719 95.28437805 C76.30465542 100.32994069 76.30519464 105.37535413 76.30078125 110.421875 C76.30467889 112.29453627 76.30901572 114.16719666 76.31376648 116.03985596 C76.32118989 119.94977697 76.32096624 123.85960762 76.31567383 127.76953125 C76.3098915 132.73603992 76.32679942 137.70217416 76.3500185 142.66862106 C76.36488007 146.53295998 76.36561069 150.39721135 76.36250877 154.26157379 C76.363016 156.09047434 76.36813877 157.91938059 76.37832069 159.74825287 C76.53032783 190.86981544 67.20554952 219.1975108 45.19921875 241.89453125 C31.90708959 255.08907365 15.84747773 263.71899687 -2 269 C-3.71509766 269.51240234 -3.71509766 269.51240234 -5.46484375 270.03515625 C-13.85235058 272.10080799 -22.08094762 272.27163318 -30.6875 272.3125 C-31.81591309 272.31813965 -32.94432617 272.3237793 -34.10693359 272.32958984 C-61.69063299 272.09183407 -87.12120535 259.82384412 -106.51464844 240.52001953 C-116.79012509 230.0047142 -124.40787311 217.65950717 -129.875 204.0625 C-130.14908691 203.39661865 -130.42317383 202.7307373 -130.70556641 202.04467773 C-136.03393792 188.00933042 -136.45474703 173.58155944 -136.3984375 158.78515625 C-136.40046586 156.8757669 -136.40338358 154.96637832 -136.40713501 153.05699158 C-136.41152363 149.0809685 -136.40524097 145.10514948 -136.39111328 141.12915039 C-136.37403538 136.08212279 -136.38387616 131.03557453 -136.40183067 125.98856449 C-136.41277302 122.05297869 -136.4091746 118.11750285 -136.4014473 114.18191338 C-136.3994734 112.32314431 -136.40180324 110.46436461 -136.40888596 108.60560799 C-136.47549379 86.22076091 -132.70143242 66.433786 -121 47 C-120.46632813 46.07574219 -119.93265625 45.15148437 -119.3828125 44.19921875 C-115.36600234 37.50762025 -110.67709954 32.31601194 -105 27 C-103.77023438 25.76443359 -103.77023438 25.76443359 -102.515625 24.50390625 C-75.94558623 -1.94235904 -35.66144758 -10.89630472 0 0 Z " fill="#FBFBFB" transform="translate(230,65)"/>
<path d="M0 0 C0.33 0 0.66 0 1 0 C1.16435547 0.85658203 1.16435547 0.85658203 1.33203125 1.73046875 C9.44769358 43.23251431 26.47629642 92.87789229 61.93359375 119.17578125 C68.13139779 123.19017027 74.7336538 127.37106085 82 129 C81.67 129.99 81.34 130.98 81 132 C79.30102539 132.73608398 79.30102539 132.73608398 77.09765625 133.24609375 C75.89351074 133.5385498 75.89351074 133.5385498 74.66503906 133.83691406 C73.80620117 134.03510742 72.94736328 134.23330078 72.0625 134.4375 C70.30755982 134.87477745 68.55363337 135.31614492 66.80078125 135.76171875 C65.96111816 135.97489746 65.12145508 136.18807617 64.25634766 136.40771484 C48.87734026 140.44466268 36.0115004 149.85482433 25 161 C24.34644531 161.64324219 23.69289063 162.28648437 23.01953125 162.94921875 C11.46577764 175.13750345 5.40520108 191.10029751 1 207 C0.34 207 -0.32 207 -1 207 C-1.268125 206.030625 -1.53625 205.06125 -1.8125 204.0625 C-6.70630611 187.0551852 -14.13420947 171.46373458 -27 159 C-27 158.34 -27 157.68 -27 157 C-27.54914063 156.75636719 -28.09828125 156.51273438 -28.6640625 156.26171875 C-31.50586154 154.7267671 -33.84759617 152.82403647 -36.375 150.8125 C-47.53735003 142.25953049 -59.67708878 137.87343425 -73 134 C-76.01033412 133.02779093 -79.00425427 132.01641373 -82 131 C-82 130.34 -82 129.68 -82 129 C-81.41734375 128.79246094 -80.8346875 128.58492187 -80.234375 128.37109375 C-51.40789337 117.53850081 -33.917318 92.41510493 -21.33984375 65.38671875 C-13.09595476 47.1189752 -6.86366438 28.77628428 -2.52099609 9.22412109 C-1.79215158 6.11269959 -0.91321864 3.06196838 0 0 Z " fill="#020202" transform="translate(200,96)"/>
<path d="M0 0 C2.79761962 5.59523924 0.5741291 13.02315229 -0.8125 18.8125 C-0.99772217 19.6080127 -1.18294434 20.40352539 -1.3737793 21.22314453 C-1.90544649 23.48474488 -2.45069432 25.74263043 -3 28 C-3.226875 28.96035156 -3.45375 29.92070313 -3.6875 30.91015625 C-4.37897587 33.6371642 -5.16625657 36.31272779 -6 39 C-6.20399414 39.66064453 -6.40798828 40.32128906 -6.61816406 41.00195312 C-13.10001203 61.61044331 -22.10790768 81.59455821 -35 99 C-35.67160156 99.91136719 -36.34320313 100.82273437 -37.03515625 101.76171875 C-39.80935688 105.41942277 -42.60071806 108.89660698 -46 112 C-46.66 112 -47.32 112 -48 112 C-48 112.66 -48 113.32 -48 114 C-50.046875 115.65625 -50.046875 115.65625 -52.75 117.5 C-53.63171875 118.1084375 -54.5134375 118.716875 -55.421875 119.34375 C-61.20969337 123.06198483 -61.20969337 123.06198483 -65.1875 122.75 C-66.5796875 122.37875 -66.5796875 122.37875 -68 122 C-69.1465657 119.70686859 -69.14402293 118.37105938 -69.17700195 115.82006836 C-69.18983719 114.95413559 -69.20267242 114.08820282 -69.21589661 113.19602966 C-69.22328354 112.25348831 -69.23067047 111.31094696 -69.23828125 110.33984375 C-69.25038887 108.87303917 -69.25038887 108.87303917 -69.26274109 107.37660217 C-69.27660251 105.29429909 -69.2873154 103.21197309 -69.29516602 101.12963867 C-69.30657655 99.0283326 -69.32685001 96.92705291 -69.35668945 94.82592773 C-69.74672144 67.35590969 -63.65902463 43.48984708 -44.4440918 22.92675781 C-35.14402941 13.36924943 -14.22578671 -4.11799089 0 0 Z " fill="#030303" transform="translate(181,83)"/>
<path d="M0 0 C16.60570445 0.26783394 30.49736621 11.01211402 42 22 C42.61488281 22.54011719 43.22976563 23.08023438 43.86328125 23.63671875 C58.35415381 36.86172199 67.20450451 59.02203983 68.10786438 78.30210876 C68.16434956 80.93613685 68.19091354 83.56851688 68.203125 86.203125 C68.20882507 87.16273132 68.21452515 88.12233765 68.22039795 89.11102295 C68.22980043 91.12804068 68.2363629 93.14507344 68.24023438 95.16210938 C68.2500132 98.25417249 68.28111006 101.34559049 68.3125 104.4375 C68.31902391 106.40103774 68.32427678 108.3645802 68.328125 110.328125 C68.3404718 111.25312805 68.3528186 112.1781311 68.36553955 113.13116455 C68.36253845 113.9892572 68.35953735 114.84734985 68.35644531 115.73144531 C68.36191376 116.86226532 68.36191376 116.86226532 68.36749268 118.01593018 C67.89511287 120.56627903 67.06895702 121.47258462 65 123 C54.18783634 122.48999228 45.33800559 112.18969088 38.41210938 104.62792969 C34.4688179 100.08196365 31.20523871 95.08481558 28 90 C27.11248047 88.62134766 27.11248047 88.62134766 26.20703125 87.21484375 C12.45245462 64.8361161 -4.29886014 29.01160663 -2 2 C-1.34 1.34 -0.68 0.68 0 0 Z " fill="#030303" transform="translate(220,83)"/>
<path d="M0 0 C18.58775568 1.49449292 34.48708099 12.74571188 46.83203125 26 C55.86109092 36.77113706 61.88930195 50.20529009 63.39453125 64.19921875 C63.14453125 66.1875 63.14453125 66.1875 62.08203125 68.01953125 C58.95239608 69.906146 56.61605818 68.97631816 53.14453125 68.1875 C30.25003357 60.41251783 12.64361617 44.1213743 1.70703125 22.8125 C0.83246653 20.9469271 -0.02401335 19.07268106 -0.85546875 17.1875 C-1.19449219 16.43597656 -1.53351563 15.68445313 -1.8828125 14.91015625 C-3.69295068 10.56415628 -4.32427034 6.87551592 -3.85546875 2.1875 C-1.85546875 0.1875 -1.85546875 0.1875 0 0 Z " fill="#030303" transform="translate(118.85546875,246.8125)"/>
<path d="M0 0 C2 2 2 2 2.2578125 4.73828125 C1.21273576 17.96008543 -7.69415608 31.09345811 -16 41 C-16.57105469 41.72832031 -17.14210938 42.45664062 -17.73046875 43.20703125 C-27.65761178 55.29316914 -43.02437017 64.68498801 -58 69 C-61.411135 68.68989682 -62.55676963 68.44323037 -65 66 C-64.72990015 49.79400901 -55.44231231 32.78534584 -44.39453125 21.3046875 C-33.38900426 10.71209219 -16.27133171 -1.66033997 0 0 Z " fill="#030303" transform="translate(283,247)"/>
<path d="M0 0 C0.66 0.99 1.32 1.98 2 3 C0.375 4.125 0.375 4.125 -2 5 C-5.25 4.125 -5.25 4.125 -8 3 C-8 2.34 -8 1.68 -8 1 C-2.25 -1.125 -2.25 -1.125 0 0 Z " fill="#161616" transform="translate(126,224)"/>
<path d="M0 0 C0.66 0.33 1.32 0.66 2 1 C0.4169423 5.2742558 -2.50568404 7.26531794 -6 10 C-6.66 9.67 -7.32 9.34 -8 9 C-5.36 6.03 -2.72 3.06 0 0 Z " fill="#111111" transform="translate(282,298)"/>
<path d="M0 0 C-0.8125 1.9375 -0.8125 1.9375 -2 4 C-2.99 4.33 -3.98 4.66 -5 5 C-5.33 5.66 -5.66 6.32 -6 7 C-6.66 7 -7.32 7 -8 7 C-8.33 7.66 -8.66 8.32 -9 9 C-9.33 8.01 -9.66 7.02 -10 6 C-8.71283353 4.99421411 -7.42011342 3.99553202 -6.125 3 C-5.40570313 2.443125 -4.68640625 1.88625 -3.9453125 1.3125 C-2 0 -2 0 0 0 Z " fill="#151515" transform="translate(254,257)"/>
<path d="M0 0 C1 4 1 4 1 6 C-0.98 6.33 -2.96 6.66 -5 7 C-3.35 4.69 -1.7 2.38 0 0 Z " fill="#1F1F1F" transform="translate(236,271)"/>
</svg>
