<?xml version="1.0" encoding="UTF-8"?>
<svg version="1.1" xmlns="http://www.w3.org/2000/svg" width="366" height="366">
<path d="M0 0 C120.78 0 241.56 0 366 0 C366 120.78 366 241.56 366 366 C245.22 366 124.44 366 0 366 C0 245.22 0 124.44 0 0 Z " fill="#F6F6F6" transform="translate(0,0)"/>
<path d="M0 0 C3.08388079 1.81404752 4.97406931 3.55865137 7.30078125 6.2578125 C8.07292969 7.14855469 8.84507813 8.03929688 9.640625 8.95703125 C12.6604048 12.55966372 15.64755285 16.18625077 18.60546875 19.83984375 C21.19583973 23.01198657 23.83510992 26.13824544 26.48828125 29.2578125 C30.60952307 34.10721156 34.65819939 39.00942621 38.67578125 43.9453125 C41.71260895 47.6387516 44.8078908 51.28079736 47.90454102 54.92407227 C50.78373445 58.31735359 53.62032362 61.74049036 56.42578125 65.1953125 C60.37742416 70.05180388 64.44018577 74.80353987 68.52905273 79.54418945 C72.45921166 84.11119429 76.27963878 88.75348154 80.05078125 93.453125 C81.90843209 95.66283064 83.9469991 97.71653035 85.98828125 99.7578125 C86.31828125 75.6678125 86.64828125 51.5778125 86.98828125 26.7578125 C83.15977603 29.05491563 80.54336363 30.91544466 77.36328125 33.8828125 C72.79301998 38.07564979 68.06786078 42.02042388 63.23828125 45.91015625 C60.96708376 47.71386411 60.96708376 47.71386411 58.98828125 49.7578125 C56.36328125 49.8828125 56.36328125 49.8828125 53.98828125 49.7578125 C53.44614678 44.94855509 54.97322912 42.898638 57.86328125 39.1328125 C61.57613152 34.19028639 65.09396705 29.14559241 68.484375 23.9765625 C69.07614532 23.07642929 69.07614532 23.07642929 69.67987061 22.15811157 C71.28796851 19.70956694 72.89444358 17.26014267 74.48699951 14.80145264 C75.6221484 13.0503057 76.76728444 11.30604577 77.9140625 9.5625 C78.57833252 8.54140137 79.24260254 7.52030273 79.92700195 6.46826172 C82.50268341 3.08140687 85.11812646 0.35300959 89.234375 -0.95703125 C94.35916981 -1.47773233 97.5974987 -1.30552416 101.98828125 1.7578125 C105.68551523 5.7548222 107.10600863 8.76598781 107.13545227 14.17156982 C107.14618523 15.52567459 107.14618523 15.52567459 107.15713501 16.90713501 C107.15982391 17.89523163 107.16251282 18.88332825 107.1652832 19.90136719 C107.1718544 20.94394684 107.1784256 21.98652649 107.18519592 23.06069946 C107.20493496 26.51702952 107.21659284 29.97331611 107.2265625 33.4296875 C107.23063803 34.60971596 107.23471355 35.78974442 107.23891258 37.00553131 C107.25977577 43.2510816 107.27407651 49.4966099 107.28344727 55.7421875 C107.29451289 62.19293894 107.3289143 68.64334555 107.36861897 75.09397507 C107.39476413 80.05426678 107.40313726 85.01447607 107.40672874 89.97483063 C107.4116 92.35265685 107.42322922 94.73047927 107.44176674 97.10823822 C107.46611282 100.43799671 107.46520099 103.76685945 107.45825195 107.09667969 C107.47746704 108.56667923 107.47746704 108.56667923 107.49707031 110.06637573 C107.45068725 116.17178573 106.54267672 119.75284354 102.98828125 124.7578125 C98.9000813 128.59049995 94.68197861 129.21556308 89.125 129.08203125 C81.41884042 127.91272367 76.92076613 121.63262962 72.40625 115.8515625 C69.8477565 112.57801347 67.18730657 109.41510105 64.48828125 106.2578125 C61.13259928 102.31236855 57.81603077 98.34135214 54.55078125 94.3203125 C51.09553974 90.07388868 47.56130291 85.90484956 43.98828125 81.7578125 C39.66899169 76.74461762 35.43731006 71.6724393 31.265625 66.53515625 C28.70623989 63.41384783 26.10230458 60.33334615 23.48828125 57.2578125 C19.35921404 52.39773478 15.29652935 47.4889241 11.265625 42.546875 C8.68099178 39.38147514 6.09089422 36.2209421 3.48828125 33.0703125 C2.65296875 32.05582031 1.81765625 31.04132813 0.95703125 29.99609375 C0.30734375 29.25746094 -0.34234375 28.51882812 -1.01171875 27.7578125 C-1.34171875 27.7578125 -1.67171875 27.7578125 -2.01171875 27.7578125 C-2.34171875 51.8478125 -2.67171875 75.9378125 -3.01171875 100.7578125 C0.25775042 98.796131 2.66895477 97.33171886 5.40625 94.90234375 C6.01629883 94.36561035 6.62634766 93.82887695 7.25488281 93.27587891 C7.8887793 92.71304199 8.52267578 92.15020508 9.17578125 91.5703125 C10.50680537 90.40639934 11.83883904 89.24363969 13.171875 88.08203125 C13.8201123 87.51661621 14.46834961 86.95120117 15.13623047 86.36865234 C17.65099152 84.18141356 20.17620597 82.01473081 22.73828125 79.8828125 C23.49625 79.24601562 24.25421875 78.60921875 25.03515625 77.953125 C26.00195312 77.36144531 26.00195312 77.36144531 26.98828125 76.7578125 C27.97828125 77.0878125 28.96828125 77.4178125 29.98828125 77.7578125 C30.42554633 82.29911537 29.23586572 84.45945767 26.65625 88.15234375 C25.94500977 89.18335205 25.23376953 90.21436035 24.50097656 91.27661133 C23.72628525 92.3747755 22.95121287 93.47267095 22.17578125 94.5703125 C21.3931959 95.69420311 20.61162466 96.81880053 19.83105469 97.9440918 C18.2776773 100.18115142 16.71861277 102.41408201 15.15576172 104.64453125 C13.270666 107.35220647 11.41738603 110.07621731 9.5859375 112.8203125 C9.09649658 113.55016357 8.60705566 114.28001465 8.1027832 115.03198242 C7.22274711 116.34660425 6.34723153 117.66426895 5.47729492 118.9855957 C2.60784234 123.22307728 -0.26641665 126.76713796 -5.1875 128.54296875 C-10.529127 129.23630608 -13.73025476 128.41946898 -18.28515625 125.5703125 C-23.53591284 120.05820603 -23.45346101 113.43649345 -23.43164062 106.26782227 C-23.44011017 105.23601837 -23.44857971 104.20421448 -23.45730591 103.1411438 C-23.48062995 99.74370872 -23.48169918 96.3467277 -23.48046875 92.94921875 C-23.48757264 90.57942017 -23.49527197 88.2096233 -23.50354004 85.83982849 C-23.51697401 80.87778946 -23.51855821 75.91590953 -23.51269531 70.95385742 C-23.5067978 64.60406135 -23.53739912 58.25502947 -23.57781219 51.9053812 C-23.60369507 47.01279101 -23.60656607 42.12038474 -23.60292053 37.22773552 C-23.60461094 34.88702409 -23.61424576 32.54630408 -23.63206482 30.20565987 C-23.65426704 26.92898894 -23.64454507 23.65386413 -23.62695312 20.37719727 C-23.64021637 19.41642776 -23.65347961 18.45565826 -23.66714478 17.46577454 C-23.58755687 11.06684956 -22.20708081 6.67697747 -18.01171875 1.7578125 C-12.52500311 -2.23252615 -6.17653743 -2.54752128 0 0 Z " fill="#030303" transform="translate(75.01171875,119.2421875)"/>
<path d="M0 0 C1.37961914 -0.03673828 1.37961914 -0.03673828 2.78710938 -0.07421875 C3.67076172 -0.07808594 4.55441406 -0.08195313 5.46484375 -0.0859375 C6.27429443 -0.09415527 7.08374512 -0.10237305 7.91772461 -0.11083984 C10.0625 0.375 10.0625 0.375 11.65942383 1.90673828 C13.55415625 5.2399112 14.83525083 8.72622372 16.109375 12.328125 C16.39778259 13.12476563 16.68619019 13.92140625 16.9833374 14.7421875 C17.93266516 17.36757632 18.87271338 19.99618228 19.8125 22.625 C21.1475022 26.33461532 22.48713878 30.04254409 23.828125 33.75 C24.34379028 35.1779892 24.34379028 35.1779892 24.86987305 36.63482666 C27.31739564 43.3881918 29.84695271 50.10677647 32.421875 56.8125 C33.12272867 58.64550501 33.82357514 60.47851278 34.52441406 62.31152344 C35.53678584 64.95734435 36.55321991 67.60121415 37.58288574 70.24035645 C38.53508791 72.68217925 39.47199885 75.12938941 40.40625 77.578125 C40.69191833 78.29718018 40.97758667 79.01623535 41.27191162 79.75708008 C42.75069834 83.67833602 43.39779381 86.33974994 42.0625 90.375 C39.62381832 90.4829859 37.18990867 90.56226589 34.75 90.625 C34.05970703 90.65851563 33.36941406 90.69203125 32.65820312 90.7265625 C27.58025391 90.82468712 27.58025391 90.82468712 25.25 88.80078125 C23.73022802 85.69624703 22.51767392 82.575812 21.375 79.3125 C20.93800781 78.08402344 20.50101562 76.85554688 20.05078125 75.58984375 C19.0625 72.375 19.0625 72.375 19.0625 69.375 C6.5225 69.375 -6.0175 69.375 -18.9375 69.375 C-19.2675 71.025 -19.5975 72.675 -19.9375 74.375 C-20.71314636 76.7830171 -21.52841533 79.17849748 -22.375 81.5625 C-22.80683594 82.79355469 -23.23867187 84.02460938 -23.68359375 85.29296875 C-24.9375 88.375 -24.9375 88.375 -26.9375 90.375 C-29.51814129 90.51997985 -31.98693884 90.56177545 -34.5625 90.5 C-35.62210938 90.48646484 -35.62210938 90.48646484 -36.703125 90.47265625 C-38.44806098 90.44907603 -40.19282295 90.41320461 -41.9375 90.375 C-43.69558723 85.28071491 -41.92420408 81.65598286 -40.0625 76.88671875 C-39.74632721 76.04687439 -39.43015442 75.20703003 -39.10440063 74.34173584 C-38.06058948 71.57734401 -36.99925903 68.8200426 -35.9375 66.0625 C-35.21025625 64.14831176 -34.48419578 62.23367358 -33.75927734 60.31860352 C-32.25338842 56.34380915 -30.7412434 52.37146937 -29.22558594 48.40039062 C-26.98375364 42.51370689 -24.78728358 36.61083286 -22.6015625 30.703125 C-21.58277022 27.95609386 -20.56361086 25.20919911 -19.54443359 22.46231079 C-18.89074903 20.69830105 -18.23840105 18.93379543 -17.58740234 17.16879272 C-16.68064458 14.71342707 -15.76698305 12.26074038 -14.8515625 9.80859375 C-14.58453522 9.08041443 -14.31750793 8.35223511 -14.04238892 7.60198975 C-10.99148422 -0.524299 -7.96406288 0.01111523 0 0 Z " fill="#3F8DD6" transform="translate(246.9375,137.625)"/>
<path d="M0 0 C1.90072266 0.02126953 1.90072266 0.02126953 3.83984375 0.04296875 C5.74443359 0.05263672 5.74443359 0.05263672 7.6875 0.0625 C10.77734375 0.23046875 10.77734375 0.23046875 11.77734375 1.23046875 C11.87782898 3.96397623 11.91350636 6.67224767 11.90673828 9.40625 C11.9084906 10.26310394 11.91024292 11.11995789 11.91204834 12.0027771 C11.91646792 14.84952795 11.9135285 17.69621722 11.91015625 20.54296875 C11.91082926 22.51212577 11.91179926 24.48128272 11.91305542 26.45043945 C11.91453254 30.5831786 11.91237739 34.71589617 11.90771484 38.84863281 C11.90201755 44.15871396 11.90529648 49.46874456 11.91128731 54.77882385 C11.91489255 58.84672428 11.91375451 62.91461264 11.91115952 66.98251343 C11.91049014 68.94102993 11.91131902 70.89954751 11.91363907 72.85806274 C11.91616499 75.59030075 11.91232586 78.32245572 11.90673828 81.0546875 C11.90876251 81.87238617 11.91078674 82.69008484 11.91287231 83.53256226 C11.89160621 89.11620629 11.89160621 89.11620629 10.77734375 90.23046875 C8.46740993 90.35604037 6.15315839 90.40622604 3.83984375 90.41796875 C2.57269531 90.43214844 1.30554688 90.44632812 0 90.4609375 C-3.22265625 90.23046875 -3.22265625 90.23046875 -5.22265625 88.23046875 C-5.4212115 85.50041752 -5.49537405 82.87180143 -5.48144531 80.140625 C-5.48670227 78.8867952 -5.48670227 78.8867952 -5.49206543 77.6076355 C-5.50089039 74.83599621 -5.49503093 72.06461078 -5.48828125 69.29296875 C-5.48962768 67.37247671 -5.49156803 65.45198501 -5.49407959 63.53149414 C-5.49703189 59.50305949 -5.49272981 55.47471343 -5.48339844 51.44628906 C-5.47200385 46.27416432 -5.47856276 41.10224713 -5.49054337 35.93013 C-5.49775911 31.96340359 -5.49547535 27.99672665 -5.49028778 24.02999878 C-5.48895049 22.12254817 -5.49060175 20.21509312 -5.49524689 18.30764771 C-5.50030744 15.64508103 -5.4926086 12.98285379 -5.48144531 10.3203125 C-5.48549377 9.52648163 -5.48954224 8.73265076 -5.49371338 7.9147644 C-5.43504604 0.38868814 -5.43504604 0.38868814 0 0 Z " fill="#3D8CD5" transform="translate(301.22265625,137.76953125)"/>
<path d="M0 0 C0.66 0 1.32 0 2 0 C3.71686415 4.90858767 5.42562169 9.81989371 7.12695312 14.73388672 C7.70676701 16.40490515 8.28878228 18.07516144 8.87304688 19.74462891 C9.71284683 22.14548557 10.54467194 24.54897866 11.375 26.953125 C11.63748535 27.69806213 11.8999707 28.44299927 12.17041016 29.21051025 C13.36562719 32.6950569 14 35.27322127 14 39 C5.42 39 -3.16 39 -12 39 C-10.72108908 33.24490084 -9.47858184 28.07118467 -7.6171875 22.55859375 C-7.39805695 21.90544693 -7.17892639 21.25230011 -6.95315552 20.57936096 C-6.26471919 18.53060137 -5.56999725 16.48404199 -4.875 14.4375 C-4.40192249 13.03334498 -3.92926287 11.6290491 -3.45703125 10.22460938 C-2.30949994 6.81476903 -1.15632848 3.40686863 0 0 Z " fill="#F5F6F7" transform="translate(246,154)"/>
</svg>
