<?xml version="1.0" encoding="UTF-8"?>
<svg version="1.1" xmlns="http://www.w3.org/2000/svg" width="400" height="400">
<path d="M0 0 C132 0 264 0 400 0 C400 132 400 264 400 400 C268 400 136 400 0 400 C0 268 0 136 0 0 Z " fill="#042321" transform="translate(0,0)"/>
<path d="M0 0 C5.87917547 5.32524887 10.85776126 11.75197695 15.875 17.875 C16.66132813 18.83148438 17.44765625 19.78796875 18.2578125 20.7734375 C19.70885126 22.54692931 21.1567814 24.32296916 22.6015625 26.1015625 C25.14066079 29.19908791 27.72063328 32.25913588 30.3125 35.3125 C37.03253761 43.23074735 43.69901934 51.19087991 50.25 59.25 C54.32249367 64.24443074 58.50135567 69.14121959 62.71435547 74.01708984 C65.50490002 77.25143634 68.22387978 80.52420269 70.875 83.875 C76.78323654 91.20073684 82.83958577 98.38484664 88.98046875 105.515625 C89.44888184 106.06154297 89.91729492 106.60746094 90.39990234 107.16992188 C91.44860129 108.38212204 92.50731224 109.58569205 93.57275391 110.78320312 C94.12237793 111.40646484 94.67200195 112.02972656 95.23828125 112.671875 C95.74270752 113.23745117 96.24713379 113.80302734 96.7668457 114.38574219 C97.875 115.875 97.875 115.875 97.875 117.875 C98.535 117.875 99.195 117.875 99.875 117.875 C99.875 88.835 99.875 59.795 99.875 29.875 C93.23294103 34.83804525 93.23294103 34.83804525 87.0625 40.1875 C82.61986323 44.25247831 78.02112505 48.07001071 73.3203125 51.83203125 C70.844544 53.82335966 70.844544 53.82335966 68.7265625 56.12109375 C66.875 57.875 66.875 57.875 64.125 58.125 C63.3825 58.0425 62.64 57.96 61.875 57.875 C61.1484375 55.7421875 61.1484375 55.7421875 60.875 52.875 C62.3515625 50.0078125 62.3515625 50.0078125 64.5 47 C65.23863281 45.94941406 65.97726563 44.89882812 66.73828125 43.81640625 C67.44339844 42.84574219 68.14851563 41.87507813 68.875 40.875 C69.38417969 40.16214844 69.89335937 39.44929688 70.41796875 38.71484375 C71.5703125 37.1015625 72.72265625 35.48828125 73.875 33.875 C74.3390625 33.1015625 74.803125 32.328125 75.28125 31.53125 C77.61421832 27.64296947 80.16268518 23.9074538 82.69140625 20.14453125 C84.13272885 17.98641494 85.557636 15.81723318 86.96484375 13.63671875 C95.89883475 -0.13294492 95.89883475 -0.13294492 101.875 -2.125 C108.56499258 -2.80964836 114.07097279 -3.03662487 119.47265625 1.29296875 C122.89007811 5.14827753 124.24966839 8.3010797 124.26268005 13.4471283 C124.27258469 14.55599899 124.28248932 15.66486969 124.29269409 16.80734253 C124.28819244 18.01423737 124.2836908 19.2211322 124.27905273 20.46459961 C124.28591599 21.7431633 124.29277924 23.02172699 124.29985046 24.33903503 C124.31777249 27.8391031 124.31661536 31.33892034 124.31090808 34.83902049 C124.30781472 37.76395548 124.31391032 40.6888424 124.31994683 43.61377054 C124.33398737 50.51558508 124.33243481 57.41727583 124.32104492 64.3190918 C124.30956465 71.43274924 124.32363861 78.54602963 124.3504414 85.65963739 C124.37261285 91.77360877 124.37923253 97.88746191 124.37336498 104.00147063 C124.36999755 107.65026699 124.37239592 111.29882169 124.38961601 114.94758415 C124.407985 119.01730017 124.39388337 123.08628466 124.37670898 127.15600586 C124.39121094 128.96331177 124.39121094 128.96331177 124.40600586 130.80712891 C124.35091751 137.03453792 124.2752602 141.24056639 119.875 145.875 C119.215 145.875 118.555 145.875 117.875 145.875 C117.875 146.535 117.875 147.195 117.875 147.875 C112.30938958 151.58540695 106.4205618 151.74433243 99.875 150.875 C95.14740922 149.01644332 92.33017206 146.60671243 89 142.8125 C87.70255859 141.33716797 87.70255859 141.33716797 86.37890625 139.83203125 C83.51628188 136.45136565 80.7374051 133.01762121 78 129.53515625 C75.53675886 126.45157681 72.99574972 123.44228858 70.4375 120.4375 C67.04293053 116.44819778 63.68123468 112.43829736 60.375 108.375 C56.62647354 103.7696675 52.80415754 99.23295556 48.95874023 94.70874023 C46.0795468 91.31545891 43.24295763 87.89232214 40.4375 84.4375 C36.47991812 79.57370975 32.40957554 74.81618769 28.31665039 70.06665039 C24.54828735 65.68470748 20.88032175 61.22982058 17.23828125 56.7421875 C13.89647733 52.68783366 10.47026053 48.70783028 7.03515625 44.73242188 C-1.125 35.27405895 -1.125 35.27405895 -1.125 32.875 C-1.785 32.875 -2.445 32.875 -3.125 32.875 C-3.125 32.215 -3.125 31.555 -3.125 30.875 C-4.115 30.875 -5.105 30.875 -6.125 30.875 C-6.125 59.585 -6.125 88.295 -6.125 117.875 C-0.43457431 114.77511394 -0.43457431 114.77511394 4.234375 110.95703125 C4.78770508 110.42891846 5.34103516 109.90080566 5.91113281 109.35668945 C6.47670898 108.80585693 7.04228516 108.25502441 7.625 107.6875 C12.83086212 102.72736913 18.14100223 98.06675266 23.765625 93.58203125 C25.9216478 91.89824802 25.9216478 91.89824802 27.875 89.875 C30.5 90.25 30.5 90.25 32.875 90.875 C33.29363853 95.3592627 32.20191971 97.43281431 29.625 101.0625 C28.89539063 102.11179687 28.16578125 103.16109375 27.4140625 104.2421875 C26.80546387 105.1079541 26.80546387 105.1079541 26.18457031 105.99121094 C23.73267206 109.51821446 21.3750834 113.10854478 19 116.6875 C17.96897516 118.23192117 16.93772509 119.77619201 15.90625 121.3203125 C13.9560128 124.24442769 12.01852382 127.17625444 10.09375 130.1171875 C-2.00566713 148.56325203 -2.00566713 148.56325203 -8.125 150.875 C-12.91986234 151.68422756 -17.16491875 151.96250826 -21.51171875 149.55078125 C-26.54799329 145.40818943 -29.70594222 140.84447654 -30.40096474 134.26095581 C-30.50791479 131.07595967 -30.51881983 127.90354487 -30.49731445 124.71679688 C-30.50096512 123.50782242 -30.50461578 122.29884796 -30.50837708 121.05323792 C-30.515073 117.75349274 -30.50839996 114.45431591 -30.49504495 111.15462685 C-30.48368048 107.69191095 -30.48784181 104.2292087 -30.48979187 100.76647949 C-30.49067327 94.95283152 -30.47962674 89.1393005 -30.46118164 83.32568359 C-30.44001635 76.61654087 -30.43650507 69.90756937 -30.4427436 63.19840002 C-30.44845014 56.72868446 -30.44277643 50.25902882 -30.43157005 43.7893219 C-30.42694112 41.04308456 -30.42604279 38.29688408 -30.4281559 35.55064392 C-30.43039966 31.71143281 -30.41588831 27.87238261 -30.3996582 24.03320312 C-30.40213562 22.90052505 -30.40461304 21.76784698 -30.40716553 20.60084534 C-30.32242548 8.02673598 -30.32242548 8.02673598 -26.7578125 2.9140625 C-26.26023437 2.44742188 -25.76265625 1.98078125 -25.25 1.5 C-24.51136719 0.77683594 -24.51136719 0.77683594 -23.7578125 0.0390625 C-17.89304701 -4.14203826 -5.80082847 -4.00183736 0 0 Z " fill="#0BEDA2" transform="translate(154.125,127.125)"/>
<path d="M0 0 C0.99 0 1.98 0 3 0 C3 0.66 3 1.32 3 2 C3.66 2 4.32 2 5 2 C6.55859375 3.73046875 6.55859375 3.73046875 8.4375 6.1875 C11.64968078 10.30419378 14.92915018 14.33698904 18.3125 18.3125 C18.77567627 18.857854 19.23885254 19.40320801 19.71606445 19.96508789 C21.14308479 21.64420944 22.57150184 23.32213564 24 25 C33.51508074 36.18978728 42.85092644 47.507567 52 59 C49.49038462 64.18010355 49.49038462 64.18010355 47 66 C44.8125 65.6875 44.8125 65.6875 43 65 C42.319375 65.99 42.319375 65.99 41.625 67 C41.08875 67.66 40.5525 68.32 40 69 C39.34 69 38.68 69 38 69 C37.67 69.66 37.34 70.32 37 71 C36.01 70.505 36.01 70.505 35 70 C35.495 69.278125 35.99 68.55625 36.5 67.8125 C38.07919285 64.85151341 38.28178312 63.28746971 38 60 C33.5688425 60.50104961 31.55626888 61.93576777 28.375 65 C23.95982005 69.13964123 19.39527875 72.98516903 14.68359375 76.78125 C11.29395659 79.58374477 8.07418655 82.54952629 4.875 85.56640625 C3 87 3 87 0 87 C0 58.29 0 29.58 0 0 Z " fill="#032E26" transform="translate(148,158)"/>
<path d="M0 0 C0 29.04 0 58.08 0 88 C-0.66 88 -1.32 88 -2 88 C-3.37491299 86.49212839 -4.67364462 84.91460239 -5.9375 83.3125 C-6.73929688 82.30960937 -7.54109375 81.30671875 -8.3671875 80.2734375 C-8.79483398 79.7381543 -9.22248047 79.20287109 -9.66308594 78.65136719 C-11.91354784 75.87157824 -14.24059319 73.15762089 -16.5625 70.4375 C-20.52708146 65.77933975 -24.37887491 61.04723873 -28.1796875 56.25390625 C-30.40432433 53.49936665 -32.73292495 50.85101606 -35.078125 48.19921875 C-41.03632847 41.38119324 -46.89505499 34.48725268 -52 27 C-51.34 27 -50.68 27 -50 27 C-49.67 26.34 -49.34 25.68 -49 25 C-48.34 25.99 -47.68 26.98 -47 28 C-46.67 26.35 -46.34 24.7 -46 23 C-44.68 23.99 -43.36 24.98 -42 26 C-41.34 24.68 -40.68 23.36 -40 22 C-39.34 22.33 -38.68 22.66 -38 23 C-38 24.32 -38 25.64 -38 27 C-35.76005527 27.45836011 -35.76005527 27.45836011 -33 27 C-30.76685883 25.24962012 -28.86279058 23.55747321 -26.875 21.5625 C-25.72637968 20.4545156 -24.57530048 19.34907505 -23.421875 18.24609375 C-22.84888672 17.69550293 -22.27589844 17.14491211 -21.68554688 16.57763672 C-18.42620397 13.52695974 -14.93051465 10.77058766 -11.44921875 7.98046875 C-9.22710146 6.18363707 -7.07757547 4.33047397 -4.9375 2.4375 C-2 0 -2 0 0 0 Z " fill="#032B24" transform="translate(254,157)"/>
<path d="M0 0 C0.12375 0.5775 0.2475 1.155 0.375 1.75 C1.11842189 4.42631879 2.00474985 7.00474985 4 9 C4.33 7.68 4.66 6.36 5 5 C5.66 5 6.32 5 7 5 C7 4.34 7 3.68 7 3 C7.99 3 8.98 3 10 3 C10 4.32 10 5.64 10 7 C10.99 7.33 11.98 7.66 13 8 C8.7310069 12.32283626 4.30218221 16.42330724 -0.21484375 20.484375 C-1.93387097 22.03704475 -3.63791636 23.60671978 -5.31640625 25.203125 C-5.99574219 25.83734375 -6.67507812 26.4715625 -7.375 27.125 C-7.96023437 27.68445313 -8.54546875 28.24390625 -9.1484375 28.8203125 C-11.53896369 30.34339037 -13.22040523 30.21969306 -16 30 C-16.7265625 27.8671875 -16.7265625 27.8671875 -17 25 C-15.5234375 22.1328125 -15.5234375 22.1328125 -13.375 19.125 C-12.63636719 18.07441406 -11.89773437 17.02382812 -11.13671875 15.94140625 C-10.43160156 14.97074219 -9.72648438 14.00007812 -9 13 C-8.23623047 11.93072266 -8.23623047 11.93072266 -7.45703125 10.83984375 C-6.3046875 9.2265625 -5.15234375 7.61328125 -4 6 C-2.98940479 4.33973644 -1.98546999 2.67529898 -1 1 C-0.67 0.67 -0.34 0.34 0 0 Z " fill="#0EEAA0" transform="translate(232,155)"/>
<path d="M0 0 C0.59554687 0.2165625 1.19109375 0.433125 1.8046875 0.65625 C-0.1753125 1.64625 -0.1753125 1.64625 -2.1953125 2.65625 C-2.1953125 3.64625 -2.1953125 4.63625 -2.1953125 5.65625 C-3.5153125 5.65625 -4.8353125 5.65625 -6.1953125 5.65625 C-6.1953125 9.61625 -6.1953125 13.57625 -6.1953125 17.65625 C-6.8553125 17.65625 -7.5153125 17.65625 -8.1953125 17.65625 C-8.11137454 33.32915433 -8.01622718 49.00194809 -7.90778542 64.67469978 C-7.85769296 71.95205719 -7.81124971 79.22940351 -7.7734375 86.50683594 C-7.7404658 92.850862 -7.70060608 99.19480127 -7.65252244 105.53873146 C-7.62730881 108.89687136 -7.60551251 112.25495407 -7.59196854 115.61316299 C-7.57510541 119.36479394 -7.54606921 123.11614685 -7.51416016 126.86767578 C-7.51199997 127.97754349 -7.50983978 129.08741119 -7.50761414 130.23091125 C-7.49072871 137.66302985 -7.49072871 137.66302985 -5.1953125 144.65625 C-4.2053125 144.98625 -3.2153125 145.31625 -2.1953125 145.65625 C-2.1953125 146.31625 -2.1953125 146.97625 -2.1953125 147.65625 C-1.5353125 147.98625 -0.8753125 148.31625 -0.1953125 148.65625 C-3.1953125 148.65625 -3.1953125 148.65625 -4.765625 147.265625 C-5.53519531 146.34523438 -5.53519531 146.34523438 -6.3203125 145.40625 C-6.83851562 144.80296875 -7.35671875 144.1996875 -7.890625 143.578125 C-10.26767997 140.07659493 -10.32137852 136.62461282 -10.32902527 132.47685242 C-10.33329025 131.42970062 -10.33755524 130.38254883 -10.34194946 129.30366516 C-10.34149628 128.16020126 -10.34104309 127.01673737 -10.34057617 125.83862305 C-10.34393478 124.63008667 -10.3472934 123.42155029 -10.35075378 122.1763916 C-10.35862591 118.8642614 -10.36193138 115.5521939 -10.36256957 112.24005866 C-10.36328093 110.16888966 -10.36541691 108.0977272 -10.36806679 106.02655983 C-10.37731666 98.79545297 -10.38140222 91.56436453 -10.38061523 84.33325195 C-10.38001488 77.60203306 -10.39055933 70.87089442 -10.4063589 64.13969582 C-10.41945424 58.35356257 -10.42479828 52.56745547 -10.42415982 46.78130752 C-10.42390538 43.32870621 -10.42672696 39.8761762 -10.43733788 36.42358971 C-10.44885874 32.56971507 -10.44425982 28.71594958 -10.43823242 24.86206055 C-10.44385193 23.72466934 -10.44947144 22.58727814 -10.45526123 21.41542053 C-10.4056909 8.94024077 -10.4056909 8.94024077 -6.828125 3.625 C-6.33054687 3.1403125 -5.83296875 2.655625 -5.3203125 2.15625 C-4.82789063 1.6509375 -4.33546875 1.145625 -3.828125 0.625 C-2.1953125 -0.34375 -2.1953125 -0.34375 0 0 Z " fill="#17C087" transform="translate(134.1953125,126.34375)"/>
<path d="M0 0 C0.33 0 0.66 0 1 0 C1.33 44.55 1.66 89.1 2 135 C-0.97 135.99 -0.97 135.99 -4 137 C-4.66 138.98 -5.32 140.96 -6 143 C-15.9 142.505 -15.9 142.505 -26 142 C-26 141.34 -26 140.68 -26 140 C-25.05898437 140.02320313 -24.11796875 140.04640625 -23.1484375 140.0703125 C-21.90320313 140.08835937 -20.65796875 140.10640625 -19.375 140.125 C-18.14523437 140.14820313 -16.91546875 140.17140625 -15.6484375 140.1953125 C-12.05683959 140.0030428 -9.33338825 139.30258556 -6 138 C-6 137.34 -6 136.68 -6 136 C-4.68799596 134.64567325 -3.35368596 133.31266518 -2 132 C-0.72961384 129.45922768 -0.86097053 127.66963066 -0.84178162 124.82418823 C-0.8319928 123.72759888 -0.82220398 122.63100952 -0.81211853 121.50119019 C-0.80636307 120.29278473 -0.8006076 119.08437927 -0.79467773 117.83935547 C-0.77982834 115.93697113 -0.77982834 115.93697113 -0.76467896 113.99615479 C-0.73760179 110.5129335 -0.71660749 107.02969863 -0.69667697 103.54643011 C-0.67483473 99.90821693 -0.64743744 96.27004576 -0.62062073 92.63186646 C-0.57066997 85.74000879 -0.52574 78.84812784 -0.48259836 71.95622456 C-0.43324633 64.11107606 -0.37832067 56.26596971 -0.32291877 48.42086196 C-0.20906215 32.28061348 -0.10223114 16.14032639 0 0 Z " fill="#035C43" transform="translate(278,137)"/>
<path d="M0 0 C0.66 0 1.32 0 2 0 C2 29.04 2 58.08 2 88 C1.34 88 0.68 88 0 88 C-1.50126091 86.36896408 -2.92684386 84.66782355 -4.3125 82.9375 C-5.11171875 81.93976563 -5.9109375 80.94203125 -6.734375 79.9140625 C-9.25735954 76.66898238 -11.6684498 73.38450836 -14 70 C-12.35 69.01 -10.7 68.02 -9 67 C-9 67.66 -9 68.32 -9 69 C-6.03 68.505 -6.03 68.505 -3 68 C-3.08378906 68.77085937 -3.16757813 69.54171875 -3.25390625 70.3359375 C-3.35574219 71.33882813 -3.45757812 72.34171875 -3.5625 73.375 C-3.66691406 74.37273437 -3.77132812 75.37046875 -3.87890625 76.3984375 C-4.21144708 78.984037 -4.21144708 78.984037 -3 81 C-1.36486073 79.9693496 -1.36486073 79.9693496 0 78 C0.28042473 75.41782229 0.37931036 73.07981085 0.34057617 70.49926758 C0.34101425 69.73805099 0.34145233 68.97683441 0.34190369 68.19255066 C0.33981353 65.67628334 0.31647235 63.16068218 0.29296875 60.64453125 C0.28737359 58.90004338 0.28310311 57.15555079 0.28010559 55.41105652 C0.26865049 50.81929513 0.23917765 46.22781836 0.20599365 41.63616943 C0.17530707 36.95084483 0.16160328 32.26547425 0.14648438 27.58007812 C0.11430854 18.38659369 0.06310418 9.19332051 0 0 Z " fill="#014831" transform="translate(252,157)"/>
<path d="M0 0 C0.33 0 0.66 0 1 0 C1.00238835 0.62745652 1.00477671 1.25491304 1.00723743 1.9013834 C1.06642909 17.18402028 1.14200569 32.46648134 1.23571491 47.74894047 C1.28063923 55.13949722 1.32006158 62.53000614 1.34643555 69.9206543 C1.36944296 76.36396929 1.40287145 82.8071325 1.44870156 89.25032705 C1.47259703 92.66050447 1.49134977 96.07053192 1.49761391 99.48079109 C1.50723705 103.29219012 1.5352769 107.10304214 1.56762695 110.91430664 C1.56619186 112.03928055 1.56475677 113.16425446 1.5632782 114.32331848 C1.63554046 120.34354827 2.14794965 124.66981836 5 130 C5.33 130.66 5.66 131.32 6 132 C4.35 132 2.7 132 1 132 C1 131.34 1 130.68 1 130 C0.34 130 -0.32 130 -1 130 C-1.94252351 125.60155697 -1.96387992 121.78033221 -1.54711914 117.30224609 C-0.69479877 106.14801731 -0.76397474 94.97023273 -0.68359375 83.7890625 C-0.66298543 81.36526161 -0.64198805 78.941464 -0.62062073 76.51766968 C-0.56580011 70.18195272 -0.51621678 63.84620551 -0.46777344 57.51043701 C-0.4172636 51.02776442 -0.36173246 44.54513498 -0.30664062 38.0625 C-0.19954951 25.37503722 -0.09782768 12.68753742 0 0 Z " fill="#013E29" transform="translate(123,141)"/>
<path d="M0 0 C0.33 0 0.66 0 1 0 C1 28.38 1 56.76 1 86 C6.85002236 82.77873208 6.85002236 82.77873208 11.640625 78.80078125 C12.53394531 77.94709961 12.53394531 77.94709961 13.4453125 77.07617188 C14.04085937 76.49416016 14.63640625 75.91214844 15.25 75.3125 C16.45934822 74.13759524 17.67272924 72.96682337 18.890625 71.80078125 C19.41688477 71.28684814 19.94314453 70.77291504 20.48535156 70.2434082 C22 69 22 69 25 68 C25.33 69.98 25.66 71.96 26 74 C22.91190305 75.76462683 21.76687864 76 18 76 C17.67 77.65 17.34 79.3 17 81 C16.2575 80.896875 15.515 80.79375 14.75 80.6875 C11.75539605 80.71027494 11.75539605 80.71027494 9.875 83.5 C9.25625 84.325 8.6375 85.15 8 86 C7.01 86 6.02 86 5 86 C5 86.66 5 87.32 5 88 C3.02 88.495 3.02 88.495 1 89 C-0.60344035 85.79311929 -0.12922745 82.30817153 -0.11352539 78.78662109 C-0.11367142 77.9377684 -0.11381744 77.08891571 -0.1139679 76.21434021 C-0.11326966 73.40068023 -0.1054814 70.58708596 -0.09765625 67.7734375 C-0.09579175 65.82573482 -0.094368 63.87803168 -0.09336853 61.93032837 C-0.08954583 56.79779776 -0.07971765 51.66529533 -0.06866455 46.53277588 C-0.05844512 41.29789613 -0.05386977 36.06301184 -0.04882812 30.828125 C-0.03809517 20.55207093 -0.0210217 10.27603781 0 0 Z " fill="#33DDA5" transform="translate(147,159)"/>
<path d="M0 0 C4.42849301 3.34837276 7.61500747 6.9056781 10.94140625 11.3359375 C13.40339722 14.52204346 16.00439645 17.56923281 18.625 20.625 C22.31567226 24.94181304 25.82275921 29.28891883 29 34 C28.01 34 27.02 34 26 34 C24.75390625 32.5390625 24.75390625 32.5390625 23.5625 30.625 C21.67902805 27.79979207 20.33057952 26.11019317 17 25 C17.33 24.34 17.66 23.68 18 23 C15.36 22.67 12.72 22.34 10 22 C10 24.31 10 26.62 10 29 C9.34 29 8.68 29 8 29 C7.67 29.66 7.34 30.32 7 31 C5.64560332 28.29120665 5.93498549 25.99066732 6 23 C7.65 22.34 9.3 21.68 11 21 C10.53199289 16.94393835 10.12046792 13.53411321 8 10 C7.34 10 6.68 10 6 10 C6 9.34 6 8.68 6 8 C5.01 8 4.02 8 3 8 C2.67 7.34 2.34 6.68 2 6 C0.02 6.66 -1.96 7.32 -4 8 C-5.125 4.25 -5.125 4.25 -4 2 C-1.9375 0.875 -1.9375 0.875 0 0 Z " fill="#19E09F" transform="translate(176,154)"/>
<path d="M0 0 C0.66 0.33 1.32 0.66 2 1 C2 2.32 2 3.64 2 5 C5.71599191 5.20086443 6.77208445 5.1519437 10 3 C9.67 4.65 9.34 6.3 9 8 C6.69 8 4.38 8 2 8 C2.66 9.32 3.32 10.64 4 12 C2.68 12.33 1.36 12.66 0 13 C0.33 14.65 0.66 16.3 1 18 C0.01 18 -0.98 18 -2 18 C-4.2265625 15.6640625 -4.2265625 15.6640625 -6.625 12.625 C-7.42164063 11.62726563 -8.21828125 10.62953125 -9.0390625 9.6015625 C-11 7 -11 7 -12 5 C-11.34 5 -10.68 5 -10 5 C-9.67 4.34 -9.34 3.68 -9 3 C-8.01 4.485 -8.01 4.485 -7 6 C-6.67 4.35 -6.34 2.7 -6 1 C-4.68 1.99 -3.36 2.98 -2 4 C-1.34 2.68 -0.68 1.36 0 0 Z " fill="#023829" transform="translate(214,179)"/>
<path d="M0 0 C0.71542969 0.25652344 1.43085938 0.51304687 2.16796875 0.77734375 C2.7503445 5.68203949 0.94318872 8.14382785 -1.83203125 12.08984375 C-2.57453125 13.15847656 -3.31703125 14.22710937 -4.08203125 15.328125 C-4.94828125 16.54048828 -4.94828125 16.54048828 -5.83203125 17.77734375 C-6.49203125 17.44734375 -7.15203125 17.11734375 -7.83203125 16.77734375 C-8.14140625 15.80796875 -8.45078125 14.83859375 -8.76953125 13.83984375 C-9.57947247 10.50929945 -9.57947247 10.50929945 -12.83203125 8.77734375 C-11.28722712 7.23853886 -9.72046185 5.7217555 -8.14453125 4.21484375 C-7.27441406 3.36792969 -6.40429688 2.52101562 -5.5078125 1.6484375 C-2.83203125 -0.22265625 -2.83203125 -0.22265625 0 0 Z " fill="#0CEEA6" transform="translate(184.83203125,217.22265625)"/>
<path d="M0 0 C0.33 0 0.66 0 1 0 C1 1.65 1 3.3 1 5 C1.66 5 2.32 5 3 5 C3 7.31 3 9.62 3 12 C1.02 11.01 -0.96 10.02 -3 9 C-3 9.99 -3 10.98 -3 12 C-10.07873816 13.57305292 -17.78169929 14.09094939 -24.6875 11.75 C-27 10 -27 10 -27.875 7.8125 C-27.91625 7.214375 -27.9575 6.61625 -28 6 C-27.236875 6.66 -26.47375 7.32 -25.6875 8 C-21.12911921 10.99581527 -16.24409821 10.99533875 -11 10 C-6.19931825 7.56030928 -3.1822502 4.25533458 0 0 Z " fill="#024632" transform="translate(157,267)"/>
<path d="M0 0 C4.16043786 2.89969912 6.88748893 6.29384543 9.8984375 10.29296875 C12.85965292 14.10732244 16.01158392 17.751326 19.18017578 21.39428711 C21.8018261 24.4444494 24.04603299 27.48285938 26 31 C24.125 30.75 24.125 30.75 22 30 C21.3162955 28.67532254 20.65035814 27.34136367 20 26 C19.360625 25.731875 18.72125 25.46375 18.0625 25.1875 C14.86286357 23.34528509 14.36618593 20.32636574 13 17 C12.01 16.34 11.02 15.68 10 15 C10 14.34 10 13.68 10 13 C9.38125 12.9175 8.7625 12.835 8.125 12.75 C6 12 6 12 4.75 10.125 C4 8 4 8 4 5 C2.68 5 1.36 5 0 5 C0 3.35 0 1.7 0 0 Z " fill="#024531" transform="translate(204,223)"/>
<path d="M0 0 C2 3 2 3 2 6 C-1.08809695 7.76462683 -2.23312136 8 -6 8 C-6.33 9.65 -6.66 11.3 -7 13 C-8.11375 12.8453125 -8.11375 12.8453125 -9.25 12.6875 C-12.24460395 12.71027494 -12.24460395 12.71027494 -14.125 15.5 C-15.053125 16.7375 -15.053125 16.7375 -16 18 C-16.99 18 -17.98 18 -19 18 C-19 18.66 -19 19.32 -19 20 C-20.32 20.33 -21.64 20.66 -23 21 C-23.33 19.68 -23.66 18.36 -24 17 C-23.319375 16.95488281 -22.63875 16.90976563 -21.9375 16.86328125 C-17.74393455 15.63086374 -15.20043077 13.08361631 -12 10.1875 C-10.79225752 9.1178221 -9.58393468 8.04879907 -8.375 6.98046875 C-7.80394531 6.47177246 -7.23289063 5.96307617 -6.64453125 5.43896484 C-4.48752348 3.55158305 -2.25723638 1.76560346 0 0 Z " fill="#19D89B" transform="translate(171,227)"/>
<path d="M0 0 C1.875 0.1875 1.875 0.1875 4 1 C4.70211894 2.65204456 5.36971413 4.31923769 6 6 C6.99 6.33 7.98 6.66 9 7 C9.33 7.66 9.66 8.32 10 9 C14.07657438 10.20255163 18.08964742 10.10196591 22.3125 10.0625 C23.56675781 10.05347656 24.82101562 10.04445313 26.11328125 10.03515625 C27.06589844 10.02355469 28.01851563 10.01195312 29 10 C29 9.34 29 8.68 29 8 C29.99 8 30.98 8 32 8 C32 8.66 32 9.32 32 10 C26.32371058 13.78419295 20.66196514 13.63491104 14 13 C7.76050668 11.20014616 3.90152305 5.97097607 0 1 C0 0.67 0 0.34 0 0 Z " fill="#1ECE96" transform="translate(240,265)"/>
<path d="M0 0 C0.33 0 0.66 0 1 0 C1.34886026 5.32011893 1.34886026 5.32011893 1 8 C-0.875 10 -0.875 10 -3 11 C-3.66 11 -4.32 11 -5 11 C-5.12375 11.598125 -5.2475 12.19625 -5.375 12.8125 C-6 15 -6 15 -8 18 C-8.33 18.99 -8.66 19.98 -9 21 C-10.65 21.33 -12.3 21.66 -14 22 C-10.4821511 15.2885279 -6.40987899 9.15383617 -2 3 C-1.34 2.01 -0.68 1.02 0 0 Z " fill="#053227" transform="translate(172,244)"/>
<path d="M0 0 C0.93423645 3.01031744 1.04449911 3.86650268 0 7 C-0.804375 7.268125 -1.60875 7.53625 -2.4375 7.8125 C-3.283125 8.204375 -4.12875 8.59625 -5 9 C-5.66 10.98 -6.32 12.96 -7 15 C-13.6 14.67 -20.2 14.34 -27 14 C-27 13.34 -27 12.68 -27 12 C-25.58847656 12.03480469 -25.58847656 12.03480469 -24.1484375 12.0703125 C-22.90320313 12.08835937 -21.65796875 12.10640625 -20.375 12.125 C-18.53035156 12.15980469 -18.53035156 12.15980469 -16.6484375 12.1953125 C-13.05683959 12.0030428 -10.33338825 11.30258556 -7 10 C-7 9.34 -7 8.68 -7 8 C-5.68945377 6.64426252 -4.35251497 5.31387169 -3 4 C-1.97676564 2.68441297 -0.96873032 1.35622245 0 0 Z " fill="#044634" transform="translate(279,265)"/>
<path d="M0 0 C1.32 0.33 2.64 0.66 4 1 C1.95114938 3.01585303 -0.11204553 5.01186238 -2.1875 7 C-3.0547168 7.85851562 -3.0547168 7.85851562 -3.93945312 8.734375 C-8.34516693 12.91606946 -8.34516693 12.91606946 -11.92578125 13.375 C-12.61027344 13.25125 -13.29476562 13.1275 -14 13 C-14.75 10.875 -14.75 10.875 -15 8 C-13.0625 4.6875 -13.0625 4.6875 -11 2 C-10.67 2.66 -10.34 3.32 -10 4 C-10.93578995 6.35981813 -11.93347808 8.69631264 -13 11 C-12.01 11 -11.02 11 -10 11 C-10 10.01 -10 9.02 -10 8 C-8.68 8 -7.36 8 -6 8 C-6.33 7.01 -6.66 6.02 -7 5 C-6.21625 4.731875 -5.4325 4.46375 -4.625 4.1875 C-1.71885077 3.15185568 -1.71885077 3.15185568 0 0 Z " fill="#1CE1A1" transform="translate(230,172)"/>
<path d="M0 0 C0.66 0.99 1.32 1.98 2 3 C1.37943989 4.68437744 0.70710678 6.35008418 0 8 C-0.16798262 10.70886941 -0.16798262 10.70886941 0 13 C-1.65 12.67 -3.3 12.34 -5 12 C-5.33 12.99 -5.66 13.98 -6 15 C-6.66 15 -7.32 15 -8 15 C-8.66 16.98 -9.32 18.96 -10 21 C-10.99 20.67 -11.98 20.34 -13 20 C-12.31292969 18.97519531 -11.62585938 17.95039063 -10.91796875 16.89453125 C-10.00775046 15.53389567 -9.09759767 14.17321627 -8.1875 12.8125 C-7.73568359 12.13896484 -7.28386719 11.46542969 -6.81835938 10.77148438 C-4.45229248 7.23101931 -2.14973234 3.67811346 0 0 Z " fill="#1AD99B" transform="translate(246,133)"/>
<path d="M0 0 C0.66 0 1.32 0 2 0 C2 0.66 2 1.32 2 2 C2.66 2 3.32 2 4 2 C5.875 4.046875 5.875 4.046875 8 6.75 C8.70125 7.63171875 9.4025 8.5134375 10.125 9.421875 C12 12 12 12 14 16 C9.05 16.495 9.05 16.495 4 17 C4.66 16.67 5.32 16.34 6 16 C5.41825155 10.6913151 5.41825155 10.6913151 3 6 C3 5.01 3 4.02 3 3 C2.01 3 1.02 3 0 3 C0 2.01 0 1.02 0 0 Z " fill="#013F2C" transform="translate(149,158)"/>
<path d="M0 0 C0.99 0.33 1.98 0.66 3 1 C-2.56890143 9.40377479 -8.15967635 17.78100148 -14 26 C-14.33 25.01 -14.66 24.02 -15 23 C-14.01439389 21.65599167 -13.01241685 20.32392972 -12 19 C-11.7834375 17.700625 -11.7834375 17.700625 -11.5625 16.375 C-11.376875 15.59125 -11.19125 14.8075 -11 14 C-9 12.875 -9 12.875 -7 12 C-6.67 11.01 -6.34 10.02 -6 9 C-5.34 9 -4.68 9 -4 9 C-3.87625 8.195625 -3.7525 7.39125 -3.625 6.5625 C-3.41875 5.716875 -3.2125 4.87125 -3 4 C-2.34 3.67 -1.68 3.34 -1 3 C-0.67 2.01 -0.34 1.02 0 0 Z " fill="#28D29C" transform="translate(174,237)"/>
<path d="M0 0 C5.70064018 4.45257103 10.72972167 9.45944334 14 16 C12.35 16 10.7 16 9 16 C8.67 14.02 8.34 12.04 8 10 C6.68 10 5.36 10 4 10 C3.67 8.35 3.34 6.7 3 5 C1.68 4.67 0.36 4.34 -1 4 C-0.67 2.68 -0.34 1.36 0 0 Z " fill="#1ECE95" transform="translate(216,202)"/>
<path d="M0 0 C3.74169367 3.64662341 7.19522172 7.44440301 10.5625 11.4375 C11.26536133 12.25831055 11.26536133 12.25831055 11.98242188 13.09570312 C14.93340357 16.58322694 17.53430353 20.1535135 20 24 C18.68 23.34 17.36 22.68 16 22 C16 21.34 16 20.68 16 20 C15.401875 19.773125 14.80375 19.54625 14.1875 19.3125 C11.43914226 17.66348536 10.60788124 15.72640732 9 13 C8.01 12.67 7.02 12.34 6 12 C4.39453125 9.78515625 4.39453125 9.78515625 2.8125 7.0625 C2.28269531 6.16660156 1.75289062 5.27070313 1.20703125 4.34765625 C0 2 0 2 0 0 Z " fill="#24CC96" transform="translate(230,218)"/>
<path d="M0 0 C0.66 0.33 1.32 0.66 2 1 C1.67 2.32 1.34 3.64 1 5 C2.65 4.34 4.3 3.68 6 3 C5.67 6.3 5.34 9.6 5 13 C0.125 8.375 0.125 8.375 -1 5 C-1.66 5 -2.32 5 -3 5 C-3 4.34 -3 3.68 -3 3 C-3.99 3 -4.98 3 -6 3 C-6 2.34 -6 1.68 -6 1 C-4.7934375 1.0309375 -4.7934375 1.0309375 -3.5625 1.0625 C-1.06645115 1.29633621 -1.06645115 1.29633621 0 0 Z " fill="#18DC9A" transform="translate(154,155)"/>
<path d="M0 0 C0.33 0.66 0.66 1.32 1 2 C6.28 2 11.56 2 17 2 C17.33 2.99 17.66 3.98 18 5 C11.4 5 4.8 5 -2 5 C-2 4.34 -2 3.68 -2 3 C-2.99 3 -3.98 3 -5 3 C-4.67 2.34 -4.34 1.68 -4 1 C-1.9375 0.375 -1.9375 0.375 0 0 Z " fill="#034833" transform="translate(134,121)"/>
<path d="M0 0 C0.33 0 0.66 0 1 0 C1 9.9 1 19.8 1 30 C0.01 30 -0.98 30 -2 30 C-1.835 28.700625 -1.67 27.40125 -1.5 26.0625 C-0.90409072 20.30204359 -0.94213746 14.58564358 -1.03710938 8.80297852 C-1.07523949 5.58501655 -1.02610598 3.07831795 0 0 Z " fill="#19E8A3" transform="translate(146,196)"/>
<path d="M0 0 C2.24353764 1.75581206 3.01531334 3.04211168 4 5.75 C4 10.24854177 2.00574891 12.76451232 -1 16 C-1.33 16 -1.66 16 -2 16 C-2 13.69 -2 11.38 -2 9 C-1.01 9.33 -0.02 9.66 1 10 C0.4740625 8.63875 0.4740625 8.63875 -0.0625 7.25 C-0.96468779 4.12241564 -1.13381507 2.94791919 0 0 Z " fill="#13ECA6" transform="translate(155,256)"/>
<path d="M0 0 C0.99 0 1.98 0 3 0 C3 0.66 3 1.32 3 2 C3.66 2 4.32 2 5 2 C5 1.34 5 0.68 5 0 C5.66 0 6.32 0 7 0 C7.33 2.31 7.66 4.62 8 7 C8.474375 6.505 8.94875 6.01 9.4375 5.5 C11 4 11 4 12 4 C12 6.97 12 9.94 12 13 C7.04741286 9.22660027 3.56320845 5.09210286 0 0 Z " fill="#01432E" transform="translate(241,231)"/>
<path d="M0 0 C0.721875 0.268125 1.44375 0.53625 2.1875 0.8125 C2.59926754 4.41546594 2.3410853 5.59652067 0.1875 8.625 C-0.4725 9.346875 -1.1325 10.06875 -1.8125 10.8125 C-1.1525 7.8425 -0.4925 4.8725 0.1875 1.8125 C-2.93035113 2.45894661 -2.93035113 2.45894661 -3.8125 4.8125 C-4.4725 4.8125 -5.1325 4.8125 -5.8125 4.8125 C-6.1425 6.4625 -6.4725 8.1125 -6.8125 9.8125 C-7.4725 9.4825 -8.1325 9.1525 -8.8125 8.8125 C-10.91071215 9.21188767 -10.91071215 9.21188767 -12.8125 9.8125 C-11.14583333 8.14583333 -9.47916667 6.47916667 -7.8125 4.8125 C-6.9875 3.86375 -6.1625 2.915 -5.3125 1.9375 C-2.8125 -0.1875 -2.8125 -0.1875 0 0 Z " fill="#28CD98" transform="translate(184.8125,217.1875)"/>
<path d="M0 0 C0.33 0.66 0.66 1.32 1 2 C0.67 2.99 0.34 3.98 0 5 C-0.66 5 -1.32 5 -2 5 C-2.66 7.31 -3.32 9.62 -4 12 C-4.66 12 -5.32 12 -6 12 C-5.979375 12.804375 -5.95875 13.60875 -5.9375 14.4375 C-6 17 -6 17 -7 18 C-8.66617115 18.04063832 -10.33388095 18.042721 -12 18 C-1.63106796 1.63106796 -1.63106796 1.63106796 0 0 Z " fill="#23D197" transform="translate(232,155)"/>
<path d="M0 0 C1.58502671 3.17005342 1.60385067 6.49124878 2 10 C1.4225 10.12375 0.845 10.2475 0.25 10.375 C-2.05099641 11.01416567 -3.94109615 11.79305636 -6 13 C-6.33 13.66 -6.66 14.32 -7 15 C-7.66 14.67 -8.32 14.34 -9 14 C-6.03 9.38 -3.06 4.76 0 0 Z " fill="#054433" transform="translate(182,229)"/>
<path d="M0 0 C0.66 0.66 1.32 1.32 2 2 C0.23436021 3.65172755 -1.53704598 5.29638045 -3.3125 6.9375 C-4.06176758 7.64036133 -4.06176758 7.64036133 -4.82617188 8.35742188 C-7.21561016 10.55697103 -8.88080438 11.96026813 -12 13 C-11.67 11.35 -11.34 9.7 -11 8 C-10.34 8 -9.68 8 -9 8 C-8.67 7.34 -8.34 6.68 -8 6 C-5.54291044 3.28872876 -3.370445 1.44447643 0 0 Z " fill="#024431" transform="translate(172,223)"/>
<path d="M0 0 C13.62477303 -1.03333953 13.62477303 -1.03333953 18.875 2.9375 C20.7421875 4.58984375 20.7421875 4.58984375 22 6 C22 6.33 22 6.66 22 7 C20.35 7 18.7 7 17 7 C17 6.01 17 5.02 17 4 C15.02 4.33 13.04 4.66 11 5 C11 4.34 11 3.68 11 3 C11.66 3 12.32 3 13 3 C13 2.34 13 1.68 13 1 C11.453125 1.2784375 11.453125 1.2784375 9.875 1.5625 C6.23851558 1.97307082 3.54562991 1.778309 0 1 C0 0.67 0 0.34 0 0 Z " fill="#24D99F" transform="translate(136,125)"/>
<path d="M0 0 C0.66 0 1.32 0 2 0 C2 0.66 2 1.32 2 2 C2.66 2 3.32 2 4 2 C4 1.34 4 0.68 4 0 C4.99 0.33 5.98 0.66 7 1 C1.71428571 7.42857143 1.71428571 7.42857143 -1 10 C-1.12375 9.360625 -1.2475 8.72125 -1.375 8.0625 C-1.684375 7.0415625 -1.684375 7.0415625 -2 6 C-2.66 5.67 -3.32 5.34 -4 5 C-2.71937515 3.2925002 -1.38232443 1.62626404 0 0 Z " fill="#023628" transform="translate(244,128)"/>
<path d="M0 0 C3.49049637 3.39766402 6.67741794 6.9086365 9.75 10.6875 C10.52859375 11.64011719 11.3071875 12.59273437 12.109375 13.57421875 C14 16 14 16 15 18 C14.01 18 13.02 18 12 18 C10.75390625 16.5390625 10.75390625 16.5390625 9.5625 14.625 C7.67902805 11.79979207 6.33057952 10.11019317 3 9 C3 8.34 3 7.68 3 7 C2.34 6.67 1.68 6.34 1 6 C0.375 2.9375 0.375 2.9375 0 0 Z " fill="#24C994" transform="translate(190,170)"/>
<path d="M0 0 C0.33 0 0.66 0 1 0 C1 1.65 1 3.3 1 5 C1.66 5 2.32 5 3 5 C3 7.31 3 9.62 3 12 C1.02 11.01 -0.96 10.02 -3 9 C-2.25 2.25 -2.25 2.25 0 0 Z " fill="#05352B" transform="translate(157,267)"/>
<path d="M0 0 C2.31 0.33 4.62 0.66 7 1 C4.59384348 3.65506927 2.82040233 4.92164697 -0.78125 5.265625 C-3.53033855 5.25145444 -6.25655321 5.17296687 -9 5 C-9.33 4.34 -9.66 3.68 -10 3 C-6.7 2.67 -3.4 2.34 0 2 C0 1.34 0 0.68 0 0 Z " fill="#1CCC94" transform="translate(144,273)"/>
<path d="M0 0 C3.59540555 3.49267968 6.87778552 7.07493037 10 11 C10 11.33 10 11.66 10 12 C8.35 12 6.7 12 5 12 C4.67 12.99 4.34 13.98 4 15 C3.83197949 13.54182203 3.66562857 12.0834516 3.5 10.625 C3.4071875 9.81289063 3.314375 9.00078125 3.21875 8.1640625 C3 6 3 6 3 4 C2.01 3.67 1.02 3.34 0 3 C0 2.01 0 1.02 0 0 Z " fill="#044834" transform="translate(230,254)"/>
<path d="M0 0 C0.70125 0.721875 1.4025 1.44375 2.125 2.1875 C4.92770745 4.99823813 7.92262792 7.49516226 11 10 C7.98968256 10.93423645 7.13349732 11.04449911 4 10 C3.67 9.01 3.34 8.02 3 7 C2.34 7 1.68 7 1 7 C1 6.01 1 5.02 1 4 C0.34 4 -0.32 4 -1 4 C-0.67 2.68 -0.34 1.36 0 0 Z " fill="#044E37" transform="translate(240,266)"/>
<path d="M0 0 C2.9778041 2.06155668 4.53571675 3.52121276 5.69140625 6.98828125 C5.03140625 6.98828125 4.37140625 6.98828125 3.69140625 6.98828125 C3.69140625 6.32828125 3.69140625 5.66828125 3.69140625 4.98828125 C2.70140625 4.98828125 1.71140625 4.98828125 0.69140625 4.98828125 C0.69140625 4.32828125 0.69140625 3.66828125 0.69140625 2.98828125 C-3.85909204 0.63963697 -8.29431612 0.35125868 -13.30859375 0.98828125 C-16.16108148 2.43047205 -16.16108148 2.43047205 -18.30859375 3.98828125 C-18.96859375 3.65828125 -19.62859375 3.32828125 -20.30859375 2.98828125 C-15.45202172 -2.33082145 -6.47948731 -2.83957227 0 0 Z " fill="#28CA97" transform="translate(270.30859375,126.01171875)"/>
<path d="M0 0 C1.32 0 2.64 0 4 0 C4 0.66 4 1.32 4 2 C4.66 2 5.32 2 6 2 C5.67 3.65 5.34 5.3 5 7 C3.02 7.33 1.04 7.66 -1 8 C-1.125 2.25 -1.125 2.25 0 0 Z " fill="#063029" transform="translate(248,277)"/>
<path d="M0 0 C0.268125 0.639375 0.53625 1.27875 0.8125 1.9375 C1.88667752 4.33131686 1.88667752 4.33131686 5 5 C5.35412344 6.32796291 5.68521554 7.66216607 6 9 C7.47890069 10.73026102 7.47890069 10.73026102 9 12 C8.67 12.99 8.34 13.98 8 15 C4.37 10.71 0.74 6.42 -3 2 C-2.01 1.34 -1.02 0.68 0 0 Z " fill="#1DD498" transform="translate(162,167)"/>
<path d="M0 0 C4.58716587 4.44381694 8.78762713 9.20228499 13 14 C12.01 14.495 12.01 14.495 11 15 C10.34 14.67 9.68 14.34 9 14 C9 13.34 9 12.68 9 12 C8.38125 11.79375 7.7625 11.5875 7.125 11.375 C4.1699871 9.46293283 4.04431695 7.27219312 3 4 C2.01 3.67 1.02 3.34 0 3 C0 2.01 0 1.02 0 0 Z " fill="#024E35" transform="translate(163,174)"/>
<path d="M0 0 C1.32 0.33 2.64 0.66 4 1 C4.6875 3.25 4.6875 3.25 5 6 C3.6875 8.3125 3.6875 8.3125 2 10 C1.34 10 0.68 10 0 10 C-0.33 10.66 -0.66 11.32 -1 12 C-1.66 11.67 -2.32 11.34 -3 11 C-2.505 10.29875 -2.01 9.5975 -1.5 8.875 C0.1936681 5.62880281 0.25162315 3.60659844 0 0 Z " fill="#054736" transform="translate(186,217)"/>
<path d="M0 0 C0.66 0.33 1.32 0.66 2 1 C1.21516341 2.48280196 0.42190666 3.9611498 -0.375 5.4375 C-0.81585938 6.26121094 -1.25671875 7.08492187 -1.7109375 7.93359375 C-3 10 -3 10 -5 11 C-5.33 8.69 -5.66 6.38 -6 4 C-3 2 -3 2 0 2 C0 1.34 0 0.68 0 0 Z " fill="#023D2B" transform="translate(228,157)"/>
<path d="M0 0 C-0.33 1.32 -0.66 2.64 -1 4 C0.32 4.33 1.64 4.66 3 5 C-1.75 9 -1.75 9 -4 9 C-4 6.36 -4 3.72 -4 1 C-2 0 -2 0 0 0 Z " fill="#033F2E" transform="translate(153,236)"/>
<path d="M0 0 C1.32 0 2.64 0 4 0 C5.625 2.4375 5.625 2.4375 7 5 C7.66 5.33 8.32 5.66 9 6 C9.625 9.0625 9.625 9.0625 10 12 C6.40459445 8.50732032 3.12221448 4.92506963 0 1 C0 0.67 0 0.34 0 0 Z " fill="#21D49B" transform="translate(171,182)"/>
<path d="M0 0 C2.475 0.99 2.475 0.99 5 2 C5 2.66 5 3.32 5 4 C5.66 4 6.32 4 7 4 C7.99 5.98 8.98 7.96 10 10 C7 10 7 10 5.17578125 8.3203125 C4.56089844 7.59585938 3.94601563 6.87140625 3.3125 6.125 C2.68988281 5.40570313 2.06726563 4.68640625 1.42578125 3.9453125 C0 2 0 2 0 0 Z " fill="#043E2D" transform="translate(182,159)"/>
<path d="M0 0 C2.41363004 0.38352172 3.6791581 0.64464894 5.34375 2.48828125 C5.7253125 3.09027344 6.106875 3.69226563 6.5 4.3125 C8.42557243 7.20980093 10.43436547 9.62441247 13 12 C12.34 12.66 11.68 13.32 11 14 C9.16369327 11.85664848 7.33085819 9.71049702 5.5 7.5625 C4.71302734 6.64500977 4.71302734 6.64500977 3.91015625 5.70898438 C0 1.11328125 0 1.11328125 0 0 Z " fill="#02442F" transform="translate(162,136)"/>
<path d="M0 0 C1.65 0 3.3 0 5 0 C5 1.98 5 3.96 5 6 C1.95613276 6.08226668 -0.07175348 5.97608217 -3 5 C-3 4.34 -3 3.68 -3 3 C-2.01 3 -1.02 3 0 3 C0 2.01 0 1.02 0 0 Z " fill="#032F26" transform="translate(235,266)"/>
<path d="M0 0 C0.99 0.33 1.98 0.66 3 1 C3 1.66 3 2.32 3 3 C3.66 3 4.32 3 5 3 C6.7265625 4.86328125 6.7265625 4.86328125 8.625 7.3125 C9.57246094 8.51326172 9.57246094 8.51326172 10.5390625 9.73828125 C12 12 12 12 12 15 C8.94433539 12.03693129 6.02864172 8.98279839 3.1875 5.8125 C2.58292969 5.13832031 1.97835937 4.46414062 1.35546875 3.76953125 C0 2 0 2 0 0 Z " fill="#24CF9A" transform="translate(228,250)"/>
<path d="M0 0 C0.33 0.66 0.66 1.32 1 2 C0.06421005 4.35981813 -0.93347808 6.69631264 -2 9 C-0.02 8.67 1.96 8.34 4 8 C3.01 9.485 3.01 9.485 2 11 C-0.625 11.1875 -0.625 11.1875 -3 11 C-3.75 8.875 -3.75 8.875 -4 6 C-2.0625 2.6875 -2.0625 2.6875 0 0 Z " fill="#2ACB98" transform="translate(219,174)"/>
<path d="M0 0 C4.38249366 1.33909529 6.57949251 3.08994944 9 7 C8.6015625 9.1640625 8.6015625 9.1640625 8 11 C6.66375099 9.35653302 5.33107149 7.71016314 4 6.0625 C3.2575 5.14597656 2.515 4.22945312 1.75 3.28515625 C0 1 0 1 0 0 Z " fill="#023C2B" transform="translate(191,170)"/>
<path d="M0 0 C0.66 0.33 1.32 0.66 2 1 C2 1.66 2 2.32 2 3 C2.99 3.33 3.98 3.66 5 4 C5 4.66 5 5.32 5 6 C3.35 6.66 1.7 7.32 0 8 C-1.125 6.25 -1.125 6.25 -2 4 C-1.125 1.75 -1.125 1.75 0 0 Z " fill="#0DE39D" transform="translate(250,242)"/>
<path d="M0 0 C0 0.66 0 1.32 0 2 C0.99 2 1.98 2 3 2 C2.67 2.66 2.34 3.32 2 4 C0.33333333 4.33333333 -1.33333333 4.66666667 -3 5 C-3.33 5.66 -3.66 6.32 -4 7 C-4.66 7 -5.32 7 -6 7 C-5.625 4.0625 -5.625 4.0625 -5 1 C-3 0 -3 0 0 0 Z " fill="#082C25" transform="translate(188,228)"/>
<path d="M0 0 C0.33 0.66 0.66 1.32 1 2 C-0.2739589 4.03833424 -1.61061923 6.03852126 -3 8 C-3.66 8 -4.32 8 -5 8 C-5.33 8.66 -5.66 9.32 -6 10 C-7.32 9.67 -8.64 9.34 -10 9 C-6.7 6.03 -3.4 3.06 0 0 Z " fill="#025038" transform="translate(234,172)"/>
<path d="M0 0 C2.475 0.495 2.475 0.495 5 1 C5 1.99 5 2.98 5 4 C5.99 4 6.98 4 8 4 C8.33 6.31 8.66 8.62 9 11 C5.36440339 7.56638098 2.63886654 4.2026393 0 0 Z " fill="#22D49C" transform="translate(215,235)"/>
<path d="M0 0 C0.66 0.33 1.32 0.66 2 1 C1.67 2.98 1.34 4.96 1 7 C1.99 7.33 2.98 7.66 4 8 C2.68 8 1.36 8 0 8 C-2 6 -2 6 -2.125 3.375 C-2.08375 2.59125 -2.0425 1.8075 -2 1 C-1.34 0.67 -0.68 0.34 0 0 Z " fill="#18E4A1" transform="translate(226,241)"/>
<path d="M0 0 C0.5775 0.2475 1.155 0.495 1.75 0.75 C-0.23 1.74 -0.23 1.74 -2.25 2.75 C-2.25 3.74 -2.25 4.73 -2.25 5.75 C-4.23 6.41 -6.21 7.07 -8.25 7.75 C-6.64613593 4.0076505 -4.56199942 -0.50688882 0 0 Z " fill="#22C890" transform="translate(134.25,126.25)"/>
<path d="M0 0 C6.78082192 5.42465753 6.78082192 5.42465753 9 9 C9 9.66 9 10.32 9 11 C8.01 11 7.02 11 6 11 C5.62875 9.88625 5.62875 9.88625 5.25 8.75 C3.90634806 5.79396573 2.31013315 4.23312872 0 2 C0 1.34 0 0.68 0 0 Z " fill="#02553C" transform="translate(213,234)"/>
<path d="M0 0 C3 3.75 3 3.75 3 6 C3.99 6.33 4.98 6.66 6 7 C6 7.66 6 8.32 6 9 C6.66 9.33 7.32 9.66 8 10 C5 10 5 10 3.359375 8.57421875 C2.82828125 7.95160156 2.2971875 7.32898438 1.75 6.6875 C1.20859375 6.07261719 0.6671875 5.45773437 0.109375 4.82421875 C-0.25671875 4.22222656 -0.6228125 3.62023437 -1 3 C-0.67 2.01 -0.34 1.02 0 0 Z " fill="#1DD296" transform="translate(126,265)"/>
<path d="M0 0 C0.33 0.66 0.66 1.32 1 2 C-0.43522725 5.94687492 -1.67830089 9.31100548 -5 12 C-5.33 10.35 -5.66 8.7 -6 7 C-5.01 7.33 -4.02 7.66 -3 8 C-3 7.01 -3 6.02 -3 5 C-2.34 5 -1.68 5 -1 5 C-0.67 3.35 -0.34 1.7 0 0 Z " fill="#1DDEA1" transform="translate(183,223)"/>
<path d="M0 0 C1.125 3.75 1.125 3.75 0 6 C-0.33 6.99 -0.66 7.98 -1 9 C-2.65 9.33 -4.3 9.66 -6 10 C-5.18957164 8.51969728 -4.37659652 7.04078858 -3.5625 5.5625 C-2.88380859 4.32693359 -2.88380859 4.32693359 -2.19140625 3.06640625 C-1 1 -1 1 0 0 Z " fill="#054D39" transform="translate(164,256)"/>
<path d="M0 0 C3.59634744 3.49359465 6.83451967 7.11098131 10 11 C9.01 11 8.02 11 7 11 C5.17578125 9.1015625 5.17578125 9.1015625 3.3125 6.625 C2.68988281 5.81289062 2.06726563 5.00078125 1.42578125 4.1640625 C0 2 0 2 0 0 Z " fill="#26C391" transform="translate(158,132)"/>
<path d="M0 0 C0.33 0 0.66 0 1 0 C1.36625971 4.51720311 1.36625971 4.51720311 -0.375 6.8125 C-2 8 -2 8 -4 8 C-4 8.66 -4 9.32 -4 10 C-4.66 9.67 -5.32 9.34 -6 9 C-5.02501855 7.4972763 -4.04490611 5.99788037 -3.0625 4.5 C-2.51722656 3.6646875 -1.97195312 2.829375 -1.41015625 1.96875 C-0.94480469 1.3190625 -0.47945312 0.669375 0 0 Z " fill="#03553C" transform="translate(172,244)"/>
<path d="M0 0 C0.99 0 1.98 0 3 0 C3 1.32 3 2.64 3 4 C1.125 5.0625 1.125 5.0625 -1 6 C-1.66 5.67 -2.32 5.34 -3 5 C-3 4.34 -3 3.68 -3 3 C-2.34 3 -1.68 3 -1 3 C-0.67 2.01 -0.34 1.02 0 0 Z " fill="#10E99E" transform="translate(182,219)"/>
<path d="M0 0 C2.97 0.495 2.97 0.495 6 1 C6 2.98 6 4.96 6 7 C1.125 2.25 1.125 2.25 0 0 Z " fill="#1FDA9D" transform="translate(202,219)"/>
<path d="M0 0 C0.66 0.33 1.32 0.66 2 1 C1.19152271 2.16945792 0.37810888 3.33550461 -0.4375 4.5 C-0.88996094 5.1496875 -1.34242188 5.799375 -1.80859375 6.46875 C-2.20175781 6.9740625 -2.59492188 7.479375 -3 8 C-3.33 8 -3.66 8 -4 8 C-4 5.69 -4 3.38 -4 1 C-2.68 1.33 -1.36 1.66 0 2 C0 1.34 0 0.68 0 0 Z " fill="#20D399" transform="translate(157,264)"/>
<path d="M0 0 C1.98 0 3.96 0 6 0 C5.195625 0.3403125 5.195625 0.3403125 4.375 0.6875 C1.21499137 2.43382056 -1.2676983 4.6402849 -4 7 C-3.67 5.68 -3.34 4.36 -3 3 C-2.34 3 -1.68 3 -1 3 C-0.67 2.01 -0.34 1.02 0 0 Z " fill="#005135" transform="translate(180,216)"/>
<path d="M0 0 C0.33 0.66 0.66 1.32 1 2 C0.22265625 3.9453125 0.22265625 3.9453125 -0.9375 6.125 C-1.31777344 6.84945312 -1.69804687 7.57390625 -2.08984375 8.3203125 C-2.39019531 8.87460938 -2.69054687 9.42890625 -3 10 C-3.99 9.67 -4.98 9.34 -6 9 C-4.02 6.03 -2.04 3.06 0 0 Z " fill="#24C692" transform="translate(239,144)"/>
<path d="M0 0 C0.66 0.33 1.32 0.66 2 1 C1.02501855 2.5027237 0.04490611 4.00211963 -0.9375 5.5 C-1.48277344 6.3353125 -2.02804688 7.170625 -2.58984375 8.03125 C-3.05519531 8.6809375 -3.52054688 9.330625 -4 10 C-4.33 10 -4.66 10 -5 10 C-5.3125 7.8125 -5.3125 7.8125 -5 5 C-2.5 2.1875 -2.5 2.1875 0 0 Z " fill="#014630" transform="translate(240,140)"/>
<path d="M0 0 C4.29 0 8.58 0 13 0 C13 0.66 13 1.32 13 2 C9.61725734 3.12758089 8.23221777 2.81750262 4.8125 2.0625 C3.91144531 1.86785156 3.01039063 1.67320313 2.08203125 1.47265625 C1.39496094 1.31667969 0.70789063 1.16070312 0 1 C0 0.67 0 0.34 0 0 Z " fill="#12E8A4" transform="translate(136,126)"/>
<path d="M0 0 C2 1 2 1 3.1875 3.375 C4 6 4 6 3 9 C3 8.34 3 7.68 3 7 C2.34 7 1.68 7 1 7 C1 6.01 1 5.02 1 4 C0.34 4 -0.32 4 -1 4 C-0.67 2.68 -0.34 1.36 0 0 Z " fill="#063F2F" transform="translate(240,266)"/>
<path d="M0 0 C4.875 3.625 4.875 3.625 6 7 C5.34 7 4.68 7 4 7 C4 6.34 4 5.68 4 5 C2.68 5 1.36 5 0 5 C0 3.35 0 1.7 0 0 Z " fill="#03553B" transform="translate(204,223)"/>
<path d="M0 0 C4 1 4 1 5.8125 3.4375 C6.204375 4.283125 6.59625 5.12875 7 6 C6.67 6.66 6.34 7.32 6 8 C4.02 5.36 2.04 2.72 0 0 Z " fill="#024A34" transform="translate(227,214)"/>
<path d="M0 0 C1.98 1.65 3.96 3.3 6 5 C4.125 5.625 4.125 5.625 2 6 C1.34 5.34 0.68 4.68 0 4 C0 2.68 0 1.36 0 0 Z " fill="#1DD89D" transform="translate(224,212)"/>
<path d="M0 0 C1.32 0.33 2.64 0.66 4 1 C2.37660195 2.70884005 0.70680947 4.37446717 -1 6 C-1.66 6 -2.32 6 -3 6 C-2 4 -1 2 0 0 Z " fill="#24D49B" transform="translate(230,172)"/>
<path d="M0 0 C1.98 0 3.96 0 6 0 C6 0.66 6 1.32 6 2 C3.36 2.66 0.72 3.32 -2 4 C-1.34 2.68 -0.68 1.36 0 0 Z " fill="#17E9A2" transform="translate(135,272)"/>
<path d="M0 0 C0 1.32 0 2.64 0 4 C-0.66 4.66 -1.32 5.32 -2 6 C-2.99 4.35 -3.98 2.7 -5 1 C-3 0 -3 0 0 0 Z " fill="#17D699" transform="translate(216,229)"/>
<path d="M0 0 C2 1.375 2 1.375 4 3 C4 3.66 4 4.32 4 5 C2.35 5.33 0.7 5.66 -1 6 C-0.67 4.02 -0.34 2.04 0 0 Z " fill="#034D36" transform="translate(200,218)"/>
<path d="M0 0 C1.32 0.33 2.64 0.66 4 1 C-0.455 3.97 -0.455 3.97 -5 7 C-2.36363636 1.72727273 -2.36363636 1.72727273 0 0 Z " fill="#2ACD99" transform="translate(250,156)"/>
</svg>
