<?xml version="1.0" encoding="UTF-8"?>
<svg version="1.1" xmlns="http://www.w3.org/2000/svg" width="280" height="280">
<path d="M0 0 C92.4 0 184.8 0 280 0 C280 92.4 280 184.8 280 280 C187.6 280 95.2 280 0 280 C0 187.6 0 95.2 0 0 Z " fill="#B338DC" transform="translate(0,0)"/>
<path d="M0 0 C3.98961657 2.0705605 6.48066778 4.07818059 8.1015625 8.2734375 C8.63042053 13.82644683 8.41054319 17.57681975 5.1015625 22.2734375 C1.76821074 25.04692398 -1.16896705 26.17105568 -5.4609375 26.7734375 C-9.6547079 26.16343453 -11.69707378 25.03825162 -14.8984375 22.2734375 C-17.94990186 17.79795643 -18.84897535 13.56476486 -17.8984375 8.2734375 C-14.18369739 0.98154025 -8.28646204 -3.17136202 0 0 Z " fill="#FDF9FD" transform="translate(97.8984375,45.7265625)"/>
<path d="M0 0 C4.2670344 2.30419857 7.52069849 4.80425898 10 9 C10.81972887 15.35289872 9.82138744 18.8712958 6 24 C1.68266618 26.9741633 -1.81076076 27.6486549 -7 27 C-11.86987836 24.56506082 -14.21711438 22.15055847 -16 17 C-16.71487939 12.58716429 -16.35877958 9.73135838 -14.375 5.6875 C-10.32376433 1.103207 -6.13036733 -0.8940119 0 0 Z " fill="#FDF9FE" transform="translate(71,190)"/>
<path d="M0 0 C4.54312338 2.12747009 8.17964045 4.15171565 10 9 C10.72320767 13.62516534 10.4121396 17.14401775 8.375 21.375 C4.78174634 25.34649089 1.79988182 26.77501477 -3.5 27.4375 C-7.76506 26.9043675 -9.75593838 25.80168958 -13 23 C-15.5954863 19.19328676 -16.6580522 15.68264203 -16.48828125 11.02734375 C-15.56239568 7.18306685 -12.95664293 4.50907772 -10 2 C-6.45395335 -0.03897683 -4.12061603 -0.55469831 0 0 Z " fill="#FDF9FE" transform="translate(151,37)"/>
<path d="M0 0 C3.98961657 2.0705605 6.48066778 4.07818059 8.1015625 8.2734375 C8.67480074 12.24573627 8.51247728 15.32184538 6.9140625 19.0234375 C4.41293016 22.12829144 1.67482898 24.48680426 -1.8984375 26.2734375 C-6.69815057 26.40545318 -10.01661296 25.9676398 -13.8359375 22.9609375 C-17.17399611 18.61134597 -18.37355397 15.98260696 -18.21484375 10.30078125 C-17.52372977 5.8725324 -14.95578048 3.13074262 -11.5859375 0.3984375 C-7.56663927 -1.28405943 -4.13639923 -1.58306637 0 0 Z " fill="#FCF9FE" transform="translate(226.8984375,114.7265625)"/>
<path d="M0 0 C4.12326498 1.7409341 6.69835882 4.16393137 9 8 C9.62495824 13.6246242 9.15907697 17.14856037 6 22 C2.15026984 25.48881796 -1.65963648 26.46034927 -6.86328125 26.421875 C-10.77929961 25.64869404 -13.48716579 22.99355032 -16 20 C-17.66255366 15.01233902 -17.83282597 10.01631552 -15.8125 5.125 C-11.30816487 -0.15594463 -6.64931168 -0.88415256 0 0 Z " fill="#FDFAFE" transform="translate(74,62)"/>
<path d="M0 0 C4.11929631 1.55617861 6.29828798 4.0462866 8.33203125 7.97265625 C9.58824506 11.78537537 9.20239324 15.21417899 8 19 C5.95784743 22.50606122 3.93552588 24.68815804 0 26 C-4.84212927 26.50062692 -8.72702911 26.74256635 -13 24.25 C-16.85426785 19.91394866 -17.5453167 16.25090905 -17.4609375 10.546875 C-16.6951155 6.31538397 -14.21271539 3.72165267 -11 1 C-7.54276454 -0.72861773 -3.78687817 -0.34844539 0 0 Z " fill="#FDFAFE" transform="translate(218,87)"/>
<path d="M0 0 C4.13801324 2.06900662 6.27807833 3.74900587 8 8 C8.74722522 12.28936017 8.9617225 16.31319334 6.76171875 20.171875 C4.28964702 23.14081474 2.71810774 24.76063075 -1 26 C-5.68953585 26.38438818 -8.06443464 26.45895659 -12.3125 24.375 C-16.32627116 20.82794641 -17.73268358 17.83780038 -18.5 12.5625 C-17.86414136 8.03200719 -16.09748628 5.30689381 -13 2 C-8.74347138 -0.83768574 -4.99717834 -0.63727624 0 0 Z " fill="#FDFAFE" transform="translate(202,64)"/>
<path d="M0 0 C3.75819857 3.98596818 4.61234344 7.48447178 4.5234375 12.86328125 C3.71799538 16.92462077 1.11712619 19.52855078 -1.9375 22.1875 C-5.69686376 24.06718188 -9.85448301 23.84565796 -13.9375 23.1875 C-17.91879682 20.93285879 -20.48472828 18.54581515 -21.9375 14.1875 C-22.43903086 10.42601852 -22.75247616 6.79039916 -20.99609375 3.3359375 C-15.46533517 -3.70320978 -7.47814912 -4.61417712 0 0 Z " fill="#FEFBFE" transform="translate(128.9375,39.8125)"/>
<path d="M0 0 C4.11092959 1.77517414 6.73298981 4.13768634 9 8 C9.71084748 12.34406794 9.52039821 15.86008011 7.6875 19.875 C3.84 24.72 3.84 24.72 0 26 C-4.68953585 26.38438818 -7.06443464 26.45895659 -11.3125 24.375 C-15.35070586 20.80635297 -16.77134963 17.82920294 -17.4375 12.5 C-16.79222346 7.33778768 -14.70698109 4.42248424 -10.75 1.125 C-7.0550297 -0.38657876 -3.93822962 -0.58433082 0 0 Z " fill="#FDFBFE" transform="translate(121,217)"/>
<path d="M0 0 C3.73698169 1.62477465 5.84763317 3.55621307 8 7 C9.20643566 10.61930698 9.32268559 13.19231005 9 17 C6.56506082 21.86987836 4.15055847 24.21711438 -1 26 C-4.55010924 26.63901966 -7.55405359 26.8025958 -10.7734375 25.015625 C-14.36183423 22.17991637 -16.54439865 19.37000316 -17.40625 14.88671875 C-17.60407783 10.24600759 -17.1773017 7.61064957 -14.125 4 C-9.83353883 -0.47804644 -6.01545819 -0.58382263 0 0 Z " fill="#FDFBFE" transform="translate(179,47)"/>
<path d="M0 0 C3.45658479 2.04573386 4.7785359 3.66780385 7 7 C7.64795964 11.34473993 7.97893513 15.94504526 6.0546875 19.984375 C2.68989792 24.25913912 -0.70696131 25.70727166 -5.9375 26.375 C-10.62059591 25.80155968 -13.42768642 23.46387816 -16.8125 20.3125 C-18.68756341 16.66106073 -19.2415465 13.09208183 -19 9 C-14.67578466 0.35156931 -9.17569944 -1.25246936 0 0 Z " fill="#FDFBFE" transform="translate(201,193)"/>
<path d="M0 0 C3.00245308 1.80147185 5.40693472 3.81386943 7 7 C7.55601425 12.06793316 7.55831633 15.92187191 5.1875 20.5 C2.79762666 23.23128382 1.16081858 24.82687949 -2.48828125 25.37109375 C-11.05602358 25.57254827 -11.05602358 25.57254827 -14.5625 22.8125 C-17.7126222 19.17774362 -18.77154792 16.78954132 -19.375 12.0625 C-18.73748459 6.85612418 -16.11065114 4.00733476 -12.3125 0.5625 C-7.88371814 -1.52654805 -4.64708965 -1.46051389 0 0 Z " fill="#FDFBFE" transform="translate(151,218)"/>
<path d="M0 0 C5.82958565 4.69605511 5.82958565 4.69605511 6.70703125 9.11328125 C7.0241584 13.97343924 6.58617788 17.06674869 3.4375 20.875 C0.3293958 24.13659083 -2.01291862 24.75208349 -6.5625 25.125 C-10.95883809 25.05226647 -13.41562988 23.75915267 -16.75 20.8125 C-19.88201418 16.46809324 -20.1217532 13.05376524 -19.328125 7.9296875 C-18.27276747 4.06479708 -16.13396772 1.85047579 -13 -0.5 C-8.42564398 -1.89771989 -4.33363705 -1.87134327 0 0 Z " fill="#FDFBFE" transform="translate(178.75,210.1875)"/>
<path d="M0 0 C4.09994964 2.08724709 6.29090928 3.76176158 8 8 C8.74722522 12.28936017 8.9617225 16.31319334 6.76171875 20.171875 C4.28964702 23.14081474 2.71810774 24.76063075 -1 26 C-5.05997304 26.26193374 -7.93559667 26.38705576 -11.75 25 C-15.42935968 21.72945807 -17.77909033 17.86130617 -18.1640625 12.875 C-17.78962971 8.16784494 -16.34725186 5.2516161 -13 2 C-8.75303625 -0.52859058 -4.83156469 -0.68663484 0 0 Z " fill="#FDFBFE" transform="translate(217,170)"/>
<path d="M0 0 C3.8026029 2.0050088 5.61790841 3.42686262 8 7 C8.57430821 11.81822214 8.58557505 16.43846654 6.875 21 C3.35852553 24.75090611 0.10408081 25.84227417 -4.9375 26.5625 C-9.27872324 26.42057539 -11.57978499 24.40539639 -14.65234375 21.5078125 C-17.63751528 18.16788145 -17.32860823 14.84241384 -17.28515625 10.546875 C-16.87004823 6.83933484 -15.4672478 4.74138644 -13 2 C-8.78909805 -0.55473131 -4.80530995 -0.69123176 0 0 Z " fill="#FDFCFE" transform="translate(226,143)"/>
<path d="M0 0 C3.85544798 1.99657127 5.59805092 3.39707638 8 7 C8.64795964 11.34473993 8.97893513 15.94504526 7.0546875 19.984375 C3.52944391 24.46298635 0.05580669 25.69543605 -5.375 26.5 C-10.24098685 25.8288294 -12.73783993 23.5570446 -16 20 C-17.968661 16.062678 -17.45897511 11.29203754 -17 7 C-12.83013031 -0.04564189 -7.6637014 -0.98924917 0 0 Z " fill="#FDFCFE" transform="translate(95,208)"/>
<path d="M0 0 C4.05558807 1.32728337 5.34349656 2.43955395 7.4375 6.125 C8 8.625 8 8.625 7.4375 11.125 C4.78726997 14.73895004 3.3230437 15.96964146 -1.125 16.75 C-4.5625 16.125 -4.5625 16.125 -7 14 C-8.85305839 10.59037255 -9.27838388 8.94304737 -8.5625 5.125 C-5.89616981 1.32749942 -4.69543738 0.16475219 0 0 Z " fill="#FCF5FD" transform="translate(107.5625,79.875)"/>
<path d="M0 0 C3.36344489 2.48602449 4.80057749 3.91425523 5.5625 8.0625 C4.85763576 11.74345769 4.0766616 12.87000351 1 15 C-2.4375 16.125 -2.4375 16.125 -6 16 C-8.57810536 13.85157887 -9.69565036 12.91450373 -11 10 C-11.06577694 6.11916068 -10.88674474 4.01811433 -8.3125 1.0625 C-5.2135552 -0.3613395 -3.37817188 -0.55153827 0 0 Z " fill="#FBF6FD" transform="translate(127,188)"/>
<path d="M0 0 C4.11289267 0.85685264 5.59686932 2.20235933 8 5.625 C8 9.14633145 7.69441423 11.46764294 5.875 14.5 C2.93097259 16.26641645 0.40088303 16.50567077 -3 16.625 C-5.375 15.6875 -5.375 15.6875 -7 13.625 C-7.96307902 10.88938291 -8.3259686 8.51375625 -8 5.625 C-5.60540961 2.14195943 -4.14822958 0.8642145 0 0 Z " fill="#FBF6FD" transform="translate(189,139.375)"/>
<path d="M0 0 C4.14824477 0.76192251 5.57647551 2.19905511 8.0625 5.5625 C8.6875 8.5625 8.6875 8.5625 8.0625 11.5625 C5.61103142 14.87919279 4.10625441 16.32330628 0.0625 17.25 C-2.9375 16.5625 -2.9375 16.5625 -5.875 13.9375 C-7.9375 10.5625 -7.9375 10.5625 -8 7.4375 C-6.35486254 2.98595157 -4.75693834 0.91090309 0 0 Z " fill="#FBF7FD" transform="translate(182.9375,104.4375)"/>
<path d="M0 0 C4.11289267 0.85685264 5.59686932 2.20235933 8 5.625 C8.1526226 9.9747442 7.71471806 11.8507221 4.75 15.0625 C1.72733347 16.77992416 0.39683787 17.32178726 -3 16.625 C-6.15489656 14.43409961 -6.92282318 12.87468972 -8.0625 9.1875 C-8 5.625 -8 5.625 -5.9375 2.6875 C-3 0.625 -3 0.625 0 0 Z " fill="#FBF7FD" transform="translate(142,187.375)"/>
<path d="M0 0 C3.39470755 1.15564512 4.87501175 2.06492057 6.9375 5 C7.5 7.9375 7.5 7.9375 6.9375 11 C4.48155875 14.32274404 3.0118356 15.77618008 -1.0625 16.625 C-5.17539267 15.76814736 -6.65936932 14.42264067 -9.0625 11 C-9.2144185 6.67032286 -8.73561337 4.76927242 -5.875 1.5 C-3.0625 0 -3.0625 0 0 0 Z " fill="#FBF7FD" transform="translate(108.0625,182)"/>
<path d="M0 0 C4.07390532 1.33327811 5.42613937 2.35369882 7.4375 6.125 C7.37419753 9.29012361 6.98124114 11.24897261 5.3125 13.9375 C2.29926141 15.84588444 -0.01654442 16.125 -3.5625 16.125 C-6.98514067 13.72186932 -8.33064736 12.23789267 -9.1875 8.125 C-8.06349817 2.72979122 -5.54235257 0.19446851 0 0 Z " fill="#FBF7FD" transform="translate(189.5625,121.875)"/>
<path d="M0 0 C3.5 0.5625 3.5 0.5625 5.9375 2.0625 C7.83148168 5.09287069 8.14334247 7.12080934 7.9453125 10.65234375 C7.5 12.5625 7.5 12.5625 5.4375 15.125 C1.58838451 17.00860971 -0.42420151 16.770144 -4.5 15.5625 C-7.062964 13.33024103 -7.43752331 11.98198631 -7.9375 8.625 C-7.17956786 3.31947499 -5.36443163 0.8621408 0 0 Z " fill="#FCF8FD" transform="translate(92.5,171.4375)"/>
<path d="M0 0 C2.875 1.5625 2.875 1.5625 5 4 C5.625 7.4375 5.625 7.4375 5 11 C2.52506641 14.42123173 1.11736219 15.79477021 -3.0625 16.5625 C-6 16 -6 16 -8.375 14.5 C-10.65416433 10.99359333 -10.81753559 8.07099353 -10 4 C-7.30203057 -0.15072221 -4.80768487 -0.78492814 0 0 Z " fill="#FCF8FD" transform="translate(161,80)"/>
<path d="M0 0 C4.99268902 1.47931526 4.99268902 1.47931526 6.375 4 C7.13412409 10.83211679 7.13412409 10.83211679 4.75 14.5 C1.61186002 16.48198314 0.02626535 16.67064058 -3.625 16 C-6.94774404 13.54405875 -8.40118008 12.0743356 -9.25 8 C-8.11814245 2.56708374 -5.59993233 0 0 0 Z " fill="#FCF8FD" transform="translate(159.625,182)"/>
<path d="M0 0 C2.5625 2.0625 2.5625 2.0625 4 5 C3.94021398 8.46758942 3.60965977 10.88826749 1.9375 13.9375 C-1.27905997 15.70141999 -4.49385409 15.73924763 -8 15 C-10.5625 12.9375 -10.5625 12.9375 -12 10 C-11.94021398 6.53241058 -11.60965977 4.11173251 -9.9375 1.0625 C-6.72094003 -0.70141999 -3.50614591 -0.73924763 0 0 Z " fill="#FCF8FE" transform="translate(177,172)"/>
<path d="M0 0 C2.55078958 2.22165544 2.93332671 3.60829443 3.5 6.9375 C2.81810427 11.11411135 1.36996335 12.50915752 -2 15 C-5.65126535 15.67064058 -7.23686002 15.48198314 -10.375 13.5 C-12.34683501 10.46640767 -12.64552934 8.48068984 -12.4453125 4.91015625 C-12 3 -12 3 -9.9375 0.4375 C-6.08838451 -1.44610971 -4.07579849 -1.207644 0 0 Z " fill="#FCF9FE" transform="translate(188,158)"/>
<path d="M0 0 C3 2.0625 3 2.0625 5 5 C5 8.51955419 4.63108355 10.84920059 2.9375 13.9375 C-0.27905997 15.70141999 -3.49385409 15.73924763 -7 15 C-9.5625 12.9375 -9.5625 12.9375 -11 10 C-10.93977486 6.50694211 -10.63658168 4.09633511 -8.875 1.0625 C-5.76581435 -0.69937187 -3.49155423 -0.48159369 0 0 Z " fill="#FCF9FD" transform="translate(176,91)"/>
<path d="M0 0 C2.4375 0.9375 2.4375 0.9375 4 3 C4.50241849 6.06589467 4.61350778 8.94904237 4 12 C2.71875 13.75390625 2.71875 13.75390625 1 15 C-5.79245283 15.75471698 -5.79245283 15.75471698 -9.5 13.4375 C-11.58392818 10.05111671 -11.55802097 7.90614682 -11 4 C-8.09912777 -0.52536068 -5.13093735 -0.64136717 0 0 Z " fill="#FDF9FD" transform="translate(127,75)"/>
<path d="M0 0 C2.4375 1.5625 2.4375 1.5625 4 4 C4.55802097 7.90614682 4.58392818 10.05111671 2.5 13.4375 C-1.24892004 15.78057502 -3.61035762 15.48773804 -8 15 C-10 14 -10 14 -11 12 C-11.75471698 5.20754717 -11.75471698 5.20754717 -9.4375 1.5 C-6.05111671 -0.58392818 -3.90614682 -0.55802097 0 0 Z " fill="#FDF9FD" transform="translate(96,91)"/>
<path d="M0 0 C2.4375 1.5625 2.4375 1.5625 4 4 C4.56288002 7.94016013 4.60396028 10.05782196 2.4375 13.4375 C-0.94217804 15.60396028 -3.05983987 15.56288002 -7 15 C-9.4375 13.4375 -9.4375 13.4375 -11 11 C-11.56288002 7.05983987 -11.60396028 4.94217804 -9.4375 1.5625 C-6.05782196 -0.60396028 -3.94016013 -0.56288002 0 0 Z " fill="#FDFAFE" transform="translate(145,75)"/>
<path d="M0 0 C2.5625 0.1875 2.5625 0.1875 4.5625 2.1875 C4.00694444 6.74305556 4.00694444 6.74305556 2.5625 8.1875 C0.125 8.375 0.125 8.375 -2.4375 8.1875 C-3.0975 7.5275 -3.7575 6.8675 -4.4375 6.1875 C-3.71780303 0.28598485 -3.71780303 0.28598485 0 0 Z " fill="#F8EBFB" transform="translate(107.4375,156.8125)"/>
<path d="M0 0 C4.55555556 0.55555556 4.55555556 0.55555556 6 2 C6.1875 4.4375 6.1875 4.4375 6 7 C5.34 7.66 4.68 8.32 4 9 C-0.55555556 8.44444444 -0.55555556 8.44444444 -2 7 C-2.1875 4.5625 -2.1875 4.5625 -2 2 C-1.34 1.34 -0.68 0.68 0 0 Z " fill="#F9ECFB" transform="translate(105,112)"/>
<path d="M0 0 C2.5625 0.1875 2.5625 0.1875 4.5625 2.1875 C4.1875 4.8125 4.1875 4.8125 3.5625 7.1875 C1.25 7.8125 1.25 7.8125 -1.4375 8.1875 C-2.4275 7.5275 -3.4175 6.8675 -4.4375 6.1875 C-3.3735 0.2595 -3.3735 0.2595 0 0 Z " fill="#F7ECFB" transform="translate(151.4375,156.8125)"/>
<path d="M0 0 C2.93453261 0.36681658 3.86437246 0.86437246 6 3 C5.625 5.625 5.625 5.625 5 8 C2.625 8.625 2.625 8.625 0 9 C-2 7 -2 7 -2.25 4.5 C-2 2 -2 2 0 0 Z " fill="#F8EEFC" transform="translate(142,162)"/>
<path d="M0 0 C2.5 0.125 2.5 0.125 3.5 1.125 C3.625 4.125 3.625 4.125 3.5 7.125 C2.5 8.125 2.5 8.125 0.0625 8.3125 C-2.5 8.125 -2.5 8.125 -4.5 6.125 C-3.77607362 0.18880368 -3.77607362 0.18880368 0 0 Z " fill="#F9F1FC" transform="translate(115.5,162.875)"/>
<path d="M0 0 C4.55555556 0.55555556 4.55555556 0.55555556 6 2 C6.125 4.5 6.125 4.5 6 7 C5 8 5 8 2 8.125 C-1 8 -1 8 -2 7 C-2.1875 4.5625 -2.1875 4.5625 -2 2 C-1.34 1.34 -0.68 0.68 0 0 Z " fill="#F9F1FC" transform="translate(158,139)"/>
<path d="M0 0 C3 0.125 3 0.125 4 1.125 C4.1875 3.5625 4.1875 3.5625 4 6.125 C3.34 6.785 2.68 7.445 2 8.125 C-2.55555556 7.56944444 -2.55555556 7.56944444 -4 6.125 C-4.125 3.625 -4.125 3.625 -4 1.125 C-3 0.125 -3 0.125 0 0 Z " fill="#FAF3FD" transform="translate(160,129.875)"/>
<path d="M0 0 C4.55555556 0.55555556 4.55555556 0.55555556 6 2 C6.125 4.5 6.125 4.5 6 7 C5 8 5 8 2 8.125 C-1 8 -1 8 -2 7 C-2.1875 4.5625 -2.1875 4.5625 -2 2 C-1.34 1.34 -0.68 0.68 0 0 Z " fill="#FAF2FC" transform="translate(155,120)"/>
<path d="M0 0 C4.55555556 0.55555556 4.55555556 0.55555556 6 2 C6.125 4.5 6.125 4.5 6 7 C5 8 5 8 2 8.125 C-1 8 -1 8 -2 7 C-2.1875 4.5625 -2.1875 4.5625 -2 2 C-1.34 1.34 -0.68 0.68 0 0 Z " fill="#FAF1FC" transform="translate(149,112)"/>
<path d="M0 0 C3 0.125 3 0.125 4 1.125 C4.1875 3.5625 4.1875 3.5625 4 6.125 C3.34 6.785 2.68 7.445 2 8.125 C-2.55555556 7.56944444 -2.55555556 7.56944444 -4 6.125 C-4.125 3.625 -4.125 3.625 -4 1.125 C-3 0.125 -3 0.125 0 0 Z " fill="#FBF4FD" transform="translate(134,103.875)"/>
<path d="M0 0 C2.5 0.125 2.5 0.125 3.5 1.125 C3.54080783 3.12458364 3.54254356 5.12545254 3.5 7.125 C0.625 7.75 0.625 7.75 -2.5 8.125 C-3.16 7.465 -3.82 6.805 -4.5 6.125 C-3.77607362 0.18880368 -3.77607362 0.18880368 0 0 Z " fill="#F9F1FC" transform="translate(134.5,165.875)"/>
<path d="M0 0 C2.5 0.125 2.5 0.125 3.5 1.125 C3.54080783 3.12458364 3.54254356 5.12545254 3.5 7.125 C0.625 7.75 0.625 7.75 -2.5 8.125 C-3.16 7.465 -3.82 6.805 -4.5 6.125 C-3.77607362 0.18880368 -3.77607362 0.18880368 0 0 Z " fill="#FCF5FD" transform="translate(124.5,103.875)"/>
<path d="M0 0 C2.5625 0.1875 2.5625 0.1875 4.5625 2.1875 C4.1875 4.8125 4.1875 4.8125 3.5625 7.1875 C1.1875 7.8125 1.1875 7.8125 -1.4375 8.1875 C-3.4375 6.1875 -3.4375 6.1875 -3.625 3.625 C-3.37291261 0.34786389 -3.27713611 0.25208739 0 0 Z " fill="#FBF6FD" transform="translate(124.4375,165.8125)"/>
<path d="M0 0 C2.4375 0.1875 2.4375 0.1875 3.4375 1.1875 C3.625 3.625 3.625 3.625 3.4375 6.1875 C2.7775 6.8475 2.1175 7.5075 1.4375 8.1875 C-1.1875 7.8125 -1.1875 7.8125 -3.5625 7.1875 C-4.1875 4.8125 -4.1875 4.8125 -4.5625 2.1875 C-2.5625 0.1875 -2.5625 0.1875 0 0 Z " fill="#FBF7FD" transform="translate(157.5625,148.8125)"/>
<path d="M0 0 C2.4375 0.1875 2.4375 0.1875 3.4375 1.1875 C3.625 3.625 3.625 3.625 3.4375 6.1875 C2.7775 6.8475 2.1175 7.5075 1.4375 8.1875 C-1.1875 7.8125 -1.1875 7.8125 -3.5625 7.1875 C-4.1875 4.8125 -4.1875 4.8125 -4.5625 2.1875 C-2.5625 0.1875 -2.5625 0.1875 0 0 Z " fill="#FCF6FD" transform="translate(143.5625,106.8125)"/>
<path d="M0 0 C2.625 0.375 2.625 0.375 5 1 C5.625 3.375 5.625 3.375 6 6 C5.34 6.66 4.68 7.32 4 8 C1.375 7.625 1.375 7.625 -1 7 C-1.625 4.625 -1.625 4.625 -2 2 C-1.34 1.34 -0.68 0.68 0 0 Z " fill="#FEFCFE" transform="translate(113,107)"/>
</svg>
