<?xml version="1.0" encoding="UTF-8"?>
<svg version="1.1" xmlns="http://www.w3.org/2000/svg" width="400" height="400">
<path d="M0 0 C132 0 264 0 400 0 C400 132 400 264 400 400 C268 400 136 400 0 400 C0 268 0 136 0 0 Z " fill="#2F5CFE" transform="translate(0,0)"/>
<path d="M0 0 C3.21954645 2.53453657 4.70432435 4.11297305 6 8 C6.09119847 9.33321884 6.12906985 10.67051601 6.13142776 12.00684834 C6.13526891 12.82423585 6.13911005 13.64162337 6.1430676 14.48378021 C6.14220112 15.38143086 6.14133463 16.27908152 6.14044189 17.20393372 C6.14341302 18.15781485 6.14638414 19.11169598 6.1494453 20.0944826 C6.15814758 23.30494054 6.15964183 26.51536126 6.16113281 29.72583008 C6.16575988 32.02192769 6.17078439 34.31802454 6.17617798 36.61412048 C6.18931421 42.86208003 6.19574926 49.11002883 6.20018864 55.35800004 C6.20311724 59.25919824 6.20722163 63.16039348 6.21169281 67.06159019 C6.22380293 77.86271107 6.23418469 88.66382808 6.2375679 99.46495533 C6.23789725 100.50191478 6.23789725 100.50191478 6.23823325 101.5598229 C6.23845153 102.25278367 6.23866981 102.94574444 6.2388947 103.65970403 C6.23933817 105.06390751 6.23978473 106.46811098 6.24023438 107.87231445 C6.24056652 108.91711469 6.24056652 108.91711469 6.24090537 109.983022 C6.24485339 121.26936291 6.26230759 132.55563925 6.2855939 143.84195522 C6.3093082 155.42923002 6.3215118 167.01646922 6.32293582 178.60376853 C6.32398524 185.1097067 6.32992227 191.61555383 6.34775543 198.1214695 C6.36420141 204.24046031 6.36640846 210.35929128 6.35761642 216.47829628 C6.3568442 218.72530037 6.36121303 220.97231292 6.37107468 223.2192955 C6.38374046 226.28476046 6.37794637 229.34965471 6.36749268 232.41511536 C6.37957728 233.7515531 6.37957728 233.7515531 6.39190602 235.11498958 C6.35175962 240.14230757 5.85093067 243.67368215 3 248 C-1.3398877 250.89325847 -5.36910604 250.51788816 -10.32421875 249.54248047 C-12.90123076 248.89563386 -15.44908084 248.18058481 -18 247.4375 C-18.95640381 247.1679248 -19.91280762 246.89834961 -20.89819336 246.62060547 C-23.93601155 245.75999318 -26.96858493 244.88288442 -30 244 C-30.95535645 243.7220459 -31.91071289 243.4440918 -32.89501953 243.15771484 C-36.77671618 242.02602293 -40.65748794 240.89128054 -44.53637695 239.75 C-53.80607343 237.03090882 -63.11580114 234.46547584 -72.43188477 231.91064453 C-79.46639684 229.97985867 -86.49037887 228.01921822 -93.5 226 C-102.72082718 223.34710055 -111.96667335 220.78948771 -121.21777344 218.24438477 C-122.46204102 217.90205811 -123.70630859 217.55973145 -124.98828125 217.20703125 C-125.62635712 217.03148209 -126.26443298 216.85593292 -126.92184448 216.67506409 C-136.5687459 214.01944969 -146.20959887 211.34187672 -155.84838867 208.65698242 C-157.35465193 208.23745663 -158.86091818 207.81794154 -160.3671875 207.3984375 C-161.10078995 207.19408585 -161.8343924 206.98973419 -162.59022522 206.77919006 C-167.26758409 205.47772004 -171.94889283 204.19172002 -176.6328125 202.9140625 C-178.35709473 202.44045288 -178.35709473 202.44045288 -180.11621094 201.95727539 C-182.21445525 201.38115422 -184.31397766 200.80965772 -186.41503906 200.24389648 C-198.81898109 196.82230612 -198.81898109 196.82230612 -201.13793564 193.24417114 C-202.17686851 190.53956663 -202.25170211 188.4321268 -202.25396729 185.53466797 C-202.25960693 184.42428162 -202.26524658 183.31389526 -202.27105713 182.16986084 C-202.26700867 180.95622864 -202.26296021 179.74259644 -202.25878906 178.4921875 C-202.2622937 177.21055725 -202.26579834 175.928927 -202.26940918 174.60845947 C-202.27852399 171.09610459 -202.2749927 167.58386725 -202.26865101 164.07151031 C-202.26358631 160.39516382 -202.26828377 156.71882736 -202.27142334 153.04248047 C-202.27506161 146.86879673 -202.27026753 140.69516085 -202.26074219 134.52148438 C-202.24985788 127.38462171 -202.25338356 120.24787331 -202.264395 113.11101341 C-202.27347183 106.98267323 -202.27475122 100.85436745 -202.26951766 94.72602272 C-202.26640014 91.06616976 -202.26598264 87.4063705 -202.27259064 83.746521 C-202.2794421 79.66688268 -202.26994487 75.58744128 -202.25878906 71.5078125 C-202.26486176 69.6873642 -202.26486176 69.6873642 -202.27105713 67.83013916 C-202.26541748 66.71975281 -202.25977783 65.60936646 -202.25396729 64.46533203 C-202.25321323 63.50080109 -202.25245918 62.53627014 -202.25168228 61.54251099 C-201.98728188 58.87152074 -201.43336108 57.25430711 -200 55 C-192.42014837 50.42352403 -182.67243386 48.75478777 -174.1875 46.375 C-172.65707923 45.94139483 -171.12672578 45.50755197 -169.59643555 45.07348633 C-156.69281978 41.42592624 -143.74974567 37.92209668 -130.7878418 34.48779297 C-122.90988976 32.39106406 -115.09801765 30.16943778 -107.34028625 27.66007996 C-103.56863091 26.44778098 -99.81279168 25.44571825 -95.9375 24.625 C-89.82365437 23.29327125 -83.90681888 21.48275321 -77.9375 19.625 C-70.68735937 17.37260889 -63.44358148 15.27824092 -56.0625 13.5 C-48.51951263 11.68106421 -41.06907067 9.62659234 -33.625 7.4375 C-32.09564819 6.9887854 -32.09564819 6.9887854 -30.53540039 6.53100586 C-26.23287795 5.26370213 -21.93498798 3.98440956 -17.6484375 2.6640625 C-5.72312991 -0.93651217 -5.72312991 -0.93651217 0 0 Z " fill="#FAFCFD" transform="translate(288,75)"/>
<path d="M0 0 C12.37188209 3.37414966 12.37188209 3.37414966 17.3984375 4.76171875 C18.5220166 5.07173828 19.6455957 5.38175781 20.80322266 5.70117188 C23.26388648 6.38067166 25.72449523 7.06037091 28.18505859 7.74023438 C29.49315531 8.10159418 30.80126087 8.46292199 32.109375 8.82421875 C32.76390656 9.00499969 33.41843811 9.18578064 34.09280396 9.37203979 C38.52350882 10.59487916 42.95651152 11.80909648 47.390625 13.01953125 C60.41225322 16.58060519 73.38417397 20.26693742 86.31762695 24.13623047 C95.91591665 26.99896508 105.56002206 29.66187018 115.23388672 32.25585938 C120.28479878 33.61465725 125.32941139 34.99659334 130.375 36.375 C132.23695404 36.88290461 134.09893076 37.39072612 135.9609375 37.8984375 C137.30729167 38.265625 138.65364583 38.6328125 140 39 C140 39.66 140 40.32 140 41 C138.91396484 41.29656494 137.82792969 41.59312988 136.70898438 41.89868164 C112.52337028 48.46040602 112.52337028 48.46040602 88.4375 55.375 C74.43492035 59.53242387 60.33515227 63.34853661 46.24780273 67.20654297 C36.02923942 70.01211026 25.84111365 72.88041001 15.71881104 76.01844788 C14.96565613 76.24946701 14.21250122 76.48048615 13.43652344 76.71850586 C12.79374451 76.91842636 12.15096558 77.11834686 11.4887085 77.32432556 C7.69401853 78.35456876 3.83842325 79.14701706 0 80 C0 53.6 0 27.2 0 0 Z " fill="#2F5CFC" transform="translate(109,160)"/>
<path d="M0 0 C0 25.74 0 51.48 0 78 C-6.15498837 77.3161124 -10.91510547 76.64469665 -16.69140625 74.9609375 C-17.39031982 74.7593956 -18.0892334 74.5578537 -18.80932617 74.35020447 C-21.06244935 73.69868902 -23.312414 73.03692004 -25.5625 72.375 C-27.13839321 71.91753274 -28.71448596 71.46075232 -30.29077148 71.00463867 C-34.86331204 69.67924799 -39.43219966 68.3416244 -44 67 C-45.17304688 66.65565918 -46.34609375 66.31131836 -47.5546875 65.95654297 C-48.59882813 65.64990723 -49.64296875 65.34327148 -50.71875 65.02734375 C-52.6666289 64.4556005 -54.61454393 63.88398028 -56.5625 63.3125 C-57.50867188 63.03438477 -58.45484375 62.75626953 -59.4296875 62.46972656 C-67.51201187 60.1086914 -75.63930071 57.9321698 -83.77709961 55.77148438 C-92.59893207 53.41392004 -101.36352307 50.88284807 -110.125 48.3125 C-120.36378332 45.30876814 -130.60240049 42.40981642 -141 40 C-138.47102031 37.47102031 -136.54320726 37.15734465 -133.09375 36.23046875 C-131.88501221 35.90191895 -130.67627441 35.57336914 -129.4309082 35.23486328 C-128.12060938 34.88572752 -126.81030655 34.53660677 -125.5 34.1875 C-124.15499363 33.82348629 -122.8101864 33.45873601 -121.46557617 33.09326172 C-118.81694708 32.37418561 -116.16751676 31.65822202 -113.51708984 30.94580078 C-109.44552613 29.85089325 -105.37644466 28.74785134 -101.3125 27.625 C-100.65797852 27.44420898 -100.00345703 27.26341797 -99.32910156 27.07714844 C-89.65660757 24.37733399 -80.03346664 21.5001378 -70.40356445 18.65283203 C-46.91983749 11.71078054 -46.91983749 11.71078054 -40.07421875 10.02172852 C-36.14319946 9.04923424 -32.24969152 7.95910738 -28.359375 6.8359375 C-26.94538034 6.4320541 -25.5313158 6.02841525 -24.1171875 5.625 C-21.92213408 4.99756001 -19.72758539 4.3685295 -17.53417969 3.73535156 C-15.39391074 3.11827713 -13.25184107 2.50783287 -11.109375 1.8984375 C-10.45515564 1.7078476 -9.80093628 1.51725769 -9.12689209 1.32089233 C-5.89788632 0.40804814 -3.39972743 0 0 0 Z " fill="#2F5CFC" transform="translate(270,219)"/>
<path d="M0 0 C0 25.74 0 51.48 0 78 C-5.22657939 77.34667758 -9.39666224 76.75949828 -14.30859375 75.328125 C-15.45827637 74.99619141 -16.60795898 74.66425781 -17.79248047 74.32226562 C-18.99533691 73.96841797 -20.19819336 73.61457031 -21.4375 73.25 C-22.69449707 72.88583984 -23.95149414 72.52167969 -25.24658203 72.14648438 C-30.35623259 70.66344106 -35.46130572 69.1656284 -40.55859375 67.640625 C-42.44771484 67.07601562 -42.44771484 67.07601562 -44.375 66.5 C-45.00092041 66.31268311 -45.62684082 66.12536621 -46.27172852 65.93237305 C-54.08479037 63.62860666 -61.97804667 61.61381794 -69.8548584 59.54165649 C-78.55007917 57.24921883 -87.1820509 54.83690637 -95.71435547 51.99047852 C-100.68773096 50.34374936 -105.70509108 49.04330543 -110.79296875 47.79663086 C-116.28237253 46.43305561 -121.73489543 44.9404408 -127.1875 43.4375 C-128.88229492 42.98213867 -128.88229492 42.98213867 -130.61132812 42.51757812 C-131.68189453 42.22173828 -132.75246094 41.92589844 -133.85546875 41.62109375 C-134.82121826 41.3573999 -135.78696777 41.09370605 -136.78198242 40.82202148 C-139 40 -139 40 -140 38 C-138.80890625 37.6596875 -137.6178125 37.319375 -136.390625 36.96875 C-135.18623779 36.62457031 -135.18623779 36.62457031 -133.95751953 36.2734375 C-132.1148438 35.74705367 -130.27206639 35.22102569 -128.42919922 34.6953125 C-123.01029907 33.1488288 -117.59358512 31.59516265 -112.1796875 30.03125 C-100.12740598 26.55740646 -88.06448189 23.19421214 -75.91235352 20.08691406 C-69.01900819 18.30854012 -62.23949652 16.28710441 -55.47265625 14.078125 C-52.37644198 13.11687063 -49.27200873 12.3153755 -46.12623596 11.53704834 C-42.88888219 10.71935195 -39.67828836 9.81287611 -36.46484375 8.90625 C-35.44131554 8.61796326 -35.44131554 8.61796326 -34.39710999 8.32385254 C-32.2435955 7.71699879 -30.09054512 7.10851663 -27.9375 6.5 C-26.49156605 6.09234295 -25.04560272 5.68479007 -23.59960938 5.27734375 C-15.95561807 3.13833231 -15.95561807 3.13833231 -8.34985352 0.86914062 C-5 0 -5 0 0 0 Z " fill="#2F5CFC" transform="translate(270,103)"/>
<path d="M0 0 C1.09731787 5.31508155 1.13741584 10.43407474 1.12025452 15.83285522 C1.12110894 16.81803434 1.12196337 17.80321346 1.12284368 18.81824648 C1.12448958 22.11631699 1.11899166 25.41433653 1.11352539 28.71240234 C1.1132433 31.07778929 1.11340168 33.44317633 1.1139679 35.80856323 C1.11425502 42.22949842 1.10837196 48.65041496 1.10139394 55.07134581 C1.0953017 61.10196854 1.09477083 67.13259333 1.09374207 73.16321857 C1.09155481 85.10604897 1.08490356 97.04887253 1.07543945 108.99169922 C1.0662569 120.59130825 1.05918019 132.19091541 1.05493164 143.79052734 C1.05466892 144.50582994 1.05440619 145.22113254 1.05413551 145.95811097 C1.05283045 149.54666426 1.05156675 153.13521755 1.05032361 156.72377086 C1.03996115 186.48251861 1.02227723 216.24125867 1 246 C0.34 246 -0.32 246 -1 246 C-0.99723462 244.7840962 -0.99446924 243.56819241 -0.99162006 242.31544304 C-0.92664877 213.45337831 -0.87717957 184.59131485 -0.84680401 155.72919392 C-0.84305188 152.17688436 -0.83916892 148.62457495 -0.83520508 145.07226562 C-0.83441815 144.36506379 -0.83363122 143.65786195 -0.83282044 142.92922975 C-0.81976596 131.47780754 -0.79611189 120.0264305 -0.76854161 108.57503508 C-0.74048857 96.82513999 -0.72382396 85.07526855 -0.71773452 73.32534134 C-0.71381946 66.72545383 -0.70460141 60.12566877 -0.68280983 53.52581406 C-0.66247115 47.3157672 -0.65616096 41.10586519 -0.66067696 34.89578819 C-0.65985059 32.61491929 -0.65386948 30.33404562 -0.64238358 28.05320549 C-0.62748073 24.94161285 -0.63103862 21.83056868 -0.63923645 18.71896362 C-0.63049793 17.81428593 -0.6217594 16.90960823 -0.61275607 15.97751606 C-0.65600398 9.91360848 -1.53734385 5.46265615 -6 1 C-3.92446352 0.4465236 -2.15634036 0 0 0 Z " fill="#3F5AD1" transform="translate(294,74)"/>
<path d="M0 0 C6.9000775 1.88183932 13.79755379 3.76944096 20.6875 5.6875 C21.90083008 6.02491211 21.90083008 6.02491211 23.13867188 6.36914062 C25.09251555 6.91251727 27.04626798 7.456222 29 8 C29 8.33 29 8.66 29 9 C20.26323223 7.75189032 11.63616001 5.81813895 3 4 C2.67 28.09 2.34 52.18 2 77 C5.96 76.01 9.92 75.02 14 74 C16.65970489 73.61504271 19.32491861 73.25721936 22 73 C18.48252772 75.34498152 15.04997617 76.11486323 11 77.0625 C5.45630193 78.37173476 5.45630193 78.37173476 0 80 C0 53.6 0 27.2 0 0 Z " fill="#5777D9" transform="translate(109,160)"/>
<path d="M0 0 C6.8604449 0.70695441 13.32410188 2.66382686 19.9375 4.5625 C21.67870117 5.0565332 21.67870117 5.0565332 23.45507812 5.56054688 C26.30456206 6.3696596 29.15279247 7.18291987 32 8 C32 8.66 32 9.32 32 10 C27.33941836 11.30919906 22.67636502 12.60902769 18.01074219 13.90014648 C16.42310829 14.34092123 14.8361874 14.78427246 13.25 15.23022461 C10.97317 15.86987154 8.69395733 16.50028388 6.4140625 17.12890625 C5.70255035 17.33093155 4.99103821 17.53295685 4.25796509 17.74110413 C-0.77225659 19.11387171 -0.77225659 19.11387171 -3 18 C0.33333333 16.33333333 3.66666667 14.66666667 7 13 C6.938125 11.8553125 6.938125 11.8553125 6.875 10.6875 C7 8 7 8 9 5 C8.01 4.67 7.02 4.34 6 4 C6 3.34 6 2.68 6 2 C4.35 2 2.7 2 1 2 C0.67 1.34 0.34 0.68 0 0 Z " fill="#345EF3" transform="translate(217,191)"/>
<path d="M0 0 C0 25.74 0 51.48 0 78 C-10.125 76.875 -10.125 76.875 -14.47265625 75.58984375 C-15.39111328 75.32236328 -16.30957031 75.05488281 -17.25585938 74.77929688 C-18.18205078 74.50150391 -19.10824219 74.22371094 -20.0625 73.9375 C-21.02349609 73.65583984 -21.98449219 73.37417969 -22.97460938 73.08398438 C-25.31846429 72.39598716 -27.66007993 71.7012399 -30 71 C-30 70.67 -30 70.34 -30 70 C-24.7813494 69.79534704 -20.83111866 69.83871007 -16 72 C-14.7625 72.165 -13.525 72.33 -12.25 72.5 C-11.1775 72.665 -10.105 72.83 -9 73 C-8.505 73.99 -8.505 73.99 -8 75 C-5.69 75.66 -3.38 76.32 -1 77 C-1 52.58 -1 28.16 -1 3 C-1.99 3 -2.98 3 -4 3 C-4 3.66 -4 4.32 -4 5 C-6.31 4.67 -8.62 4.34 -11 4 C-11 4.66 -11 5.32 -11 6 C-14.63 6 -18.26 6 -22 6 C-18.64153509 3.7610234 -15.41108679 2.87127846 -11.5625 1.875 C-10.89412109 1.69324219 -10.22574219 1.51148438 -9.53710938 1.32421875 C-6.2051237 0.44581618 -3.47463228 0 0 0 Z " fill="#395ECD" transform="translate(270,219)"/>
<path d="M0 0 C1.65 0 3.3 0 5 0 C5 25.74 5 51.48 5 78 C-2.83713906 77.02035762 -9.82628533 75.24521432 -17.375 73.0625 C-18.67046425 72.69818108 -19.96603644 72.33424577 -21.26171875 71.97070312 C-22.48246094 71.62072266 -23.70320312 71.27074219 -24.9609375 70.91015625 C-26.07259277 70.59183838 -27.18424805 70.27352051 -28.32958984 69.94555664 C-31 69 -31 69 -33 67 C-28.71 67.33 -24.42 67.66 -20 68 C-20 68.66 -20 69.32 -20 70 C-12.07222142 71.98194464 -4.01307692 73.39738462 4 75 C4 50.58 4 26.16 4 1 C2.02 1.33 0.04 1.66 -2 2 C-1.34 1.34 -0.68 0.68 0 0 Z " fill="#3C5FCE" transform="translate(265,103)"/>
<path d="M0 0 C-2.68374288 1.78916192 -4.04278889 2.39082594 -7.0625 3.0625 C-9.25271258 3.55601159 -10.98513852 3.99256926 -13 5 C-13 5.66 -13 6.32 -13 7 C-12.01 7.33 -11.02 7.66 -10 8 C-9.01 9.485 -9.01 9.485 -8 11 C-5.94996045 12.19232613 -5.94996045 12.19232613 -4 13 C-7.48335596 14.19784792 -9.69506025 13.78454679 -13.203125 12.78515625 C-14.1828125 12.51123047 -15.1625 12.23730469 -16.171875 11.95507812 C-17.18765625 11.66052734 -18.2034375 11.36597656 -19.25 11.0625 C-20.28125 10.77181641 -21.3125 10.48113281 -22.375 10.18164062 C-24.9192752 9.46311846 -27.46062901 8.73563156 -30 8 C-26.29183535 4.29183535 -20.51940375 3.68437741 -15.5625 2.3125 C-14.40427734 1.97927734 -13.24605469 1.64605469 -12.05273438 1.30273438 C-10.94349609 0.99271484 -9.83425781 0.68269531 -8.69140625 0.36328125 C-7.67248291 0.07751221 -6.65355957 -0.20825684 -5.60375977 -0.50268555 C-3 -1 -3 -1 0 0 Z " fill="#3F66EB" transform="translate(159,251)"/>
<path d="M0 0 C0.33 0.66 0.66 1.32 1 2 C1.66 2 2.32 2 3 2 C3 39.62 3 77.24 3 116 C2.67 116 2.34 116 2 116 C1.98969254 114.81221954 1.97938507 113.62443909 1.96876526 112.40066528 C1.87044041 101.13366091 1.76765835 89.86670457 1.66066074 78.59977913 C1.60580923 72.80921231 1.5524557 67.01864024 1.50268555 61.22802734 C1.45447726 55.62585551 1.40212525 50.02373552 1.34705925 44.42162704 C1.32688799 42.29854522 1.30813815 40.17544934 1.29092598 38.05234146 C1.18676537 25.33899931 0.8437236 12.68691934 0 0 Z " fill="#305DEE" transform="translate(82,140)"/>
<path d="M0 0 C0 0.99 0 1.98 0 3 C-1.65 3.33 -3.3 3.66 -5 4 C-5 4.99 -5 5.98 -5 7 C-2.36 7 0.28 7 3 7 C3 7.99 3 8.98 3 10 C-1.93705382 9.38445473 -6.57349052 8.41900321 -11.375 7.0625 C-12.59960938 6.72347656 -13.82421875 6.38445312 -15.0859375 6.03515625 C-18 5 -18 5 -19 3 C-16.586238 2.30048937 -14.16989766 1.61516081 -11.75 0.9375 C-11.06808594 0.73833984 -10.38617188 0.53917969 -9.68359375 0.33398438 C-3.41657839 -1.40009269 -3.41657839 -1.40009269 0 0 Z " fill="#2F5DF1" transform="translate(149,138)"/>
<path d="M0 0 C6.57534861 0.62031591 12.66692592 2.14897283 19 4 C19 4.66 19 5.32 19 6 C14.33941836 7.30919906 9.67636502 8.60902769 5.01074219 9.90014648 C3.42310829 10.34092123 1.8361874 10.78427246 0.25 11.23022461 C-2.02683 11.86987154 -4.30604267 12.50028388 -6.5859375 13.12890625 C-7.29744965 13.33093155 -8.00896179 13.53295685 -8.74203491 13.74110413 C-13.77225659 15.11387171 -13.77225659 15.11387171 -16 14 C-10.18524677 10.64533468 -5.19966918 9.31843997 1.4609375 8.4921875 C4.15798818 8.21509154 4.15798818 8.21509154 6 6 C6.99 6 7.98 6 9 6 C9 5.34 9 4.68 9 4 C6.03 3.01 3.06 2.02 0 1 C0 0.67 0 0.34 0 0 Z " fill="#466AD7" transform="translate(230,195)"/>
<path d="M0 0 C4.31715283 0.47968365 8.2675565 1.3312632 12.4375 2.5625 C17.23287386 3.89125929 21.03977564 4.59864777 26 4 C28.96731398 2.16343011 28.96731398 2.16343011 31 0 C31.1875 2.375 31.1875 2.375 31 5 C27.5647952 7.29013653 26.014669 7.17842973 22 7 C21.67 7.99 21.34 8.98 21 10 C18.5625 9.625 18.5625 9.625 16 9 C15.67 8.34 15.34 7.68 15 7 C13.02 7 11.04 7 9 7 C9.33 6.01 9.66 5.02 10 4 C8.9171875 4.12375 8.9171875 4.12375 7.8125 4.25 C4.16451206 3.92573441 2.65431702 2.42680413 0 0 Z " fill="#315CF1" transform="translate(262,320)"/>
<path d="M0 0 C7.62688658 1.37026502 15.00691351 3.3142644 22.4375 5.5 C23.51193359 5.80808594 24.58636719 6.11617188 25.69335938 6.43359375 C27.23540039 6.88412109 27.23540039 6.88412109 28.80859375 7.34375 C29.73470459 7.61380859 30.66081543 7.88386719 31.61499023 8.16210938 C34 9 34 9 37 11 C24.33029613 10.22095672 24.33029613 10.22095672 19 8 C19 7.34 19 6.68 19 6 C17.700625 6.020625 16.40125 6.04125 15.0625 6.0625 C10.30617675 6.07004972 5.71611047 5.59887117 1 5 C0.67 3.35 0.34 1.7 0 0 Z " fill="#4668E2" transform="translate(224,309)"/>
<path d="M0 0 C4.29 0.33 8.58 0.66 13 1 C13 1.66 13 2.32 13 3 C15.90714959 3.750138 18.82099597 4.38750561 21.765625 4.97265625 C22.65507812 5.14990234 23.54453125 5.32714844 24.4609375 5.50976562 C25.38132812 5.69216797 26.30171875 5.87457031 27.25 6.0625 C28.18585938 6.24876953 29.12171875 6.43503906 30.0859375 6.62695312 C32.39045364 7.08550481 34.69514481 7.54315611 37 8 C36.67 8.99 36.34 9.98 36 11 C23.75842236 8.33538003 11.89781757 4.91805189 0 1 C0 0.67 0 0.34 0 0 Z " fill="#5A75DF" transform="translate(232,170)"/>
<path d="M0 0 C1.258125 0.12375 2.51625 0.2475 3.8125 0.375 C4.87404297 0.47941406 4.87404297 0.47941406 5.95703125 0.5859375 C8 1 8 1 11 3 C13.50896686 3.45601261 13.50896686 3.45601261 16.1875 3.625 C17.08855469 3.69976562 17.98960937 3.77453125 18.91796875 3.8515625 C19.60503906 3.90054687 20.29210937 3.94953125 21 4 C21 4.66 21 5.32 21 6 C21.60328125 6.04898437 22.2065625 6.09796875 22.828125 6.1484375 C24.02695313 6.26058594 24.02695313 6.26058594 25.25 6.375 C26.03890625 6.44460938 26.8278125 6.51421875 27.640625 6.5859375 C30.085877 7.01507113 31.84836903 7.78600638 34 9 C34 9.66 34 10.32 34 11 C22.23136615 8.33343613 10.60344257 5.3113918 -1 2 C-0.67 1.34 -0.34 0.68 0 0 Z " fill="#4D6AE1" transform="translate(205,278)"/>
<path d="M0 0 C-2.50133321 1.44307685 -4.21325045 2.02559005 -7.125 2.375 C-8.548125 2.684375 -8.548125 2.684375 -10 3 C-11.20557541 4.9835029 -11.20557541 4.9835029 -12 7 C-17.66666667 7 -23.33333333 7 -29 7 C-24.68448969 4.12299313 -20.03487204 3.16628483 -15.0625 1.8125 C-14.06025391 1.52697266 -13.05800781 1.24144531 -12.02539062 0.94726562 C-10.57616211 0.54991211 -10.57616211 0.54991211 -9.09765625 0.14453125 C-8.21601807 -0.09934326 -7.33437988 -0.34321777 -6.42602539 -0.59448242 C-3.90600358 -1.01571179 -2.3962367 -0.81451868 0 0 Z " fill="#DFECFC" transform="translate(178,222)"/>
<path d="M0 0 C2.64 0 5.28 0 8 0 C-1.68076588 6.45384392 -16.4880568 8.89308238 -28 10 C-27.67 9.34 -27.34 8.68 -27 8 C-24.53125 7.18359375 -24.53125 7.18359375 -21.5 6.4375 C-17.95211183 5.79159388 -17.95211183 5.79159388 -15 4 C-11.5 3.5 -11.5 3.5 -8 3 C-7.67 2.67 -7.34 2.34 -7 2 C-4.66702567 1.95907063 -2.33294775 1.95758277 0 2 C0 1.34 0 0.68 0 0 Z " fill="#4A6ADB" transform="translate(200,95)"/>
<path d="M0 0 C-2.9402596 1.96017306 -5.0063943 2.69738007 -8.375 3.62109375 C-9.44363281 3.91693359 -10.51226562 4.21277344 -11.61328125 4.51757812 C-12.73089844 4.82115234 -13.84851563 5.12472656 -15 5.4375 C-16.08667969 5.73720703 -17.17335938 6.03691406 -18.29296875 6.34570312 C-20.46506681 6.9438735 -22.63824352 7.53814131 -24.8125 8.12841797 C-26.91980293 8.70463361 -29.02408531 9.29202433 -31.125 9.89111328 C-32.094375 10.16552246 -33.06375 10.43993164 -34.0625 10.72265625 C-34.91972656 10.96894775 -35.77695313 11.21523926 -36.66015625 11.46899414 C-39 12 -39 12 -43 12 C-43 11.34 -43 10.68 -43 10 C-40.56214268 8.78107134 -38.45290373 8.57414532 -35.75 8.1875 C-26.89755973 6.76726531 -18.30361405 4.37920989 -10 1 C-6.59819704 0.14954926 -3.50243869 -0.10006968 0 0 Z " fill="#4766DA" transform="translate(144,113)"/>
<path d="M0 0 C-4.65867606 2.08153611 -9.31271194 3.81722783 -14.1796875 5.3515625 C-15.99430469 5.85136351 -15.99430469 5.85136351 -17 7 C-19.00609547 7.23020768 -21.01231926 7.45942707 -23.01953125 7.6796875 C-25.07732437 7.90339404 -25.07732437 7.90339404 -27 9.0625 C-30.25359819 10.58762415 -33.44153492 10.1186155 -37 10 C-34.63602545 7.63602545 -32.70649951 7.34233614 -29.51855469 6.60693359 C-26.59177687 5.9016244 -23.71183726 5.07641073 -20.8203125 4.23828125 C-19.180625 3.76745117 -19.180625 3.76745117 -17.5078125 3.28710938 C-15.22784091 2.63023534 -12.94921465 1.96867589 -10.671875 1.30273438 C-9.04378906 0.83770508 -9.04378906 0.83770508 -7.3828125 0.36328125 C-6.39684082 0.07751221 -5.41086914 -0.20825684 -4.39501953 -0.50268555 C-2 -1 -2 -1 0 0 Z " fill="#4E6CDF" transform="translate(197,240)"/>
<path d="M0 0 C-2.61941217 1.74627478 -4.03824877 2.38722388 -7 3 C-6.01 3.66 -5.02 4.32 -4 5 C-5 6 -5 6 -6.94946289 6.11352539 C-7.7821167 6.10828857 -8.61477051 6.10305176 -9.47265625 6.09765625 C-10.37177734 6.09443359 -11.27089844 6.09121094 -12.19726562 6.08789062 C-13.14279297 6.07951172 -14.08832031 6.07113281 -15.0625 6.0625 C-16.01189453 6.05798828 -16.96128906 6.05347656 -17.93945312 6.04882812 C-20.29303065 6.0370011 -22.64648477 6.02052025 -25 6 C-22.08025122 4.05350082 -19.77199338 3.35512927 -16.39453125 2.578125 C-12.69747191 1.6855234 -9.06274425 0.57297467 -5.41796875 -0.51171875 C-3 -1 -3 -1 0 0 Z " fill="#4A6AE6" transform="translate(248,226)"/>
<path d="M0 0 C1.22589844 0.01353516 1.22589844 0.01353516 2.4765625 0.02734375 C3.10304687 0.03894531 3.72953125 0.05054688 4.375 0.0625 C1.15017483 2.21238345 -1.42933986 2.98245423 -5.15625 4.0078125 C-5.78857544 4.18255096 -6.42090088 4.35728943 -7.0723877 4.537323 C-8.40642554 4.90462172 -9.74120414 5.26923919 -11.07666016 5.63134766 C-13.11951176 6.18600987 -15.15944573 6.75054008 -17.19921875 7.31640625 C-27.21011487 10.0625 -27.21011487 10.0625 -30.625 10.0625 C-30.625 9.4025 -30.625 8.7425 -30.625 8.0625 C-29.98433594 7.95292969 -29.34367188 7.84335938 -28.68359375 7.73046875 C-23.27672723 6.73934419 -18.65662814 5.34097312 -13.625 3.0625 C-11.29751306 2.37570058 -8.96513344 1.70488957 -6.625 1.0625 C-4.21954362 -0.14022819 -2.67503047 -0.03821472 0 0 Z " fill="#4A66DC" transform="translate(190.625,214.9375)"/>
<path d="M0 0 C0.99 0.33 1.98 0.66 3 1 C0.07565293 4.35758367 -1.69771843 5.20747445 -6 6 C-6.99 7.485 -6.99 7.485 -8 9 C-8.88751953 8.89171875 -8.88751953 8.89171875 -9.79296875 8.78125 C-13.88261722 8.30089977 -17.8738531 7.86689849 -22 8 C-18.64153509 5.7610234 -15.41108679 4.87127846 -11.5625 3.875 C-10.55993164 3.60236328 -10.55993164 3.60236328 -9.53710938 3.32421875 C-6.2051237 2.44581618 -3.47463228 2 0 2 C0 1.34 0 0.68 0 0 Z " fill="#E0EBFA" transform="translate(249,199)"/>
<path d="M0 0 C-0.33 0.99 -0.66 1.98 -1 3 C-2.01320313 3.18175781 -2.01320313 3.18175781 -3.046875 3.3671875 C-3.93890625 3.53476563 -4.8309375 3.70234375 -5.75 3.875 C-6.63171875 4.03742188 -7.5134375 4.19984375 -8.421875 4.3671875 C-10.97584285 4.88240236 -10.97584285 4.88240236 -13 6.0625 C-15.53805801 7.25221469 -17.46240202 7.19835784 -20.25 7.125 C-21.14203125 7.10695313 -22.0340625 7.08890625 -22.953125 7.0703125 C-23.96632812 7.03550781 -23.96632812 7.03550781 -25 7 C-22.38825913 5.25883942 -20.83576328 4.52755512 -17.91015625 3.7109375 C-17.12576172 3.49179688 -16.34136719 3.27265625 -15.53320312 3.046875 C-14.71787109 2.82515625 -13.90253906 2.6034375 -13.0625 2.375 C-11.84530273 2.03082031 -11.84530273 2.03082031 -10.60351562 1.6796875 C-6.84358742 0.6433168 -3.95465976 0 0 0 Z " fill="#496BDE" transform="translate(262,105)"/>
<path d="M0 0 C0 0.66 0 1.32 0 2 C1.21236328 2.16435547 1.21236328 2.16435547 2.44921875 2.33203125 C3.51785156 2.49058594 4.58648437 2.64914062 5.6875 2.8125 C6.74324219 2.96332031 7.79898438 3.11414063 8.88671875 3.26953125 C12.10193753 4.02391759 14.28100323 5.15874987 17 7 C13.51664404 8.19784792 11.30493975 7.78454679 7.796875 6.78515625 C6.8171875 6.51123047 5.8375 6.23730469 4.828125 5.95507812 C3.81234375 5.66052734 2.7965625 5.36597656 1.75 5.0625 C0.71875 4.77181641 -0.3125 4.48113281 -1.375 4.18164062 C-3.9192752 3.46311846 -6.46062901 2.73563156 -9 2 C-5.945634 -1.054366 -3.9532319 -1.22686507 0 0 Z " fill="#5B71D1" transform="translate(138,257)"/>
<path d="M0 0 C5.2186506 -0.20465296 9.16888134 -0.16128993 14 2 C15.85625 2.2475 15.85625 2.2475 17.75 2.5 C18.8225 2.665 19.895 2.83 21 3 C21.33 3.66 21.66 4.32 22 5 C24.52733235 5.65555119 24.52733235 5.65555119 27 6 C27 6.66 27 7.32 27 8 C17.97082523 5.76819645 8.95819769 3.50525868 0 1 C0 0.67 0 0.34 0 0 Z " fill="#4D6DE0" transform="translate(240,289)"/>
<path d="M0 0 C6.46684143 0.59682298 12.31293197 2.12454483 18.5 4.0625 C19.87671875 4.48499023 19.87671875 4.48499023 21.28125 4.91601562 C23.52272203 5.6048013 25.76215031 6.29955305 28 7 C24.88925167 7.9867097 22.83557243 7.96838493 19.671875 7.22265625 C18.87265625 7.03896484 18.0734375 6.85527344 17.25 6.66601562 C16.425 6.46685547 15.6 6.26769531 14.75 6.0625 C13.90953125 5.86720703 13.0690625 5.67191406 12.203125 5.47070312 C10.13351102 4.98857714 8.06648605 4.49536137 6 4 C6 3.34 6 2.68 6 2 C4.02 2 2.04 2 0 2 C0 1.34 0 0.68 0 0 Z " fill="#4B68DE" transform="translate(144,287)"/>
<path d="M0 0 C0 0.99 0 1.98 0 3 C-0.99 3 -1.98 3 -3 3 C-3 3.66 -3 4.32 -3 5 C-5.31 4.67 -7.62 4.34 -10 4 C-10 4.66 -10 5.32 -10 6 C-13.63 6 -17.26 6 -21 6 C-17.62473371 3.74982247 -14.36925005 2.86995001 -10.5 1.875 C-9.82324219 1.69324219 -9.14648438 1.51148438 -8.44921875 1.32421875 C-5.54810937 0.56317822 -3.0122546 0 0 0 Z " fill="#4E70E1" transform="translate(269,219)"/>
<path d="M0 0 C9.80981455 -0.85385233 16.85727364 1.57151576 25 7 C19.07090494 6.4138281 13.68419734 5.19595619 8 3.4375 C7.22527344 3.20353516 6.45054687 2.96957031 5.65234375 2.72851562 C3.7664786 2.15809962 1.8829791 1.57987197 0 1 C0 0.67 0 0.34 0 0 Z " fill="#476BDB" transform="translate(153,148)"/>
<path d="M0 0 C3.75425503 0.34761621 7.36950856 0.9834624 11 2 C11.33 1.34 11.66 0.68 12 0 C12.99 0.33 13.98 0.66 15 1 C15 2.65 15 4.3 15 6 C9.0870696 5.35729017 3.65755469 3.80996216 -2 2 C-1.34 1.34 -0.68 0.68 0 0 Z " fill="#E3F0FA" transform="translate(180,178)"/>
<path d="M0 0 C1.85625 0.061875 1.85625 0.061875 3.75 0.125 C-0.46755057 2.93670038 -4.96515797 3.94000142 -9.8125 5.3125 C-11.26946289 5.74079102 -11.26946289 5.74079102 -12.75585938 6.17773438 C-13.68333984 6.44263672 -14.61082031 6.70753906 -15.56640625 6.98046875 C-16.41662354 7.22434326 -17.26684082 7.46821777 -18.14282227 7.71948242 C-20.25 8.125 -20.25 8.125 -22.25 7.125 C-20.25 4.125 -20.25 4.125 -17.5703125 3.46484375 C-15.98863281 3.26568359 -15.98863281 3.26568359 -14.375 3.0625 C-9.30514706 2.40852634 -5.03669606 -0.16788987 0 0 Z " fill="#4F6FDD" transform="translate(276.25,74.875)"/>
<path d="M0 0 C2.58366245 0.14120016 5.16682885 0.28778333 7.75 0.4375 C8.47960937 0.47681641 9.20921875 0.51613281 9.9609375 0.55664062 C13.4272973 0.76147098 16.65333026 1.0852002 20 2 C20 2.66 20 3.32 20 4 C20.66 4.33 21.32 4.66 22 5 C18.6905915 6.10313617 17.80517706 5.89941114 14.55078125 5.00390625 C13.27944336 4.66069336 13.27944336 4.66069336 11.98242188 4.31054688 C11.10134766 4.06369141 10.22027344 3.81683594 9.3125 3.5625 C7.97348633 3.19801758 7.97348633 3.19801758 6.60742188 2.82617188 C4.40278378 2.22490694 2.20057655 1.61593343 0 1 C0 0.67 0 0.34 0 0 Z " fill="#DAE6FA" transform="translate(202,186)"/>
<path d="M0 0 C-1.24663331 0.50833591 -2.49749387 1.00631145 -3.75 1.5 C-4.44609375 1.7784375 -5.1421875 2.056875 -5.859375 2.34375 C-8 3 -8 3 -12 3 C-11.67 3.99 -11.34 4.98 -11 6 C-13.3431213 5.74438677 -15.67843403 5.40729228 -18 5 C-18.33 4.34 -18.66 3.68 -19 3 C-16.586238 2.30048937 -14.16989766 1.61516081 -11.75 0.9375 C-11.06808594 0.73833984 -10.38617188 0.53917969 -9.68359375 0.33398438 C-3.41657839 -1.40009269 -3.41657839 -1.40009269 0 0 Z " fill="#516AD5" transform="translate(149,138)"/>
<path d="M0 0 C1.98 0 3.96 0 6 0 C6 0.66 6 1.32 6 2 C7.32 2.33 8.64 2.66 10 3 C10 3.66 10 4.32 10 5 C5.05 5 0.1 5 -5 5 C-5 4.34 -5 3.68 -5 3 C-3.35 3 -1.7 3 0 3 C0 2.01 0 1.02 0 0 Z " fill="#355BE8" transform="translate(278,70)"/>
<path d="M0 0 C17.85649203 4.03872437 17.85649203 4.03872437 26 7 C26 7.33 26 7.66 26 8 C21.25451132 7.35674962 16.56702551 6.58402939 11.875 5.625 C10.69679688 5.39039063 9.51859375 5.15578125 8.3046875 4.9140625 C5.06906969 4.01910438 2.73319114 2.92870469 0 1 C0 0.67 0 0.34 0 0 Z " fill="#4C6CD8" transform="translate(96,273)"/>
<path d="M0 0 C0.37511719 0.59425781 0.75023438 1.18851562 1.13671875 1.80078125 C3.42585234 4.50263075 5.63891917 5.63464095 8.8125 7.1875 C9.82957031 7.69667969 10.84664062 8.20585937 11.89453125 8.73046875 C14.96793066 9.98688989 17.71536971 10.59248981 21 11 C21 11.33 21 11.66 21 12 C16.52572076 12.08948558 12.39436211 11.85743651 8 11 C7.67 9.68 7.34 8.36 7 7 C4.03 6.505 4.03 6.505 1 6 C0.67 4.02 0.34 2.04 0 0 Z " fill="#3961E4" transform="translate(86,266)"/>
<path d="M0 0 C-3.54026575 3.28212137 -7.39112904 3.95680663 -12 4.75 C-12.7115625 4.88792969 -13.423125 5.02585938 -14.15625 5.16796875 C-17.78083441 5.82391033 -20.48314885 6.05233212 -24 5 C-20.37820437 3.96755249 -16.75213106 2.95102919 -13.125 1.9375 C-12.09246094 1.64294922 -11.05992187 1.34839844 -9.99609375 1.04492188 C-9.00996094 0.77099609 -8.02382812 0.49707031 -7.0078125 0.21484375 C-6.09660645 -0.04176025 -5.18540039 -0.29836426 -4.24658203 -0.56274414 C-2 -1 -2 -1 0 0 Z " fill="#5572E0" transform="translate(175,130)"/>
<path d="M0 0 C2.584859 0.6191639 5.16776172 1.24507682 7.75 1.875 C8.47960937 2.04902344 9.20921875 2.22304688 9.9609375 2.40234375 C13.53285028 3.27908598 16.79373841 4.12686823 20 6 C15.97470217 6.16772074 12.64310747 6.01170928 8.75 4.9375 C5.09986523 3.66844743 5.09986523 3.66844743 2 5 C2 4.01 2 3.02 2 2 C1.34 2 0.68 2 0 2 C0 1.34 0 0.68 0 0 Z " fill="#E4F1FE" transform="translate(206,280)"/>
<path d="M0 0 C3.96 0 7.92 0 12 0 C9.11215063 1.44392468 6.52449567 2.59957168 3.5 3.625 C2.37078125 4.01558594 2.37078125 4.01558594 1.21875 4.4140625 C-1 5 -1 5 -5 5 C-5 4.34 -5 3.68 -5 3 C-3.68 3 -2.36 3 -1 3 C-0.67 2.01 -0.34 1.02 0 0 Z " fill="#4567DC" transform="translate(201,210)"/>
<path d="M0 0 C0 0.66 0 1.32 0 2 C1.65 2 3.3 2 5 2 C2.3139714 3.79068573 0.3373411 4.66055791 -2.6875 5.625 C-3.49574219 5.88539063 -4.30398437 6.14578125 -5.13671875 6.4140625 C-5.75160156 6.60742188 -6.36648437 6.80078125 -7 7 C-7.33 6.01 -7.66 5.02 -8 4 C-4.5 0 -4.5 0 0 0 Z " fill="#4063E5" transform="translate(96,123)"/>
<path d="M0 0 C-0.99 0.33 -1.98 0.66 -3 1 C-3.33 1.66 -3.66 2.32 -4 3 C-6.2578125 3.37890625 -6.2578125 3.37890625 -9.125 3.5625 C-13.4614141 3.87910911 -17.70516085 4.33191391 -22 5 C-18.644661 2.76310733 -15.40369426 1.83264459 -11.5625 0.8125 C-10.55993164 0.52729492 -10.55993164 0.52729492 -9.53710938 0.23632812 C-6.06186139 -0.69706355 -3.41391321 -1.37080403 0 0 Z " fill="#D3E3FD" transform="translate(152,113)"/>
<path d="M0 0 C7.63054095 0.61044328 14.70189474 2.79621821 22 5 C22 5.33 22 5.66 22 6 C16.98090068 6.31369371 13.62636886 5.64998086 9 3.734375 C6.02344246 2.64142028 3.14581364 2.32768892 0 2 C0 1.34 0 0.68 0 0 Z " fill="#4E6FD6" transform="translate(172,295)"/>
<path d="M0 0 C4.29 0.33 8.58 0.66 13 1 C13 1.66 13 2.32 13 3 C13.763125 2.938125 14.52625 2.87625 15.3125 2.8125 C18 3 18 3 19.8125 4.5 C20.204375 4.995 20.59625 5.49 21 6 C16.27826731 5.30130124 11.72224651 4.19817903 7.125 2.9375 C6.43664062 2.75123047 5.74828125 2.56496094 5.0390625 2.37304688 C3.35867486 1.91794189 1.67923678 1.45933322 0 1 C0 0.67 0 0.34 0 0 Z " fill="#5474DA" transform="translate(195,160)"/>
<path d="M0 0 C2.97 0 5.94 0 9 0 C6.27202337 2.72797663 3.19101443 3.2419699 -0.4375 4.1875 C-1.11876953 4.37763672 -1.80003906 4.56777344 -2.50195312 4.76367188 C-5.86150773 5.65538519 -7.63523612 6.12158796 -11 5 C-9.54293274 4.49632243 -8.08429904 3.99717444 -6.625 3.5 C-5.81289062 3.2215625 -5.00078125 2.943125 -4.1640625 2.65625 C-2 2 -2 2 0 2 C0 1.34 0 0.68 0 0 Z " fill="#4E69DE" transform="translate(163,105)"/>
<path d="M0 0 C-6.24309927 2.77471079 -11.19796625 3.37634203 -18 3 C-15.08529592 1.05686394 -12.89677168 0.20911207 -9.5625 -0.75 C-8.14130859 -1.17539063 -8.14130859 -1.17539063 -6.69140625 -1.609375 C-3.66327282 -2.04887187 -2.52049001 -1.64457504 0 0 Z " fill="#4B6FDF" transform="translate(224,234)"/>
<path d="M0 0 C6.69286912 -0.47617251 10.77531236 -0.39973696 16 4 C12.85681547 5.57159226 10.07066611 4.04018399 6.875 3.0625 C6.21628906 2.86720703 5.55757813 2.67191406 4.87890625 2.47070312 C3.25066448 1.98695014 1.62506818 1.49430925 0 1 C0 0.67 0 0.34 0 0 Z " fill="#DDECFD" transform="translate(252,316)"/>
<path d="M0 0 C2.10448938 0.14109986 4.2085877 0.28804175 6.3125 0.4375 C7.48425781 0.51871094 8.65601563 0.59992188 9.86328125 0.68359375 C13 1 13 1 16 2 C16 2.66 16 3.32 16 4 C16.66 4.33 17.32 4.66 18 5 C11.80759538 4.31195504 5.98044406 2.71951285 0 1 C0 0.67 0 0.34 0 0 Z " fill="#D8E7FC" transform="translate(208,304)"/>
<path d="M0 0 C0.66 0.66 1.32 1.32 2 2 C2.99 2.33 3.98 2.66 5 3 C8 4 8 4 10 6 C5.80716882 5.35155914 1.73500079 4.48783354 -2.375 3.4375 C-3.43460938 3.16808594 -4.49421875 2.89867187 -5.5859375 2.62109375 C-6.38257813 2.41613281 -7.17921875 2.21117187 -8 2 C-4.77626323 -0.14915785 -3.73296326 -0.38286803 0 0 Z " fill="#D8E8FD" transform="translate(166,289)"/>
<path d="M0 0 C-3.10858428 3.10858428 -6.88908099 3.88211273 -11.23828125 4.125 C-13.15930609 4.125 -15.0801566 4.06736293 -17 4 C-14.23719462 2.15812975 -12.19292174 1.27751723 -9.0625 0.3125 C-7.78052734 -0.09548828 -7.78052734 -0.09548828 -6.47265625 -0.51171875 C-3.89489426 -1.02075548 -2.45550663 -0.84888744 0 0 Z " fill="#4A6DDC" transform="translate(201,123)"/>
<path d="M0 0 C-0.99 0 -1.98 0 -3 0 C-3 0.66 -3 1.32 -3 2 C-7.86051596 4.59227518 -12.65271133 4.18689553 -18 4 C-15.06836714 2.44596314 -12.16634776 1.30198368 -9 0.3125 C-8.154375 0.04050781 -7.30875 -0.23148437 -6.4375 -0.51171875 C-3.8767932 -1.02468085 -2.44171002 -0.84216387 0 0 Z " fill="#546EE5" transform="translate(222,117)"/>
<path d="M0 0 C4.81938524 -0.23509196 8.46298506 0.54815522 13 2 C13 2.66 13 3.32 13 4 C11.39620659 4.05416188 9.79188594 4.09286638 8.1875 4.125 C7.29417969 4.14820312 6.40085938 4.17140625 5.48046875 4.1953125 C3 4 3 4 0 2 C0 1.34 0 0.68 0 0 Z " fill="#FDFFF1" transform="translate(243,90)"/>
<path d="M0 0 C5.4389165 -0.21755666 9.87080814 -0.10428384 15 2 C15 1.34 15 0.68 15 0 C16.32 0.33 17.64 0.66 19 1 C14.70900931 3.86066046 10.60544193 3.51312609 5.69921875 2.546875 C3.78892372 2.07184604 1.89273238 1.54078068 0 1 C0 0.67 0 0.34 0 0 Z " fill="#D6E7FE" transform="translate(272,322)"/>
<path d="M0 0 C6.19240462 0.68804496 12.01955594 2.28048715 18 4 C18 4.33 18 4.66 18 5 C10.94646251 5.24322543 5.60115228 4.73943655 0 0 Z " fill="#4A68DC" transform="translate(262,320)"/>
<path d="M0 0 C-2.86632944 2.86632944 -6.29316426 3.2315668 -10.125 4.125 C-10.87910156 4.30675781 -11.63320312 4.48851562 -12.41015625 4.67578125 C-14.27191946 5.12354709 -16.13577253 5.56260722 -18 6 C-16.40546864 2.81093728 -13.19482019 2.15557326 -10 1 C-6.59767314 0.10891439 -3.51162142 -0.10033204 0 0 Z " fill="#3F64DE" transform="translate(232,204)"/>
<path d="M0 0 C1.77119803 0.14133499 3.54195287 0.28823208 5.3125 0.4375 C6.29863281 0.51871094 7.28476562 0.59992188 8.30078125 0.68359375 C11 1 11 1 14 2 C13.67 2.99 13.34 3.98 13 5 C11.58089348 4.74225629 10.16475101 4.46816835 8.75 4.1875 C7.96109375 4.03667969 7.1721875 3.88585937 6.359375 3.73046875 C3.74095891 2.91980019 2.08895488 1.74878103 0 0 Z " fill="#476ADE" transform="translate(255,176)"/>
<path d="M0 0 C0.70125 0.19335938 1.4025 0.38671875 2.125 0.5859375 C7.73492134 2.125617 13.35010447 3.61417657 19 5 C19 5.33 19 5.66 19 6 C11.29711007 6.6212008 6.6276327 4.8741903 0 1 C0 0.67 0 0.34 0 0 Z " fill="#4A6BE0" transform="translate(141,169)"/>
<path d="M0 0 C3.96 0 7.92 0 12 0 C12 0.66 12 1.32 12 2 C12.99 2.33 13.98 2.66 15 3 C11.34142468 4.31534494 8.91973519 3.65468309 5.25 2.5625 C4.26515625 2.27503906 3.2803125 1.98757812 2.265625 1.69140625 C1.51796875 1.46324219 0.7703125 1.23507813 0 1 C0 0.67 0 0.34 0 0 Z " fill="#4665E0" transform="translate(217,166)"/>
<path d="M0 0 C0.33 0 0.66 0 1 0 C1.1875 2.375 1.1875 2.375 1 5 C-2.68717438 7.45811625 -4.64345704 7.31118164 -9 7 C-9.99 6.34 -10.98 5.68 -12 5 C-10.95199219 4.83564453 -10.95199219 4.83564453 -9.8828125 4.66796875 C-8.51769531 4.43013672 -8.51769531 4.43013672 -7.125 4.1875 C-5.76761719 3.96126953 -5.76761719 3.96126953 -4.3828125 3.73046875 C-1.65587522 3.16948699 -1.65587522 3.16948699 0 0 Z " fill="#4264DC" transform="translate(292,320)"/>
<path d="M0 0 C0 0.66 0 1.32 0 2 C-3.82320557 3.42258812 -6.91281305 4.24042276 -11 4 C-10.67 3.01 -10.34 2.02 -10 1 C-6.78548731 -0.60725635 -3.56387464 -0.05748185 0 0 Z " fill="#FEFFF1" transform="translate(256,306)"/>
<path d="M0 0 C4.29 0.99 8.58 1.98 13 3 C9 4 9 4 6 3 C5.67 4.32 5.34 5.64 5 7 C4.01 6.67 3.02 6.34 2 6 C1.375 4.0625 1.375 4.0625 1 2 C0.67 1.34 0.34 0.68 0 0 Z " fill="#E5ECFE" transform="translate(238,289)"/>
<path d="M0 0 C6.93 0.495 6.93 0.495 14 1 C14 1.66 14 2.32 14 3 C14.99 3.33 15.98 3.66 17 4 C13.76630321 5.6168484 10.69371743 4.00851816 7.375 3.0625 C6.66859375 2.86720703 5.9621875 2.67191406 5.234375 2.47070312 C3.48780156 1.98685508 1.74365876 1.49424877 0 1 C0 0.67 0 0.34 0 0 Z " fill="#4A6DD9" transform="translate(187,274)"/>
<path d="M0 0 C-0.99 0 -1.98 0 -3 0 C-3 0.66 -3 1.32 -3 2 C-3.66 2.66 -4.32 3.32 -5 4 C-7.1640625 3.9765625 -7.1640625 3.9765625 -9.625 3.625 C-10.44226563 3.51414063 -11.25953125 3.40328125 -12.1015625 3.2890625 C-12.72804687 3.19367188 -13.35453125 3.09828125 -14 3 C-9.7368213 0.15788087 -5.03577274 -2.0143091 0 0 Z " fill="#DDEDFA" transform="translate(192,218)"/>
<path d="M0 0 C2.60607392 0.61778047 5.20965697 1.24387211 7.8125 1.875 C8.55048828 2.04902344 9.28847656 2.22304687 10.04882812 2.40234375 C13.49717037 3.24492511 16.01928362 4.01285575 19 6 C5.01485528 5.58501054 5.01485528 5.58501054 0 1 C0 0.67 0 0.34 0 0 Z " fill="#4F6BDE" transform="translate(180,180)"/>
<path d="M0 0 C2.10495964 0.06005591 4.20911435 0.14885359 6.3125 0.25 C7.48425781 0.29640625 8.65601563 0.3428125 9.86328125 0.390625 C13 1 13 1 14.91796875 3.046875 C15.27503906 3.69140625 15.63210937 4.3359375 16 5 C10.53135543 3.98408579 5.23609987 2.92908943 0 1 C0 0.67 0 0.34 0 0 Z " fill="#526FE1" transform="translate(178,155)"/>
<path d="M0 0 C-1.9375 2.0625 -1.9375 2.0625 -5 4 C-8.08062179 4.05666696 -10.98465651 3.60438257 -14 3 C-9.7368213 0.15788087 -5.03577274 -2.0143091 0 0 Z " fill="#DCE7FC" transform="translate(112,124)"/>
<path d="M0 0 C11.52164009 1.92710706 11.52164009 1.92710706 17 4 C17 4.33 17 4.66 17 5 C14.36 5 11.72 5 9 5 C9 4.34 9 3.68 9 3 C6.03 2.67 3.06 2.34 0 2 C0 1.34 0 0.68 0 0 Z " fill="#4164D7" transform="translate(199,186)"/>
<path d="M0 0 C-2.94723051 1.96482034 -5.11977826 2.7561217 -8.5 3.6875 C-9.4590625 3.95949219 -10.418125 4.23148438 -11.40625 4.51171875 C-14 5 -14 5 -17 4 C-11.02667877 0.5246131 -6.88490225 -0.57374185 0 0 Z " fill="#DCEBFE" transform="translate(187,125)"/>
<path d="M0 0 C-0.33 0.99 -0.66 1.98 -1 3 C-4.47325181 4.1577506 -7.36067448 4.06866652 -11 4 C-11 4.66 -11 5.32 -11 6 C-12.32 5.67 -13.64 5.34 -15 5 C-12.37575342 3.25050228 -10.44272784 2.34610019 -7.5 1.375 C-6.7265625 1.11460938 -5.953125 0.85421875 -5.15625 0.5859375 C-3 0 -3 0 0 0 Z " fill="#325CED" transform="translate(240,83)"/>
<path d="M0 0 C5.28 1.32 10.56 2.64 16 4 C16 4.33 16 4.66 16 5 C9.34454208 5.54330269 5.54165256 4.77304004 0 1 C0 0.67 0 0.34 0 0 Z " fill="#D6E6FC" transform="translate(222,168)"/>
<path d="M0 0 C0 0.66 0 1.32 0 2 C-0.66 2 -1.32 2 -2 2 C-2.33 2.66 -2.66 3.32 -3 4 C-4.99609375 4.484375 -4.99609375 4.484375 -7.4375 4.75 C-8.24058594 4.84796875 -9.04367188 4.9459375 -9.87109375 5.046875 C-12 5 -12 5 -14 3 C-12.23050388 2.49528803 -10.45934777 1.99639315 -8.6875 1.5 C-7.70136719 1.2215625 -6.71523437 0.943125 -5.69921875 0.65625 C-3 0 -3 0 0 0 Z " fill="#E0EFFE" transform="translate(251,84)"/>
<path d="M0 0 C2.64 0.33 5.28 0.66 8 1 C8 1.33 8 1.66 8 2 C-2.37357631 5.44419134 -2.37357631 5.44419134 -8 5 C-8 4.67 -8 4.34 -8 4 C-6.35 4 -4.7 4 -3 4 C-3 3.34 -3 2.68 -3 2 C-2.01 2 -1.02 2 0 2 C0 1.34 0 0.68 0 0 Z " fill="#DDEAFC" transform="translate(170,243)"/>
<path d="M0 0 C2.97 0 5.94 0 9 0 C9 0.66 9 1.32 9 2 C10.134375 2.12375 11.26875 2.2475 12.4375 2.375 C13.613125 2.58125 14.78875 2.7875 16 3 C16.33 3.66 16.66 4.32 17 5 C11.24237834 3.91103333 5.60752181 2.70663707 0 1 C0 0.67 0 0.34 0 0 Z " fill="#CDDEFC" transform="translate(126,281)"/>
<path d="M0 0 C6.93 0.495 6.93 0.495 14 1 C14 1.99 14 2.98 14 4 C9.13103697 3.40380045 4.67209049 2.43023178 0 1 C0 0.67 0 0.34 0 0 Z " fill="#5673E0" transform="translate(138,144)"/>
<path d="M0 0 C5.69305433 1.23876645 11.35370013 2.56276003 17 4 C13.69799313 5.07257764 11.32628343 4.92468991 7.9375 4.25 C6.65166016 4.01023437 6.65166016 4.01023437 5.33984375 3.765625 C2.80519983 2.93625904 1.6935639 2.02117135 0 0 Z " fill="#D5E5FD" transform="translate(131,259)"/>
<path d="M0 0 C0.33 1.32 0.66 2.64 1 4 C-3.25061356 5.41687119 -5.71851625 4.19320039 -10 3 C-10 2.67 -10 2.34 -10 2 C-6.7 1.34 -3.4 0.68 0 0 Z " fill="#DDEBFC" transform="translate(162,170)"/>
<path d="M0 0 C-0.99 0 -1.98 0 -3 0 C-3 0.66 -3 1.32 -3 2 C-5.40545638 3.20272819 -6.94996953 3.10071472 -9.625 3.0625 C-10.85089844 3.04896484 -10.85089844 3.04896484 -12.1015625 3.03515625 C-13.04128906 3.01775391 -13.04128906 3.01775391 -14 3 C-4.63580818 -1.78300315 -4.63580818 -1.78300315 0 0 Z " fill="#D6E6FC" transform="translate(226,92)"/>
<path d="M0 0 C1.41805831 0.28482368 2.83440379 0.57818144 4.25 0.875 C5.03890625 1.03742188 5.8278125 1.19984375 6.640625 1.3671875 C8.96831144 1.99150075 10.89031952 2.84838542 13 4 C10.07406105 4.85637238 7.91825712 5.38673104 5.04296875 4.17578125 C3.32488268 3.17852152 1.65798613 2.09427085 0 1 C0 0.67 0 0.34 0 0 Z " fill="#DFE9FE" transform="translate(181,273)"/>
<path d="M0 0 C1.93922422 0.45098238 3.87633594 0.91105559 5.8125 1.375 C6.89144531 1.63023437 7.97039062 1.88546875 9.08203125 2.1484375 C12 3 12 3 15 5 C12.36 5 9.72 5 7 5 C7 4.34 7 3.68 7 3 C5.68 3.33 4.36 3.66 3 4 C2.01 2.68 1.02 1.36 0 0 Z " fill="#D1E3FC" transform="translate(166,152)"/>
<path d="M0 0 C4.95 0.99 4.95 0.99 10 2 C10 2.33 10 2.66 10 3 C8.8553125 2.9690625 8.8553125 2.9690625 7.6875 2.9375 C4.89814214 2.87057159 4.89814214 2.87057159 2 4 C1.34 3.67 0.68 3.34 0 3 C0 2.01 0 1.02 0 0 Z " fill="#E3EFFD" transform="translate(148,264)"/>
<path d="M0 0 C4.27343092 -0.36629408 6.48812804 0.59185923 10 3 C6.18510326 4.46726798 3.70988378 3.43336419 0 2 C0 1.34 0 0.68 0 0 Z " fill="#4865D9" transform="translate(145,261)"/>
<path d="M0 0 C-4.55426184 2.66590937 -7.73946963 3.31563182 -13 3 C-8.8341563 0.22277086 -4.9360889 -1.89849573 0 0 Z " fill="#D4E5FA" transform="translate(126,120)"/>
<path d="M0 0 C3.3 0.33 6.6 0.66 10 1 C9.67 1.99 9.34 2.98 9 4 C4.545 3.01 4.545 3.01 0 2 C0 1.34 0 0.68 0 0 Z " fill="#2B60F2" transform="translate(233,314)"/>
<path d="M0 0 C2.97 0 5.94 0 9 0 C9.33 0.66 9.66 1.32 10 2 C7.25 2.6875 7.25 2.6875 4 3 C1.625 1.5625 1.625 1.5625 0 0 Z " fill="#3461E7" transform="translate(188,301)"/>
<path d="M0 0 C0.66 0 1.32 0 2 0 C2 0.66 2 1.32 2 2 C3.093125 1.95875 4.18625 1.9175 5.3125 1.875 C9 2 9 2 12 4 C7.48281619 5.36884358 4.41225737 4.47075246 0 3 C0 2.01 0 1.02 0 0 Z " fill="#305DEE" transform="translate(170,295)"/>
<path d="M0 0 C-2 2 -2 2 -4.1640625 2.1953125 C-5.38222656 2.16050781 -5.38222656 2.16050781 -6.625 2.125 C-7.44226563 2.10695312 -8.25953125 2.08890625 -9.1015625 2.0703125 C-9.72804687 2.04710937 -10.35453125 2.02390625 -11 2 C-6.98764085 -0.6749061 -4.6342454 -1.48957888 0 0 Z " fill="#D4E4FC" transform="translate(224,209)"/>
<path d="M0 0 C1.9587043 0.14076315 3.91696093 0.2877676 5.875 0.4375 C7.51082031 0.55931641 7.51082031 0.55931641 9.1796875 0.68359375 C12 1 12 1 14 2 C14 2.66 14 3.32 14 4 C12.41532272 3.71572583 10.8322943 3.42225182 9.25 3.125 C7.92742187 2.88136719 7.92742187 2.88136719 6.578125 2.6328125 C4.13052256 2.03203736 2.19400143 1.22002883 0 0 Z " fill="#D7E9FD" transform="translate(124,164)"/>
<path d="M0 0 C0 0.33 0 0.66 0 1 C-3.3 1.66 -6.6 2.32 -10 3 C-9.67 2.01 -9.34 1.02 -9 0 C-5.93109813 -1.53445094 -3.29905734 -0.54984289 0 0 Z " fill="#2E5FEB" transform="translate(131,232)"/>
<path d="M0 0 C0 1.98 0 3.96 0 6 C-0.66 6 -1.32 6 -2 6 C-3.38232443 4.37373596 -4.71937515 2.7074998 -6 1 C-3.92446352 0.4465236 -2.15634036 0 0 0 Z " fill="#4069E2" transform="translate(294,74)"/>
<path d="M0 0 C2.64 0.33 5.28 0.66 8 1 C4.81237635 3.12508244 2.73487777 3.5020163 -1 4 C-0.67 2.68 -0.34 1.36 0 0 Z " fill="#2E60EE" transform="translate(107,278)"/>
<path d="M0 0 C2.64 0 5.28 0 8 0 C8.33 0.66 8.66 1.32 9 2 C6.69 2.33 4.38 2.66 2 3 C1.34 2.01 0.68 1.02 0 0 Z " fill="#2C5FE8" transform="translate(158,250)"/>
<path d="M0 0 C2.64 0.33 5.28 0.66 8 1 C4.77208445 3.1519437 3.71599191 3.20086443 0 3 C0 2.01 0 1.02 0 0 Z " fill="#2D61E9" transform="translate(107,119)"/>
<path d="M0 0 C-0.33 0.99 -0.66 1.98 -1 3 C-2.98 3 -4.96 3 -7 3 C-7 2.34 -7 1.68 -7 1 C-4 0 -4 0 0 0 Z " fill="#F8FDEE" transform="translate(236,306)"/>
<path d="M0 0 C-6.25 3.125 -6.25 3.125 -11 2 C-11 1.67 -11 1.34 -11 1 C-3.57142857 -1.42857143 -3.57142857 -1.42857143 0 0 Z " fill="#DBE7FD" transform="translate(205,98)"/>
</svg>
