<?xml version="1.0" encoding="UTF-8"?>
<svg version="1.1" xmlns="http://www.w3.org/2000/svg" width="400" height="400">
<path d="M0 0 C0.98774414 0.23605957 1.97548828 0.47211914 2.99316406 0.71533203 C55.23533174 13.70468793 98.58404064 46.62801552 127 92 C127.56799316 92.89912109 127.56799316 92.89912109 128.14746094 93.81640625 C139.9753301 112.81485698 147.27528323 134.22662657 152 156 C152.26466064 157.13743652 152.26466064 157.13743652 152.53466797 158.29785156 C158.38980667 184.1904471 157.13326383 215.34860368 151 241 C150.76394043 241.98774414 150.52788086 242.97548828 150.28466797 243.99316406 C137.29531207 296.23533174 104.37198448 339.58404064 59 368 C58.40058594 368.37866211 57.80117188 368.75732422 57.18359375 369.14746094 C38.18514302 380.9753301 16.77337343 388.27528323 -5 393 C-6.13743652 393.26466064 -6.13743652 393.26466064 -7.29785156 393.53466797 C-33.1904471 399.38980667 -64.34860368 398.13326383 -90 392 C-90.98774414 391.76394043 -91.97548828 391.52788086 -92.99316406 391.28466797 C-145.23533174 378.29531207 -188.58404064 345.37198448 -217 300 C-217.37866211 299.40058594 -217.75732422 298.80117188 -218.14746094 298.18359375 C-229.9753301 279.18514302 -237.27528323 257.77337343 -242 236 C-242.17644043 235.24170898 -242.35288086 234.48341797 -242.53466797 233.70214844 C-248.38980667 207.8095529 -247.13326383 176.65139632 -241 151 C-240.76394043 150.01225586 -240.52788086 149.02451172 -240.28466797 148.00683594 C-227.29531207 95.76466826 -194.37198448 52.41595936 -149 24 C-148.10087891 23.43200684 -148.10087891 23.43200684 -147.18359375 22.85253906 C-128.18514302 11.0246699 -106.77337343 3.72471677 -85 -1 C-84.24170898 -1.17644043 -83.48341797 -1.35288086 -82.70214844 -1.53466797 C-56.8095529 -7.38980667 -25.65139632 -6.13326383 0 0 Z " fill="#0C0C4F" transform="translate(245,4)"/>
<path d="M0 0 C1.16402344 0.33 2.32804687 0.66 3.52734375 1 C16.48149886 4.89721055 27.9022143 10.91354877 38 20 C38.48355957 20.43441406 38.96711914 20.86882812 39.46533203 21.31640625 C48.96713436 29.97688746 55.52092695 39.30909032 61 51 C61 51.66 61 52.32 61 53 C60.07960938 53.43828125 59.15921875 53.8765625 58.2109375 54.328125 C27.32588474 69.58350663 8.81896649 100.748384 -9.96875 128.35546875 C-15.71296188 136.79364833 -21.60081296 145.04352139 -28 153 C-28.42748535 153.53189941 -28.8549707 154.06379883 -29.29541016 154.61181641 C-54.48508099 185.69992072 -88.91583636 210.97435372 -129.61572266 215.76855469 C-159.65539464 218.68454988 -189.28098599 209.55101725 -213 191 C-217.15470296 187.49659523 -221.10437548 183.78889508 -225 180 C-225.556875 179.46793945 -226.11375 178.93587891 -226.6875 178.38769531 C-230.97946835 174.21626132 -234.68222049 169.79995078 -238.25 165 C-238.765625 164.32710937 -239.28125 163.65421875 -239.8125 162.9609375 C-242.94666992 158.77665911 -245.05858299 154.84495218 -247 150 C-247.94371611 148.3541591 -248.92085647 146.72682031 -249.9375 145.125 C-257 133.58899626 -257 133.58899626 -257 128 C-255.47880907 128.26881752 -253.95808147 128.54025616 -252.4375 128.8125 C-251.42558594 128.99167969 -250.41367188 129.17085937 -249.37109375 129.35546875 C-247.10352678 129.78901284 -244.84489259 130.27186799 -242.59765625 130.80078125 C-219.5188376 136.08811104 -197.07089497 132.60430981 -176.33984375 121.1171875 C-170.37275076 117.33453908 -165.19945525 112.76211789 -160 108 C-158.90751953 107.01386719 -158.90751953 107.01386719 -157.79296875 106.0078125 C-151.45091634 99.98867518 -146.28934282 92.93027136 -141 86 C-140.38527832 85.19771973 -139.77055664 84.39543945 -139.13720703 83.56884766 C-132.7335277 75.2103776 -126.35471277 66.83407544 -120.06469727 58.38964844 C-98.96407686 30.09088042 -74.77915229 6.12858745 -39 -1 C-38.10152344 -1.18820313 -37.20304688 -1.37640625 -36.27734375 -1.5703125 C-24.6871146 -3.08988962 -11.27651104 -3.22666188 0 0 Z " fill="#F9F9F9" transform="translate(293,91)"/>
<path d="M0 0 C0.98774414 0.23605957 1.97548828 0.47211914 2.99316406 0.71533203 C55.23533174 13.70468793 98.58404064 46.62801552 127 92 C127.56799316 92.89912109 127.56799316 92.89912109 128.14746094 93.81640625 C139.9753301 112.81485698 147.27528323 134.22662657 152 156 C152.26466064 157.13743652 152.26466064 157.13743652 152.53466797 158.29785156 C158.38980667 184.1904471 157.13326383 215.34860368 151 241 C150.76394043 241.98774414 150.52788086 242.97548828 150.28466797 243.99316406 C137.29531207 296.23533174 104.37198448 339.58404064 59 368 C58.40058594 368.37866211 57.80117188 368.75732422 57.18359375 369.14746094 C38.18514302 380.9753301 16.77337343 388.27528323 -5 393 C-6.13743652 393.26466064 -6.13743652 393.26466064 -7.29785156 393.53466797 C-33.1904471 399.38980667 -64.34860368 398.13326383 -90 392 C-90.98774414 391.76394043 -91.97548828 391.52788086 -92.99316406 391.28466797 C-145.23533174 378.29531207 -188.58404064 345.37198448 -217 300 C-217.37866211 299.40058594 -217.75732422 298.80117188 -218.14746094 298.18359375 C-229.9753301 279.18514302 -237.27528323 257.77337343 -242 236 C-242.17644043 235.24170898 -242.35288086 234.48341797 -242.53466797 233.70214844 C-248.38980667 207.8095529 -247.13326383 176.65139632 -241 151 C-240.76394043 150.01225586 -240.52788086 149.02451172 -240.28466797 148.00683594 C-227.29531207 95.76466826 -194.37198448 52.41595936 -149 24 C-148.10087891 23.43200684 -148.10087891 23.43200684 -147.18359375 22.85253906 C-128.18514302 11.0246699 -106.77337343 3.72471677 -85 -1 C-84.24170898 -1.17644043 -83.48341797 -1.35288086 -82.70214844 -1.53466797 C-56.8095529 -7.38980667 -25.65139632 -6.13326383 0 0 Z M-187.27099609 69.07128906 C-196.01143558 78.8212851 -203.56198271 89.61375454 -210 101 C-210.53270508 101.92619141 -210.53270508 101.92619141 -211.07617188 102.87109375 C-235.4769035 145.58294633 -241.98516982 197.16064712 -229.26953125 244.6875 C-222.19196009 269.57122654 -211.30902883 292.81177168 -195 313 C-194.58669434 313.51481934 -194.17338867 314.02963867 -193.74755859 314.56005859 C-162.40161685 353.3799857 -117.19497288 379.89124005 -67.25390625 385.4921875 C-17.58063867 390.06895283 32.82206694 377.64983226 72 346 C72.51481934 345.58669434 73.02963867 345.17338867 73.56005859 344.74755859 C112.46197591 313.33541218 138.78113802 267.98901821 144.53125 217.94140625 C149.28719746 165.99529077 135.19982473 115.05873668 101.6875 74.70727539 C69.62730641 36.88104763 24.03032643 10.77999499 -25.87451172 6.2109375 C-87.82683721 2.02980883 -144.73184009 23.65932767 -187.27099609 69.07128906 Z " fill="#E9776A" transform="translate(245,4)"/>
<path d="M0 0 C1.65394775 0.00483398 1.65394775 0.00483398 3.34130859 0.00976562 C15.35193597 0.20730324 27.04560179 2.14211545 38.8125 4.4375 C38.8125 5.0975 38.8125 5.7575 38.8125 6.4375 C37.52279297 7.11232422 37.52279297 7.11232422 36.20703125 7.80078125 C6.38493973 23.84738013 -11.5896247 53.51076026 -30.15625 80.79296875 C-35.90046188 89.23114833 -41.78831296 97.48102139 -48.1875 105.4375 C-48.61498535 105.96939941 -49.0424707 106.50129883 -49.48291016 107.04931641 C-74.67258099 138.13742072 -109.10333636 163.41185372 -149.80322266 168.20605469 C-179.84289464 171.12204988 -209.46848599 161.98851725 -233.1875 143.4375 C-237.34220296 139.93409523 -241.29187548 136.22639508 -245.1875 132.4375 C-245.7429248 131.90761475 -246.29834961 131.37772949 -246.87060547 130.83178711 C-251.22141391 126.6076022 -254.95264491 122.11645022 -258.5625 117.25 C-259.09488281 116.55197266 -259.62726563 115.85394531 -260.17578125 115.13476562 C-260.93568359 114.11866211 -260.93568359 114.11866211 -261.7109375 113.08203125 C-262.16388184 112.47721924 -262.61682617 111.87240723 -263.08349609 111.24926758 C-264.25962128 109.31914264 -264.75741184 107.64542783 -265.1875 105.4375 C-262.46195301 108.08288384 -259.93843758 110.72448482 -257.5625 113.6875 C-244.36841379 129.20995437 -223.49228972 140.29915332 -203.1875 142.4375 C-184.23828518 143.96560117 -166.30646461 140.8480221 -149.1875 132.4375 C-148.60693848 132.15535645 -148.02637695 131.87321289 -147.42822266 131.58251953 C-135.03981586 125.49625154 -124.51695427 117.80213959 -114.36328125 108.42578125 C-112.61748626 106.83043179 -110.85461898 105.33814268 -109 103.875 C-105.32949882 100.69389898 -102.30914751 97.14872308 -99.1875 93.4375 C-98.07568359 92.15746094 -98.07568359 92.15746094 -96.94140625 90.8515625 C-85.84370218 77.88944415 -76.67166215 63.8545203 -68.00390625 49.18359375 C-55.93388297 28.76149066 -42.86045199 8.39589072 -18.71875 1.8828125 C-12.41131564 0.33655056 -6.47554375 -0.06015368 0 0 Z " fill="#EB796B" transform="translate(313.1875,138.5625)"/>
<path d="M0 0 C6.25094008 2.82261442 10.80257601 8.10883876 13.515625 14.34765625 C15.25985955 21.08853265 14.36296717 27.04804207 11.515625 33.34765625 C7.99157421 39.24734511 3.14701939 42.63665526 -3.484375 44.34765625 C-10.86199233 45.2905138 -17.43073674 44.95544787 -23.484375 40.34765625 C-28.55143226 35.67646284 -31.03682929 31.1447283 -31.85546875 24.19921875 C-32.00629457 16.87085808 -31.50621764 11.88086145 -26.484375 6.34765625 C-18.96692215 -1.15057038 -10.34279717 -2.71579737 0 0 Z " fill="#E9776A" transform="translate(310.484375,264.65234375)"/>
<path d="M0 0 C1.67542976 0.28604898 3.34385343 0.61781233 5 1 C5.34933594 2.19238281 5.69867188 3.38476562 6.05859375 4.61328125 C6.51820045 6.17969593 6.97783745 7.74610171 7.4375 9.3125 C7.66759766 10.09818359 7.89769531 10.88386719 8.13476562 11.69335938 C8.35712891 12.45068359 8.57949219 13.20800781 8.80859375 13.98828125 C9.01282959 14.68477783 9.21706543 15.38127441 9.42749023 16.09887695 C9.92222612 17.74173766 10.45743619 19.37230856 11 21 C12.68881684 21.88950363 12.68881684 21.88950363 14.8125 22.4375 C15.61171875 22.67984375 16.4109375 22.9221875 17.234375 23.171875 C18.14703125 23.44515625 19.0596875 23.7184375 20 24 C22.18958627 24.72287776 24.37708032 25.45212181 26.5625 26.1875 C27.59503906 26.53167969 28.62757813 26.87585938 29.69140625 27.23046875 C30.45324219 27.48441406 31.21507812 27.73835938 32 28 C31.505 30.475 31.505 30.475 31 33 C29.83082031 33.29132813 28.66164062 33.58265625 27.45703125 33.8828125 C25.90855119 34.29574052 24.3603903 34.70986671 22.8125 35.125 C22.04357422 35.31320313 21.27464844 35.50140625 20.48242188 35.6953125 C14.96754318 37.21012896 12.17242829 39.00809078 9 44 C7.83074932 46.73892505 6.97851495 49.50659824 6.1875 52.375 C5.97158203 53.11105469 5.75566406 53.84710938 5.53320312 54.60546875 C5.00887824 56.39982502 4.50253711 58.19942024 4 60 C2.35 60 0.7 60 -1 60 C-1.30292969 58.83082031 -1.60585937 57.66164062 -1.91796875 56.45703125 C-2.34026449 54.90861353 -2.76349096 53.36044944 -3.1875 51.8125 C-3.48237305 50.65911133 -3.48237305 50.65911133 -3.78320312 49.48242188 C-5.19563198 44.41940765 -6.65679035 41.25740724 -11 38 C-13.86763701 36.64810897 -16.79377125 35.64650938 -19.8125 34.6875 C-20.60076172 34.42388672 -21.38902344 34.16027344 -22.20117188 33.88867188 C-24.12973323 33.24581809 -26.06430532 32.62104427 -28 32 C-28 30.68 -28 29.36 -28 28 C-22.36387937 25.68201302 -16.76309642 23.5187995 -10.91015625 21.80859375 C-8.04765612 20.59686057 -6.4151476 18.99868217 -5.21630859 16.11474609 C-4.9352124 15.07954834 -4.9352124 15.07954834 -4.6484375 14.0234375 C-4.33132812 12.89421875 -4.33132812 12.89421875 -4.0078125 11.7421875 C-3.79898438 10.96101563 -3.59015625 10.17984375 -3.375 9.375 C-1.10472973 1.10472973 -1.10472973 1.10472973 0 0 Z " fill="#F5F5F7" transform="translate(108,94)"/>
</svg>
