<?xml version="1.0" encoding="UTF-8"?>
<svg version="1.1" xmlns="http://www.w3.org/2000/svg" width="400" height="400">
<path d="M0 0 C132 0 264 0 400 0 C400 132 400 264 400 400 C268 400 136 400 0 400 C0 268 0 136 0 0 Z " fill="#FEFEFE" transform="translate(0,0)"/>
<path d="M0 0 C0 7.92 0 15.84 0 24 C-4.83398438 26.5390625 -4.83398438 26.5390625 -9.66796875 29.078125 C-15.22096433 32.28102515 -19.51717915 35.4551509 -21.56713867 41.73828125 C-22.14202043 44.74206274 -22.14705769 47.62916436 -22.17578125 50.6875 C-22.19543856 52.0296414 -22.21640478 53.37176413 -22.23852539 54.71386719 C-22.25521774 55.76350647 -22.25521774 55.76350647 -22.27224731 56.83435059 C-22.97489712 94.63786926 -35.30723551 126.57153116 -62.5546875 153.52734375 C-83.61352623 173.33486018 -111.01169686 185.76949947 -140 187 C-140.79100098 187.03399902 -141.58200195 187.06799805 -142.39697266 187.10302734 C-170.27377538 188.13783611 -197.15391237 181.59382992 -220 165 C-220 164.34 -220 163.68 -220 163 C-214.66666667 160.33333333 -209.33333333 157.66666667 -204 155 C-203.2994751 154.62520508 -202.5989502 154.25041016 -201.87719727 153.86425781 C-200 153 -200 153 -198.07421875 153.2265625 C-195.58540007 154.15459658 -193.21097866 155.2328673 -190.8125 156.375 C-166.55945112 167.48034344 -139.35579076 168.12352775 -114.125 159.875 C-101.16510889 154.98197989 -87.98757792 148.44619483 -78.3671875 138.2734375 C-77 137 -77 137 -75 137 C-74.74476563 136.42121094 -74.48953125 135.84242188 -74.2265625 135.24609375 C-72.8760794 132.77307534 -71.32815919 131.08958354 -69.375 129.0625 C-48.20474075 105.59528676 -44.48192645 77.31925827 -45 47 C-46.15113281 47.61746094 -47.30226563 48.23492187 -48.48828125 48.87109375 C-56.74199437 53.27120567 -65.01893694 57.55329638 -73.5 61.5 C-80.81284651 64.90641786 -87.96602855 68.54797041 -95.0859375 72.33984375 C-100.02280866 74.96740162 -104.98679696 77.52135782 -110 80 C-115.8819449 82.91102666 -121.70040372 85.92829087 -127.5 89 C-135.93716417 93.46509239 -144.4459594 97.76419926 -153 102 C-162.72047638 106.8174795 -172.42003063 111.65769194 -182 116.75 C-190.53642212 121.28687788 -199.1765321 125.60736158 -207.83203125 129.91088867 C-216.03123571 133.98964175 -224.17671668 138.15229488 -232.26171875 142.453125 C-238.62459898 145.82889392 -245.06051674 149.04556922 -251.51269531 152.24658203 C-257.3014771 155.12742135 -263.03686568 158.09714932 -268.75 161.125 C-274.82877053 164.34283821 -280.92179021 167.52669467 -287.0625 170.625 C-288.07231934 171.13957764 -288.07231934 171.13957764 -289.10253906 171.66455078 C-293.76370139 174 -293.76370139 174 -296 174 C-296.4596363 168.16049753 -296.7231293 162.34257067 -296.58984375 156.484375 C-296.56071899 155.04916504 -296.56071899 155.04916504 -296.53100586 153.58496094 C-295.86589326 150.34716221 -294.72508679 149.1867324 -292.1875 147.125 C-290.14536989 146.35992027 -288.07814918 145.66101313 -286 145 C-283.7979648 144.01908379 -281.63486612 142.97171282 -279.46679688 141.91796875 C-277.0078621 140.72345779 -274.53293575 139.56789502 -272.0546875 138.4140625 C-266.38786897 135.74029722 -260.86574855 132.81997782 -255.33813477 129.87207031 C-249.27397846 126.64694314 -243.15268301 123.5525022 -237 120.5 C-230.28647641 117.16673235 -223.615839 113.77311602 -217 110.25 C-208.00246419 105.46162024 -198.88378896 100.92352477 -189.75897217 96.38461304 C-181.52944943 92.28920626 -173.35386348 88.12236207 -165.26953125 83.74609375 C-158.91916359 80.35467876 -152.45067702 77.19516831 -146 74 C-131.56066675 66.84337413 -117.23677343 59.50062566 -103.0390625 51.875 C-93.4555636 46.7291804 -83.76056983 41.84026233 -74.01171875 37.01611328 C-66.45472103 33.27301456 -58.94200918 29.46754656 -51.5 25.5 C-44.23309828 21.62798095 -36.90111322 17.91140448 -29.5234375 14.25585938 C-26.42807835 12.71536717 -23.3390646 11.16245007 -20.25 9.609375 C-18.45319347 8.7069966 -16.6562873 7.80481693 -14.85934448 6.90270996 C-13.07890427 6.00824128 -11.29933549 5.11203871 -9.51977539 4.21582031 C-8.43172607 3.67022461 -7.34367676 3.12462891 -6.22265625 2.5625 C-4.74937866 1.82193359 -4.74937866 1.82193359 -3.24633789 1.06640625 C-1 0 -1 0 0 0 Z " fill="#262223" transform="translate(348,140)"/>
<path d="M0 0 C0.804375 0.69996094 0.804375 0.69996094 1.625 1.4140625 C1.625 2.0740625 1.625 2.7340625 1.625 3.4140625 C-17.29807692 12.87560096 -17.29807692 12.87560096 -22.375 12.4140625 C-24.487302 11.58535553 -26.50286206 10.60592712 -28.55078125 9.62890625 C-32.11197352 8.09705176 -35.73670313 6.93405806 -39.4375 5.7890625 C-40.0979834 5.58321533 -40.7584668 5.37736816 -41.43896484 5.1652832 C-43.4123467 4.56183017 -45.39238582 3.98635843 -47.375 3.4140625 C-48.60605469 3.0428125 -49.83710938 2.6715625 -51.10546875 2.2890625 C-76.01790491 -3.75196847 -103.35175948 3.86190224 -124.84375 16.4753418 C-137.40288509 24.2480906 -148.49870629 34.93568494 -156.375 47.4140625 C-156.96410156 48.29835938 -157.55320313 49.18265625 -158.16015625 50.09375 C-161.93893996 56.08997381 -164.69462081 62.3046998 -167.1875 68.9140625 C-167.47761963 69.67267578 -167.76773926 70.43128906 -168.06665039 71.21289062 C-172.09787562 82.3876229 -172.66003312 93.3708524 -172.5 105.1640625 C-172.49097656 106.44539063 -172.48195312 107.72671875 -172.47265625 109.046875 C-172.44935327 112.16947471 -172.41664054 115.29166275 -172.375 118.4140625 C-150.26402838 108.29548227 -128.7410489 96.91030792 -107.28930664 85.47314453 C-103.5611204 83.50046841 -99.7999899 81.60071872 -96.0234375 79.72265625 C-95.33820511 79.38092377 -94.65297272 79.03919128 -93.94697571 78.68710327 C-91.75679946 77.59511852 -89.56596778 76.50445814 -87.375 75.4140625 C-63.20503601 63.45647917 -63.20503601 63.45647917 -39.27026367 51.03955078 C-31.76097078 47.0451915 -24.13777973 43.27950371 -16.52246094 39.49291992 C-9.42907328 35.96408173 -2.36304878 32.39793643 4.625 28.6640625 C14.6526795 23.3110782 24.84437395 18.28608322 35.01992798 13.222229 C44.71111498 8.39798447 54.38358617 3.5546916 63.90820312 -1.59375 C68.75029792 -4.19692232 73.55611422 -6.33309938 78.625 -8.5859375 C78.625 -0.6659375 78.625 7.2540625 78.625 15.4140625 C68.25 20.5390625 68.25 20.5390625 65.04541016 22.11376953 C59.48980952 24.87559067 54.16989043 27.85650189 48.88183594 31.09814453 C45.88121611 32.84774869 42.84544728 34.11364436 39.625 35.4140625 C21.81928124 43.94322161 4.31707579 53.24111582 -13.1081543 62.52001953 C-21.14777544 66.79915875 -29.28644873 70.78962743 -37.5300293 74.66088867 C-44.31477202 77.86394028 -50.95889502 81.28668311 -57.58007812 84.81347656 C-62.31285559 87.33355249 -67.06820574 89.78841386 -71.875 92.1640625 C-79.06471898 95.72566192 -86.19134239 99.4050033 -93.3125 103.1015625 C-95.045 104.00056274 -95.045 104.00056274 -96.8125 104.91772461 C-102.54889036 107.89748718 -108.28018818 110.88659096 -114.00390625 113.890625 C-124.21740123 119.24254603 -134.44584436 124.46475281 -144.90820312 129.3137207 C-150.72695781 132.03638995 -156.19828825 135.13483353 -161.73828125 138.390625 C-166.66754575 141.20617034 -171.83536699 143.52337543 -176.98071289 145.91137695 C-182.8471246 148.64950511 -188.59609329 151.56332834 -194.3125 154.6015625 C-195.10156738 155.02083008 -195.89063477 155.44009766 -196.70361328 155.87207031 C-198.22142885 156.67905876 -199.73917263 157.48618226 -201.25683594 158.29345703 C-204.30272782 159.90487286 -207.36420824 161.48041214 -210.4375 163.0390625 C-211.81615234 163.73902344 -211.81615234 163.73902344 -213.22265625 164.453125 C-215.375 165.4140625 -215.375 165.4140625 -217.375 165.4140625 C-217.375 157.8240625 -217.375 150.2340625 -217.375 142.4140625 C-214.095625 140.650625 -214.095625 140.650625 -210.75 138.8515625 C-202.82596332 134.41690146 -197.95471507 130.38296437 -195.375 121.4140625 C-195.07637426 118.06948786 -195.07637426 118.06948786 -195.1015625 114.53125 C-195.08464689 113.19530071 -195.06678841 111.8593631 -195.0480957 110.5234375 C-195.04105621 109.83185547 -195.03401672 109.14027344 -195.02676392 108.42773438 C-194.5795535 72.69169526 -183.57547509 41.42256886 -158.375 15.4140625 C-115.75463449 -25.77066965 -49.68246801 -33.17612173 0 0 Z " fill="#252223" transform="translate(269.375,93.5859375)"/>
<path d="M0 0 C2.6875 0.875 2.6875 0.875 5 2 C5 3.65 5 5.3 5 7 C4.67 5.68 4.34 4.36 4 3 C-2.435 5.97 -2.435 5.97 -9 9 C-9 6 -9 6 -8 4 C-6.34561387 3.30341637 -4.67745682 2.63903117 -3 2 C-2.01 1.34 -1.02 0.68 0 0 Z " fill="#2C2A2B" transform="translate(299,184)"/>
<path d="M0 0 C0.66 0.33 1.32 0.66 2 1 C1.51789063 1.39832031 1.03578125 1.79664063 0.5390625 2.20703125 C-0.09257812 2.73683594 -0.72421875 3.26664062 -1.375 3.8125 C-2.00148437 4.33457031 -2.62796875 4.85664063 -3.2734375 5.39453125 C-5.2221048 7.08225739 -5.2221048 7.08225739 -7 10 C-7.33 9.34 -7.66 8.68 -8 8 C-8.61875 8.350625 -9.2375 8.70125 -9.875 9.0625 C-10.57625 9.371875 -11.2775 9.68125 -12 10 C-12.66 9.67 -13.32 9.34 -14 9 C-14 8.34 -14 7.68 -14 7 C-11.71296692 5.80274117 -9.42115138 4.61702982 -7.125 3.4375 C-6.14853516 2.92413086 -6.14853516 2.92413086 -5.15234375 2.40039062 C-3.46470143 1.53917109 -1.73420407 0.76313297 0 0 Z " fill="#363435" transform="translate(142,296)"/>
<path d="M0 0 C0.33 0.99 0.66 1.98 1 3 C-0.62249941 3.83819158 -2.24808497 4.6704116 -3.875 5.5 C-5.23238281 6.19609375 -5.23238281 6.19609375 -6.6171875 6.90625 C-9 8 -9 8 -11 8 C-9.54205607 2.41121495 -9.54205607 2.41121495 -7.1875 0.625 C-4.69940916 -0.0858831 -2.57533152 -0.14307397 0 0 Z " fill="#2D2B2C" transform="translate(270,94)"/>
<path d="M0 0 C0.66 0.33 1.32 0.66 2 1 C2.625 3.0625 2.625 3.0625 3 5 C-1.04141194 5.63394697 -4.9065307 6.12404452 -9 6 C-7.73295613 3.46591226 -6.56876843 3.06790028 -4.0625 1.8125 C-3.35222656 1.44769531 -2.64195313 1.08289063 -1.91015625 0.70703125 C-1.27980469 0.47371094 -0.64945313 0.24039062 0 0 Z " fill="#3F3D3E" transform="translate(70,281)"/>
<path d="M0 0 C-1 3 -1 3 -3 4 C-3.66 4.66 -4.32 5.32 -5 6 C-8.625 6.125 -8.625 6.125 -12 6 C-8.59780735 3.25207517 -4.51535412 0 0 0 Z " fill="#363435" transform="translate(114,260)"/>
<path d="M0 0 C0 0.99 0 1.98 0 3 C-5.75 6 -5.75 6 -8 6 C-8 4.68 -8 3.36 -8 2 C-5.09399739 0.74335022 -3.20395416 0 0 0 Z " fill="#2E2A2B" transform="translate(131,217)"/>
<path d="M0 0 C1.32 0 2.64 0 4 0 C4 0.99 4 1.98 4 3 C3.01 3 2.02 3 1 3 C1 3.66 1 4.32 1 5 C-1 6.625 -1 6.625 -3 8 C-3.33 7.01 -3.66 6.02 -4 5 C-2 2 -2 2 0 0 Z " fill="#201C1D" transform="translate(90,272)"/>
<path d="M0 0 C0.33 0 0.66 0 1 0 C1.375 3.25 1.375 3.25 1 7 C-2 9.4375 -2 9.4375 -5 11 C-3.77782954 6.95743617 -2.37245704 3.50711041 0 0 Z " fill="#383536" transform="translate(93,132)"/>
<path d="M0 0 C0.66 0.33 1.32 0.66 2 1 C-3.75 6 -3.75 6 -6 6 C-7.33783393 5.68521554 -8.67203709 5.35412344 -10 5 C-8.38007835 4.13624104 -6.75388139 3.28424146 -5.125 2.4375 C-4.22007812 1.96183594 -3.31515625 1.48617187 -2.3828125 0.99609375 C-1.20332031 0.50302734 -1.20332031 0.50302734 0 0 Z " fill="#E6E5E6" transform="translate(172,198)"/>
<path d="M0 0 C1 4 1 4 0.0625 6.25 C-0.4634375 7.11625 -0.4634375 7.11625 -1 8 C-2.32 7.67 -3.64 7.34 -5 7 C-3.35 4.69 -1.7 2.38 0 0 Z " fill="#3D3A3B" transform="translate(102,119)"/>
<path d="M0 0 C0 1.32 0 2.64 0 4 C-1.65 4 -3.3 4 -5 4 C-5.33 4.66 -5.66 5.32 -6 6 C-6 5.34 -6 4.68 -6 4 C-6.66 3.67 -7.32 3.34 -8 3 C-2.25 0 -2.25 0 0 0 Z " fill="#E2E2E2" transform="translate(156,207)"/>
<path d="M0 0 C0 1.65 0 3.3 0 5 C-0.33 3.68 -0.66 2.36 -1 1 C-2.65 1.33 -4.3 1.66 -6 2 C-6.66 1.01 -7.32 0.02 -8 -1 C-4.37673261 -2.2077558 -3.35853631 -1.54311128 0 0 Z " fill="#363334" transform="translate(304,186)"/>
<path d="M0 0 C0.66 0 1.32 0 2 0 C2.33 1.65 2.66 3.3 3 5 C1.02 5.66 -0.96 6.32 -3 7 C-1.125 1.125 -1.125 1.125 0 0 Z " fill="#2C292A" transform="translate(308,123)"/>
<path d="M0 0 C-0.99 0.495 -0.99 0.495 -2 1 C-2 1.66 -2 2.32 -2 3 C-3.98 3.66 -5.96 4.32 -8 5 C-7.75 3.125 -7.75 3.125 -7 1 C-4.09342573 -1.03460199 -3.47133392 -1.15711131 0 0 Z " fill="#E7E5E6" transform="translate(294,138)"/>
<path d="M0 0 C1.32 0.66 2.64 1.32 4 2 C2.35 3.32 0.7 4.64 -1 6 C-1.625 4.125 -1.625 4.125 -2 2 C-1.34 1.34 -0.68 0.68 0 0 Z " fill="#353132" transform="translate(132,114)"/>
<path d="M0 0 C0.99 0 1.98 0 3 0 C1.60667426 3.36720387 0.0210714 4.9859524 -3 7 C-3.33 6.34 -3.66 5.68 -4 5 C-3.34 5 -2.68 5 -2 5 C-2 4.01 -2 3.02 -2 2 C-1.34 2 -0.68 2 0 2 C0 1.34 0 0.68 0 0 Z " fill="#E5E3E4" transform="translate(116,101)"/>
<path d="M0 0 C-1.32 1.32 -2.64 2.64 -4 4 C-4.99 3.67 -5.98 3.34 -7 3 C-7 2.34 -7 1.68 -7 1 C-3.375 -1.125 -3.375 -1.125 0 0 Z " fill="#474445" transform="translate(135,302)"/>
<path d="M0 0 C0 0.66 0 1.32 0 2 C-0.66 2 -1.32 2 -2 2 C-2.66 3.32 -3.32 4.64 -4 6 C-4.99 5.01 -5.98 4.02 -7 3 C-2.25 0 -2.25 0 0 0 Z " fill="#444041" transform="translate(231,145)"/>
<path d="M0 0 C0.33 1.32 0.66 2.64 1 4 C-0.65 4.33 -2.3 4.66 -4 5 C-2.25 1.125 -2.25 1.125 0 0 Z " fill="#272626" transform="translate(75,279)"/>
<path d="M0 0 C0.99 0.33 1.98 0.66 3 1 C3 1.66 3 2.32 3 3 C0.69 3.66 -1.62 4.32 -4 5 C-2.68 3.35 -1.36 1.7 0 0 Z " fill="#3A3738" transform="translate(279,269)"/>
<path d="M0 0 C0.33 0.66 0.66 1.32 1 2 C-1.31 3.32 -3.62 4.64 -6 6 C-6.66 5.34 -7.32 4.68 -8 4 C-5.36 2.68 -2.72 1.36 0 0 Z " fill="#393637" transform="translate(263,128)"/>
<path d="M0 0 C0 0.33 0 0.66 0 1 C-1.98 1 -3.96 1 -6 1 C-6 1.66 -6 2.32 -6 3 C-8.31 2.67 -10.62 2.34 -13 2 C-13 1.67 -13 1.34 -13 1 C-8.59085217 -0.10228696 -4.51617599 -0.07654536 0 0 Z " fill="#575556" transform="translate(186,74)"/>
</svg>
