<?xml version="1.0" encoding="UTF-8"?>
<svg version="1.1" xmlns="http://www.w3.org/2000/svg" width="400" height="400">
<path d="M0 0 C132 0 264 0 400 0 C400 132 400 264 400 400 C268 400 136 400 0 400 C0 268 0 136 0 0 Z " fill="#30A2E5" transform="translate(0,0)"/>
<path d="M0 0 C3.17596441 2.19292781 3.82453807 3.05032895 4.625 6.8125 C5.07422571 14.6101126 4.12186219 22.22546829 3.0625 29.9375 C2.88904053 31.22011719 2.71558105 32.50273437 2.53686523 33.82421875 C0.41226505 49.18719126 -2.38195354 64.43909524 -5.1184082 79.7021637 C-6.18793547 85.69313665 -7.18008692 91.69382754 -8.13867188 97.70361328 C-10.40573496 111.83645225 -12.98414185 125.91441699 -15.6578064 139.97543335 C-16.08957296 142.25864587 -16.51534967 144.54300037 -16.9347229 146.82852173 C-21.77117137 173.09935663 -21.77117137 173.09935663 -27.375 179.8125 C-32.0037005 182.52612329 -35.00358404 183.59222167 -40.375 182.8125 C-48.5524743 179.74594714 -55.27408238 174.84315081 -62.03125 169.44921875 C-65.3532642 166.80077023 -68.77994599 164.324793 -72.25 161.875 C-78.30631993 157.58437345 -84.30786596 153.22561564 -90.28125 148.8203125 C-93.30968048 146.58812443 -96.35492778 144.38047096 -99.40625 142.1796875 C-101.12502086 140.93232041 -102.84377111 139.68492491 -104.5625 138.4375 C-105.783927 137.56303223 -105.783927 137.56303223 -107.0300293 136.67089844 C-117.55788626 129.0002079 -117.55788626 129.0002079 -118.875 122.25 C-117.18688576 110.64421458 -101.01628066 98.92599119 -92.3984375 91.6171875 C-88.86340996 88.4643251 -85.58917963 85.04388877 -82.28125 81.65625 C-80.17312684 79.54404349 -77.97728412 77.57845943 -75.71484375 75.6328125 C-70.41030081 71.03445487 -65.42580569 66.1239522 -60.4375 61.1875 C-59.95756592 60.72214844 -59.47763184 60.25679687 -58.9831543 59.77734375 C-57.57416175 58.41093261 -56.17943861 57.02985565 -54.78515625 55.6484375 C-53.96152588 54.83938965 -53.13789551 54.0303418 -52.28930664 53.19677734 C-50.23996093 50.64430824 -49.70360759 49.03135256 -49.375 45.8125 C-54.36878073 45.42380385 -56.82019591 46.29283039 -60.91796875 49.1171875 C-62.50847046 50.19685791 -62.50847046 50.19685791 -64.13110352 51.29833984 C-65.27499114 52.09459901 -66.41878757 52.89098921 -67.5625 53.6875 C-68.75803551 54.50487915 -69.95458729 55.32077365 -71.15209961 56.13525391 C-73.64605292 57.83316161 -76.13548241 59.53741966 -78.62207031 61.24609375 C-83.9537679 64.90199666 -89.3403743 68.4750182 -94.72610474 72.05059814 C-97.54510818 73.92329834 -100.36021838 75.80181851 -103.17578125 77.6796875 C-106.96484375 80.20572917 -110.75390625 82.73177083 -114.54296875 85.2578125 C-115.31833984 85.7748877 -116.09371094 86.29196289 -116.89257812 86.82470703 C-118.35291226 87.79794371 -119.81382681 88.77031019 -121.27539062 89.74169922 C-124.69433871 92.01537995 -128.10118865 94.30408002 -131.48828125 96.625 C-150.11177328 109.34957645 -150.11177328 109.34957645 -163.375 107.8125 C-168.48022785 106.81042856 -173.4169721 105.37089216 -178.375 103.8125 C-179.22433105 103.54985352 -180.07366211 103.28720703 -180.94873047 103.01660156 C-183.72128515 102.15231296 -186.48655017 101.26794899 -189.25 100.375 C-190.1174585 100.09906006 -190.98491699 99.82312012 -191.87866211 99.53881836 C-205.01106883 95.17643117 -205.01106883 95.17643117 -209.375 90.8125 C-210.30598761 85.90365625 -210.30598761 85.90365625 -209.375 82.8125 C-203.29056643 76.93020708 -195.2356648 73.72200294 -187.5 70.625 C-185.19883075 69.67802564 -182.89806343 68.7300741 -180.59765625 67.78125 C-179.41316895 67.2965625 -178.22868164 66.811875 -177.00830078 66.3125 C-170.95713323 63.81428918 -164.9492544 61.21628052 -158.9375 58.625 C-151.20091225 55.30050785 -143.45693082 51.99696409 -135.6875 48.75 C-126.11986819 44.74712912 -116.64069819 40.54582409 -107.15234375 36.359375 C-89.80466091 28.70656222 -89.80466091 28.70656222 -81.5 25.5625 C-75.15080351 23.15632529 -68.88941069 20.55577473 -62.625 17.9375 C-61.57666992 17.50042725 -60.52833984 17.06335449 -59.44824219 16.61303711 C-54.89707591 14.71318321 -50.34959529 12.80696949 -45.8203125 10.85546875 C-37.93646154 7.48411571 -29.96244322 4.54452912 -21.8125 1.875 C-20.89581543 1.56796143 -19.97913086 1.26092285 -19.03466797 0.94458008 C-12.4045261 -1.16357411 -6.76044709 -2.37867583 0 0 Z " fill="#FCFEFD" transform="translate(285.375,123.1875)"/>
<path d="M0 0 C0.33 0 0.66 0 1 0 C1.22126178 2.45779976 1.42750395 4.91527648 1.625 7.375 C1.68945312 8.07367188 1.75390625 8.77234375 1.8203125 9.4921875 C1.96119739 11.32369111 1.98761659 13.16312748 2 15 C1.34 15.66 0.68 16.32 0 17 C-0.60466619 19.6327571 -1.11767994 22.21549382 -1.5625 24.875 C-2.93438699 32.74048541 -2.93438699 32.74048541 -3.53442383 35.11376953 C-4.63284479 39.56390082 -4.4489548 44.65313559 -3 49 C-3.99 49 -4.98 49 -6 49 C-5.96519531 49.73605469 -5.93039062 50.47210938 -5.89453125 51.23046875 C-5.86746094 52.20628906 -5.84039062 53.18210938 -5.8125 54.1875 C-5.77769531 55.15042969 -5.74289062 56.11335938 -5.70703125 57.10546875 C-6 60 -6 60 -7.4375 62.375 C-9.4413301 65.74143457 -9.78905085 68.99250583 -10.1875 72.8125 C-10.26935547 73.50537109 -10.35121094 74.19824219 -10.43554688 74.91210938 C-10.63424293 76.60686984 -10.81859203 78.30330194 -11 80 C-11.66 80 -12.32 80 -13 80 C-12.85820312 81.09957031 -12.71640625 82.19914062 -12.5703125 83.33203125 C-11.51453615 93.20046773 -11.81284283 99.69665574 -18 108 C-18.66 108 -19.32 108 -20 108 C-19.82778931 107.14680176 -19.82778931 107.14680176 -19.65209961 106.27636719 C-18.35418009 99.8368603 -17.06811378 93.39504079 -15.78710938 86.95214844 C-15.26237737 84.31424894 -14.7348228 81.67693632 -14.20507812 79.04003906 C-8.93557105 52.78278808 -4.39861624 26.4158183 0 0 Z " fill="#50A5D3" transform="translate(282,187)"/>
<path d="M0 0 C0.69140625 1.75390625 0.69140625 1.75390625 1 4 C-0.22265625 5.96484375 -0.22265625 5.96484375 -2.0625 7.9375 C-2.70445312 8.62714844 -3.34640625 9.31679687 -4.0078125 10.02734375 C-6.55094478 12.54554336 -9.17917769 14.79838258 -12 17 C-12 16.01 -12 15.02 -12 14 C-16.32734391 11.77076223 -19.28400182 12.07529447 -24 13 C-20.72491495 9.44791771 -17.14422139 6.86974728 -13.125 4.25 C-12.52558594 3.83878906 -11.92617187 3.42757812 -11.30859375 3.00390625 C-7.37986701 0.43872892 -4.67976217 -0.48658078 0 0 Z " fill="#3DA0DB" transform="translate(236,168)"/>
<path d="M0 0 C0.66 0.33 1.32 0.66 2 1 C-6.28897563 4.92870658 -14.6649593 8.57454777 -23.12817383 12.10742188 C-27.28221105 13.84494979 -31.41269896 15.60914578 -35.5 17.5 C-40.64461127 19.87255449 -45.84769198 22.09968829 -51.0625 24.3125 C-51.90941406 24.67472656 -52.75632813 25.03695312 -53.62890625 25.41015625 C-54.42296875 25.7453125 -55.21703125 26.08046875 -56.03515625 26.42578125 C-57.10842163 26.88078003 -57.10842163 26.88078003 -58.20336914 27.3449707 C-60 28 -60 28 -62 28 C-62 27.34 -62 26.68 -62 26 C-60.02 25.67 -58.04 25.34 -56 25 C-55.87625 24.38125 -55.7525 23.7625 -55.625 23.125 C-55 21 -55 21 -53 19 C-50.66666667 19 -48.33333333 19 -46 19 C-43.27898048 18.46814278 -40.67322751 17.75037965 -38 17 C-38 16.34 -38 15.68 -38 15 C-37.175 14.7525 -36.35 14.505 -35.5 14.25 C-32.16736608 13.0597736 -29.17239506 11.63348648 -26.03515625 10.01953125 C-23.0785638 8.5383976 -20.05187206 7.27161336 -17 6 C-17 5.34 -17 4.68 -17 4 C-14 3 -14 3 -10.75 3.125 C-7.41050729 3.01368358 -6.06808927 2.76654014 -3.1875 1.4375 C-2.135625 0.963125 -1.08375 0.48875 0 0 Z " fill="#4DA2D3" transform="translate(193,152)"/>
<path d="M0 0 C0.495 0.99 0.495 0.99 1 2 C0.34 2 -0.32 2 -1 2 C-1 2.66 -1 3.32 -1 4 C-0.01 4.33 0.98 4.66 2 5 C-1.01031744 5.93423645 -1.86650268 6.04449911 -5 5 C-5.433125 6.2065625 -5.433125 6.2065625 -5.875 7.4375 C-7 10 -7 10 -9 11 C-10.99960012 11.039992 -13.00047242 11.04346799 -15 11 C-15 11.66 -15 12.32 -15 13 C-21.7609472 15.57559893 -28.83557702 15.63188166 -36 15 C-36.66 14.34 -37.32 13.68 -38 13 C-40.74741529 12.45051694 -43.49431673 12.1098844 -46.2734375 11.7578125 C-49.50754599 10.85893421 -50.84693819 9.52040885 -53 7 C-51.89140625 7.27714844 -50.7828125 7.55429688 -49.640625 7.83984375 C-48.58488281 8.1037793 -48.58488281 8.1037793 -47.5078125 8.37304688 C-46.01822917 8.74544271 -44.52864583 9.11783854 -43.0390625 9.49023438 C-41.97558594 9.75610352 -41.97558594 9.75610352 -40.890625 10.02734375 C-38.89700582 10.52574854 -36.90408819 11.02480323 -34.91455078 11.53930664 C-24.18411685 14.12134296 -15.99755701 10.38296365 -7 5 C-4.55611897 3.4202753 -2.29010059 1.79936475 0 0 Z " fill="#48A2D4" transform="translate(155,218)"/>
<path d="M0 0 C2 3 2 3 1.75 5.125 C1 7 1 7 -1 8 C-1.309375 8.825 -1.61875 9.65 -1.9375 10.5 C-2.288125 11.325 -2.63875 12.15 -3 13 C-6 14 -6 14 -7 14 C-7.33 14.99 -7.66 15.98 -8 17 C-10.31 16.67 -12.62 16.34 -15 16 C-10.30233025 10.33870569 -5.25276628 5.14771096 0 0 Z " fill="#EDFAFA" transform="translate(233,176)"/>
<path d="M0 0 C1.09251845 3.27755535 0.82209535 3.84140394 0 7 C0.00697651 8.61582839 0.07563996 10.2320589 0.19140625 11.84375 C0.27745117 13.21853516 0.27745117 13.21853516 0.36523438 14.62109375 C0.49676332 16.54063493 0.63218165 18.45991356 0.77148438 20.37890625 C0.82755859 21.29542969 0.88363281 22.21195313 0.94140625 23.15625 C1.02950562 24.40631836 1.02950562 24.40631836 1.11938477 25.68164062 C0.98509272 28.28948783 0.27343137 29.74817519 -1 32 C-1.42151885 33.57158878 -1.7968834 35.15629082 -2.125 36.75 C-2.29257812 37.54921875 -2.46015625 38.3484375 -2.6328125 39.171875 C-2.75398438 39.77515625 -2.87515625 40.3784375 -3 41 C-3.33 41 -3.66 41 -4 41 C-4.20422719 35.89432013 -3.78360665 31.1798147 -3 26.125 C-0.94762969 14.73234095 -0.94762969 14.73234095 -4 4 C-6.52372901 2.63921965 -6.52372901 2.63921965 -9 2 C-9 1.67 -9 1.34 -9 1 C-2.25 0 -2.25 0 0 0 Z " fill="#4EA3D1" transform="translate(291,121)"/>
<path d="M0 0 C0.99 0.33 1.98 0.66 3 1 C3 1.66 3 2.32 3 3 C3.66 3 4.32 3 5 3 C5 2.34 5 1.68 5 1 C6.32 0.67 7.64 0.34 9 0 C4.75358921 5.20185321 0.29331458 9.84367423 -5 14 C-5.33 14 -5.66 14 -6 14 C-6.61514196 6.74132492 -6.61514196 6.74132492 -3.5625 3.0625 C-2.716875 2.381875 -1.87125 1.70125 -1 1 C-0.67 0.67 -0.34 0.34 0 0 Z " fill="#43A4DF" transform="translate(207,193)"/>
<path d="M0 0 C1.125 3.75 1.125 3.75 0 6 C-2.58203125 6.34375 -2.58203125 6.34375 -5.8125 6.5 C-9.70080042 6.68944216 -12.691966 6.84091021 -16 9 C-16.33 9.66 -16.66 10.32 -17 11 C-18.875 12.1875 -18.875 12.1875 -21 13 C-21.99 12.67 -22.98 12.34 -24 12 C-20 9.33333333 -16 6.66666667 -12 4 C-10.4221875 2.88625 -10.4221875 2.88625 -8.8125 1.75 C-5.57968152 -0.2615315 -3.73737142 -0.35594014 0 0 Z " fill="#44A1D3" transform="translate(236,168)"/>
<path d="M0 0 C0.4846875 0.68964844 0.969375 1.37929687 1.46875 2.08984375 C4.7462273 5.85793108 8.4945179 8.6076919 12.5 11.5625 C21.65867593 18.36542143 21.65867593 18.36542143 25 22 C21 22 21 22 18.5625 19.6875 C17.716875 18.800625 16.87125 17.91375 16 17 C15.071875 16.443125 14.14375 15.88625 13.1875 15.3125 C12.465625 14.879375 11.74375 14.44625 11 14 C11 13.34 11 12.68 11 12 C10.21625 12.04125 9.4325 12.0825 8.625 12.125 C6 12 6 12 4 10 C4 9.01 4 8.02 4 7 C2.02 7.33 0.04 7.66 -2 8 C-1.67 7.4225 -1.34 6.845 -1 6.25 C0.27075898 3.80116138 0.27075898 3.80116138 0 0 Z " fill="#43A2D6" transform="translate(167,248)"/>
<path d="M0 0 C2.5625 1.75 2.5625 1.75 3.4375 3.9375 C3.47875 4.535625 3.52 5.13375 3.5625 5.75 C2.9025 5.42 2.2425 5.09 1.5625 4.75 C1.5625 4.09 1.5625 3.43 1.5625 2.75 C-3.11232292 1.25405667 -7.79351989 1.20200663 -12.4375 2.75 C-12.7675 3.41 -13.0975 4.07 -13.4375 4.75 C-14.13617188 4.73839844 -14.83484375 4.72679688 -15.5546875 4.71484375 C-16.46476562 4.70582031 -17.37484375 4.69679688 -18.3125 4.6875 C-19.21742188 4.67589844 -20.12234375 4.66429688 -21.0546875 4.65234375 C-23.4543585 4.58750743 -23.4543585 4.58750743 -25.4375 5.75 C-26.0975 5.09 -26.7575 4.43 -27.4375 3.75 C-24.94168638 2.90190799 -22.44205875 2.07153079 -19.9375 1.25 C-19.24140625 1.01152344 -18.5453125 0.77304688 -17.828125 0.52734375 C-11.65955831 -1.47172879 -6.25868493 -2.27588543 0 0 Z " fill="#E5F9FD" transform="translate(285.4375,123.25)"/>
<path d="M0 0 C0.99 0.33 1.98 0.66 3 1 C0.79157785 3.3537425 -1.44482442 5.67890919 -3.6875 8 C-4.31333984 8.66773438 -4.93917969 9.33546875 -5.58398438 10.0234375 C-6.19951172 10.65507812 -6.81503906 11.28671875 -7.44921875 11.9375 C-8.00955811 12.52402344 -8.56989746 13.11054688 -9.1472168 13.71484375 C-11.54059401 15.37497521 -13.14998181 15.23946139 -16 15 C-14.64908907 10.57883696 -12.86882275 8.51923342 -9 6 C-7.7315625 5.7834375 -7.7315625 5.7834375 -6.4375 5.5625 C-2.9983351 4.76884656 -1.95364618 2.82193338 0 0 Z " fill="#3DA0DA" transform="translate(184,220)"/>
<path d="M0 0 C0.33 0.66 0.66 1.32 1 2 C0 5 0 5 -3 7 C-3.25030977 9.58380177 -3.25030977 9.58380177 -3 12 C-2.34 12 -1.68 12 -1 12 C-0.814375 11.071875 -0.814375 11.071875 -0.625 10.125 C0 8 0 8 2 6 C2 9.20395416 1.25664978 11.09399739 0 14 C0.66 14 1.32 14 2 14 C1.34 15.32 0.68 16.64 0 18 C-1.32 18 -2.64 18 -4 18 C-6.12859386 14.54103498 -6.61929608 12.02542453 -6 8 C-4.22285016 5.13796218 -2.18405 2.56105863 0 0 Z " fill="#E0F5F9" transform="translate(173,234)"/>
<path d="M0 0 C0.185625 0.61875 0.37125 1.2375 0.5625 1.875 C2.71707095 5.06001792 5.35821992 5.12094964 9 6 C10.35350594 6.62469505 11.69934483 7.2716331 13 8 C12.01 8.33 11.02 8.66 10 9 C10.95865509 11.33075929 10.95865509 11.33075929 14 13 C9.89634521 13 9.37160657 12.9058664 6.328125 10.62890625 C5.33232422 9.89124023 5.33232422 9.89124023 4.31640625 9.13867188 C3.29353516 8.3584668 3.29353516 8.3584668 2.25 7.5625 C1.55261719 7.04623047 0.85523438 6.52996094 0.13671875 5.99804688 C-3.56525816 3.22699763 -3.56525816 3.22699763 -5 2 C-5 1.67 -5 1.34 -5 1 C-3.35 0.67 -1.7 0.34 0 0 Z " fill="#E2F7F9" transform="translate(207,275)"/>
<path d="M0 0 C-4.05884054 1.82077574 -8.12266162 3.63015864 -12.1875 5.4375 C-13.33798828 5.95376953 -14.48847656 6.47003906 -15.67382812 7.00195312 C-17.34155273 7.74155273 -17.34155273 7.74155273 -19.04296875 8.49609375 C-20.06414795 8.95169678 -21.08532715 9.4072998 -22.13745117 9.87670898 C-24.77621302 10.91218389 -27.20878827 11.54937064 -30 12 C-28.91796875 9.58203125 -28.91796875 9.58203125 -27 7 C-23.86328125 6.07421875 -23.86328125 6.07421875 -20.3125 5.6875 C-19.13300781 5.54699219 -17.95351562 5.40648437 -16.73828125 5.26171875 C-15.83464844 5.17535156 -14.93101563 5.08898437 -14 5 C-14 4.34 -14 3.68 -14 3 C-12.68 3 -11.36 3 -10 3 C-10 2.34 -10 1.68 -10 1 C-3.375 -1.125 -3.375 -1.125 0 0 Z " fill="#4AA2D2" transform="translate(114,188)"/>
<path d="M0 0 C0.33 0.66 0.66 1.32 1 2 C0.22265625 3.9453125 0.22265625 3.9453125 -0.9375 6.125 C-1.31777344 6.84945313 -1.69804687 7.57390625 -2.08984375 8.3203125 C-2.39019531 8.87460937 -2.69054687 9.42890625 -3 10 C-3.99 10 -4.98 10 -6 10 C-6.33 9.34 -6.66 8.68 -7 8 C-9.95991272 7.38713464 -12.92386587 7.04044559 -15.921875 6.66015625 C-19.15620074 5.9665001 -21.2810362 4.84788836 -24 3 C-23.67 2.34 -23.34 1.68 -23 1 C-22.43152344 1.28875 -21.86304688 1.5775 -21.27734375 1.875 C-15.00087227 4.89273587 -10.54865806 5.85430657 -3.625 4.1875 C-2.75875 3.795625 -1.8925 3.40375 -1 3 C-0.67 2.01 -0.34 1.02 0 0 Z " fill="#47A5DD" transform="translate(259,300)"/>
<path d="M0 0 C0.33 0 0.66 0 1 0 C0.47205656 11.15963203 -1.13513082 21.99844472 -3 33 C-3.33 33 -3.66 33 -4 33 C-4 28.71 -4 24.42 -4 20 C-3.34 20 -2.68 20 -2 20 C-2.12568359 18.75283203 -2.12568359 18.75283203 -2.25390625 17.48046875 C-2.35574219 16.39378906 -2.45757812 15.30710938 -2.5625 14.1875 C-2.66691406 13.10855469 -2.77132813 12.02960938 -2.87890625 10.91796875 C-3 8 -3 8 -2 5 C-1.34 5 -0.68 5 0 5 C0 3.35 0 1.7 0 0 Z " fill="#DDF9FD" transform="translate(287,148)"/>
<path d="M0 0 C0.33 0 0.66 0 1 0 C2.63550448 8.51949154 1.94003969 13.60922984 -2.65234375 21.015625 C-3.09707031 21.67046875 -3.54179687 22.3253125 -4 23 C-4.66 23 -5.32 23 -6 23 C-4.515 17.555 -4.515 17.555 -3 12 C-2.34 12 -1.68 12 -1 12 C-0.67 8.04 -0.34 4.08 0 0 Z " fill="#42A4D8" transform="translate(268,272)"/>
<path d="M0 0 C1.11375 0.1546875 1.11375 0.1546875 2.25 0.3125 C1.0434375 1.2715625 1.0434375 1.2715625 -0.1875 2.25 C-2.0250504 3.71853502 -2.0250504 3.71853502 -3.75 5.3125 C-3.82148199 6.66493917 -3.83399454 8.02084367 -3.8125 9.375 C-3.791875 10.674375 -3.77125 11.97375 -3.75 13.3125 C-0.78 14.9625 2.19 16.6125 5.25 18.3125 C2.25 19.3125 2.25 19.3125 -1.3125 18.0625 C-4.75 16.3125 -4.75 16.3125 -6.75 13.3125 C-7.19990479 8.66348387 -7.35914831 6.39543032 -5.0625 2.3125 C-2.75 0.3125 -2.75 0.3125 0 0 Z " fill="#4C9FD0" transform="translate(80.75,200.6875)"/>
<path d="M0 0 C0 0.66 0 1.32 0 2 C-2.23046875 3.65625 -2.23046875 3.65625 -5.1875 5.5 C-6.15042969 6.1084375 -7.11335937 6.716875 -8.10546875 7.34375 C-10.69626696 8.82620404 -13.20182169 9.97690007 -16 11 C-15.34 12.32 -14.68 13.64 -14 15 C-17.13349732 16.04449911 -17.98968256 15.93423645 -21 15 C-19.83174046 11.49522137 -19.03282856 11.06527839 -16.03515625 9.08203125 C-15.23529297 8.55029297 -14.43542969 8.01855469 -13.61132812 7.47070312 C-12.77021484 6.92349609 -11.92910156 6.37628906 -11.0625 5.8125 C-10.22525391 5.25369141 -9.38800781 4.69488281 -8.52539062 4.11914062 C-2.27375229 0 -2.27375229 0 0 0 Z " fill="#50A3D1" transform="translate(212,181)"/>
<path d="M0 0 C-1.72569639 1.13031603 -3.45571739 2.25403107 -5.1875 3.375 C-6.15042969 4.00148437 -7.11335937 4.62796875 -8.10546875 5.2734375 C-10.69803936 6.81988312 -13.16853116 7.97508075 -16 9 C-15.67 7.35 -15.34 5.7 -15 4 C-14.34 4 -13.68 4 -13 4 C-13 3.34 -13 2.68 -13 2 C-11.88625 1.814375 -11.88625 1.814375 -10.75 1.625 C-8.03080536 1.1382925 -8.03080536 1.1382925 -5.9375 -0.125 C-3.51199432 -1.22038966 -2.48774391 -0.73442752 0 0 Z " fill="#E4F8FC" transform="translate(160,216)"/>
<path d="M0 0 C0.66 0.33 1.32 0.66 2 1 C1.01 1.33 0.02 1.66 -1 2 C-1.2475 2.61875 -1.495 3.2375 -1.75 3.875 C-3.35880307 6.60996522 -5.23804626 7.11127455 -8.12109375 8.21875 C-12.39628381 9.9963758 -15.44561656 12.16842485 -18 16 C-19.32 15.67 -20.64 15.34 -22 15 C-6.16304348 3.20652174 -6.16304348 3.20652174 0 0 Z " fill="#51A5D1" transform="translate(188,196)"/>
<path d="M0 0 C0.66 0 1.32 0 2 0 C1.68981396 2.5627992 1.37693109 5.1252211 1.0625 7.6875 C0.97548828 8.40873047 0.88847656 9.12996094 0.79882812 9.87304688 C0.33686195 13.62010584 -0.19167679 17.30792911 -1 21 C-1.33 21 -1.66 21 -2 21 C-3.6148266 16.91543861 -4.41164374 14.23493122 -3 10 C-2.34 9.34 -1.68 8.68 -1 8 C-0.54188325 6.02764667 -0.54188325 6.02764667 -0.375 3.875 C-0.25125 2.59625 -0.1275 1.3175 0 0 Z " fill="#DDF9FD" transform="translate(271,240)"/>
<path d="M0 0 C0.66 0.33 1.32 0.66 2 1 C1.030625 1.268125 0.06125 1.53625 -0.9375 1.8125 C-1.948125 2.204375 -2.95875 2.59625 -4 3 C-4.33 3.99 -4.66 4.98 -5 6 C-9.43028188 7.65049717 -13.29050618 8.22973141 -18 8 C-14.64126573 5.76084382 -11.1610566 4.30967271 -7.4375 2.8125 C-6.75236328 2.52697266 -6.06722656 2.24144531 -5.36132812 1.94726562 C-3.5980187 1.23605839 -1.80039929 0.61125955 0 0 Z " fill="#D5F4FB" transform="translate(238,135)"/>
<path d="M0 0 C1.32 0.33 2.64 0.66 4 1 C2.38113585 2.67262717 0.7547271 4.33795537 -0.875 6 C-1.77992188 6.928125 -2.68484375 7.85625 -3.6171875 8.8125 C-6 11 -6 11 -8 11 C-8 9.02 -8 7.04 -8 5 C-5.6921509 3.84607545 -3.52769669 3.46562834 -1 3 C-0.67 2.01 -0.34 1.02 0 0 Z " fill="#4CA5D7" transform="translate(195,209)"/>
<path d="M0 0 C0.44041451 5.28497409 0.44041451 5.28497409 0 8 C-2.5 10.5 -2.5 10.5 -5 12 C-5.49108911 4.63366337 -5.49108911 4.63366337 -3.0625 1.5 C-1 0 -1 0 0 0 Z " fill="#39A0DA" transform="translate(206,195)"/>
<path d="M0 0 C0.66 0.33 1.32 0.66 2 1 C1.27683594 1.50660156 1.27683594 1.50660156 0.5390625 2.0234375 C-0.09257812 2.46945313 -0.72421875 2.91546875 -1.375 3.375 C-2.31472656 4.03628906 -2.31472656 4.03628906 -3.2734375 4.7109375 C-5.12380509 6.02808866 -5.12380509 6.02808866 -7 8 C-9.72869407 7.96712417 -12.2966618 7.43602229 -15 7 C-12.0356239 5.02374927 -9.21212254 3.70113094 -5.9375 2.3125 C-4.87402344 1.85488281 -3.81054688 1.39726562 -2.71484375 0.92578125 C-1.81894531 0.62027344 -0.92304688 0.31476563 0 0 Z " fill="#E2F5FC" transform="translate(206,148)"/>
<path d="M0 0 C0 0.99 0 1.98 0 3 C-3.38968014 5.96597012 -5.92360841 7.25792063 -10.375 7.25 C-11.57125 7.1675 -12.7675 7.085 -14 7 C-11.06810006 4.60926851 -8.27856712 3.15892693 -4.75 1.8125 C-3.85796875 1.46832031 -2.9659375 1.12414062 -2.046875 0.76953125 C-1.37140625 0.51558594 -0.6959375 0.26164063 0 0 Z " fill="#DEF7FD" transform="translate(108,190)"/>
<path d="M0 0 C0.33 0 0.66 0 1 0 C1.55353075 15.74487472 1.55353075 15.74487472 -2 23 C-2.96804074 19.89484695 -2.98121797 17.6488104 -2.44140625 14.453125 C-2.30283203 13.60878906 -2.16425781 12.76445312 -2.02148438 11.89453125 C-1.87001953 11.02183594 -1.71855469 10.14914063 -1.5625 9.25 C-1.34110352 7.91775391 -1.34110352 7.91775391 -1.11523438 6.55859375 C-0.75064986 4.37108664 -0.37867934 2.18510358 0 0 Z " fill="#54A5D2" transform="translate(286,162)"/>
<path d="M0 0 C0.66 0.33 1.32 0.66 2 1 C-0.03192836 2.04008202 -2.07605198 3.0563611 -4.125 4.0625 C-5.26195312 4.63097656 -6.39890625 5.19945312 -7.5703125 5.78515625 C-11.2960694 7.10487196 -13.23074628 7.0024611 -17 6 C-17 5.34 -17 4.68 -17 4 C-14 3 -14 3 -10.75 3.125 C-7.41050729 3.01368358 -6.06808927 2.76654014 -3.1875 1.4375 C-2.135625 0.963125 -1.08375 0.48875 0 0 Z " fill="#45A1D1" transform="translate(193,152)"/>
<path d="M0 0 C0.99 0 1.98 0 3 0 C3 0.66 3 1.32 3 2 C3.66 2 4.32 2 5 2 C5 3.98 5 5.96 5 8 C4.34 6.68 3.68 5.36 3 4 C2.67 4.99 2.34 5.98 2 7 C-0.0625 7.6875 -0.0625 7.6875 -2 8 C-2 6.68 -2 5.36 -2 4 C-1.34 4 -0.68 4 0 4 C0 2.68 0 1.36 0 0 Z " fill="#36A0DA" transform="translate(162,240)"/>
<path d="M0 0 C0.86625 0.556875 0.86625 0.556875 1.75 1.125 C0.76 2.445 -0.23 3.765 -1.25 5.125 C-4.22 4.63 -4.22 4.63 -7.25 4.125 C-6.25 1.125 -6.25 1.125 -4.4375 -0.1875 C-2.25 -0.875 -2.25 -0.875 0 0 Z " fill="#34A1E5" transform="translate(226.25,174.875)"/>
<path d="M0 0 C5.83096952 3.10157953 10.86601899 6.85556181 16 11 C14.15234375 11.640625 14.15234375 11.640625 12 12 C9.5625 9.75 9.5625 9.75 7 7 C6.071875 6.443125 5.14375 5.88625 4.1875 5.3125 C3.465625 4.879375 2.74375 4.44625 2 4 C2 3.34 2 2.68 2 2 C1.34 2 0.68 2 0 2 C0 1.34 0 0.68 0 0 Z " fill="#50A2C9" transform="translate(176,258)"/>
<path d="M0 0 C4.21912747 0.4794463 6.79663178 1.16625119 10 4 C9.67 5.32 9.34 6.64 9 8 C7.49712782 6.85793642 5.99776716 5.71125043 4.5 4.5625 C3.6646875 3.92441406 2.829375 3.28632813 1.96875 2.62890625 C1.3190625 2.09136719 0.669375 1.55382812 0 1 C0 0.67 0 0.34 0 0 Z " fill="#D5F4FB" transform="translate(187,265)"/>
<path d="M0 0 C1.32 0.33 2.64 0.66 4 1 C2.04532248 2.33898399 0.0866421 3.67129047 -1.875 5 C-2.96554688 5.7425 -4.05609375 6.485 -5.1796875 7.25 C-8 9 -8 9 -10 9 C-10 8.34 -10 7.68 -10 7 C-9.34 7 -8.68 7 -8 7 C-8 6.34 -8 5.68 -8 5 C-5.09451118 2.95830515 -3.59857954 2 0 2 C0 1.34 0 0.68 0 0 Z " fill="#D0F5FE" transform="translate(181,198)"/>
<path d="M0 0 C0.66 0.33 1.32 0.66 2 1 C0 3 0 3 -2.0625 3.5 C-2.701875 3.665 -3.34125 3.83 -4 4 C-4.33 4.66 -4.66 5.32 -5 6 C-7.06640625 6.4140625 -7.06640625 6.4140625 -9.5625 6.625 C-10.38878906 6.69976562 -11.21507812 6.77453125 -12.06640625 6.8515625 C-13.02353516 6.92503906 -13.02353516 6.92503906 -14 7 C-11.19665157 5.13110105 -8.48722906 3.72975092 -5.4375 2.3125 C-4.46683594 1.85488281 -3.49617187 1.39726562 -2.49609375 0.92578125 C-1.67238281 0.62027344 -0.84867188 0.31476563 0 0 Z " fill="#D7F5FC" transform="translate(182,158)"/>
<path d="M0 0 C0.33 0 0.66 0 1 0 C1.23268915 6.28260706 0.40454548 11.88019467 -1 18 C-1.33 18 -1.66 18 -2 18 C-2.20852314 11.59370576 -2.1583195 6.07027358 0 0 Z " fill="#D7F6FC" transform="translate(277,210)"/>
<path d="M0 0 C0.33 0.99 0.66 1.98 1 3 C0.01 4.485 0.01 4.485 -1 6 C-3 6 -3 6 -4.4375 4.625 C-4.953125 4.08875 -5.46875 3.5525 -6 3 C-6.99 2.34 -7.98 1.68 -9 1 C-2.25 0 -2.25 0 0 0 Z " fill="#42A3D7" transform="translate(291,121)"/>
<path d="M0 0 C0.97839844 0.41572266 0.97839844 0.41572266 1.9765625 0.83984375 C6.64303689 2.77388402 10.93022603 4.46633958 16 5 C16 5.33 16 5.66 16 6 C10.21840447 6.36134972 6.27993412 5.45790037 1 3 C0.67 2.01 0.34 1.02 0 0 Z " fill="#4CA0CF" transform="translate(235,301)"/>
<path d="M0 0 C2.31 0.33 4.62 0.66 7 1 C4.94577945 3.05422055 3.66990976 3.68137592 1 4.6875 C0.29875 4.95949219 -0.4025 5.23148438 -1.125 5.51171875 C-3 6 -3 6 -5 5 C-3.35 4.34 -1.7 3.68 0 3 C0 2.01 0 1.02 0 0 Z " fill="#4AA4D7" transform="translate(201,146)"/>
<path d="M0 0 C1.46313772 0.76167457 2.92036661 1.53470707 4.375 2.3125 C5.18710938 2.74175781 5.99921875 3.17101562 6.8359375 3.61328125 C9 5 9 5 11 8 C10.443125 7.855625 9.88625 7.71125 9.3125 7.5625 C6.88615805 6.97230872 4.45093655 6.476571 2 6 C2 5.01 2 4.02 2 3 C1.34 2.67 0.68 2.34 0 2 C0 1.34 0 0.68 0 0 Z " fill="#4EA3CF" transform="translate(192,270)"/>
<path d="M0 0 C5.28 1.32 10.56 2.64 16 4 C16 4.33 16 4.66 16 5 C14.08247047 4.93970033 12.16582574 4.85083293 10.25 4.75 C9.18265625 4.70359375 8.1153125 4.6571875 7.015625 4.609375 C4 4 4 4 0 0 Z " fill="#52A7CF" transform="translate(102,225)"/>
<path d="M0 0 C0.33 0.66 0.66 1.32 1 2 C-3.75 7.75 -3.75 7.75 -6 10 C-6.99 9.67 -7.98 9.34 -9 9 C-6.03 6.03 -3.06 3.06 0 0 Z " fill="#DDFAFE" transform="translate(217,192)"/>
<path d="M0 0 C1.65 0 3.3 0 5 0 C4.04578192 1.14926266 3.08647955 2.29430541 2.125 3.4375 C1.59132812 4.07558594 1.05765625 4.71367187 0.5078125 5.37109375 C-1 7 -1 7 -3 8 C-3 6.68 -3 5.36 -3 4 C-2.01 4 -1.02 4 0 4 C0 2.68 0 1.36 0 0 Z " fill="#47A0D0" transform="translate(219,185)"/>
<path d="M0 0 C5.53771745 -0.28643366 9.24803827 -0.24524216 14 3 C14.875 5.1875 14.875 5.1875 15 7 C14.34 6.67 13.68 6.34 13 6 C13 5.34 13 4.68 13 4 C10.09375703 3.26010787 7.17849225 2.58349094 4.25 1.9375 C3.45078125 1.76089844 2.6515625 1.58429688 1.828125 1.40234375 C1.22484375 1.26957031 0.6215625 1.13679688 0 1 C0 0.67 0 0.34 0 0 Z " fill="#CAF1FC" transform="translate(274,122)"/>
<path d="M0 0 C0.763125 0.0825 1.52625 0.165 2.3125 0.25 C1.1059375 1.2090625 1.1059375 1.2090625 -0.125 2.1875 C-4.14253783 5.42112801 -4.02771146 7.06594715 -4.6875 12.25 C-5.0175 12.25 -5.3475 12.25 -5.6875 12.25 C-6.04940476 5.01190476 -6.04940476 5.01190476 -4.5 1.75 C-2.6875 0.25 -2.6875 0.25 0 0 Z " fill="#58A9D5" transform="translate(80.6875,200.75)"/>
<path d="M0 0 C2.475 0.495 2.475 0.495 5 1 C5 2.98 5 4.96 5 7 C4.34 7 3.68 7 3 7 C3 6.01 3 5.02 3 4 C2.01 4 1.02 4 0 4 C0 2.68 0 1.36 0 0 Z " fill="#38A2DC" transform="translate(80,194)"/>
<path d="M0 0 C0.66 0.99 1.32 1.98 2 3 C0.25 5.0625 0.25 5.0625 -2 7 C-3.32 6.67 -4.64 6.34 -6 6 C-4.02 4.02 -2.04 2.04 0 0 Z " fill="#DFF5FC" transform="translate(233,176)"/>
<path d="M0 0 C5.445 1.485 5.445 1.485 11 3 C11 3.99 11 4.98 11 6 C6.95743617 4.77782954 3.50711041 3.37245704 0 1 C0 0.67 0 0.34 0 0 Z " fill="#D4F2FB" transform="translate(77,214)"/>
<path d="M0 0 C2.33944736 0.28730055 4.6739143 0.61936779 7 1 C4.63707344 3.52588702 3.33537489 4.88820837 0 6 C0 5.34 0 4.68 0 4 C0.66 4 1.32 4 2 4 C2 3.34 2 2.68 2 2 C1.01 1.67 0.02 1.34 -1 1 C-0.67 0.67 -0.34 0.34 0 0 Z " fill="#E4F9FD" transform="translate(185,192)"/>
<path d="M0 0 C1.48285242 0.95262034 2.96118201 1.91228405 4.4375 2.875 C5.67306641 3.67550781 5.67306641 3.67550781 6.93359375 4.4921875 C9 6 9 6 10 8 C5.60316512 6.80086322 2.90159066 5.5711885 0 2 C0 1.34 0 0.68 0 0 Z " fill="#56A4D0" transform="translate(215,286)"/>
<path d="M0 0 C0 0.66 0 1.32 0 2 C-6.96428571 5.34821429 -6.96428571 5.34821429 -11 4 C-9.5437455 3.32880451 -8.08492133 2.66318193 -6.625 2 C-5.81289062 1.62875 -5.00078125 1.2575 -4.1640625 0.875 C-2 0 -2 0 0 0 Z " fill="#D3F5FD" transform="translate(135,179)"/>
<path d="M0 0 C4.43568763 0.82142364 7.82341155 2.82341155 11 6 C6.89791983 6 6.29921062 5.86243878 3.25 3.5625 C2.63640625 3.11003906 2.0228125 2.65757812 1.390625 2.19140625 C0.93171875 1.79824219 0.4728125 1.40507812 0 1 C0 0.67 0 0.34 0 0 Z " fill="#D7F6FD" transform="translate(228,295)"/>
<path d="M0 0 C0.66 0.33 1.32 0.66 2 1 C-1.32307692 6.78461538 -1.32307692 6.78461538 -4.75 7.875 C-5.4925 7.91625 -6.235 7.9575 -7 8 C-6.02133662 6.85373678 -5.04205413 5.70800212 -4.0625 4.5625 C-3.51722656 3.92441406 -2.97195312 3.28632813 -2.41015625 2.62890625 C-1.63204305 1.73008851 -0.84063472 0.84063472 0 0 Z " fill="#D4F4FD" transform="translate(187,220)"/>
<path d="M0 0 C3.5786304 1.65167557 6.74820188 3.78286492 10 6 C9.01 6.33 8.02 6.66 7 7 C5.17578125 6.07421875 5.17578125 6.07421875 3.3125 4.6875 C2.37857422 4.01267578 2.37857422 4.01267578 1.42578125 3.32421875 C0.95527344 2.88722656 0.48476562 2.45023437 0 2 C0 1.34 0 0.68 0 0 Z " fill="#54A8D3" transform="translate(225,294)"/>
<path d="M0 0 C0.99 0.33 1.98 0.66 3 1 C4.1875 3.5625 4.1875 3.5625 5 6 C2.11562221 4.70700306 0.12780579 3.34058637 -2 1 C-1.34 0.67 -0.68 0.34 0 0 Z " fill="#DEF7FD" transform="translate(178,256)"/>
<path d="M0 0 C1.65 0.33 3.3 0.66 5 1 C5 1.99 5 2.98 5 4 C2.03 3.505 2.03 3.505 -1 3 C-0.67 2.01 -0.34 1.02 0 0 Z " fill="#3F9FD4" transform="translate(192,193)"/>
<path d="M0 0 C0.99 0.66 1.98 1.32 3 2 C1.87926138 2.83905565 0.75325453 3.67107831 -0.375 4.5 C-1.00148437 4.9640625 -1.62796875 5.428125 -2.2734375 5.90625 C-4 7 -4 7 -6 7 C-5 4 -5 4 -3 2.9375 C-2.34 2.628125 -1.68 2.31875 -1 2 C-0.67 1.34 -0.34 0.68 0 0 Z " fill="#D6F4FD" transform="translate(204,182)"/>
<path d="M0 0 C0.99 0.33 1.98 0.66 3 1 C3 2.98 3 4.96 3 7 C1.35 7.33 -0.3 7.66 -2 8 C-1.67 7.4225 -1.34 6.845 -1 6.25 C0.27075898 3.80116138 0.27075898 3.80116138 0 0 Z " fill="#DFF8FC" transform="translate(236,168)"/>
<path d="M0 0 C0.33 0.99 0.66 1.98 1 3 C0.195625 3.61875 -0.60875 4.2375 -1.4375 4.875 C-4.03874519 6.74164041 -4.03874519 6.74164041 -5 9 C-5.66 8.67 -6.32 8.34 -7 8 C-4.69 5.36 -2.38 2.72 0 0 Z " fill="#E6FCFF" transform="translate(195,213)"/>
<path d="M0 0 C1.32 0 2.64 0 4 0 C4.625 1.875 4.625 1.875 5 4 C4.34 4.66 3.68 5.32 3 6 C2.67 5.01 2.34 4.02 2 3 C1.34 3 0.68 3 0 3 C0 2.01 0 1.02 0 0 Z " fill="#35A5DC" transform="translate(192,147)"/>
<path d="M0 0 C0.33 1.32 0.66 2.64 1 4 C0.01 4.66 -0.98 5.32 -2 6 C-2.99 5.67 -3.98 5.34 -5 5 C-3.35 3.35 -1.7 1.7 0 0 Z " fill="#D9F7FF" transform="translate(201,207)"/>
<path d="M0 0 C0.99 0.33 1.98 0.66 3 1 C0.69 2.65 -1.62 4.3 -4 6 C-4.66 5.34 -5.32 4.68 -6 4 C-3.1875 1.9375 -3.1875 1.9375 0 0 Z " fill="#D5F6FD" transform="translate(168,207)"/>
<path d="M0 0 C0.66 0.33 1.32 0.66 2 1 C1.01 1.33 0.02 1.66 -1 2 C-1.69937532 3.31647119 -2.36729133 4.65022151 -3 6 C-3.99 6.495 -3.99 6.495 -5 7 C-5 5.68 -5 4.36 -5 3 C-2.625 1.1875 -2.625 1.1875 0 0 Z " fill="#46A2D5" transform="translate(188,196)"/>
<path d="M0 0 C-2.64 1.65 -5.28 3.3 -8 5 C-8 3.68 -8 2.36 -8 1 C-2.25 -1.125 -2.25 -1.125 0 0 Z " fill="#D6F3FC" transform="translate(216,178)"/>
</svg>
