<?xml version="1.0" encoding="UTF-8"?>
<svg version="1.1" xmlns="http://www.w3.org/2000/svg" width="400" height="400">
<path d="M0 0 C132 0 264 0 400 0 C400 132 400 264 400 400 C268 400 136 400 0 400 C0 268 0 136 0 0 Z " fill="#000000" transform="translate(0,0)"/>
<path d="M0 0 C8.4841503 -0.20899568 16.96721701 -0.36867046 25.45330906 -0.46630955 C29.39436123 -0.51318523 33.3336465 -0.57670025 37.27368164 -0.67895508 C41.07991164 -0.77711337 44.88444846 -0.83062998 48.69184685 -0.85389519 C50.14048864 -0.87046176 51.58904273 -0.90281741 53.03695869 -0.95157051 C64.37337339 -1.31792398 64.37337339 -1.31792398 68.41921997 1.96009827 C70.2072449 4.23149167 71.63046158 6.4595605 73 9 C73.67546875 9.97066406 74.3509375 10.94132812 75.046875 11.94140625 C75.60890625 12.80636719 76.1709375 13.67132813 76.75 14.5625 C79.84437078 19.26641873 82.99052289 23.92771083 86.1875 28.5625 C89.66816058 33.61075863 93.13965441 38.66491155 96.59545898 43.73022461 C102.24444877 52.00576508 107.92279375 60.26104385 113.625 68.5 C114.31231201 69.49781494 114.99962402 70.49562988 115.70776367 71.52368164 C116.35334229 72.4543042 116.9989209 73.38492676 117.6640625 74.34375 C118.23592285 75.17068359 118.8077832 75.99761719 119.39697266 76.84960938 C120.81722322 78.75481299 122.26873168 80.37934958 124 82 C129.81964026 75.71867638 135.40552264 69.34904488 140.78515625 62.68359375 C143.66480887 59.19449084 146.70693876 55.87003079 149.75390625 52.52734375 C152.06187598 49.93037607 154.25555863 47.26595987 156.4375 44.5625 C160.29708603 39.79003797 164.37199991 35.26890891 168.52734375 30.75390625 C171.742731 27.17278775 174.75070099 23.44292598 177.7734375 19.69921875 C180.66394248 16.19511535 183.6948678 12.83423103 186.76171875 9.484375 C188.93384187 7.18433763 188.93384187 7.18433763 190.25683594 5.16186523 C193.76583675 0.30537373 193.76583675 0.30537373 197.25952148 -0.55908203 C199.83238371 -0.68811731 202.30534027 -0.61358361 204.875 -0.4375 C206.19371094 -0.39012695 206.19371094 -0.39012695 207.5390625 -0.34179688 C209.69416087 -0.25980944 211.847526 -0.13426323 214 0 C212.28877436 3.63401577 210.20066113 6.12637103 207.4375 9.0625 C203.98537429 12.77478591 200.68074816 16.54816138 197.5 20.5 C194.44651321 24.28460334 191.29331699 27.92207537 188 31.5 C183.88621091 35.9698512 180.02912703 40.59044893 176.21484375 45.31640625 C174.04367173 47.94708557 171.79758643 50.47942424 169.5 53 C166.38541332 56.41739372 163.4081338 59.9052235 160.5 63.5 C157.5918662 67.0947765 154.61458668 70.58260628 151.5 74 C146.7919058 79.1690265 142.39650938 84.56601645 138 90 C136.34120892 92.00678921 134.67209535 94.00427329 133 96 C137.6391911 103.41537885 142.47064347 110.65700322 147.5 117.8125 C152.98505876 125.65571727 158.42982636 133.52363864 163.8125 141.4375 C164.43415039 142.35136475 165.05580078 143.26522949 165.69628906 144.20678711 C166.9018756 145.97915298 168.10744269 147.75153206 169.31298828 149.52392578 C173.08880117 155.06579182 176.89449957 160.58714908 180.69824219 166.10986328 C188.03108898 176.75706881 195.34509415 187.41703395 202.640625 198.08984375 C204.95913654 201.48090582 207.28269255 204.86844553 209.609375 208.25390625 C210.19799316 209.11137451 210.78661133 209.96884277 211.39306641 210.85229492 C212.51918382 212.49257843 213.64640276 214.13210644 214.77490234 215.77075195 C215.53988037 216.8858313 215.53988037 216.8858313 216.3203125 218.0234375 C216.76648926 218.67231934 217.21266602 219.32120117 217.67236328 219.98974609 C219.18826189 222.28505856 220.59046985 224.63819538 222 227 C213.5158497 227.20899568 205.03278299 227.36867046 196.54669094 227.46630955 C192.60563877 227.51318523 188.6663535 227.57670025 184.72631836 227.67895508 C180.92008836 227.77711337 177.11555154 227.83062998 173.30815315 227.85389519 C171.85951136 227.87046176 170.41095727 227.90281741 168.96304131 227.95157051 C157.66341389 228.31673514 157.66341389 228.31673514 153.64353943 225.13465881 C151.83017696 222.84254339 150.39654695 220.56346989 149 218 C148.30543701 217.00911377 147.61087402 216.01822754 146.89526367 214.99731445 C146.32525635 214.1280835 145.75524902 213.25885254 145.16796875 212.36328125 C144.52013428 211.38149902 143.8722998 210.3997168 143.20483398 209.38818359 C142.53911377 208.37320801 141.87339355 207.35823242 141.1875 206.3125 C136.12666932 198.6567719 130.99425768 191.09794927 125.61328125 183.6640625 C115.35309756 169.39008519 105.71219498 154.64967958 96 140 C87.90665075 148.00601095 80.38153415 156.41991211 73.24609375 165.28515625 C70.9116941 168.10673495 68.48009402 170.80590712 66 173.5 C62.70668301 177.07792463 59.55348679 180.71539666 56.5 184.5 C53.44651321 188.28460334 50.29331699 191.92207537 47 195.5 C42.89311632 199.96234811 39.04162089 204.574414 35.234375 209.29296875 C32.28197204 212.86991849 29.17905438 216.29494623 26.04296875 219.7109375 C23.90218002 221.95771991 23.90218002 221.95771991 22.37890625 224.76953125 C19.1359385 227.81014633 16.85900383 227.51771293 12.5390625 227.43945312 C11.61867188 227.39755859 10.69828125 227.35566406 9.75 227.3125 C8.34621094 227.27866211 8.34621094 227.27866211 6.9140625 227.24414062 C4.60774326 227.18530595 2.30469162 227.10317146 0 227 C3.54379702 222.13429214 7.18041134 217.56445317 11.3125 213.1875 C15.67187083 208.51965864 19.74784787 203.6920678 23.75390625 198.71484375 C26.0883059 195.89326505 28.51990598 193.19409288 31 190.5 C35.11378909 186.0301488 38.97087297 181.40955107 42.78515625 176.68359375 C45.66480887 173.19449084 48.70693876 169.87003079 51.75390625 166.52734375 C54.06187598 163.93037607 56.25555863 161.26595987 58.4375 158.5625 C62.28954619 153.79936114 66.35510982 149.2860274 70.50390625 144.78125 C73.83741066 141.06692271 76.97062274 137.2072805 80.08984375 133.3125 C82 131 82 131 83.81640625 129.5 C85.23139244 128.02661704 85.23139244 128.02661704 84.9921875 125.76953125 C83.62310517 121.94795891 81.48284864 118.96924035 79.125 115.6875 C78.11696827 114.25406039 77.10916199 112.82046222 76.1015625 111.38671875 C75.5849707 110.65759277 75.06837891 109.9284668 74.53613281 109.17724609 C72.15831335 105.8070309 69.83039929 102.4030894 67.5 99 C66.58360315 97.66648121 65.66693565 96.33314837 64.75 95 C62 91 62 91 59.25 87 C58.5696167 86.01036255 58.5696167 86.01036255 57.87548828 85.00073242 C56.95716639 83.66497667 56.0388722 82.32920188 55.12060547 80.9934082 C52.85448843 77.69698255 50.58791941 74.40086973 48.3203125 71.10546875 C42.81481536 63.10329267 37.32365612 55.09145005 31.84082031 47.07373047 C28.3584074 41.98238079 24.87021083 36.89507195 21.375 31.8125 C20.71250244 30.84860352 20.71250244 30.84860352 20.03662109 29.86523438 C17.71154365 26.48361314 15.38189618 23.10523233 13.046875 19.73046875 C12.55783691 19.02237061 12.06879883 18.31427246 11.56494141 17.5847168 C10.64160354 16.24792771 9.71691876 14.91206737 8.79052734 13.57739258 C6.56454183 10.35195906 4.41321569 7.09572249 2.34326172 3.76757812 C1.90182831 3.05863403 1.4603949 2.34968994 1.00558472 1.6192627 C0.67374176 1.08490601 0.3418988 0.55054932 0 0 Z " fill="#FAFAFA" transform="translate(89,86)"/>
<path d="M0 0 C25.2549667 -2.33067606 25.2549667 -2.33067606 32.24267578 1.1015625 C35.80330674 4.21273154 37.69898902 8.33199853 39.71630859 12.53955078 C42.21841554 17.33533507 45.54154391 21.612141 48.6875 26 C50.06760246 27.98303759 51.44386374 29.96875361 52.81640625 31.95703125 C56.91091299 37.87301593 61.01602136 43.78155994 65.125 49.6875 C65.78830322 50.64116455 66.45160645 51.5948291 67.13500977 52.57739258 C73.16676809 61.24651891 79.22134051 69.89956262 85.28222656 78.54833984 C88.77500481 83.53334256 92.2646291 88.52055381 95.75488281 93.50732422 C98.64548192 97.63709659 101.53676689 101.7663847 104.4296875 105.89453125 C111.31728062 115.72500507 118.18294378 125.57042296 125.03417969 135.42626953 C131.66767465 144.96612659 138.3314029 154.48466246 145 164 C149.14452618 169.91408667 153.28768277 175.82911886 157.42529297 181.74804688 C158.44447218 183.20555215 159.46428721 184.66261312 160.48486328 186.11914062 C161.78385895 187.97367876 163.07992734 189.83022118 164.375 191.6875 C165.08398438 192.70199219 165.79296875 193.71648437 166.5234375 194.76171875 C168 197 168 197 168 198 C142.50186249 200.35311728 142.50186249 200.35311728 135.67675781 196.78564453 C132.09496728 193.55233616 130.06858202 189.47112273 128.05566406 185.14208984 C126.31212425 181.60420403 123.98101342 178.5093223 121.6875 175.3125 C120.76755307 173.97229784 119.85096157 172.62978711 118.9375 171.28515625 C115.72258481 166.58213829 112.45767088 161.91470293 109.1875 157.25 C108.59718994 156.40775879 108.00687988 155.56551758 107.39868164 154.69775391 C106.19584318 152.98211526 104.99279881 151.26662096 103.78955078 149.55126953 C95.15615164 137.24308113 86.54709187 124.91832012 77.96582031 112.57373047 C71.90199382 103.85313321 65.81341689 95.15003556 59.71777344 86.45166016 C56.22499519 81.46665744 52.7353709 76.47944619 49.24511719 71.49267578 C46.35451808 67.36290341 43.46323311 63.2336153 40.5703125 59.10546875 C33.69263939 49.28915349 26.83394862 39.45991993 19.99658203 29.61547852 C16.63564064 24.77873124 13.26523962 19.94907972 9.875 15.1328125 C9.22273438 14.20533203 8.57046875 13.27785156 7.8984375 12.32226562 C6.65564753 10.55653214 5.4109291 8.79215402 4.1640625 7.02929688 C3.34035156 5.85850586 3.34035156 5.85850586 2.5 4.6640625 C1.77296875 3.63466553 1.77296875 3.63466553 1.03125 2.58447266 C0 1 0 1 0 0 Z " fill="#020202" transform="translate(116,101)"/>
<path d="M0 0 C3.30340112 3.30340112 5.73401447 5.97158128 8 10 C7.75 12.375 7.75 12.375 7 14 C3.95443395 14 1.04824785 13.63675115 -1.96484375 13.21875 C-4.32170221 12.92875331 -4.32170221 12.92875331 -8 13 C-8.66 12.34 -9.32 11.68 -10 11 C-6.7 7.37 -3.4 3.74 0 0 Z " fill="#090909" transform="translate(184,225)"/>
<path d="M0 0 C0.33 0.99 0.66 1.98 1 3 C-1.31 4.65 -3.62 6.3 -6 8 C-5.34 9.65 -4.68 11.3 -4 13 C-4.66 13.66 -5.32 14.32 -6 15 C-6.99 14.01 -7.98 13.02 -9 12 C-9 12.99 -9 13.98 -9 15 C-11.475 14.01 -11.475 14.01 -14 13 C-4.61290323 0 -4.61290323 0 0 0 Z " fill="#0D0D0D" transform="translate(132,289)"/>
<path d="M0 0 C3.19943628 -0.17774646 5.94816597 -0.02058086 9 1 C11.698094 3.64456038 13.6363585 6.47231872 15 10 C14.6484375 12.29296875 14.6484375 12.29296875 14 14 C12.35 13.67 10.7 13.34 9 13 C8.938125 11.906875 8.87625 10.81375 8.8125 9.6875 C8.3867767 5.85667284 8.3867767 5.85667284 5.4375 4.0625 C4.633125 3.711875 3.82875 3.36125 3 3 C2.67 3.66 2.34 4.32 2 5 C0 1.125 0 1.125 0 0 Z " fill="#080808" transform="translate(216,282)"/>
<path d="M0 0 C1.0725 0.350625 2.145 0.70125 3.25 1.0625 C7.25435111 2.06715761 7.25435111 2.06715761 11 1 C11 1.99 11 2.98 11 4 C10.01 4.66 9.02 5.32 8 6 C8.33 6.66 8.66 7.32 9 8 C7.35 8.66 5.7 9.32 4 10 C3.13342884 8.90554162 2.28207276 7.79902219 1.4375 6.6875 C0.96183594 6.07261719 0.48617187 5.45773438 -0.00390625 4.82421875 C-0.33261719 4.22222656 -0.66132813 3.62023437 -1 3 C-0.67 2.01 -0.34 1.02 0 0 Z " fill="#0C0C0C" transform="translate(181,191)"/>
<path d="M0 0 C0.66 0.33 1.32 0.66 2 1 C2 2.65 2 4.3 2 6 C4.31 6 6.62 6 9 6 C8.835 6.598125 8.67 7.19625 8.5 7.8125 C7.8885876 10.11344336 7.8885876 10.11344336 8 13 C7.01 13.33 6.02 13.66 5 14 C2.36 10.04 -0.28 6.08 -3 2 C-2.01 1.34 -1.02 0.68 0 0 Z " fill="#0B0B0B" transform="translate(190,131)"/>
<path d="M0 0 C1.1446875 0.495 1.1446875 0.495 2.3125 1 C4.99069135 2.17436686 4.99069135 2.17436686 8 2 C8 3.32 8 4.64 8 6 C8.99 6.66 9.98 7.32 11 8 C12.25 10 12.25 10 13 12 C12.67 12.66 12.34 13.32 12 14 C11.01 14 10.02 14 9 14 C6.9921875 11.4453125 6.9921875 11.4453125 4.875 8.125 C3.81925781 6.48917969 3.81925781 6.48917969 2.7421875 4.8203125 C1 2 1 2 0 0 Z " fill="#F1F1F1" transform="translate(139,159)"/>
<path d="M0 0 C1.11375 0.3403125 1.11375 0.3403125 2.25 0.6875 C1.94078116 2.14653258 1.62751201 3.60470722 1.3125 5.0625 C1.13847656 5.87460938 0.96445313 6.68671875 0.78515625 7.5234375 C0.25 9.6875 0.25 9.6875 -0.75 11.6875 C-2.73 8.7175 -4.71 5.7475 -6.75 2.6875 C-2.75 -0.3125 -2.75 -0.3125 0 0 Z " fill="#0C0C0C" transform="translate(181.75,112.3125)"/>
<path d="M0 0 C1.32 0 2.64 0 4 0 C4.66 0.66 5.32 1.32 6 2 C6.66 2 7.32 2 8 2 C8.33 1.34 8.66 0.68 9 0 C9.99 1.98 10.98 3.96 12 6 C9.92495298 7.25984998 8.44537763 7.98608195 6 8.0625 C2.69048726 6.30432136 1.67364865 3.28752414 0 0 Z " fill="#F1F1F1" transform="translate(157,185)"/>
<path d="M0 0 C0 0.66 0 1.32 0 2 C0.99 1.67 1.98 1.34 3 1 C3.66 2.98 4.32 4.96 5 7 C0.25 8.125 0.25 8.125 -2 7 C-2 6.34 -2 5.68 -2 5 C-3.65 5.66 -5.3 6.32 -7 7 C-3.86206897 0 -3.86206897 0 0 0 Z " fill="#0E0E0E" transform="translate(235,168)"/>
<path d="M0 0 C3.53233755 1.17744585 3.86308075 1.95605641 5.6875 5.0625 C6.12449219 5.79597656 6.56148437 6.52945313 7.01171875 7.28515625 C7.33785156 7.85105469 7.66398438 8.41695312 8 9 C6.25 10.125 6.25 10.125 4 11 C2.68 10.34 1.36 9.68 0 9 C0 6.03 0 3.06 0 0 Z " fill="#0A0A0A" transform="translate(177,148)"/>
<path d="M0 0 C0.66 0 1.32 0 2 0 C3.5078125 1.96875 3.5078125 1.96875 5.125 4.5 C5.66382813 5.3353125 6.20265625 6.170625 6.7578125 7.03125 C7.16773438 7.6809375 7.57765625 8.330625 8 9 C7.34 9.66 6.68 10.32 6 11 C6 10.01 6 9.02 6 8 C4.02 8.66 2.04 9.32 0 10 C-0.66 9.34 -1.32 8.68 -2 8 C-1.6875 6.125 -1.6875 6.125 -1 4 C-0.814375 3.2575 -0.62875 2.515 -0.4375 1.75 C-0.293125 1.1725 -0.14875 0.595 0 0 Z " fill="#F2F2F2" transform="translate(234,203)"/>
<path d="M0 0 C2 3 2 3 1.8125 5.4375 C0.93417924 8.20758856 0.01394701 9.90859349 -2 12 C-2.99 12 -3.98 12 -5 12 C-5 11.34 -5 10.68 -5 10 C-5.66 9.34 -6.32 8.68 -7 8 C-4.69 5.36 -2.38 2.72 0 0 Z " fill="#0D0D0D" transform="translate(285,107)"/>
<path d="M0 0 C0.66 0 1.32 0 2 0 C3.28006797 1.78398614 4.47660351 3.62853906 5.625 5.5 C6.57246094 7.03140625 6.57246094 7.03140625 7.5390625 8.59375 C8.02117187 9.3878125 8.50328125 10.181875 9 11 C6.10765685 11.82638376 4.11257569 12 1 12 C1 11.34 1 10.68 1 10 C2.32 10 3.64 10 5 10 C3.0745356 7.7763932 3.0745356 7.7763932 0 7 C0 4.69 0 2.38 0 0 Z " fill="#F0F0F0" transform="translate(225,259)"/>
<path d="M0 0 C-1.36370299 2.99220268 -2.94908083 5.29026529 -5.125 7.75 C-5.93324219 8.67039062 -5.93324219 8.67039062 -6.7578125 9.609375 C-7.16773437 10.06828125 -7.57765625 10.5271875 -8 11 C-8.33 10.01 -8.66 9.02 -9 8 C-7.5625 5.8125 -7.5625 5.8125 -6 4 C-6.66 3.67 -7.32 3.34 -8 3 C-8 1.68 -8 0.36 -8 -1 C-4.37673261 -2.2077558 -3.35853631 -1.54311128 0 0 Z " fill="#0E0E0E" transform="translate(114,283)"/>
<path d="M0 0 C3.94875582 1.31625194 4.54992713 3.05365398 6.6875 6.5625 C7.31011719 7.57441406 7.93273437 8.58632813 8.57421875 9.62890625 C9.04472656 10.41136719 9.51523437 11.19382812 10 12 C9.01 12.33 8.02 12.66 7 13 C7 12.34 7 11.68 7 11 C6.01 11.33 5.02 11.66 4 12 C1.3125 11.0625 1.3125 11.0625 -1 10 C-0.505 9.38125 -0.01 8.7625 0.5 8.125 C2.19222773 6.16119096 2.19222773 6.16119096 2 4 C1.36525925 2.65117592 0.70151152 1.3153341 0 0 Z " fill="#111111" transform="translate(266,275)"/>
<path d="M0 0 C0.928125 0.20625 1.85625 0.4125 2.8125 0.625 C2.503125 1.223125 2.19375 1.82125 1.875 2.4375 C0.71040296 4.71456772 0.71040296 4.71456772 -0.1875 7.625 C0.4725 8.285 1.1325 8.945 1.8125 9.625 C1.1525 10.285 0.4925 10.945 -0.1875 11.625 C-2.1675 8.325 -4.1475 5.025 -6.1875 1.625 C-3.1875 -0.375 -3.1875 -0.375 0 0 Z " fill="#EFEFEF" transform="translate(284.1875,288.375)"/>
<path d="M0 0 C2.31 0.33 4.62 0.66 7 1 C8 4 8 4 7.0625 6.1875 C6.5365625 7.0846875 6.5365625 7.0846875 6 8 C3.23737447 7.6189482 2.15856106 7.16402868 0.1875 5.125 C-0.204375 4.42375 -0.59625 3.7225 -1 3 C-0.67 2.01 -0.34 1.02 0 0 Z " fill="#0B0B0B" transform="translate(232,264)"/>
<path d="M0 0 C1.09898702 3.29696105 0.87124444 4.40494903 0.0625 7.6875 C-0.13214844 8.49574219 -0.32679688 9.30398437 -0.52734375 10.13671875 C-0.68332031 10.75160156 -0.83929688 11.36648437 -1 12 C-1.33 11.34 -1.66 10.68 -2 10 C-3.98 10.33 -5.96 10.66 -8 11 C-6.63629701 8.00779732 -5.05091917 5.70973471 -2.875 3.25 C-2.33617187 2.63640625 -1.79734375 2.0228125 -1.2421875 1.390625 C-0.62730469 0.70226562 -0.62730469 0.70226562 0 0 Z " fill="#EDEDED" transform="translate(244,132)"/>
<path d="M0 0 C0.66 1.32 1.32 2.64 2 4 C-0.97 6.475 -0.97 6.475 -4 9 C-4.66 8.01 -5.32 7.02 -6 6 C-5.67 5.67 -5.34 5.34 -5 5 C-5.66 4.67 -6.32 4.34 -7 4 C-6.67 3.01 -6.34 2.02 -6 1 C-4.68 1 -3.36 1 -2 1 C-1.34 0.67 -0.68 0.34 0 0 Z " fill="#0C0C0C" transform="translate(271,96)"/>
<path d="M0 0 C1.8125 2 1.8125 2 3 4 C2.67 4.66 2.34 5.32 2 6 C1.38125 5.814375 0.7625 5.62875 0.125 5.4375 C-2.04160178 4.76313824 -2.04160178 4.76313824 -4 6 C-4.33 5.34 -4.66 4.68 -5 4 C-5.99 4 -6.98 4 -8 4 C-8 3.01 -8 2.02 -8 1 C-4.97923697 -0.00692101 -3.1408885 -0.39261106 0 0 Z " fill="#ECECEC" transform="translate(295,289)"/>
<path d="M0 0 C0.66 0.66 1.32 1.32 2 2 C0.73058503 5.91402949 -0.51167694 7.79072873 -4 10 C-6 7 -6 7 -7 5 C-2.25 2 -2.25 2 0 2 C0 1.34 0 0.68 0 0 Z " fill="#090909" transform="translate(168,215)"/>
<path d="M0 0 C2.31 0.66 4.62 1.32 7 2 C7.93423645 5.01031744 8.04449911 5.86650268 7 9 C6.34 9 5.68 9 5 9 C3.7109375 7.5390625 3.7109375 7.5390625 2.375 5.625 C1.92898437 4.99851563 1.48296875 4.37203125 1.0234375 3.7265625 C0 2 0 2 0 0 Z " fill="#0F0F0F" transform="translate(215,242)"/>
<path d="M0 0 C2.66735273 2.48952921 4.55746343 4.63408134 6 8 C4.1875 8.6875 4.1875 8.6875 2 9 C-0.48615558 7.15840327 -1.00156904 5.99529289 -2 3 C-1.34 2.01 -0.68 1.02 0 0 Z " fill="#0D0D0D" transform="translate(210,263)"/>
<path d="M0 0 C-0.33 1.65 -0.66 3.3 -1 5 C-3.31 4.34 -5.62 3.68 -8 3 C-8 2.01 -8 1.02 -8 0 C-5.13822943 -1.43088528 -3.06624227 -0.59991697 0 0 Z " fill="#F1F1F1" transform="translate(112,306)"/>
<path d="M0 0 C0.99 0.33 1.98 0.66 3 1 C1.625 2.5 1.625 2.5 0 4 C-0.66 4 -1.32 4 -2 4 C-2.33 5.98 -2.66 7.96 -3 10 C-4.5625 8.75 -4.5625 8.75 -6 7 C-5.6875 4.8125 -5.6875 4.8125 -5 3 C-3.35 2.67 -1.7 2.34 0 2 C0 1.34 0 0.68 0 0 Z " fill="#F1F1F1" transform="translate(138,258)"/>
<path d="M0 0 C0.33 0.66 0.66 1.32 1 2 C1.99 2.33 2.98 2.66 4 3 C4 3.66 4 4.32 4 5 C3.34 5 2.68 5 2 5 C1.67 5.66 1.34 6.32 1 7 C-0.66666667 7 -2.33333333 7 -4 7 C-3.43628586 3.73045798 -2.50037734 2.17424117 0 0 Z " fill="#101010" transform="translate(275,119)"/>
<path d="M0 0 C0.33 0.66 0.66 1.32 1 2 C1.99 2.33 2.98 2.66 4 3 C1.69 5.64 -0.62 8.28 -3 11 C-3.66 9.68 -4.32 8.36 -5 7 C-4.01 7.33 -3.02 7.66 -2 8 C-2.061875 6.576875 -2.061875 6.576875 -2.125 5.125 C-2 2 -2 2 0 0 Z " fill="#EBEBEB" transform="translate(267,122)"/>
<path d="M0 0 C3.08089673 2.77280706 4.68775452 5.06326356 6 9 C3 8 3 8 1 6 C0.34 6.66 -0.32 7.32 -1 8 C-1.66 7.67 -2.32 7.34 -3 7 C-1.125 2.25 -1.125 2.25 0 0 Z " fill="#141414" transform="translate(116,126)"/>
<path d="M0 0 C1.5625 1.1875 1.5625 1.1875 3 3 C2.6875 5.6875 2.6875 5.6875 2 8 C1.67 7.34 1.34 6.68 1 6 C-0.32 6.33 -1.64 6.66 -3 7 C-3 3 -3 3 -1.5 1.25 C-1.005 0.8375 -0.51 0.425 0 0 Z " fill="#101010" transform="translate(165,247)"/>
<path d="M0 0 C2.99324263 1.0975223 3.84610901 1.67682892 5.25 4.625 C5.4975 5.40875 5.745 6.1925 6 7 C4.68 7.33 3.36 7.66 2 8 C0.4375 6.25 0.4375 6.25 -1 4 C-0.6875 1.75 -0.6875 1.75 0 0 Z " fill="#0C0C0C" transform="translate(195,210)"/>
<path d="M0 0 C0.66 0.33 1.32 0.66 2 1 C2.99 1 3.98 1 5 1 C5.66 2.32 6.32 3.64 7 5 C5.02 5.66 3.04 6.32 1 7 C-0.0625 5.1875 -0.0625 5.1875 -1 3 C-0.67 2.01 -0.34 1.02 0 0 Z " fill="#101010" transform="translate(137,161)"/>
<path d="M0 0 C0.99 0.33 1.98 0.66 3 1 C0.36 3.97 -2.28 6.94 -5 10 C-5.66 9.67 -6.32 9.34 -7 9 C-6.67 8.01 -6.34 7.02 -6 6 C-5.34 6 -4.68 6 -4 6 C-3.896875 5.38125 -3.79375 4.7625 -3.6875 4.125 C-3 2 -3 2 0 0 Z " fill="#121212" transform="translate(160,227)"/>
<path d="M0 0 C2.125 0.375 2.125 0.375 4 1 C2.68 1.33 1.36 1.66 0 2 C0.33 4.31 0.66 6.62 1 9 C-1.475 8.01 -1.475 8.01 -4 7 C-2.92598892 4.08482708 -2.22189824 2.22189824 0 0 Z " fill="#0F0F0F" transform="translate(255,142)"/>
<path d="M0 0 C3.68802044 1.22934015 4.72356973 2.93859378 7 6 C7.33 5.34 7.66 4.68 8 4 C8.66 4.33 9.32 4.66 10 5 C9.67 6.32 9.34 7.64 9 9 C8.01 9 7.02 9 6 9 C4.39453125 7.03125 4.39453125 7.03125 2.8125 4.5 C2.28269531 3.6646875 1.75289062 2.829375 1.20703125 1.96875 C0.80871094 1.3190625 0.41039062 0.669375 0 0 Z " fill="#E8E8E8" transform="translate(238,303)"/>
<path d="M0 0 C1.68762851 1.6454378 3.3540349 3.31288577 5 5 C5 5.33 5 5.66 5 6 C2.69 6 0.38 6 -2 6 C-2 4.35 -2 2.7 -2 1 C-1.34 0.67 -0.68 0.34 0 0 Z " fill="#F2F2F2" transform="translate(306,307)"/>
<path d="M0 0 C2 4 2 4 2 6 C1.4225 6.103125 0.845 6.20625 0.25 6.3125 C-2.32049158 7.09792798 -3.93657284 8.30504197 -6 10 C-6.66 9.67 -7.32 9.34 -8 9 C-5.36 6.03 -2.72 3.06 0 0 Z " fill="#151515" transform="translate(150,264)"/>
<path d="M0 0 C0.66 0.33 1.32 0.66 2 1 C1.938125 1.763125 1.87625 2.52625 1.8125 3.3125 C2.03333514 6.47780368 2.69698534 6.98486217 5 9 C5 9.66 5 10.32 5 11 C1.30209954 9.76736651 1.0645154 8.79947549 -0.6875 5.4375 C-1.12449219 4.61121094 -1.56148437 3.78492188 -2.01171875 2.93359375 C-2.33785156 2.29550781 -2.66398438 1.65742188 -3 1 C-2.01 0.67 -1.02 0.34 0 0 Z " fill="#171717" transform="translate(190,131)"/>
<path d="M0 0 C2.66735273 2.48952921 4.55746343 4.63408134 6 8 C5.01 8.495 5.01 8.495 4 9 C1.9375 8.25 1.9375 8.25 0 7 C-1.04449911 3.86650268 -0.93423645 3.01031744 0 0 Z " fill="#131313" transform="translate(105,110)"/>
<path d="M0 0 C1.32 0.33 2.64 0.66 4 1 C3.4375 2.9375 3.4375 2.9375 2 5 C-1.625 5.75 -1.625 5.75 -5 6 C-3.35 4.02 -1.7 2.04 0 0 Z " fill="#ECECEC" transform="translate(124,272)"/>
<path d="M0 0 C2.375 0.25 2.375 0.25 5 1 C6.3125 3.0625 6.3125 3.0625 7 5 C6.34 5 5.68 5 5 5 C4.67 5.99 4.34 6.98 4 8 C0 2.25 0 2.25 0 0 Z " fill="#EFEFEF" transform="translate(168,200)"/>
<path d="M0 0 C0.99 0 1.98 0 3 0 C3 2 3 4 3 6 C1 7.625 1 7.625 -1 9 C-2.0326802 6.21176345 -2.04509293 5.1322726 -1.0625 2.25 C-0.711875 1.5075 -0.36125 0.765 0 0 Z " fill="#F0F0F0" transform="translate(203,159)"/>
<path d="M0 0 C1.32 1.32 2.64 2.64 4 4 C3.67 4.99 3.34 5.98 3 7 C1.125 6.6875 1.125 6.6875 -1 6 C-1.66 5.01 -2.32 4.02 -3 3 C-2.01 2.01 -1.02 1.02 0 0 Z " fill="#101010" transform="translate(165,129)"/>
<path d="M0 0 C2.12038635 2.61514317 4.13091744 5.19637616 6 8 C4.35 8.66 2.7 9.32 1 10 C1 9.01 1 8.02 1 7 C0.36893571 4.98848259 -0.29373761 2.98636298 -1 1 C-0.67 0.67 -0.34 0.34 0 0 Z " fill="#0E0E0E" transform="translate(204,254)"/>
<path d="M0 0 C1.32 0.66 2.64 1.32 4 2 C3.19152271 3.16945792 2.37810888 4.33550461 1.5625 5.5 C1.11003906 6.1496875 0.65757812 6.799375 0.19140625 7.46875 C-0.20175781 7.9740625 -0.59492188 8.479375 -1 9 C-1.33 9 -1.66 9 -2 9 C-2.25 3.375 -2.25 3.375 0 0 Z " fill="#0B0B0B" transform="translate(138,249)"/>
<path d="M0 0 C1.9375 0.8125 1.9375 0.8125 3.9375 3.8125 C1.125 4.5 1.125 4.5 -2.0625 4.8125 C-3.9375 3.375 -3.9375 3.375 -5.0625 1.8125 C-2.0625 -0.1875 -2.0625 -0.1875 0 0 Z " fill="#0C0C0C" transform="translate(221.0625,210.1875)"/>
<path d="M0 0 C0.99 0.33 1.98 0.66 3 1 C2.67 2.32 2.34 3.64 2 5 C2.66 5.33 3.32 5.66 4 6 C3.67 6.66 3.34 7.32 3 8 C2.01 7.67 1.02 7.34 0 7 C-1.1875 4.4375 -1.1875 4.4375 -2 2 C-1.34 1.34 -0.68 0.68 0 0 Z " fill="#101010" transform="translate(236,198)"/>
<path d="M0 0 C4 5 4 5 8 10 C7.67 10.66 7.34 11.32 7 12 C4.5 9.6875 4.5 9.6875 2 7 C2 6.01 2 5.02 2 4 C1.34 4 0.68 4 0 4 C0 2.68 0 1.36 0 0 Z " fill="#0F0F0F" transform="translate(145,168)"/>
<path d="M0 0 C0.66 0.66 1.32 1.32 2 2 C0.75 3.5 0.75 3.5 -1 5 C-2.32 5 -3.64 5 -5 5 C-5.66 5.99 -6.32 6.98 -7 8 C-7.33 7.34 -7.66 6.68 -8 6 C-3.375 0 -3.375 0 0 0 Z " fill="#F1F1F1" transform="translate(225,158)"/>
<path d="M0 0 C1.65 1.32 3.3 2.64 5 4 C3.1875 5.0625 3.1875 5.0625 1 6 C0.01 5.67 -0.98 5.34 -2 5 C-1.125 1.125 -1.125 1.125 0 0 Z " fill="#0C0C0C" transform="translate(145,136)"/>
<path d="M0 0 C1.32 0.99 2.64 1.98 4 3 C1.36095629 4.41377341 -1.07120629 5.37240135 -4 6 C-2.84826645 3.53199953 -1.95216435 1.95216435 0 0 Z M-5 6 C-4.67 6.66 -4.34 7.32 -4 8 C-4.66 7.67 -5.32 7.34 -6 7 C-5.67 6.67 -5.34 6.34 -5 6 Z M-7 8 C-6.67 8.66 -6.34 9.32 -6 10 C-6.66 9.67 -7.32 9.34 -8 9 C-7.67 8.67 -7.34 8.34 -7 8 Z " fill="#F1F1F1" transform="translate(259,115)"/>
<path d="M0 0 C1.32 0.66 2.64 1.32 4 2 C2.515 4.475 2.515 4.475 1 7 C-0.32 6.34 -1.64 5.68 -3 5 C-1.125 1.125 -1.125 1.125 0 0 Z " fill="#101010" transform="translate(253,115)"/>
<path d="M0 0 C1.32 0.66 2.64 1.32 4 2 C4 2.99 4 3.98 4 5 C1 7 1 7 -2 7 C-1.67 6.030625 -1.34 5.06125 -1 4.0625 C0.05173363 1.37850426 0.05173363 1.37850426 0 0 Z " fill="#0D0D0D" transform="translate(250,253)"/>
<path d="M0 0 C0.66 0 1.32 0 2 0 C4 3 4 3 3.625 5.1875 C3.41875 5.785625 3.2125 6.38375 3 7 C1.68 6.34 0.36 5.68 -1 5 C-0.67 3.35 -0.34 1.7 0 0 Z " fill="#F0F0F0" transform="translate(218,249)"/>
<path d="M0 0 C1.65 0 3.3 0 5 0 C4.979375 0.94875 4.95875 1.8975 4.9375 2.875 C4.77448174 5.90666283 4.77448174 5.90666283 6 8 C2.24623848 6.74874616 1.75926711 5.4347596 0 2 C0 1.34 0 0.68 0 0 Z " fill="#0D0D0D" transform="translate(264,243)"/>
<path d="M0 0 C1.9375 0.3125 1.9375 0.3125 4 1 C5 4 5 4 4 7 C1 6 1 6 -0.25 4.0625 C-0.4975 3.381875 -0.745 2.70125 -1 2 C-0.67 1.34 -0.34 0.68 0 0 Z " fill="#F2F2F2" transform="translate(170,132)"/>
<path d="M0 0 C1.32 1.32 2.64 2.64 4 4 C2.6875 5.5 2.6875 5.5 1 7 C0.01 7 -0.98 7 -2 7 C-2.125 4.625 -2.125 4.625 -2 2 C-1.34 1.34 -0.68 0.68 0 0 Z " fill="#EFEFEF" transform="translate(137,132)"/>
<path d="M0 0 C1.32 1.32 2.64 2.64 4 4 C3.01 5.485 3.01 5.485 2 7 C1.01 6.67 0.02 6.34 -1 6 C-1 5.34 -1 4.68 -1 4 C-1.66 4 -2.32 4 -3 4 C-2.67 3.01 -2.34 2.02 -2 1 C-1.34 0.67 -0.68 0.34 0 0 Z " fill="#EFEFEF" transform="translate(123,112)"/>
<path d="M0 0 C0.33 0.66 0.66 1.32 1 2 C1.969375 2.12375 2.93875 2.2475 3.9375 2.375 C7 3 7 3 8.375 5.0625 C8.58125 5.701875 8.7875 6.34125 9 7 C2.47692308 6.50769231 2.47692308 6.50769231 0.0625 3.9375 C-0.4634375 2.9784375 -0.4634375 2.9784375 -1 2 C-0.67 1.34 -0.34 0.68 0 0 Z " fill="#EDEDED" transform="translate(153,89)"/>
<path d="M0 0 C0.99 0.33 1.98 0.66 3 1 C3.6875 3.0625 3.6875 3.0625 4 5 C2.02 5.99 2.02 5.99 0 7 C-1.125 2.25 -1.125 2.25 0 0 Z " fill="#0C0C0C" transform="translate(161,88)"/>
<path d="M0 0 C1.65 0.33 3.3 0.66 5 1 C2.525 4.465 2.525 4.465 0 8 C-1.125 6.25 -1.125 6.25 -2 4 C-1.125 1.75 -1.125 1.75 0 0 Z " fill="#0F0F0F" transform="translate(131,257)"/>
<path d="M0 0 C1.32 0.33 2.64 0.66 4 1 C3.34 2.65 2.68 4.3 2 6 C0.35 5.67 -1.3 5.34 -3 5 C-2.01 3.35 -1.02 1.7 0 0 Z " fill="#151515" transform="translate(224,178)"/>
<path d="M0 0 C2.66735273 2.48952921 4.55746343 4.63408134 6 8 C4.0625 7.625 4.0625 7.625 2 7 C1.67 6.34 1.34 5.68 1 5 C0.01 5 -0.98 5 -2 5 C-2 4.01 -2 3.02 -2 2 C-1.34 2 -0.68 2 0 2 C0 1.34 0 0.68 0 0 Z " fill="#EEEEEE" transform="translate(158,162)"/>
<path d="M0 0 C0.99 0.33 1.98 0.66 3 1 C2.67 1.99 2.34 2.98 2 4 C2.66 4 3.32 4 4 4 C3.67 4.66 3.34 5.32 3 6 C3 6.66 3 7.32 3 8 C2.01 8 1.02 8 0 8 C-1.125 6.25 -1.125 6.25 -2 4 C-1.125 1.75 -1.125 1.75 0 0 Z " fill="#0A0A0A" transform="translate(162,160)"/>
<path d="M0 0 C0.66 0 1.32 0 2 0 C4 3 4 3 3.625 5.1875 C3.41875 5.785625 3.2125 6.38375 3 7 C1.68 7 0.36 7 -1 7 C-0.67 4.69 -0.34 2.38 0 0 Z " fill="#0E0E0E" transform="translate(276,289)"/>
<path d="M0 0 C0.99 1.32 1.98 2.64 3 4 C0.03 6.475 0.03 6.475 -3 9 C-3.33 8.01 -3.66 7.02 -4 6 C-3.34 6 -2.68 6 -2 6 C-1.34 4.02 -0.68 2.04 0 0 Z " fill="#EFEFEF" transform="translate(212,239)"/>
<path d="M0 0 C1.2065625 0.0309375 1.2065625 0.0309375 2.4375 0.0625 C1.7775 1.3825 1.1175 2.7025 0.4375 4.0625 C-0.5525 4.0625 -1.5425 4.0625 -2.5625 4.0625 C-3.5525 4.3925 -4.5425 4.7225 -5.5625 5.0625 C-3.15007962 0.07683121 -3.15007962 0.07683121 0 0 Z " fill="#ECECEC" transform="translate(173.5625,216.9375)"/>
<path d="M0 0 C1.32 1.65 2.64 3.3 4 5 C1.6875 5.6875 1.6875 5.6875 -1 6 C-2.8125 4.5625 -2.8125 4.5625 -4 3 C-3.67 2.34 -3.34 1.68 -3 1 C-2.01 1.33 -1.02 1.66 0 2 C0 1.34 0 0.68 0 0 Z " fill="#0E0E0E" transform="translate(214,199)"/>
<path d="M0 0 C3.68754757 0.49831724 5.60490662 1.10067643 8 4 C6.02 4.99 6.02 4.99 4 6 C2.68 4.02 1.36 2.04 0 0 Z " fill="#161616" transform="translate(223,185)"/>
<path d="M0 0 C0.33 0.66 0.66 1.32 1 2 C1.66 2 2.32 2 3 2 C3.33 1.34 3.66 0.68 4 0 C4.66 0.33 5.32 0.66 6 1 C6.625 3.5625 6.625 3.5625 7 6 C5.88625 5.5359375 5.88625 5.5359375 4.75 5.0625 C2.49307824 4.1905075 0.3549847 3.52332993 -2 3 C-1.34 2.01 -0.68 1.02 0 0 Z " fill="#ECECEC" transform="translate(280,90)"/>
<path d="M0 0 C2.97 0.33 5.94 0.66 9 1 C7.515 2.485 7.515 2.485 6 4 C5.01 3.67 4.02 3.34 3 3 C2.67 3.66 2.34 4.32 2 5 C0 1.125 0 1.125 0 0 Z " fill="#0E0E0E" transform="translate(216,282)"/>
<path d="M0 0 C4.75 0.75 4.75 0.75 7 3 C5.02 3.66 3.04 4.32 1 5 C0.67 3.35 0.34 1.7 0 0 Z " fill="#101010" transform="translate(247,217)"/>
<path d="M0 0 C0.66 0.33 1.32 0.66 2 1 C1.67 1.66 1.34 2.32 1 3 C2.32 2.01 3.64 1.02 5 0 C5.33 0.66 5.66 1.32 6 2 C5.01 3.32 4.02 4.64 3 6 C-0.875 4.25 -0.875 4.25 -2 2 C-1.34 2 -0.68 2 0 2 C0 1.34 0 0.68 0 0 Z " fill="#EFEFEF" transform="translate(224,208)"/>
<path d="M0 0 C2.31 0 4.62 0 7 0 C5.25 4.875 5.25 4.875 3 6 C2.01 4.02 1.02 2.04 0 0 Z " fill="#0F0F0F" transform="translate(224,146)"/>
<path d="M0 0 C-1.375 2.5 -1.375 2.5 -3 5 C-3.66 5 -4.32 5 -5 5 C-5.66 3.35 -6.32 1.7 -7 0 C-4.3333581 -1.33332095 -2.83319697 -0.67102033 0 0 Z " fill="#111111" transform="translate(127,106)"/>
<path d="M0 0 C0.33 0.99 0.66 1.98 1 3 C1.66 3.33 2.32 3.66 3 4 C2.34 5.32 1.68 6.64 1 8 C0.34 8 -0.32 8 -1 8 C-1.625 5.6875 -1.625 5.6875 -2 3 C-1.34 2.01 -0.68 1.02 0 0 Z " fill="#0E0E0E" transform="translate(202,216)"/>
<path d="M0 0 C1.65 1.65 3.3 3.3 5 5 C4.01 5.495 4.01 5.495 3 6 C0.64018187 5.06421005 -1.69631264 4.06652192 -4 3 C-2.68 2.01 -1.36 1.02 0 0 Z " fill="#121212" transform="translate(199,178)"/>
<path d="M0 0 C1.98 0 3.96 0 6 0 C6.33 0.99 6.66 1.98 7 3 C6.01 3.99 5.02 4.98 4 6 C2.68 4.02 1.36 2.04 0 0 Z " fill="#121212" transform="translate(152,153)"/>
<path d="M0 0 C0.99 0.33 1.98 0.66 3 1 C3.6875 3.0625 3.6875 3.0625 4 5 C2.68 5.33 1.36 5.66 0 6 C-0.33 5.01 -0.66 4.02 -1 3 C-1.66 2.67 -2.32 2.34 -3 2 C-2.01 2 -1.02 2 0 2 C0 1.34 0 0.68 0 0 Z " fill="#0B0B0B" transform="translate(107,314)"/>
<path d="M0 0 C0.99 0.33 1.98 0.66 3 1 C3.33 2.98 3.66 4.96 4 7 C3.01 7 2.02 7 1 7 C-0.0625 5.1875 -0.0625 5.1875 -1 3 C-0.67 2.01 -0.34 1.02 0 0 Z " fill="#0E0E0E" transform="translate(252,291)"/>
<path d="M0 0 C1.32 0.66 2.64 1.32 4 2 C4 2.66 4 3.32 4 4 C2 5.625 2 5.625 0 7 C-0.93423645 3.98968256 -1.04449911 3.13349732 0 0 Z " fill="#F2F2F2" transform="translate(114,105)"/>
<path d="M0 0 C1.32 1.32 2.64 2.64 4 4 C3.67 4.99 3.34 5.98 3 7 C1.68 6.67 0.36 6.34 -1 6 C-0.67 4.02 -0.34 2.04 0 0 Z " fill="#0A0A0A" transform="translate(89,87)"/>
<path d="M0 0 C0.99 0.99 1.98 1.98 3 3 C2.01 4.485 2.01 4.485 1 6 C0.67 5.34 0.34 4.68 0 4 C-0.99 4 -1.98 4 -3 4 C-3 3.01 -3 2.02 -3 1 C-2.01 0.67 -1.02 0.34 0 0 Z " fill="#F3F3F3" transform="translate(290,289)"/>
<path d="M0 0 C0.99 0 1.98 0 3 0 C4.6875 2.5 4.6875 2.5 6 5 C5.01 5.33 4.02 5.66 3 6 C1.68 4.68 0.36 3.36 -1 2 C-0.67 1.34 -0.34 0.68 0 0 Z " fill="#0F0F0F" transform="translate(235,232)"/>
<path d="M0 0 C0.99 0.33 1.98 0.66 3 1 C2.67 1.99 2.34 2.98 2 4 C1.34 4 0.68 4 0 4 C0 4.66 0 5.32 0 6 C-0.99 6.33 -1.98 6.66 -3 7 C-1.125 1.125 -1.125 1.125 0 0 Z " fill="#090909" transform="translate(157,225)"/>
<path d="M0 0 C0.33 0.66 0.66 1.32 1 2 C0.34 1.67 -0.32 1.34 -1 1 C-0.67 0.67 -0.34 0.34 0 0 Z M-3 2 C-2.34 2 -1.68 2 -1 2 C-1 2.66 -1 3.32 -1 4 C0.32 4.66 1.64 5.32 3 6 C2.67 6.66 2.34 7.32 2 8 C1.34 8 0.68 8 0 8 C-3 4.53846154 -3 4.53846154 -3 2 Z " fill="#EBEBEB" transform="translate(211,187)"/>
<path d="M0 0 C0.66 0.99 1.32 1.98 2 3 C1.67 3.99 1.34 4.98 1 6 C0.34 6 -0.32 6 -1 6 C-1.66 4.35 -2.32 2.7 -3 1 C-2.01 0.67 -1.02 0.34 0 0 Z " fill="#0D0D0D" transform="translate(142,132)"/>
<path d="M0 0 C2.475 0.99 2.475 0.99 5 2 C4.01 3.485 4.01 3.485 3 5 C1.68 4.67 0.36 4.34 -1 4 C-0.67 2.68 -0.34 1.36 0 0 Z " fill="#F0F0F0" transform="translate(105,105)"/>
<path d="M0 0 C0.99 0 1.98 0 3 0 C3 1.65 3 3.3 3 5 C0.525 4.01 0.525 4.01 -2 3 C-1.34 2.01 -0.68 1.02 0 0 Z " fill="#121212" transform="translate(120,299)"/>
<path d="M0 0 C1.32 1.32 2.64 2.64 4 4 C3.67 4.99 3.34 5.98 3 7 C2.01 7 1.02 7 0 7 C0.33 5.35 0.66 3.7 1 2 C0.34 1.67 -0.32 1.34 -1 1 C-0.67 0.67 -0.34 0.34 0 0 Z " fill="#F2F2F2" transform="translate(241,281)"/>
<path d="M0 0 C-0.33 0.99 -0.66 1.98 -1 3 C-3.0625 3.6875 -3.0625 3.6875 -5 4 C-5.66 3.01 -6.32 2.02 -7 1 C-4.50935112 0.31292445 -2.62113708 0 0 0 Z " fill="#0D0D0D" transform="translate(160,260)"/>
<path d="M0 0 C1.65 0.33 3.3 0.66 5 1 C4.34 2.32 3.68 3.64 3 5 C1.68 4.01 0.36 3.02 -1 2 C-0.67 1.34 -0.34 0.68 0 0 Z " fill="#EEEEEE" transform="translate(157,249)"/>
<path d="M0 0 C0.66 0.33 1.32 0.66 2 1 C1.25 2.9375 1.25 2.9375 0 5 C-2.125 5.75 -2.125 5.75 -4 6 C-2.84826645 3.53199953 -1.95216435 1.95216435 0 0 Z " fill="#131313" transform="translate(184,225)"/>
<path d="M0 0 C0.99 0 1.98 0 3 0 C3.66 1.32 4.32 2.64 5 4 C3.68 4.33 2.36 4.66 1 5 C0.34 3.68 -0.32 2.36 -1 1 C-0.67 0.67 -0.34 0.34 0 0 Z " fill="#0D0D0D" transform="translate(226,219)"/>
<path d="M0 0 C0.66 0 1.32 0 2 0 C2.66 1.65 3.32 3.3 4 5 C3.01 5.66 2.02 6.32 1 7 C0.31292445 4.50935112 0 2.62113708 0 0 Z " fill="#E9E9E9" transform="translate(144,143)"/>
<path d="M0 0 C1.32 1.32 2.64 2.64 4 4 C3.67 4.66 3.34 5.32 3 6 C1.35 5.67 -0.3 5.34 -2 5 C-1.34 3.35 -0.68 1.7 0 0 Z " fill="#F0F0F0" transform="translate(173,113)"/>
<path d="M0 0 C-1.625 1.5625 -1.625 1.5625 -4 3 C-7.25 2.6875 -7.25 2.6875 -10 2 C-6.70021068 -0.19985954 -3.76967739 -1.88483869 0 0 Z " fill="#151515" transform="translate(267,107)"/>
<path d="M0 0 C1.98 0 3.96 0 6 0 C5.34 1.32 4.68 2.64 4 4 C3.01 4 2.02 4 1 4 C1.33 3.01 1.66 2.02 2 1 C1.34 0.67 0.68 0.34 0 0 Z " fill="#E8E8E8" transform="translate(297,86)"/>
</svg>
