<?xml version="1.0" encoding="UTF-8"?>
<svg version="1.1" xmlns="http://www.w3.org/2000/svg" width="200" height="200">
<path d="M0 0 C66 0 132 0 200 0 C200 66 200 132 200 200 C134 200 68 200 0 200 C0 134 0 68 0 0 Z " fill="#010101" transform="translate(0,0)"/>
<path d="M0 0 C0.88558594 -0.03287109 1.77117187 -0.06574219 2.68359375 -0.09960938 C7.1173587 -0.13595171 10.17194105 -0.02197527 13.6953125 2.83984375 C16.74031766 6.0953557 17.24811464 7.48173154 17.31787109 11.79199219 C17.33393402 12.69342957 17.34999695 13.59486694 17.36654663 14.52362061 C17.41102617 18.6531093 17.45207206 22.78243703 17.47509766 26.91210938 C17.4916456 29.08865052 17.51892011 31.26513759 17.55712891 33.44140625 C17.61196716 36.58101572 17.63378384 39.71935073 17.6484375 42.859375 C17.67110687 43.82832703 17.69377625 44.79727905 17.71713257 45.79559326 C17.70308358 50.30129756 17.61836605 53.44657632 14.71728516 57.03613281 C10.10929987 61.30474679 6.27608693 60.62077413 0.25 60.625 C-0.66136719 60.63724609 -1.57273437 60.64949219 -2.51171875 60.66210938 C-3.39214844 60.66404297 -4.27257812 60.66597656 -5.1796875 60.66796875 C-5.98390137 60.67207764 -6.78811523 60.67618652 -7.61669922 60.68041992 C-11.30560111 60.28361372 -13.15812918 59.25886798 -15.60009766 56.4609375 C-17.47769516 52.00820531 -17.30356388 47.84834794 -17.2734375 43.0625 C-17.27630768 42.06041504 -17.27917786 41.05833008 -17.28213501 40.02587891 C-17.28417286 37.91112705 -17.27866257 35.79635623 -17.26611328 33.68164062 C-17.25005607 30.44878909 -17.26597188 27.21718775 -17.28515625 23.984375 C-17.28317377 21.92708058 -17.27932999 19.86978694 -17.2734375 17.8125 C-17.27951019 16.84779785 -17.28558289 15.8830957 -17.2918396 14.88916016 C-17.20150015 6.24889898 -17.20150015 6.24889898 -13.875 2.4375 C-9.62972817 -0.43897941 -4.95060313 0.03214677 0 0 Z " fill="#F1F1F1" transform="translate(115.875,69.5625)"/>
<path d="M0 0 C0 8.91 0 17.82 0 27 C2.31 27 4.62 27 7 27 C8 28 8 28 8.0625 30.5625 C8.041875 31.366875 8.02125 32.17125 8 33 C5.69 33 3.38 33 1 33 C1 42.24 1 51.48 1 61 C-0.98 61 -2.96 61 -5 61 C-5 51.76 -5 42.52 -5 33 C-11.92692394 33.27542687 -11.92692394 33.27542687 -18.84985352 33.63061523 C-25.8951359 33.77124869 -25.8951359 33.77124869 -29.27685547 31.41064453 C-31.00224126 29.68525874 -32.54347803 27.95536107 -34 26 C-30.89178319 21.240543 -27.74714383 17.71250888 -23.3671875 14.109375 C-21.47980475 12.42754879 -19.82377831 10.75705785 -18.1328125 8.890625 C-17.62564697 8.34301514 -17.11848145 7.79540527 -16.59594727 7.23120117 C-15.59518934 6.14217388 -14.61272749 5.03596174 -13.65209961 3.91137695 C-8.94748161 -1.13232709 -7.93798051 0 0 0 Z " fill="#F3F3F3" transform="translate(84,69)"/>
<path d="M0 0 C5.24422785 2.98909149 8.39940786 6.62595177 10.9765625 12.05859375 C11.43122482 14.60153065 11.1577817 15.66741039 10 18 C6.62951654 22.03091603 2.90184758 25.47727931 -1 29 C-3.97005043 31.89985721 -6.80334255 34.84541959 -9.5 38 C-12.22013939 41.14090169 -15.02044078 44.10557105 -18 47 C-20.63936201 49.25186988 -20.63936201 49.25186988 -21 55 C-11.1 55 -1.2 55 9 55 C9 56.65 9 58.3 9 60 C4.03377651 60.02465098 -0.93241166 60.04283649 -5.89868164 60.05493164 C-7.58944316 60.0599719 -9.28020029 60.06680405 -10.97094727 60.07543945 C-13.39600707 60.08751857 -15.82100944 60.09323123 -18.24609375 60.09765625 C-19.38672523 60.10539818 -19.38672523 60.10539818 -20.55039978 60.11329651 C-22.3673257 60.11349238 -24.18413127 60.06197277 -26 60 C-27.79309961 58.20690039 -27.29807043 55.67624022 -27.375 53.25 C-27.42398438 52.20328125 -27.47296875 51.1565625 -27.5234375 50.078125 C-26.82125723 45.94888579 -25.11108516 44.74051269 -22 42 C-19.64175148 39.44754278 -17.30022051 36.88124744 -14.96411133 34.30859375 C-12.16028032 31.25033549 -9.30295031 28.29411171 -6.29296875 25.4375 C-5.69097656 24.86128906 -5.08898437 24.28507812 -4.46875 23.69140625 C-3.30020327 22.58179938 -2.11946449 21.48486358 -0.92578125 20.40234375 C2.22831651 17.45001224 2.22831651 17.45001224 3.10546875 13.375 C1.72941637 10.41867544 0.6650361 8.91847875 -2 7 C-7.50294793 6.04350566 -14.34325892 5.44986102 -19.31640625 8.3515625 C-21.14464337 10.11509165 -21.14464337 10.11509165 -23 13 C-25.475 12.01 -25.475 12.01 -28 11 C-22.28470205 -0.90467592 -12.5707274 -3.11372339 0 0 Z " fill="#F1F1F1" transform="translate(168,70)"/>
<path d="M0 0 C3.08873876 1.39646764 5.41296102 3.05791173 7.9375 5.3125 C8.63230469 5.92738281 9.32710937 6.54226562 10.04296875 7.17578125 C11.70505908 8.72507503 13.22748414 10.31721931 14.75 12 C16.76297436 14.23529553 16.76297436 14.23529553 19.125 14 C21.15856975 12.91542947 22.49236293 11.73378263 24 10 C25.32 10.66 26.64 11.32 28 12 C28 12.99 28 13.98 28 15 C27.525625 15.45375 27.05125 15.9075 26.5625 16.375 C24.55416651 18.46366683 24.38130476 20.1783448 24 23 C24.5775 23.226875 25.155 23.45375 25.75 23.6875 C28.58972308 25.34400513 29.95224536 27.42567988 32 30 C34.26749444 32.08139338 36.6172185 34.05227692 39 36 C38.34 37.32 37.68 38.64 37 40 C33.51645795 40 33.11572947 39.54964842 30.625 37.3125 C30.01527344 36.7659375 29.40554687 36.219375 28.77734375 35.65625 C25.49314937 32.59581392 22.49634723 29.74452085 20 26 C16.57245533 26.58110671 14.95461339 27.68553624 12.546875 30.16015625 C11.61875 31.1027832 11.61875 31.1027832 10.671875 32.06445312 C9.72054688 33.05348633 9.72054688 33.05348633 8.75 34.0625 C8.1003125 34.72572266 7.450625 35.38894531 6.78125 36.07226562 C5.1805324 37.70829317 3.58723807 39.35090912 2 41 C1.01 40.67 0.02 40.34 -1 40 C-1.86132812 38.12426758 -1.86132812 38.12426758 -2 36 C-0.90429687 34.46362305 -0.90429687 34.46362305 0.78125 33.01171875 C1.37550781 32.46966797 1.96976563 31.92761719 2.58203125 31.36914062 C3.85488525 30.25312505 5.13351341 29.14365906 6.41796875 28.04101562 C8.16961258 26.43185909 9.66524913 24.97051967 11 23 C11.11020524 19.24515006 10.94062654 17.15555464 8.546875 14.21484375 C7.95390625 13.79332031 7.3609375 13.37179688 6.75 12.9375 C3.25638126 10.26506175 0.71521228 7.45572472 -2 4 C-1.34 2.68 -0.68 1.36 0 0 Z " fill="#ECECEC" transform="translate(21,89)"/>
<path d="M0 0 C0.88494141 -0.01224609 1.76988281 -0.02449219 2.68164062 -0.03710938 C3.52791016 -0.03904297 4.37417969 -0.04097656 5.24609375 -0.04296875 C6.02525146 -0.04707764 6.80440918 -0.05118652 7.60717773 -0.05541992 C9.5625 0.1875 9.5625 0.1875 11.5625 2.1875 C12.12031635 5.42283481 12.37153963 7.09794599 11.5625 10.1875 C9.23825203 13.25460688 6.46391891 15.67582393 3.5625 18.1875 C2.675625 19.074375 1.78875 19.96125 0.875 20.875 C0.111875 21.638125 -0.65125 22.40125 -1.4375 23.1875 C-2.283125 24.05375 -3.12875 24.92 -4 25.8125 C-6.06461172 27.82417296 -8.11947272 29.4918606 -10.4375 31.1875 C-10.46215622 26.93335377 -10.48033899 22.67924502 -10.49243164 18.42504883 C-10.49747101 16.97679927 -10.50430253 15.52855483 -10.51293945 14.08032227 C-10.52502247 12.00275412 -10.53073211 9.92525303 -10.53515625 7.84765625 C-10.54039307 6.59605713 -10.54562988 5.34445801 -10.55102539 4.05493164 C-10.31576632 -1.88725725 -4.78469665 0.00346969 0 0 Z " fill="#040404" transform="translate(115.4375,75.8125)"/>
<path d="M0 0 C0.33 0 0.66 0 1 0 C1.04939662 3.95096978 1.08571755 7.9018203 1.10986328 11.85302734 C1.12488107 13.8591136 1.15028981 15.86511324 1.17578125 17.87109375 C1.18222656 19.12792969 1.18867187 20.38476562 1.1953125 21.6796875 C1.20578613 22.84226074 1.21625977 24.00483398 1.22705078 25.20263672 C1 28 1 28 -1 30 C-2.95532227 30.24291992 -2.95532227 30.24291992 -5.31640625 30.23046875 C-6.16267578 30.22853516 -7.00894531 30.22660156 -7.88085938 30.22460938 C-9.20827148 30.20624023 -9.20827148 30.20624023 -10.5625 30.1875 C-11.45130859 30.18685547 -12.34011719 30.18621094 -13.25585938 30.18554688 C-19.85978903 30.14021097 -19.85978903 30.14021097 -21 29 C-21.48930715 25.84668727 -21.75472627 24.02429597 -21 21 C-18.66570538 18.22944157 -15.87992285 16.17750264 -13 14 C-8.95752774 10.15965135 -5.32359653 6.00068547 -1.671875 1.79296875 C-1.12015625 1.20128906 -0.5684375 0.60960938 0 0 Z " fill="#050505" transform="translate(126,94)"/>
<path d="M0 0 C0 6.93 0 13.86 0 21 C-6.6 21 -13.2 21 -20 21 C-18.94673098 16.78692393 -18.21485828 15.83886319 -15.25390625 12.890625 C-14.49916016 12.13652344 -13.74441406 11.38242188 -12.96679688 10.60546875 C-12.17337891 9.82816406 -11.37996094 9.05085938 -10.5625 8.25 C-9.77294922 7.45722656 -8.98339844 6.66445312 -8.16992188 5.84765625 C-2.26690915 0 -2.26690915 0 0 0 Z " fill="#0C0C0C" transform="translate(79,75)"/>
<path d="M0 0 C2.22050056 2.22050056 2.57774742 2.9597814 3 6 C2.67 7.98 2.34 9.96 2 12 C11.9 12 21.8 12 32 12 C32 13.65 32 15.3 32 17 C27.03377651 17.02465098 22.06758834 17.04283649 17.10131836 17.05493164 C15.41055684 17.0599719 13.71979971 17.06680405 12.02905273 17.07543945 C9.60399293 17.08751857 7.17899056 17.09323123 4.75390625 17.09765625 C3.61327477 17.10539818 3.61327477 17.10539818 2.44960022 17.11329651 C0.6326743 17.11349238 -1.18413127 17.06197277 -3 17 C-4.79792975 15.20207025 -4.25670277 12.61614796 -4.3125 10.1875 C-4.34988281 9.12917969 -4.38726562 8.07085937 -4.42578125 6.98046875 C-3.91002237 3.37015662 -2.77702546 2.26215289 0 0 Z " fill="#F9F9F9" transform="translate(145,113)"/>
<path d="M0 0 C-1 3 -1 3 -3 4 C-3 4.33 -3 4.66 -3 5 C-3.78503906 4.99097656 -4.57007813 4.98195313 -5.37890625 4.97265625 C-11.17068545 5.13610523 -15.06518696 5.28277368 -19.25 9.5625 C-20.19713661 10.68327832 -21.12598475 11.82131041 -22 13 C-24.475 12.01 -24.475 12.01 -27 11 C-20.94160177 -1.67775927 -12.7891135 -0.85260757 0 0 Z " fill="#FAFAFA" transform="translate(167,70)"/>
<path d="M0 0 C1.73702602 1.46378597 3.46385753 2.93652888 5.17578125 4.4296875 C6.5602225 5.6214335 7.98959137 6.76122413 9.4375 7.875 C11.99396766 11.35179601 11.60610941 13.75723411 11 18 C8.59140121 20.02829372 7.16955691 21 4 21 C4.05800781 20.40832031 4.11601562 19.81664063 4.17578125 19.20703125 C4.40760282 15.14684211 4.34150112 12.63046361 2.375 9 C-3.02894218 5.79766389 -8.82556948 6.09190627 -15 6 C-15 5.67 -15 5.34 -15 5 C-14.21753906 4.95101562 -13.43507812 4.90203125 -12.62890625 4.8515625 C-11.61699219 4.77679688 -10.60507813 4.70203125 -9.5625 4.625 C-8.55316406 4.55539063 -7.54382813 4.48578125 -6.50390625 4.4140625 C-5.26447266 4.20910156 -5.26447266 4.20910156 -4 4 C-3.67 3.34 -3.34 2.68 -3 2 C-2.34 2 -1.68 2 -1 2 C-0.67 1.34 -0.34 0.68 0 0 Z " fill="#E7E7E7" transform="translate(167,70)"/>
<path d="M0 0 C3.23861303 1.44424635 5.61969163 3.25772247 8.25 5.625 C8.95640625 6.25664063 9.6628125 6.88828125 10.390625 7.5390625 C10.92171875 8.02117187 11.4528125 8.50328125 12 9 C11.525625 9.433125 11.05125 9.86625 10.5625 10.3125 C8.76313043 12.02309613 8.76313043 12.02309613 8 15 C7.61328125 14.54109375 7.2265625 14.0821875 6.828125 13.609375 C3.99804049 10.274919 1.15638645 7.03498697 -2 4 C-1.34 2.68 -0.68 1.36 0 0 Z " fill="#E9E9E9" transform="translate(21,89)"/>
<path d="M0 0 C0 3.51716303 -0.82445585 4.37121748 -3 7 C-1.94729537 8.15811388 -1.94729537 8.15811388 0 9 C-1.09346881 10.34212062 -2.2001575 11.67347975 -3.3125 13 C-4.23482422 14.11375 -4.23482422 14.11375 -5.17578125 15.25 C-7 17 -7 17 -10 17 C-10.83984375 14.89453125 -10.83984375 14.89453125 -11 12 C-9.24987311 9.63984581 -7.62120097 7.73624353 -5.5625 5.6875 C-5.03333984 5.13771484 -4.50417969 4.58792969 -3.95898438 4.02148438 C-2.65261199 2.66803551 -1.32799243 1.332242 0 0 Z " fill="#E9E9E9" transform="translate(157,100)"/>
<path d="M0 0 C1.32 0 2.64 0 4 0 C4 0.99 4 1.98 4 3 C10.27 3 16.54 3 23 3 C23 3.33 23 3.66 23 4 C21.89140625 4.02578125 20.7828125 4.0515625 19.640625 4.078125 C18.17704453 4.13441656 16.71350438 4.19176367 15.25 4.25 C14.15558594 4.27126953 14.15558594 4.27126953 13.0390625 4.29296875 C9.37424151 4.45955152 7.36948928 4.69935965 4.484375 7.046875 C3.74960937 8.01367188 3.74960937 8.01367188 3 9 C1.02 7.35 -0.96 5.7 -3 4 C-2.67 3.34 -2.34 2.68 -2 2 C-1.34 2 -0.68 2 0 2 C0 1.34 0 0.68 0 0 Z " fill="#DBDBDB" transform="translate(55,93)"/>
<path d="M0 0 C1.32 0.66 2.64 1.32 4 2 C4 5 4 5 1.5 7.6875 C0.675 8.450625 -0.15 9.21375 -1 10 C-3.475 9.01 -3.475 9.01 -6 8 C-4.55746343 4.63408134 -2.66735273 2.48952921 0 0 Z " fill="#F0F0F0" transform="translate(146,73)"/>
<path d="M0 0 C0 3.51716303 -0.82445585 4.37121748 -3 7 C-2.01 7.99 -1.02 8.98 0 10 C-2.97 12.475 -2.97 12.475 -6 15 C-6 14.34 -6 13.68 -6 13 C-6.66 13 -7.32 13 -8 13 C-8.33 11.68 -8.66 10.36 -9 9 C-8.38125 8.7525 -7.7625 8.505 -7.125 8.25 C-4.5927804 6.76045906 -4.19281342 5.62418952 -3 3 C-1.375 1.25 -1.375 1.25 0 0 Z " fill="#DBDBDB" transform="translate(123,89)"/>
<path d="M0 0 C0.99 0 1.98 0 3 0 C3 0.99 3 1.98 3 3 C1.02 3.33 -0.96 3.66 -3 4 C-1.6875 2 -1.6875 2 0 0 Z M-4 4 C-2.4375 5.25 -2.4375 5.25 -1 7 C-1.3125 9.1875 -1.3125 9.1875 -2 11 C-3.98 11 -5.96 11 -8 11 C-8 8 -8 8 -6 5.8125 C-5.34 5.214375 -4.68 4.61625 -4 4 Z " fill="#F6F6F6" transform="translate(32,112)"/>
<path d="M0 0 C0.99 0.66 1.98 1.32 3 2 C0.6875 4.5 0.6875 4.5 -2 7 C-2.99 7 -3.98 7 -5 7 C-5.33 7.66 -5.66 8.32 -6 9 C-6.75 7.25 -6.75 7.25 -7 5 C-4.78132865 2.22666082 -3.39379675 1.13126558 0 0 Z " fill="#F7F7F7" transform="translate(160,101)"/>
<path d="M0 0 C0.99 0.33 1.98 0.66 3 1 C2.67 1.66 2.34 2.32 2 3 C2.66 3 3.32 3 4 3 C3.67 3.99 3.34 4.98 3 6 C0.36 6 -2.28 6 -5 6 C-4.34 5.01 -3.68 4.02 -3 3 C-2.34 3 -1.68 3 -1 3 C-0.67 2.01 -0.34 1.02 0 0 Z " fill="#E9E9E9" transform="translate(113,99)"/>
<path d="M0 0 C1.9375 0.8125 1.9375 0.8125 4 2 C4.33 2.99 4.66 3.98 5 5 C4.01 5 3.02 5 2 5 C2 5.66 2 6.32 2 7 C1.01 6.67 0.02 6.34 -1 6 C-1.8125 4.0625 -1.8125 4.0625 -2 2 C-1.34 1.34 -0.68 0.68 0 0 Z " fill="#EFEFEF" transform="translate(21,89)"/>
<path d="M0 0 C2.475 0.495 2.475 0.495 5 1 C5.33 2.65 5.66 4.3 6 6 C4.68 6 3.36 6 2 6 C0 1.125 0 1.125 0 0 Z " fill="#F9F9F9" transform="translate(29,99)"/>
<path d="M0 0 C0 3.84052912 -0.90767691 5.79177126 -3 9 C-6.1875 9.875 -6.1875 9.875 -9 10 C-8.34 9.01 -7.68 8.02 -7 7 C-6.34 7 -5.68 7 -5 7 C-4.731875 6.401875 -4.46375 5.80375 -4.1875 5.1875 C-3.01506533 3.02775192 -1.80630718 1.64209744 0 0 Z " fill="#232323" transform="translate(171,94)"/>
<path d="M0 0 C0.99 0.99 1.98 1.98 3 3 C2.01 3.66 1.02 4.32 0 5 C-0.33 5.99 -0.66 6.98 -1 8 C-1.99 6.68 -2.98 5.36 -4 4 C-2.68 2.68 -1.36 1.36 0 0 Z " fill="#D2D2D2" transform="translate(30,96)"/>
<path d="M0 0 C0.99 0.33 1.98 0.66 3 1 C2.67 2.32 2.34 3.64 2 5 C0.68 4.67 -0.64 4.34 -2 4 C-2 3.01 -2 2.02 -2 1 C-1.34 0.67 -0.68 0.34 0 0 Z " fill="#F7F7F7" transform="translate(44,102)"/>
</svg>
