<svg xmlns="http://www.w3.org/2000/svg" xmlns:xlink="http://www.w3.org/1999/xlink" width="2314" zoomAndPan="magnify" viewBox="0 0 1735.5 490.499985" height="654" preserveAspectRatio="xMidYMid meet" version="1.0"><defs><g/><clipPath id="a872fef7f9"><path d="M 0.632812 0 L 1683 0 L 1683 490 L 0.632812 490 Z M 0.632812 0 " clip-rule="nonzero"/></clipPath><clipPath id="51f65ea3e6"><path d="M 0.632812 26.441406 L 293.191406 26.441406 L 293.191406 317.332031 L 0.632812 317.332031 Z M 0.632812 26.441406 " clip-rule="nonzero"/></clipPath><clipPath id="8f3a42db27"><path d="M 293.191406 171.886719 C 293.191406 91.5625 227.734375 26.441406 146.992188 26.441406 C 66.25 26.441406 0.796875 91.5625 0.796875 171.886719 C 0.796875 252.214844 66.25 317.332031 146.992188 317.332031 C 227.734375 317.332031 293.191406 252.214844 293.191406 171.886719 Z M 293.191406 171.886719 " clip-rule="nonzero"/></clipPath><clipPath id="3eb6e5cccc"><path d="M 1 0.441406 L 293.191406 0.441406 L 293.191406 291.332031 L 1 291.332031 Z M 1 0.441406 " clip-rule="nonzero"/></clipPath><clipPath id="4e49df6d97"><path d="M 293.191406 145.886719 C 293.191406 65.5625 227.734375 0.441406 146.992188 0.441406 C 66.25 0.441406 0.796875 65.5625 0.796875 145.886719 C 0.796875 226.214844 66.25 291.332031 146.992188 291.332031 C 227.734375 291.332031 293.191406 226.214844 293.191406 145.886719 Z M 293.191406 145.886719 " clip-rule="nonzero"/></clipPath><clipPath id="2c4e114483"><rect x="0" width="294" y="0" height="292"/></clipPath><clipPath id="f6fbfbeebb"><path d="M 149 26 L 356 26 L 356 232 L 149 232 Z M 149 26 " clip-rule="nonzero"/></clipPath><clipPath id="9a8a7d1d6e"><path d="M 358.320312 29.417969 L 352.980469 234.40625 L 146.394531 229.027344 L 151.730469 24.039062 Z M 358.320312 29.417969 " clip-rule="nonzero"/></clipPath><clipPath id="d96a8be4f2"><path d="M 355.648438 131.914062 C 357.125 75.308594 312.207031 28.21875 255.324219 26.738281 C 198.441406 25.257812 151.132812 69.941406 149.660156 126.546875 C 148.1875 183.152344 193.105469 230.242188 249.984375 231.722656 C 306.867188 233.203125 354.175781 188.519531 355.648438 131.914062 Z M 355.648438 131.914062 " clip-rule="nonzero"/></clipPath><clipPath id="2f840b5519"><path d="M 0 0 L 207 0 L 207 206 L 0 206 Z M 0 0 " clip-rule="nonzero"/></clipPath><clipPath id="cada2c4476"><path d="M 209.320312 3.417969 L 203.980469 208.40625 L -2.605469 203.027344 L 2.730469 -1.960938 Z M 209.320312 3.417969 " clip-rule="nonzero"/></clipPath><clipPath id="e04ec1db3a"><path d="M 206.648438 105.914062 C 208.125 49.308594 163.207031 2.21875 106.324219 0.738281 C 49.441406 -0.742188 2.132812 43.941406 0.660156 100.546875 C -0.8125 157.152344 44.105469 204.242188 100.984375 205.722656 C 157.867188 207.203125 205.175781 162.519531 206.648438 105.914062 Z M 206.648438 105.914062 " clip-rule="nonzero"/></clipPath><clipPath id="cef7ea93ca"><rect x="0" width="207" y="0" height="206"/></clipPath><clipPath id="a2ec13b30c"><path d="M 149 26 L 356 26 L 356 232 L 149 232 Z M 149 26 " clip-rule="nonzero"/></clipPath><clipPath id="f0d2cba7fa"><path d="M 358.320312 29.417969 L 352.980469 234.433594 L 146.46875 229.054688 L 151.808594 24.042969 Z M 358.320312 29.417969 " clip-rule="nonzero"/></clipPath><clipPath id="8d949de041"><path d="M 358.316406 29.417969 L 352.964844 234.960938 L 141.714844 229.460938 L 147.066406 23.917969 Z M 358.316406 29.417969 " clip-rule="nonzero"/></clipPath><clipPath id="a714f7b2d8"><path d="M 355.648438 131.902344 C 357.121094 75.304688 312.210938 28.21875 255.332031 26.738281 C 198.457031 25.257812 151.152344 69.941406 149.679688 126.539062 C 148.203125 183.140625 193.117188 230.222656 249.996094 231.703125 C 306.871094 233.1875 354.175781 188.503906 355.648438 131.902344 Z M 355.648438 131.902344 " clip-rule="nonzero"/></clipPath><clipPath id="80fc0b9a41"><path d="M 279.355469 16.886719 L 406.140625 16.886719 L 406.140625 142.6875 L 279.355469 142.6875 Z M 279.355469 16.886719 " clip-rule="nonzero"/></clipPath><clipPath id="0b1fd83a1c"><path d="M 406.140625 79.789062 C 406.140625 45.046875 377.839844 16.886719 342.925781 16.886719 C 308.011719 16.886719 279.710938 45.046875 279.710938 79.789062 C 279.710938 114.527344 308.011719 142.6875 342.925781 142.6875 C 377.839844 142.6875 406.140625 114.527344 406.140625 79.789062 Z M 406.140625 79.789062 " clip-rule="nonzero"/></clipPath><clipPath id="e931495748"><path d="M 0.46875 0.886719 L 127.140625 0.886719 L 127.140625 126.6875 L 0.46875 126.6875 Z M 0.46875 0.886719 " clip-rule="nonzero"/></clipPath><clipPath id="6b6c2805d7"><path d="M 127.140625 63.789062 C 127.140625 29.046875 98.839844 0.886719 63.925781 0.886719 C 29.011719 0.886719 0.710938 29.046875 0.710938 63.789062 C 0.710938 98.527344 29.011719 126.6875 63.925781 126.6875 C 98.839844 126.6875 127.140625 98.527344 127.140625 63.789062 Z M 127.140625 63.789062 " clip-rule="nonzero"/></clipPath><clipPath id="23d1eb6d90"><rect x="0" width="128" y="0" height="127"/></clipPath><clipPath id="2759b2e2d1"><path d="M 280.398438 16.886719 L 406.140625 16.886719 L 406.140625 142.628906 L 280.398438 142.628906 Z M 280.398438 16.886719 " clip-rule="nonzero"/></clipPath><clipPath id="074105ed7c"><path d="M 406.140625 79.78125 C 406.140625 45.042969 377.839844 16.886719 342.929688 16.886719 C 308.019531 16.886719 279.71875 45.042969 279.71875 79.78125 C 279.71875 114.515625 308.019531 142.675781 342.929688 142.675781 C 377.839844 142.675781 406.140625 114.515625 406.140625 79.78125 Z M 406.140625 79.78125 " clip-rule="nonzero"/></clipPath><clipPath id="b8da9ae250"><path d="M 0.632812 0 L 442 0 L 442 317 L 0.632812 317 Z M 0.632812 0 " clip-rule="nonzero"/></clipPath><clipPath id="f075e73cab"><rect x="0" width="1683" y="0" height="490"/></clipPath></defs><g clip-path="url(#a872fef7f9)"><g transform="matrix(1, 0, 0, 1, 0.000000000000000111, 0)"><g clip-path="url(#f075e73cab)"><g clip-path="url(#51f65ea3e6)"><g clip-path="url(#8f3a42db27)"><g transform="matrix(1, 0, 0, 1, 0.000000000000000111, 26)"><g clip-path="url(#2c4e114483)"><g clip-path="url(#3eb6e5cccc)"><g clip-path="url(#4e49df6d97)"><path fill="#ffffff" d="M 293.191406 0.441406 L 293.191406 291.332031 L 1.164062 291.332031 L 1.164062 0.441406 Z M 293.191406 0.441406 " fill-opacity="1" fill-rule="nonzero"/></g></g></g></g></g></g><g clip-path="url(#f6fbfbeebb)"><g clip-path="url(#9a8a7d1d6e)"><g clip-path="url(#d96a8be4f2)"><g transform="matrix(1, 0, 0, 1, 149, 26)"><g clip-path="url(#cef7ea93ca)"><g clip-path="url(#2f840b5519)"><g clip-path="url(#cada2c4476)"><g clip-path="url(#e04ec1db3a)"><path fill="#ffffff" d="M 209.320312 3.417969 L 203.980469 208.40625 L -1.804688 203.046875 L 3.53125 -1.9375 Z M 209.320312 3.417969 " fill-opacity="1" fill-rule="nonzero"/></g></g></g></g></g></g></g></g><g clip-path="url(#a2ec13b30c)"><g clip-path="url(#f0d2cba7fa)"><g clip-path="url(#8d949de041)"><g clip-path="url(#a714f7b2d8)"><path stroke-linecap="butt" transform="matrix(-0.0389694, 1.496449, -1.496449, -0.0389694, 358.317366, 29.419831)" fill="none" stroke-linejoin="miter" d="M 68.483798 0.000104367 C 30.662515 0.000917048 -0.000275579 30.810563 0.00021095 68.8198 C 0.000629548 106.826428 30.662782 137.639239 68.484066 137.638426 C 106.308026 137.640154 136.96814 106.827967 136.967653 68.818731 C 136.969843 30.812034 106.30769 -0.000776244 68.483798 0.000104367 Z M 68.483798 0.000104367 " stroke="#070f2b" stroke-width="3.003038" stroke-opacity="1" stroke-miterlimit="4"/></g></g></g></g><g clip-path="url(#80fc0b9a41)"><g clip-path="url(#0b1fd83a1c)"><g transform="matrix(1, 0, 0, 1, 279, 16)"><g clip-path="url(#23d1eb6d90)"><g clip-path="url(#e931495748)"><g clip-path="url(#6b6c2805d7)"><path fill="#ffffff" d="M 127.140625 0.886719 L 127.140625 126.6875 L 0.847656 126.6875 L 0.847656 0.886719 Z M 127.140625 0.886719 " fill-opacity="1" fill-rule="nonzero"/></g></g></g></g></g></g><g clip-path="url(#2759b2e2d1)"><g clip-path="url(#074105ed7c)"><path stroke-linecap="butt" transform="matrix(0, 1.496956, -1.496956, 0, 406.139508, 16.885307)" fill="none" stroke-linejoin="miter" d="M 42.015883 -0.000746062 C 18.809942 -0.000746062 0.000942922 18.904803 0.000942922 42.22556 C 0.000942922 65.546318 18.809942 84.451867 42.015883 84.451867 C 65.219215 84.451867 84.030823 65.546318 84.030823 42.22556 C 84.030823 18.904803 65.219215 -0.000746062 42.015883 -0.000746062 Z M 42.015883 -0.000746062 " stroke="#070f2b" stroke-width="3.003038" stroke-opacity="1" stroke-miterlimit="4"/></g></g><g fill="#ffffff" fill-opacity="1"><g transform="translate(465.778869, 238.315453)"><g><path d="M 2.265625 0 L 73.1875 -176.046875 L 99.59375 -176.046875 L 170.5 0 L 144.09375 0 L 125.234375 -47.03125 L 47.53125 -47.03125 L 28.671875 0 Z M 56.078125 -69.15625 L 116.6875 -69.15625 L 86.515625 -144.859375 Z M 56.078125 -69.15625 "/></g></g></g><g fill="#ffffff" fill-opacity="1"><g transform="translate(638.55156, 238.315453)"><g><path d="M 16.59375 0 L 16.59375 -176.046875 L 40.484375 -176.046875 L 40.484375 0 Z M 16.59375 0 "/></g></g></g><g fill="#ffffff" fill-opacity="1"><g transform="translate(695.639491, 238.315453)"><g><path d="M 17.859375 50.296875 L 17.859375 -125.75 L 40.234375 -125.75 L 41.5 -105.375 C 46.019531 -112.75 51.800781 -118.488281 58.84375 -122.59375 C 65.882812 -126.707031 73.929688 -128.765625 82.984375 -128.765625 C 94.222656 -128.765625 104.113281 -125.992188 112.65625 -120.453125 C 121.207031 -114.921875 127.875 -107.25 132.65625 -97.4375 C 137.4375 -87.632812 139.828125 -76.113281 139.828125 -62.875 C 139.828125 -49.789062 137.4375 -38.300781 132.65625 -28.40625 C 127.875 -18.519531 121.207031 -10.8125 112.65625 -5.28125 C 104.113281 0.25 94.222656 3.015625 82.984375 3.015625 C 73.929688 3.015625 65.925781 0.960938 58.96875 -3.140625 C 52.007812 -7.253906 46.269531 -12.914062 41.75 -20.125 L 41.75 50.296875 Z M 77.203125 -18.609375 C 84.742188 -18.609375 91.363281 -20.492188 97.0625 -24.265625 C 102.769531 -28.035156 107.257812 -33.234375 110.53125 -39.859375 C 113.800781 -46.484375 115.4375 -54.15625 115.4375 -62.875 C 115.4375 -71.59375 113.84375 -79.257812 110.65625 -85.875 C 107.46875 -92.5 103.023438 -97.695312 97.328125 -101.46875 C 91.628906 -105.238281 85.003906 -107.125 77.453125 -107.125 C 70.578125 -107.125 64.414062 -105.238281 58.96875 -101.46875 C 53.519531 -97.695312 49.285156 -92.457031 46.265625 -85.75 C 43.253906 -79.050781 41.75 -71.425781 41.75 -62.875 C 41.75 -54.15625 43.253906 -46.484375 46.265625 -39.859375 C 49.285156 -33.234375 53.476562 -28.035156 58.84375 -24.265625 C 64.207031 -20.492188 70.328125 -18.609375 77.203125 -18.609375 Z M 77.203125 -18.609375 "/></g></g></g><g fill="#ffffff" fill-opacity="1"><g transform="translate(845.023747, 238.315453)"><g><path d="M 16.84375 0 L 16.84375 -176.046875 L 40.484375 -176.046875 L 40.484375 -107.890625 C 44.679688 -114.597656 50.046875 -119.753906 56.578125 -123.359375 C 63.117188 -126.960938 70.664062 -128.765625 79.21875 -128.765625 C 89.113281 -128.765625 97.664062 -126.75 104.875 -122.71875 C 112.082031 -118.695312 117.695312 -112.453125 121.71875 -103.984375 C 125.738281 -95.515625 127.664062 -84.410156 127.5 -70.671875 L 127.5 0 L 103.859375 0 L 103.859375 -64.375 C 103.859375 -75.78125 102.515625 -84.457031 99.828125 -90.40625 C 97.148438 -96.363281 93.503906 -100.515625 88.890625 -102.859375 C 84.285156 -105.203125 79.050781 -106.457031 73.1875 -106.625 C 62.789062 -106.625 54.738281 -103.019531 49.03125 -95.8125 C 43.332031 -88.601562 40.484375 -78.460938 40.484375 -65.390625 L 40.484375 0 Z M 16.84375 0 "/></g></g><g transform="translate(986.108889, 238.315453)"><g><path d="M 56.828125 3.015625 C 41.910156 3.015625 30.300781 -0.378906 22 -7.171875 C 13.707031 -13.960938 9.5625 -23.390625 9.5625 -35.453125 C 9.5625 -48.367188 13.875 -58.21875 22.5 -65 C 31.132812 -71.789062 43.164062 -75.1875 58.59375 -75.1875 L 92.296875 -75.1875 C 91.285156 -85.914062 88.472656 -94.003906 83.859375 -99.453125 C 79.253906 -104.910156 72.34375 -107.640625 63.125 -107.640625 C 56.582031 -107.640625 50.921875 -106.296875 46.140625 -103.609375 C 41.367188 -100.929688 37.390625 -96.738281 34.203125 -91.03125 L 13.078125 -99.078125 C 16.097656 -104.785156 19.867188 -109.859375 24.390625 -114.296875 C 28.921875 -118.742188 34.367188 -122.265625 40.734375 -124.859375 C 47.109375 -127.460938 54.570312 -128.765625 63.125 -128.765625 C 75.03125 -128.765625 84.921875 -126.414062 92.796875 -121.71875 C 100.679688 -117.019531 106.59375 -110.226562 110.53125 -101.34375 C 114.46875 -92.457031 116.351562 -81.476562 116.1875 -68.40625 L 115.9375 0 L 93.796875 0 L 93.046875 -16.09375 C 89.359375 -10.0625 84.492188 -5.367188 78.453125 -2.015625 C 72.421875 1.335938 65.210938 3.015625 56.828125 3.015625 Z M 58.84375 -17.359375 C 65.71875 -17.359375 71.671875 -18.820312 76.703125 -21.75 C 81.734375 -24.6875 85.671875 -28.796875 88.515625 -34.078125 C 91.367188 -39.359375 92.796875 -45.4375 92.796875 -52.3125 L 92.796875 -56.328125 L 65.140625 -56.328125 C 53.566406 -56.328125 45.429688 -54.523438 40.734375 -50.921875 C 36.046875 -47.316406 33.703125 -42.332031 33.703125 -35.96875 C 33.703125 -30.09375 35.921875 -25.519531 40.359375 -22.25 C 44.804688 -18.988281 50.96875 -17.359375 58.84375 -17.359375 Z M 58.84375 -17.359375 "/></g></g></g><g fill="#ffffff" fill-opacity="1"><g transform="translate(1115.877026, 238.315453)"><g><path d="M 22.375 0 L 22.375 -176.046875 L 76.703125 -176.046875 C 93.460938 -176.046875 108.335938 -172.3125 121.328125 -164.84375 C 134.328125 -157.382812 144.515625 -147.03125 151.890625 -133.78125 C 159.273438 -120.539062 162.96875 -105.285156 162.96875 -88.015625 C 162.96875 -70.921875 159.273438 -55.75 151.890625 -42.5 C 144.515625 -29.257812 134.328125 -18.863281 121.328125 -11.3125 C 108.335938 -3.769531 93.460938 0 76.703125 0 Z M 47.03125 -23.140625 L 76.703125 -23.140625 C 85.253906 -23.140625 93.21875 -24.769531 100.59375 -28.03125 C 107.96875 -31.300781 114.460938 -35.910156 120.078125 -41.859375 C 125.703125 -47.816406 130.0625 -54.734375 133.15625 -62.609375 C 136.257812 -70.492188 137.8125 -78.960938 137.8125 -88.015625 C 137.8125 -97.066406 136.257812 -105.53125 133.15625 -113.40625 C 130.0625 -121.289062 125.703125 -128.207031 120.078125 -134.15625 C 114.460938 -140.113281 107.96875 -144.726562 100.59375 -148 C 93.21875 -151.269531 85.253906 -152.90625 76.703125 -152.90625 L 47.03125 -152.90625 Z M 47.03125 -23.140625 "/></g></g></g><g fill="#ffffff" fill-opacity="1"><g transform="translate(1289.655623, 238.315453)"><g><path d="M 72.171875 3.015625 C 59.929688 3.015625 49.117188 0.207031 39.734375 -5.40625 C 30.347656 -11.019531 22.972656 -18.769531 17.609375 -28.65625 C 12.242188 -38.550781 9.5625 -49.957031 9.5625 -62.875 C 9.5625 -75.78125 12.242188 -87.175781 17.609375 -97.0625 C 22.972656 -106.957031 30.390625 -114.710938 39.859375 -120.328125 C 49.328125 -125.953125 60.179688 -128.765625 72.421875 -128.765625 C 83.992188 -128.765625 94.140625 -125.867188 102.859375 -120.078125 C 111.578125 -114.296875 118.40625 -106.082031 123.34375 -95.4375 C 128.289062 -84.789062 130.765625 -72.257812 130.765625 -57.84375 L 33.953125 -57.84375 C 34.785156 -45.4375 38.929688 -35.753906 46.390625 -28.796875 C 53.859375 -21.835938 63.039062 -18.359375 73.9375 -18.359375 C 82.320312 -18.359375 89.320312 -20.328125 94.9375 -24.265625 C 100.550781 -28.203125 104.953125 -33.191406 108.140625 -39.234375 L 128.765625 -29.671875 C 125.410156 -23.140625 121.050781 -17.398438 115.6875 -12.453125 C 110.320312 -7.503906 103.988281 -3.6875 96.6875 -1 C 89.394531 1.675781 81.222656 3.015625 72.171875 3.015625 Z M 35.453125 -76.703125 L 105.125 -76.703125 C 104.613281 -83.410156 102.804688 -89.066406 99.703125 -93.671875 C 96.609375 -98.285156 92.671875 -101.847656 87.890625 -104.359375 C 83.109375 -106.878906 77.785156 -108.140625 71.921875 -108.140625 C 66.222656 -108.140625 60.691406 -106.921875 55.328125 -104.484375 C 49.960938 -102.054688 45.476562 -98.492188 41.875 -93.796875 C 38.269531 -89.109375 36.128906 -83.410156 35.453125 -76.703125 Z M 35.453125 -76.703125 "/></g></g></g><g fill="#ffffff" fill-opacity="1"><g transform="translate(1423.447559, 238.315453)"><g><path d="M 54.578125 0 L 2.265625 -125.75 L 26.65625 -125.75 L 66.640625 -27.40625 L 106.375 -125.75 L 131.28125 -125.75 L 78.71875 0 Z M 54.578125 0 "/></g></g></g><g fill="#ffffff" fill-opacity="1"><g transform="translate(1556.736611, 238.315453)"><g><path d="M 61.609375 3.015625 C 52.722656 3.015625 44.800781 1.675781 37.84375 -1 C 30.882812 -3.6875 25.015625 -7.289062 20.234375 -11.8125 C 15.460938 -16.34375 11.90625 -21.457031 9.5625 -27.15625 L 30.171875 -36.21875 C 32.859375 -31.019531 36.882812 -26.742188 42.25 -23.390625 C 47.613281 -20.035156 53.566406 -18.359375 60.109375 -18.359375 C 67.316406 -18.359375 73.265625 -19.695312 77.953125 -22.375 C 82.648438 -25.0625 85 -28.835938 85 -33.703125 C 85 -38.390625 83.238281 -42.070312 79.71875 -44.75 C 76.195312 -47.4375 71.082031 -49.617188 64.375 -51.296875 L 52.5625 -54.328125 C 40.820312 -57.503906 31.722656 -62.28125 25.265625 -68.65625 C 18.816406 -75.03125 15.59375 -82.238281 15.59375 -90.28125 C 15.59375 -102.519531 19.53125 -111.992188 27.40625 -118.703125 C 35.289062 -125.410156 46.945312 -128.765625 62.375 -128.765625 C 69.914062 -128.765625 76.828125 -127.671875 83.109375 -125.484375 C 89.398438 -123.304688 94.765625 -120.207031 99.203125 -116.1875 C 103.648438 -112.164062 106.796875 -107.382812 108.640625 -101.84375 L 88.515625 -92.796875 C 86.503906 -97.828125 83.066406 -101.554688 78.203125 -103.984375 C 73.347656 -106.421875 67.648438 -107.640625 61.109375 -107.640625 C 54.398438 -107.640625 49.117188 -106.171875 45.265625 -103.234375 C 41.410156 -100.296875 39.484375 -96.226562 39.484375 -91.03125 C 39.484375 -88.1875 41.117188 -85.460938 44.390625 -82.859375 C 47.660156 -80.265625 52.476562 -78.128906 58.84375 -76.453125 L 72.421875 -73.1875 C 80.640625 -71.175781 87.429688 -68.113281 92.796875 -64 C 98.160156 -59.894531 102.179688 -55.285156 104.859375 -50.171875 C 107.546875 -45.054688 108.890625 -39.734375 108.890625 -34.203125 C 108.890625 -26.660156 106.832031 -20.078125 102.71875 -14.453125 C 98.613281 -8.835938 93 -4.519531 85.875 -1.5 C 78.75 1.507812 70.660156 3.015625 61.609375 3.015625 Z M 61.609375 3.015625 "/></g></g></g><g fill="#ffffff" fill-opacity="1"><g transform="translate(1355.635984, 448.887359)"><g><path d="M 15.765625 0 L 15.765625 -110.371094 L 25.859375 -110.371094 L 25.859375 -9.144531 L 79.308594 -9.144531 L 79.308594 0 Z M 15.765625 0 "/></g></g></g><g fill="#ffffff" fill-opacity="1"><g transform="translate(1436.521491, 448.887359)"><g><path d="M 36.582031 1.890625 C 27.332031 1.890625 20.101562 -0.238281 14.898438 -4.492188 C 9.695312 -8.75 7.09375 -14.664062 7.09375 -22.230469 C 7.09375 -30.011719 9.695312 -36.054688 14.898438 -40.363281 C 20.101562 -44.675781 27.332031 -46.828125 36.582031 -46.828125 L 59.917969 -46.828125 C 59.496094 -55.238281 57.550781 -61.546875 54.082031 -65.75 C 50.613281 -69.953125 45.304688 -72.058594 38.15625 -72.058594 C 33.425781 -72.058594 29.457031 -71.109375 26.253906 -69.21875 C 23.046875 -67.328125 20.390625 -64.382812 18.289062 -60.390625 L 9.777344 -64.171875 C 11.984375 -67.957031 14.480469 -71.058594 17.265625 -73.476562 C 20.050781 -75.894531 23.179688 -77.707031 26.648438 -78.917969 C 30.117188 -80.125 33.953125 -80.730469 38.15625 -80.730469 C 45.199219 -80.730469 51.035156 -79.308594 55.660156 -76.472656 C 60.285156 -73.632812 63.753906 -69.375 66.066406 -63.699219 C 68.378906 -58.023438 69.535156 -50.875 69.535156 -42.257812 L 69.535156 0 L 60.863281 0 L 60.074219 -11.039062 C 57.65625 -6.9375 54.449219 -3.757812 50.457031 -1.496094 C 46.460938 0.761719 41.835938 1.890625 36.582031 1.890625 Z M 35.949219 -6.78125 C 40.996094 -6.78125 45.332031 -7.804688 48.957031 -9.855469 C 52.585938 -11.90625 55.34375 -14.925781 57.234375 -18.921875 C 59.128906 -22.914062 60.074219 -27.855469 60.074219 -33.742188 L 60.074219 -38.15625 L 37.84375 -38.15625 C 30.273438 -38.15625 24.832031 -36.765625 21.523438 -33.980469 C 18.210938 -31.191406 16.554688 -27.277344 16.554688 -22.230469 C 16.554688 -17.398438 18.265625 -13.613281 21.679688 -10.878906 C 25.097656 -8.148438 29.851562 -6.78125 35.949219 -6.78125 Z M 35.949219 -6.78125 "/></g></g></g><g fill="#ffffff" fill-opacity="1"><g transform="translate(1515.514924, 448.887359)"><g><path d="M 49.035156 1.890625 C 43.046875 1.890625 37.683594 0.445312 32.953125 -2.445312 C 28.222656 -5.335938 24.335938 -9.304688 21.285156 -14.347656 L 20.8125 0 L 11.824219 0 L 11.824219 -110.371094 L 21.285156 -110.371094 L 21.285156 -64.488281 C 24.335938 -69.535156 28.222656 -73.503906 32.953125 -76.394531 C 37.683594 -79.285156 43.046875 -80.730469 49.035156 -80.730469 C 55.972656 -80.730469 62.125 -78.96875 67.484375 -75.445312 C 72.84375 -71.925781 77.050781 -67.0625 80.097656 -60.863281 C 83.148438 -54.660156 84.671875 -47.511719 84.671875 -39.417969 C 84.671875 -31.429688 83.148438 -24.308594 80.097656 -18.054688 C 77.050781 -11.800781 72.84375 -6.910156 67.484375 -3.390625 C 62.125 0.132812 55.972656 1.890625 49.035156 1.890625 Z M 47.144531 -6.621094 C 52.609375 -6.621094 57.445312 -8.015625 61.652344 -10.800781 C 65.855469 -13.585938 69.167969 -17.449219 71.585938 -22.390625 C 74 -27.332031 75.210938 -33.007812 75.210938 -39.417969 C 75.210938 -45.832031 74.027344 -51.507812 71.664062 -56.449219 C 69.296875 -61.386719 66.011719 -65.25 61.808594 -68.035156 C 57.605469 -70.820312 52.769531 -72.214844 47.300781 -72.214844 C 42.257812 -72.214844 37.761719 -70.820312 33.820312 -68.035156 C 29.878906 -65.25 26.804688 -61.386719 24.597656 -56.449219 C 22.390625 -51.507812 21.285156 -45.832031 21.285156 -39.417969 C 21.285156 -33.007812 22.390625 -27.332031 24.597656 -22.390625 C 26.804688 -17.449219 29.851562 -13.585938 33.742188 -10.800781 C 37.632812 -8.015625 42.097656 -6.621094 47.144531 -6.621094 Z M 47.144531 -6.621094 "/></g></g></g><g fill="#ffffff" fill-opacity="1"><g transform="translate(1607.279769, 448.887359)"><g><path d="M 38.628906 1.890625 C 32.636719 1.890625 27.488281 1 23.179688 -0.789062 C 18.867188 -2.574219 15.375 -4.886719 12.691406 -7.726562 C 10.011719 -10.5625 8.148438 -13.507812 7.09375 -16.554688 L 15.609375 -19.710938 C 17.398438 -15.820312 20.261719 -12.691406 24.203125 -10.328125 C 28.144531 -7.960938 32.375 -6.78125 36.894531 -6.78125 C 42.46875 -6.78125 47.195312 -7.9375 51.085938 -10.25 C 54.976562 -12.5625 56.921875 -15.820312 56.921875 -20.023438 C 56.921875 -23.808594 55.5 -26.910156 52.664062 -29.328125 C 49.824219 -31.746094 45.621094 -33.691406 40.050781 -35.160156 L 32.324219 -37.210938 C 25.28125 -39.101562 19.839844 -41.863281 16.003906 -45.488281 C 12.167969 -49.117188 10.25 -53.1875 10.25 -57.707031 C 10.25 -64.960938 12.640625 -70.613281 17.421875 -74.660156 C 22.207031 -78.707031 29.433594 -80.730469 39.101562 -80.730469 C 43.625 -80.730469 47.695312 -80.074219 51.324219 -78.757812 C 54.949219 -77.445312 58.050781 -75.578125 60.625 -73.160156 C 63.199219 -70.742188 65.121094 -67.851562 66.382812 -64.488281 L 57.867188 -60.863281 C 56.183594 -64.960938 53.714844 -67.851562 50.457031 -69.535156 C 47.195312 -71.214844 42.941406 -72.058594 37.683594 -72.058594 C 32.113281 -72.058594 27.722656 -70.875 24.519531 -68.507812 C 21.3125 -66.144531 19.710938 -62.808594 19.710938 -58.496094 C 19.710938 -56.183594 20.996094 -53.898438 23.574219 -51.636719 C 26.148438 -49.378906 30.011719 -47.566406 35.160156 -46.199219 L 41.941406 -44.464844 C 47.09375 -43.203125 51.480469 -41.390625 55.105469 -39.023438 C 58.734375 -36.660156 61.519531 -33.953125 63.464844 -30.902344 C 65.410156 -27.855469 66.382812 -24.492188 66.382812 -20.8125 C 66.382812 -16.082031 65.171875 -12.007812 62.753906 -8.59375 C 60.335938 -5.175781 57.050781 -2.574219 52.898438 -0.789062 C 48.746094 1 43.992188 1.890625 38.628906 1.890625 Z M 38.628906 1.890625 "/></g></g></g><g clip-path="url(#b8da9ae250)"><path stroke-linecap="butt" transform="matrix(1.275312, -0.783873, 0.783873, 1.275312, 8.612077, 254.884681)" fill="none" stroke-linejoin="miter" d="M 1.908937 3.119919 C 86.555097 58.158751 182.973639 58.160148 291.165071 3.118298 " stroke="#070f2b" stroke-width="7" stroke-opacity="1" stroke-miterlimit="4"/></g></g></g></g></svg>